<?xml version="1.0" encoding="utf-8" standalone="no"?>
<!DOCTYPE svg PUBLIC "-//W3C//DTD SVG 1.1//EN"
  "http://www.w3.org/Graphics/SVG/1.1/DTD/svg11.dtd">
<svg xmlns:xlink="http://www.w3.org/1999/xlink" width="785.314026pt" height="298.332pt" viewBox="0 0 785.314026 298.332" xmlns="http://www.w3.org/2000/svg" version="1.1">
 <metadata>
  <rdf:RDF xmlns:dc="http://purl.org/dc/elements/1.1/" xmlns:cc="http://creativecommons.org/ns#" xmlns:rdf="http://www.w3.org/1999/02/22-rdf-syntax-ns#">
   <cc:Work>
    <dc:type rdf:resource="http://purl.org/dc/dcmitype/StillImage"/>
    <dc:date>2026-06-13T13:20:30.722529</dc:date>
    <dc:format>image/svg+xml</dc:format>
    <dc:creator>
     <cc:Agent>
      <dc:title>Matplotlib v3.10.0, https://matplotlib.org/</dc:title>
     </cc:Agent>
    </dc:creator>
   </cc:Work>
  </rdf:RDF>
 </metadata>
 <defs>
  <style type="text/css">*{stroke-linejoin: round; stroke-linecap: butt}</style>
 </defs>
 <g id="figure_1">
  <g id="patch_1">
   <path d="M 0 298.332 
L 785.314026 298.332 
L 785.314026 -0 
L 0 -0 
L 0 298.332 
z
" style="fill: none"/>
  </g>
  <g id="axes_1">
   <g id="patch_2">
    <path d="M 61.386562 273.002156 
L 360.872156 273.002156 
L 360.872156 55.695281 
L 61.386562 55.695281 
L 61.386562 273.002156 
z
" style="fill: none"/>
   </g>
   <g id="matplotlib.axis_1">
    <g id="xtick_1">
     <g id="line2d_1">
      <path d="M 61.386562 273.002156 
L 61.386562 55.695281 
" clip-path="url(#p4321443279)" style="fill: none; stroke: #e9edf1; stroke-width: 0.9; stroke-linecap: square"/>
     </g>
     <g id="line2d_2">
      <defs>
       <path id="m814584ddbc" d="M 0 0 
L 0 3.5 
" style="stroke: #000000; stroke-width: 0.8"/>
      </defs>
      <g>
       <use xlink:href="#m814584ddbc" x="61.386562" y="273.002156" style="stroke: #000000; stroke-width: 0.8"/>
      </g>
     </g>
     <g id="text_1">
      <!-- 0 -->
      <g transform="translate(57.728125 288.740359) scale(0.115 -0.115)">
       <defs>
        <path id="DejaVuSans-30" d="M 2034 4250 
Q 1547 4250 1301 3770 
Q 1056 3291 1056 2328 
Q 1056 1369 1301 889 
Q 1547 409 2034 409 
Q 2525 409 2770 889 
Q 3016 1369 3016 2328 
Q 3016 3291 2770 3770 
Q 2525 4250 2034 4250 
z
M 2034 4750 
Q 2819 4750 3233 4129 
Q 3647 3509 3647 2328 
Q 3647 1150 3233 529 
Q 2819 -91 2034 -91 
Q 1250 -91 836 529 
Q 422 1150 422 2328 
Q 422 3509 836 4129 
Q 1250 4750 2034 4750 
z
" transform="scale(0.015625)"/>
       </defs>
       <use xlink:href="#DejaVuSans-30"/>
      </g>
     </g>
    </g>
    <g id="xtick_2">
     <g id="line2d_3">
      <path d="M 103.704719 273.002156 
L 103.704719 55.695281 
" clip-path="url(#p4321443279)" style="fill: none; stroke: #e9edf1; stroke-width: 0.9; stroke-linecap: square"/>
     </g>
     <g id="line2d_4">
      <g>
       <use xlink:href="#m814584ddbc" x="103.704719" y="273.002156" style="stroke: #000000; stroke-width: 0.8"/>
      </g>
     </g>
     <g id="text_2">
      <!-- 50 -->
      <g transform="translate(96.387844 288.740359) scale(0.115 -0.115)">
       <defs>
        <path id="DejaVuSans-35" d="M 691 4666 
L 3169 4666 
L 3169 4134 
L 1269 4134 
L 1269 2991 
Q 1406 3038 1543 3061 
Q 1681 3084 1819 3084 
Q 2600 3084 3056 2656 
Q 3513 2228 3513 1497 
Q 3513 744 3044 326 
Q 2575 -91 1722 -91 
Q 1428 -91 1123 -41 
Q 819 9 494 109 
L 494 744 
Q 775 591 1075 516 
Q 1375 441 1709 441 
Q 2250 441 2565 725 
Q 2881 1009 2881 1497 
Q 2881 1984 2565 2268 
Q 2250 2553 1709 2553 
Q 1456 2553 1204 2497 
Q 953 2441 691 2322 
L 691 4666 
z
" transform="scale(0.015625)"/>
       </defs>
       <use xlink:href="#DejaVuSans-35"/>
       <use xlink:href="#DejaVuSans-30" transform="translate(63.623047 0)"/>
      </g>
     </g>
    </g>
    <g id="xtick_3">
     <g id="line2d_5">
      <path d="M 146.022875 273.002156 
L 146.022875 55.695281 
" clip-path="url(#p4321443279)" style="fill: none; stroke: #e9edf1; stroke-width: 0.9; stroke-linecap: square"/>
     </g>
     <g id="line2d_6">
      <g>
       <use xlink:href="#m814584ddbc" x="146.022875" y="273.002156" style="stroke: #000000; stroke-width: 0.8"/>
      </g>
     </g>
     <g id="text_3">
      <!-- 100 -->
      <g transform="translate(135.047563 288.740359) scale(0.115 -0.115)">
       <defs>
        <path id="DejaVuSans-31" d="M 794 531 
L 1825 531 
L 1825 4091 
L 703 3866 
L 703 4441 
L 1819 4666 
L 2450 4666 
L 2450 531 
L 3481 531 
L 3481 0 
L 794 0 
L 794 531 
z
" transform="scale(0.015625)"/>
       </defs>
       <use xlink:href="#DejaVuSans-31"/>
       <use xlink:href="#DejaVuSans-30" transform="translate(63.623047 0)"/>
       <use xlink:href="#DejaVuSans-30" transform="translate(127.246094 0)"/>
      </g>
     </g>
    </g>
    <g id="xtick_4">
     <g id="line2d_7">
      <path d="M 188.341032 273.002156 
L 188.341032 55.695281 
" clip-path="url(#p4321443279)" style="fill: none; stroke: #e9edf1; stroke-width: 0.9; stroke-linecap: square"/>
     </g>
     <g id="line2d_8">
      <g>
       <use xlink:href="#m814584ddbc" x="188.341032" y="273.002156" style="stroke: #000000; stroke-width: 0.8"/>
      </g>
     </g>
     <g id="text_4">
      <!-- 150 -->
      <g transform="translate(177.365719 288.740359) scale(0.115 -0.115)">
       <use xlink:href="#DejaVuSans-31"/>
       <use xlink:href="#DejaVuSans-35" transform="translate(63.623047 0)"/>
       <use xlink:href="#DejaVuSans-30" transform="translate(127.246094 0)"/>
      </g>
     </g>
    </g>
    <g id="xtick_5">
     <g id="line2d_9">
      <path d="M 230.659188 273.002156 
L 230.659188 55.695281 
" clip-path="url(#p4321443279)" style="fill: none; stroke: #e9edf1; stroke-width: 0.9; stroke-linecap: square"/>
     </g>
     <g id="line2d_10">
      <g>
       <use xlink:href="#m814584ddbc" x="230.659188" y="273.002156" style="stroke: #000000; stroke-width: 0.8"/>
      </g>
     </g>
     <g id="text_5">
      <!-- 200 -->
      <g transform="translate(219.683876 288.740359) scale(0.115 -0.115)">
       <defs>
        <path id="DejaVuSans-32" d="M 1228 531 
L 3431 531 
L 3431 0 
L 469 0 
L 469 531 
Q 828 903 1448 1529 
Q 2069 2156 2228 2338 
Q 2531 2678 2651 2914 
Q 2772 3150 2772 3378 
Q 2772 3750 2511 3984 
Q 2250 4219 1831 4219 
Q 1534 4219 1204 4116 
Q 875 4013 500 3803 
L 500 4441 
Q 881 4594 1212 4672 
Q 1544 4750 1819 4750 
Q 2544 4750 2975 4387 
Q 3406 4025 3406 3419 
Q 3406 3131 3298 2873 
Q 3191 2616 2906 2266 
Q 2828 2175 2409 1742 
Q 1991 1309 1228 531 
z
" transform="scale(0.015625)"/>
       </defs>
       <use xlink:href="#DejaVuSans-32"/>
       <use xlink:href="#DejaVuSans-30" transform="translate(63.623047 0)"/>
       <use xlink:href="#DejaVuSans-30" transform="translate(127.246094 0)"/>
      </g>
     </g>
    </g>
    <g id="xtick_6">
     <g id="line2d_11">
      <path d="M 272.977345 273.002156 
L 272.977345 55.695281 
" clip-path="url(#p4321443279)" style="fill: none; stroke: #e9edf1; stroke-width: 0.9; stroke-linecap: square"/>
     </g>
     <g id="line2d_12">
      <g>
       <use xlink:href="#m814584ddbc" x="272.977345" y="273.002156" style="stroke: #000000; stroke-width: 0.8"/>
      </g>
     </g>
     <g id="text_6">
      <!-- 250 -->
      <g transform="translate(262.002032 288.740359) scale(0.115 -0.115)">
       <use xlink:href="#DejaVuSans-32"/>
       <use xlink:href="#DejaVuSans-35" transform="translate(63.623047 0)"/>
       <use xlink:href="#DejaVuSans-30" transform="translate(127.246094 0)"/>
      </g>
     </g>
    </g>
    <g id="xtick_7">
     <g id="line2d_13">
      <path d="M 315.295501 273.002156 
L 315.295501 55.695281 
" clip-path="url(#p4321443279)" style="fill: none; stroke: #e9edf1; stroke-width: 0.9; stroke-linecap: square"/>
     </g>
     <g id="line2d_14">
      <g>
       <use xlink:href="#m814584ddbc" x="315.295501" y="273.002156" style="stroke: #000000; stroke-width: 0.8"/>
      </g>
     </g>
     <g id="text_7">
      <!-- 300 -->
      <g transform="translate(304.320189 288.740359) scale(0.115 -0.115)">
       <defs>
        <path id="DejaVuSans-33" d="M 2597 2516 
Q 3050 2419 3304 2112 
Q 3559 1806 3559 1356 
Q 3559 666 3084 287 
Q 2609 -91 1734 -91 
Q 1441 -91 1130 -33 
Q 819 25 488 141 
L 488 750 
Q 750 597 1062 519 
Q 1375 441 1716 441 
Q 2309 441 2620 675 
Q 2931 909 2931 1356 
Q 2931 1769 2642 2001 
Q 2353 2234 1838 2234 
L 1294 2234 
L 1294 2753 
L 1863 2753 
Q 2328 2753 2575 2939 
Q 2822 3125 2822 3475 
Q 2822 3834 2567 4026 
Q 2313 4219 1838 4219 
Q 1578 4219 1281 4162 
Q 984 4106 628 3988 
L 628 4550 
Q 988 4650 1302 4700 
Q 1616 4750 1894 4750 
Q 2613 4750 3031 4423 
Q 3450 4097 3450 3541 
Q 3450 3153 3228 2886 
Q 3006 2619 2597 2516 
z
" transform="scale(0.015625)"/>
       </defs>
       <use xlink:href="#DejaVuSans-33"/>
       <use xlink:href="#DejaVuSans-30" transform="translate(63.623047 0)"/>
       <use xlink:href="#DejaVuSans-30" transform="translate(127.246094 0)"/>
      </g>
     </g>
    </g>
    <g id="xtick_8">
     <g id="line2d_15">
      <path d="M 357.613658 273.002156 
L 357.613658 55.695281 
" clip-path="url(#p4321443279)" style="fill: none; stroke: #e9edf1; stroke-width: 0.9; stroke-linecap: square"/>
     </g>
     <g id="line2d_16">
      <g>
       <use xlink:href="#m814584ddbc" x="357.613658" y="273.002156" style="stroke: #000000; stroke-width: 0.8"/>
      </g>
     </g>
     <g id="text_8">
      <!-- 350 -->
      <g transform="translate(346.638345 288.740359) scale(0.115 -0.115)">
       <use xlink:href="#DejaVuSans-33"/>
       <use xlink:href="#DejaVuSans-35" transform="translate(63.623047 0)"/>
       <use xlink:href="#DejaVuSans-30" transform="translate(127.246094 0)"/>
      </g>
     </g>
    </g>
   </g>
   <g id="matplotlib.axis_2">
    <g id="ytick_1">
     <g id="line2d_17">
      <path d="M 61.386562 234.902899 
L 360.872156 234.902899 
" clip-path="url(#p4321443279)" style="fill: none; stroke: #e9edf1; stroke-width: 0.9; stroke-linecap: square"/>
     </g>
     <g id="line2d_18">
      <defs>
       <path id="maf60b12dfd" d="M 0 0 
L -3.5 0 
" style="stroke: #000000; stroke-width: 0.8"/>
      </defs>
      <g>
       <use xlink:href="#maf60b12dfd" x="61.386562" y="234.902899" style="stroke: #000000; stroke-width: 0.8"/>
      </g>
     </g>
     <g id="text_9">
      <!-- Joblib -->
      <g transform="translate(22.966406 239.272001) scale(0.115 -0.115)">
       <defs>
        <path id="DejaVuSans-4a" d="M 628 4666 
L 1259 4666 
L 1259 325 
Q 1259 -519 939 -900 
Q 619 -1281 -91 -1281 
L -331 -1281 
L -331 -750 
L -134 -750 
Q 284 -750 456 -515 
Q 628 -281 628 325 
L 628 4666 
z
" transform="scale(0.015625)"/>
        <path id="DejaVuSans-6f" d="M 1959 3097 
Q 1497 3097 1228 2736 
Q 959 2375 959 1747 
Q 959 1119 1226 758 
Q 1494 397 1959 397 
Q 2419 397 2687 759 
Q 2956 1122 2956 1747 
Q 2956 2369 2687 2733 
Q 2419 3097 1959 3097 
z
M 1959 3584 
Q 2709 3584 3137 3096 
Q 3566 2609 3566 1747 
Q 3566 888 3137 398 
Q 2709 -91 1959 -91 
Q 1206 -91 779 398 
Q 353 888 353 1747 
Q 353 2609 779 3096 
Q 1206 3584 1959 3584 
z
" transform="scale(0.015625)"/>
        <path id="DejaVuSans-62" d="M 3116 1747 
Q 3116 2381 2855 2742 
Q 2594 3103 2138 3103 
Q 1681 3103 1420 2742 
Q 1159 2381 1159 1747 
Q 1159 1113 1420 752 
Q 1681 391 2138 391 
Q 2594 391 2855 752 
Q 3116 1113 3116 1747 
z
M 1159 2969 
Q 1341 3281 1617 3432 
Q 1894 3584 2278 3584 
Q 2916 3584 3314 3078 
Q 3713 2572 3713 1747 
Q 3713 922 3314 415 
Q 2916 -91 2278 -91 
Q 1894 -91 1617 61 
Q 1341 213 1159 525 
L 1159 0 
L 581 0 
L 581 4863 
L 1159 4863 
L 1159 2969 
z
" transform="scale(0.015625)"/>
        <path id="DejaVuSans-6c" d="M 603 4863 
L 1178 4863 
L 1178 0 
L 603 0 
L 603 4863 
z
" transform="scale(0.015625)"/>
        <path id="DejaVuSans-69" d="M 603 3500 
L 1178 3500 
L 1178 0 
L 603 0 
L 603 3500 
z
M 603 4863 
L 1178 4863 
L 1178 4134 
L 603 4134 
L 603 4863 
z
" transform="scale(0.015625)"/>
       </defs>
       <use xlink:href="#DejaVuSans-4a"/>
       <use xlink:href="#DejaVuSans-6f" transform="translate(29.492188 0)"/>
       <use xlink:href="#DejaVuSans-62" transform="translate(90.673828 0)"/>
       <use xlink:href="#DejaVuSans-6c" transform="translate(154.150391 0)"/>
       <use xlink:href="#DejaVuSans-69" transform="translate(181.933594 0)"/>
       <use xlink:href="#DejaVuSans-62" transform="translate(209.716797 0)"/>
      </g>
     </g>
    </g>
    <g id="ytick_2">
     <g id="line2d_19">
      <path d="M 61.386562 164.348719 
L 360.872156 164.348719 
" clip-path="url(#p4321443279)" style="fill: none; stroke: #e9edf1; stroke-width: 0.9; stroke-linecap: square"/>
     </g>
     <g id="line2d_20">
      <g>
       <use xlink:href="#maf60b12dfd" x="61.386562" y="164.348719" style="stroke: #000000; stroke-width: 0.8"/>
      </g>
     </g>
     <g id="text_10">
      <!-- LGB.txt -->
      <g transform="translate(11.7 168.71782) scale(0.115 -0.115)">
       <defs>
        <path id="DejaVuSans-4c" d="M 628 4666 
L 1259 4666 
L 1259 531 
L 3531 531 
L 3531 0 
L 628 0 
L 628 4666 
z
" transform="scale(0.015625)"/>
        <path id="DejaVuSans-47" d="M 3809 666 
L 3809 1919 
L 2778 1919 
L 2778 2438 
L 4434 2438 
L 4434 434 
Q 4069 175 3628 42 
Q 3188 -91 2688 -91 
Q 1594 -91 976 548 
Q 359 1188 359 2328 
Q 359 3472 976 4111 
Q 1594 4750 2688 4750 
Q 3144 4750 3555 4637 
Q 3966 4525 4313 4306 
L 4313 3634 
Q 3963 3931 3569 4081 
Q 3175 4231 2741 4231 
Q 1884 4231 1454 3753 
Q 1025 3275 1025 2328 
Q 1025 1384 1454 906 
Q 1884 428 2741 428 
Q 3075 428 3337 486 
Q 3600 544 3809 666 
z
" transform="scale(0.015625)"/>
        <path id="DejaVuSans-42" d="M 1259 2228 
L 1259 519 
L 2272 519 
Q 2781 519 3026 730 
Q 3272 941 3272 1375 
Q 3272 1813 3026 2020 
Q 2781 2228 2272 2228 
L 1259 2228 
z
M 1259 4147 
L 1259 2741 
L 2194 2741 
Q 2656 2741 2882 2914 
Q 3109 3088 3109 3444 
Q 3109 3797 2882 3972 
Q 2656 4147 2194 4147 
L 1259 4147 
z
M 628 4666 
L 2241 4666 
Q 2963 4666 3353 4366 
Q 3744 4066 3744 3513 
Q 3744 3084 3544 2831 
Q 3344 2578 2956 2516 
Q 3422 2416 3680 2098 
Q 3938 1781 3938 1306 
Q 3938 681 3513 340 
Q 3088 0 2303 0 
L 628 0 
L 628 4666 
z
" transform="scale(0.015625)"/>
        <path id="DejaVuSans-2e" d="M 684 794 
L 1344 794 
L 1344 0 
L 684 0 
L 684 794 
z
" transform="scale(0.015625)"/>
        <path id="DejaVuSans-74" d="M 1172 4494 
L 1172 3500 
L 2356 3500 
L 2356 3053 
L 1172 3053 
L 1172 1153 
Q 1172 725 1289 603 
Q 1406 481 1766 481 
L 2356 481 
L 2356 0 
L 1766 0 
Q 1100 0 847 248 
Q 594 497 594 1153 
L 594 3053 
L 172 3053 
L 172 3500 
L 594 3500 
L 594 4494 
L 1172 4494 
z
" transform="scale(0.015625)"/>
        <path id="DejaVuSans-78" d="M 3513 3500 
L 2247 1797 
L 3578 0 
L 2900 0 
L 1881 1375 
L 863 0 
L 184 0 
L 1544 1831 
L 300 3500 
L 978 3500 
L 1906 2253 
L 2834 3500 
L 3513 3500 
z
" transform="scale(0.015625)"/>
       </defs>
       <use xlink:href="#DejaVuSans-4c"/>
       <use xlink:href="#DejaVuSans-47" transform="translate(55.712891 0)"/>
       <use xlink:href="#DejaVuSans-42" transform="translate(133.203125 0)"/>
       <use xlink:href="#DejaVuSans-2e" transform="translate(201.806641 0)"/>
       <use xlink:href="#DejaVuSans-74" transform="translate(233.59375 0)"/>
       <use xlink:href="#DejaVuSans-78" transform="translate(272.802734 0)"/>
       <use xlink:href="#DejaVuSans-74" transform="translate(331.982422 0)"/>
      </g>
     </g>
    </g>
    <g id="ytick_3">
     <g id="line2d_21">
      <path d="M 61.386562 93.794539 
L 360.872156 93.794539 
" clip-path="url(#p4321443279)" style="fill: none; stroke: #e9edf1; stroke-width: 0.9; stroke-linecap: square"/>
     </g>
     <g id="line2d_22">
      <g>
       <use xlink:href="#maf60b12dfd" x="61.386562" y="93.794539" style="stroke: #000000; stroke-width: 0.8"/>
      </g>
     </g>
     <g id="text_11">
      <!-- Pickle -->
      <g transform="translate(21.262969 98.16364) scale(0.115 -0.115)">
       <defs>
        <path id="DejaVuSans-50" d="M 1259 4147 
L 1259 2394 
L 2053 2394 
Q 2494 2394 2734 2622 
Q 2975 2850 2975 3272 
Q 2975 3691 2734 3919 
Q 2494 4147 2053 4147 
L 1259 4147 
z
M 628 4666 
L 2053 4666 
Q 2838 4666 3239 4311 
Q 3641 3956 3641 3272 
Q 3641 2581 3239 2228 
Q 2838 1875 2053 1875 
L 1259 1875 
L 1259 0 
L 628 0 
L 628 4666 
z
" transform="scale(0.015625)"/>
        <path id="DejaVuSans-63" d="M 3122 3366 
L 3122 2828 
Q 2878 2963 2633 3030 
Q 2388 3097 2138 3097 
Q 1578 3097 1268 2742 
Q 959 2388 959 1747 
Q 959 1106 1268 751 
Q 1578 397 2138 397 
Q 2388 397 2633 464 
Q 2878 531 3122 666 
L 3122 134 
Q 2881 22 2623 -34 
Q 2366 -91 2075 -91 
Q 1284 -91 818 406 
Q 353 903 353 1747 
Q 353 2603 823 3093 
Q 1294 3584 2113 3584 
Q 2378 3584 2631 3529 
Q 2884 3475 3122 3366 
z
" transform="scale(0.015625)"/>
        <path id="DejaVuSans-6b" d="M 581 4863 
L 1159 4863 
L 1159 1991 
L 2875 3500 
L 3609 3500 
L 1753 1863 
L 3688 0 
L 2938 0 
L 1159 1709 
L 1159 0 
L 581 0 
L 581 4863 
z
" transform="scale(0.015625)"/>
        <path id="DejaVuSans-65" d="M 3597 1894 
L 3597 1613 
L 953 1613 
Q 991 1019 1311 708 
Q 1631 397 2203 397 
Q 2534 397 2845 478 
Q 3156 559 3463 722 
L 3463 178 
Q 3153 47 2828 -22 
Q 2503 -91 2169 -91 
Q 1331 -91 842 396 
Q 353 884 353 1716 
Q 353 2575 817 3079 
Q 1281 3584 2069 3584 
Q 2775 3584 3186 3129 
Q 3597 2675 3597 1894 
z
M 3022 2063 
Q 3016 2534 2758 2815 
Q 2500 3097 2075 3097 
Q 1594 3097 1305 2825 
Q 1016 2553 972 2059 
L 3022 2063 
z
" transform="scale(0.015625)"/>
       </defs>
       <use xlink:href="#DejaVuSans-50"/>
       <use xlink:href="#DejaVuSans-69" transform="translate(58.052734 0)"/>
       <use xlink:href="#DejaVuSans-63" transform="translate(85.835938 0)"/>
       <use xlink:href="#DejaVuSans-6b" transform="translate(140.816406 0)"/>
       <use xlink:href="#DejaVuSans-6c" transform="translate(198.726562 0)"/>
       <use xlink:href="#DejaVuSans-65" transform="translate(226.509766 0)"/>
      </g>
     </g>
    </g>
   </g>
   <g id="patch_3">
    <path d="M 61.386562 263.124571 
L 186.648306 263.124571 
L 186.648306 206.681227 
L 61.386562 206.681227 
z
" clip-path="url(#p4321443279)" style="fill: #2e8b57"/>
   </g>
   <g id="patch_4">
    <path d="M 61.386562 192.570391 
L 345.764574 192.570391 
L 345.764574 136.127047 
L 61.386562 136.127047 
z
" clip-path="url(#p4321443279)" style="fill: #7f8c8d"/>
   </g>
   <g id="patch_5">
    <path d="M 61.386562 122.016211 
L 346.610937 122.016211 
L 346.610937 65.572866 
L 61.386562 65.572866 
z
" clip-path="url(#p4321443279)" style="fill: #7f8c8d"/>
   </g>
   <g id="patch_6">
    <path d="M 61.386562 273.002156 
L 61.386562 55.695281 
" style="fill: none; stroke: #c9ced3; stroke-width: 1.1; stroke-linejoin: miter; stroke-linecap: square"/>
   </g>
   <g id="patch_7">
    <path d="M 61.386562 273.002156 
L 360.872156 273.002156 
" style="fill: none; stroke: #c9ced3; stroke-width: 1.1; stroke-linejoin: miter; stroke-linecap: square"/>
   </g>
   <g id="text_12">
    <!-- 148 KB -->
    <g transform="translate(190.033758 237.938211) scale(0.11 -0.11)">
     <defs>
      <path id="DejaVuSans-34" d="M 2419 4116 
L 825 1625 
L 2419 1625 
L 2419 4116 
z
M 2253 4666 
L 3047 4666 
L 3047 1625 
L 3713 1625 
L 3713 1100 
L 3047 1100 
L 3047 0 
L 2419 0 
L 2419 1100 
L 313 1100 
L 313 1709 
L 2253 4666 
z
" transform="scale(0.015625)"/>
      <path id="DejaVuSans-38" d="M 2034 2216 
Q 1584 2216 1326 1975 
Q 1069 1734 1069 1313 
Q 1069 891 1326 650 
Q 1584 409 2034 409 
Q 2484 409 2743 651 
Q 3003 894 3003 1313 
Q 3003 1734 2745 1975 
Q 2488 2216 2034 2216 
z
M 1403 2484 
Q 997 2584 770 2862 
Q 544 3141 544 3541 
Q 544 4100 942 4425 
Q 1341 4750 2034 4750 
Q 2731 4750 3128 4425 
Q 3525 4100 3525 3541 
Q 3525 3141 3298 2862 
Q 3072 2584 2669 2484 
Q 3125 2378 3379 2068 
Q 3634 1759 3634 1313 
Q 3634 634 3220 271 
Q 2806 -91 2034 -91 
Q 1263 -91 848 271 
Q 434 634 434 1313 
Q 434 1759 690 2068 
Q 947 2378 1403 2484 
z
M 1172 3481 
Q 1172 3119 1398 2916 
Q 1625 2713 2034 2713 
Q 2441 2713 2670 2916 
Q 2900 3119 2900 3481 
Q 2900 3844 2670 4047 
Q 2441 4250 2034 4250 
Q 1625 4250 1398 4047 
Q 1172 3844 1172 3481 
z
" transform="scale(0.015625)"/>
      <path id="DejaVuSans-20" transform="scale(0.015625)"/>
      <path id="DejaVuSans-4b" d="M 628 4666 
L 1259 4666 
L 1259 2694 
L 3353 4666 
L 4166 4666 
L 1850 2491 
L 4331 0 
L 3500 0 
L 1259 2247 
L 1259 0 
L 628 0 
L 628 4666 
z
" transform="scale(0.015625)"/>
     </defs>
     <use xlink:href="#DejaVuSans-31"/>
     <use xlink:href="#DejaVuSans-34" transform="translate(63.623047 0)"/>
     <use xlink:href="#DejaVuSans-38" transform="translate(127.246094 0)"/>
     <use xlink:href="#DejaVuSans-20" transform="translate(190.869141 0)"/>
     <use xlink:href="#DejaVuSans-4b" transform="translate(222.65625 0)"/>
     <use xlink:href="#DejaVuSans-42" transform="translate(288.232422 0)"/>
    </g>
   </g>
   <g id="text_13">
    <!-- 336 KB -->
    <g transform="translate(349.150027 167.384031) scale(0.11 -0.11)">
     <defs>
      <path id="DejaVuSans-36" d="M 2113 2584 
Q 1688 2584 1439 2293 
Q 1191 2003 1191 1497 
Q 1191 994 1439 701 
Q 1688 409 2113 409 
Q 2538 409 2786 701 
Q 3034 994 3034 1497 
Q 3034 2003 2786 2293 
Q 2538 2584 2113 2584 
z
M 3366 4563 
L 3366 3988 
Q 3128 4100 2886 4159 
Q 2644 4219 2406 4219 
Q 1781 4219 1451 3797 
Q 1122 3375 1075 2522 
Q 1259 2794 1537 2939 
Q 1816 3084 2150 3084 
Q 2853 3084 3261 2657 
Q 3669 2231 3669 1497 
Q 3669 778 3244 343 
Q 2819 -91 2113 -91 
Q 1303 -91 875 529 
Q 447 1150 447 2328 
Q 447 3434 972 4092 
Q 1497 4750 2381 4750 
Q 2619 4750 2861 4703 
Q 3103 4656 3366 4563 
z
" transform="scale(0.015625)"/>
     </defs>
     <use xlink:href="#DejaVuSans-33"/>
     <use xlink:href="#DejaVuSans-33" transform="translate(63.623047 0)"/>
     <use xlink:href="#DejaVuSans-36" transform="translate(127.246094 0)"/>
     <use xlink:href="#DejaVuSans-20" transform="translate(190.869141 0)"/>
     <use xlink:href="#DejaVuSans-4b" transform="translate(222.65625 0)"/>
     <use xlink:href="#DejaVuSans-42" transform="translate(288.232422 0)"/>
    </g>
   </g>
   <g id="text_14">
    <!-- 337 KB -->
    <g transform="translate(349.99639 96.829851) scale(0.11 -0.11)">
     <defs>
      <path id="DejaVuSans-37" d="M 525 4666 
L 3525 4666 
L 3525 4397 
L 1831 0 
L 1172 0 
L 2766 4134 
L 525 4134 
L 525 4666 
z
" transform="scale(0.015625)"/>
     </defs>
     <use xlink:href="#DejaVuSans-33"/>
     <use xlink:href="#DejaVuSans-33" transform="translate(63.623047 0)"/>
     <use xlink:href="#DejaVuSans-37" transform="translate(127.246094 0)"/>
     <use xlink:href="#DejaVuSans-20" transform="translate(190.869141 0)"/>
     <use xlink:href="#DejaVuSans-4b" transform="translate(222.65625 0)"/>
     <use xlink:href="#DejaVuSans-42" transform="translate(288.232422 0)"/>
    </g>
   </g>
   <g id="text_15">
    <!-- Joblib: 56% menor -->
    <g style="fill: #2e8b57" transform="translate(186.648306 65.572866) scale(0.105 -0.105)">
     <defs>
      <path id="DejaVuSans-3a" d="M 750 794 
L 1409 794 
L 1409 0 
L 750 0 
L 750 794 
z
M 750 3309 
L 1409 3309 
L 1409 2516 
L 750 2516 
L 750 3309 
z
" transform="scale(0.015625)"/>
      <path id="DejaVuSans-25" d="M 4653 2053 
Q 4381 2053 4226 1822 
Q 4072 1591 4072 1178 
Q 4072 772 4226 539 
Q 4381 306 4653 306 
Q 4919 306 5073 539 
Q 5228 772 5228 1178 
Q 5228 1588 5073 1820 
Q 4919 2053 4653 2053 
z
M 4653 2450 
Q 5147 2450 5437 2106 
Q 5728 1763 5728 1178 
Q 5728 594 5436 251 
Q 5144 -91 4653 -91 
Q 4153 -91 3862 251 
Q 3572 594 3572 1178 
Q 3572 1766 3864 2108 
Q 4156 2450 4653 2450 
z
M 1428 4353 
Q 1159 4353 1004 4120 
Q 850 3888 850 3481 
Q 850 3069 1003 2837 
Q 1156 2606 1428 2606 
Q 1700 2606 1854 2837 
Q 2009 3069 2009 3481 
Q 2009 3884 1853 4118 
Q 1697 4353 1428 4353 
z
M 4250 4750 
L 4750 4750 
L 1831 -91 
L 1331 -91 
L 4250 4750 
z
M 1428 4750 
Q 1922 4750 2215 4408 
Q 2509 4066 2509 3481 
Q 2509 2891 2217 2550 
Q 1925 2209 1428 2209 
Q 931 2209 642 2551 
Q 353 2894 353 3481 
Q 353 4063 643 4406 
Q 934 4750 1428 4750 
z
" transform="scale(0.015625)"/>
      <path id="DejaVuSans-6d" d="M 3328 2828 
Q 3544 3216 3844 3400 
Q 4144 3584 4550 3584 
Q 5097 3584 5394 3201 
Q 5691 2819 5691 2113 
L 5691 0 
L 5113 0 
L 5113 2094 
Q 5113 2597 4934 2840 
Q 4756 3084 4391 3084 
Q 3944 3084 3684 2787 
Q 3425 2491 3425 1978 
L 3425 0 
L 2847 0 
L 2847 2094 
Q 2847 2600 2669 2842 
Q 2491 3084 2119 3084 
Q 1678 3084 1418 2786 
Q 1159 2488 1159 1978 
L 1159 0 
L 581 0 
L 581 3500 
L 1159 3500 
L 1159 2956 
Q 1356 3278 1631 3431 
Q 1906 3584 2284 3584 
Q 2666 3584 2933 3390 
Q 3200 3197 3328 2828 
z
" transform="scale(0.015625)"/>
      <path id="DejaVuSans-6e" d="M 3513 2113 
L 3513 0 
L 2938 0 
L 2938 2094 
Q 2938 2591 2744 2837 
Q 2550 3084 2163 3084 
Q 1697 3084 1428 2787 
Q 1159 2491 1159 1978 
L 1159 0 
L 581 0 
L 581 3500 
L 1159 3500 
L 1159 2956 
Q 1366 3272 1645 3428 
Q 1925 3584 2291 3584 
Q 2894 3584 3203 3211 
Q 3513 2838 3513 2113 
z
" transform="scale(0.015625)"/>
      <path id="DejaVuSans-72" d="M 2631 2963 
Q 2534 3019 2420 3045 
Q 2306 3072 2169 3072 
Q 1681 3072 1420 2755 
Q 1159 2438 1159 1844 
L 1159 0 
L 581 0 
L 581 3500 
L 1159 3500 
L 1159 2956 
Q 1341 3275 1631 3429 
Q 1922 3584 2338 3584 
Q 2397 3584 2469 3576 
Q 2541 3569 2628 3553 
L 2631 2963 
z
" transform="scale(0.015625)"/>
     </defs>
     <use xlink:href="#DejaVuSans-4a"/>
     <use xlink:href="#DejaVuSans-6f" transform="translate(29.492188 0)"/>
     <use xlink:href="#DejaVuSans-62" transform="translate(90.673828 0)"/>
     <use xlink:href="#DejaVuSans-6c" transform="translate(154.150391 0)"/>
     <use xlink:href="#DejaVuSans-69" transform="translate(181.933594 0)"/>
     <use xlink:href="#DejaVuSans-62" transform="translate(209.716797 0)"/>
     <use xlink:href="#DejaVuSans-3a" transform="translate(273.193359 0)"/>
     <use xlink:href="#DejaVuSans-20" transform="translate(306.884766 0)"/>
     <use xlink:href="#DejaVuSans-35" transform="translate(338.671875 0)"/>
     <use xlink:href="#DejaVuSans-36" transform="translate(402.294922 0)"/>
     <use xlink:href="#DejaVuSans-25" transform="translate(465.917969 0)"/>
     <use xlink:href="#DejaVuSans-20" transform="translate(560.9375 0)"/>
     <use xlink:href="#DejaVuSans-6d" transform="translate(592.724609 0)"/>
     <use xlink:href="#DejaVuSans-65" transform="translate(690.136719 0)"/>
     <use xlink:href="#DejaVuSans-6e" transform="translate(751.660156 0)"/>
     <use xlink:href="#DejaVuSans-6f" transform="translate(815.039062 0)"/>
     <use xlink:href="#DejaVuSans-72" transform="translate(876.220703 0)"/>
    </g>
   </g>
   <g id="text_16">
    <!-- Tamaño en disco (KB) -->
    <g style="fill: #2c3e50" transform="translate(61.386562 49.695281) scale(0.14 -0.14)">
     <defs>
      <path id="DejaVuSans-Bold-54" d="M 31 4666 
L 4331 4666 
L 4331 3756 
L 2784 3756 
L 2784 0 
L 1581 0 
L 1581 3756 
L 31 3756 
L 31 4666 
z
" transform="scale(0.015625)"/>
      <path id="DejaVuSans-Bold-61" d="M 2106 1575 
Q 1756 1575 1579 1456 
Q 1403 1338 1403 1106 
Q 1403 894 1545 773 
Q 1688 653 1941 653 
Q 2256 653 2472 879 
Q 2688 1106 2688 1447 
L 2688 1575 
L 2106 1575 
z
M 3816 1997 
L 3816 0 
L 2688 0 
L 2688 519 
Q 2463 200 2181 54 
Q 1900 -91 1497 -91 
Q 953 -91 614 226 
Q 275 544 275 1050 
Q 275 1666 698 1953 
Q 1122 2241 2028 2241 
L 2688 2241 
L 2688 2328 
Q 2688 2594 2478 2717 
Q 2269 2841 1825 2841 
Q 1466 2841 1156 2769 
Q 847 2697 581 2553 
L 581 3406 
Q 941 3494 1303 3539 
Q 1666 3584 2028 3584 
Q 2975 3584 3395 3211 
Q 3816 2838 3816 1997 
z
" transform="scale(0.015625)"/>
      <path id="DejaVuSans-Bold-6d" d="M 3781 2919 
Q 3994 3244 4286 3414 
Q 4578 3584 4928 3584 
Q 5531 3584 5847 3212 
Q 6163 2841 6163 2131 
L 6163 0 
L 5038 0 
L 5038 1825 
Q 5041 1866 5042 1909 
Q 5044 1953 5044 2034 
Q 5044 2406 4934 2573 
Q 4825 2741 4581 2741 
Q 4263 2741 4089 2478 
Q 3916 2216 3909 1719 
L 3909 0 
L 2784 0 
L 2784 1825 
Q 2784 2406 2684 2573 
Q 2584 2741 2328 2741 
Q 2006 2741 1831 2477 
Q 1656 2213 1656 1722 
L 1656 0 
L 531 0 
L 531 3500 
L 1656 3500 
L 1656 2988 
Q 1863 3284 2130 3434 
Q 2397 3584 2719 3584 
Q 3081 3584 3359 3409 
Q 3638 3234 3781 2919 
z
" transform="scale(0.015625)"/>
      <path id="DejaVuSans-Bold-f1" d="M 4056 2131 
L 4056 0 
L 2931 0 
L 2931 347 
L 2931 1631 
Q 2931 2084 2911 2256 
Q 2891 2428 2841 2509 
Q 2775 2619 2662 2680 
Q 2550 2741 2406 2741 
Q 2056 2741 1856 2470 
Q 1656 2200 1656 1722 
L 1656 0 
L 538 0 
L 538 3500 
L 1656 3500 
L 1656 2988 
Q 1909 3294 2193 3439 
Q 2478 3584 2822 3584 
Q 3428 3584 3742 3212 
Q 4056 2841 4056 2131 
z
M 2366 4263 
L 2194 4378 
Q 2182 4384 2163 4397 
Q 2016 4494 1938 4494 
Q 1826 4494 1766 4397 
Q 1707 4300 1707 4116 
L 1707 4091 
L 1273 4091 
Q 1273 4516 1433 4747 
Q 1594 4978 1885 4978 
Q 1998 4978 2112 4936 
Q 2226 4894 2354 4800 
L 2544 4666 
Q 2613 4619 2671 4594 
Q 2729 4569 2776 4569 
Q 2888 4569 2950 4669 
Q 3013 4769 3013 4947 
L 3013 4972 
L 3448 4972 
Q 3448 4547 3287 4315 
Q 3126 4084 2835 4084 
Q 2723 4084 2618 4121 
Q 2513 4159 2366 4263 
z
" transform="scale(0.015625)"/>
      <path id="DejaVuSans-Bold-6f" d="M 2203 2784 
Q 1831 2784 1636 2517 
Q 1441 2250 1441 1747 
Q 1441 1244 1636 976 
Q 1831 709 2203 709 
Q 2569 709 2762 976 
Q 2956 1244 2956 1747 
Q 2956 2250 2762 2517 
Q 2569 2784 2203 2784 
z
M 2203 3584 
Q 3106 3584 3614 3096 
Q 4122 2609 4122 1747 
Q 4122 884 3614 396 
Q 3106 -91 2203 -91 
Q 1297 -91 786 396 
Q 275 884 275 1747 
Q 275 2609 786 3096 
Q 1297 3584 2203 3584 
z
" transform="scale(0.015625)"/>
      <path id="DejaVuSans-Bold-20" transform="scale(0.015625)"/>
      <path id="DejaVuSans-Bold-65" d="M 4031 1759 
L 4031 1441 
L 1416 1441 
Q 1456 1047 1700 850 
Q 1944 653 2381 653 
Q 2734 653 3104 758 
Q 3475 863 3866 1075 
L 3866 213 
Q 3469 63 3072 -14 
Q 2675 -91 2278 -91 
Q 1328 -91 801 392 
Q 275 875 275 1747 
Q 275 2603 792 3093 
Q 1309 3584 2216 3584 
Q 3041 3584 3536 3087 
Q 4031 2591 4031 1759 
z
M 2881 2131 
Q 2881 2450 2695 2645 
Q 2509 2841 2209 2841 
Q 1884 2841 1681 2658 
Q 1478 2475 1428 2131 
L 2881 2131 
z
" transform="scale(0.015625)"/>
      <path id="DejaVuSans-Bold-6e" d="M 4056 2131 
L 4056 0 
L 2931 0 
L 2931 347 
L 2931 1631 
Q 2931 2084 2911 2256 
Q 2891 2428 2841 2509 
Q 2775 2619 2662 2680 
Q 2550 2741 2406 2741 
Q 2056 2741 1856 2470 
Q 1656 2200 1656 1722 
L 1656 0 
L 538 0 
L 538 3500 
L 1656 3500 
L 1656 2988 
Q 1909 3294 2193 3439 
Q 2478 3584 2822 3584 
Q 3428 3584 3742 3212 
Q 4056 2841 4056 2131 
z
" transform="scale(0.015625)"/>
      <path id="DejaVuSans-Bold-64" d="M 2919 2988 
L 2919 4863 
L 4044 4863 
L 4044 0 
L 2919 0 
L 2919 506 
Q 2688 197 2409 53 
Q 2131 -91 1766 -91 
Q 1119 -91 703 423 
Q 288 938 288 1747 
Q 288 2556 703 3070 
Q 1119 3584 1766 3584 
Q 2128 3584 2408 3439 
Q 2688 3294 2919 2988 
z
M 2181 722 
Q 2541 722 2730 984 
Q 2919 1247 2919 1747 
Q 2919 2247 2730 2509 
Q 2541 2772 2181 2772 
Q 1825 2772 1636 2509 
Q 1447 2247 1447 1747 
Q 1447 1247 1636 984 
Q 1825 722 2181 722 
z
" transform="scale(0.015625)"/>
      <path id="DejaVuSans-Bold-69" d="M 538 3500 
L 1656 3500 
L 1656 0 
L 538 0 
L 538 3500 
z
M 538 4863 
L 1656 4863 
L 1656 3950 
L 538 3950 
L 538 4863 
z
" transform="scale(0.015625)"/>
      <path id="DejaVuSans-Bold-73" d="M 3272 3391 
L 3272 2541 
Q 2913 2691 2578 2766 
Q 2244 2841 1947 2841 
Q 1628 2841 1473 2761 
Q 1319 2681 1319 2516 
Q 1319 2381 1436 2309 
Q 1553 2238 1856 2203 
L 2053 2175 
Q 2913 2066 3209 1816 
Q 3506 1566 3506 1031 
Q 3506 472 3093 190 
Q 2681 -91 1863 -91 
Q 1516 -91 1145 -36 
Q 775 19 384 128 
L 384 978 
Q 719 816 1070 734 
Q 1422 653 1784 653 
Q 2113 653 2278 743 
Q 2444 834 2444 1013 
Q 2444 1163 2330 1236 
Q 2216 1309 1875 1350 
L 1678 1375 
Q 931 1469 631 1722 
Q 331 1975 331 2491 
Q 331 3047 712 3315 
Q 1094 3584 1881 3584 
Q 2191 3584 2531 3537 
Q 2872 3491 3272 3391 
z
" transform="scale(0.015625)"/>
      <path id="DejaVuSans-Bold-63" d="M 3366 3391 
L 3366 2478 
Q 3138 2634 2908 2709 
Q 2678 2784 2431 2784 
Q 1963 2784 1702 2511 
Q 1441 2238 1441 1747 
Q 1441 1256 1702 982 
Q 1963 709 2431 709 
Q 2694 709 2930 787 
Q 3166 866 3366 1019 
L 3366 103 
Q 3103 6 2833 -42 
Q 2563 -91 2291 -91 
Q 1344 -91 809 395 
Q 275 881 275 1747 
Q 275 2613 809 3098 
Q 1344 3584 2291 3584 
Q 2566 3584 2833 3536 
Q 3100 3488 3366 3391 
z
" transform="scale(0.015625)"/>
      <path id="DejaVuSans-Bold-28" d="M 2413 -844 
L 1484 -844 
Q 1006 -72 778 623 
Q 550 1319 550 2003 
Q 550 2688 779 3389 
Q 1009 4091 1484 4856 
L 2413 4856 
Q 2013 4116 1813 3408 
Q 1613 2700 1613 2009 
Q 1613 1319 1811 609 
Q 2009 -100 2413 -844 
z
" transform="scale(0.015625)"/>
      <path id="DejaVuSans-Bold-4b" d="M 588 4666 
L 1791 4666 
L 1791 2963 
L 3525 4666 
L 4922 4666 
L 2675 2456 
L 5153 0 
L 3647 0 
L 1791 1838 
L 1791 0 
L 588 0 
L 588 4666 
z
" transform="scale(0.015625)"/>
      <path id="DejaVuSans-Bold-42" d="M 2456 2859 
Q 2741 2859 2887 2984 
Q 3034 3109 3034 3353 
Q 3034 3594 2887 3720 
Q 2741 3847 2456 3847 
L 1791 3847 
L 1791 2859 
L 2456 2859 
z
M 2497 819 
Q 2859 819 3042 972 
Q 3225 1125 3225 1434 
Q 3225 1738 3044 1889 
Q 2863 2041 2497 2041 
L 1791 2041 
L 1791 819 
L 2497 819 
z
M 3616 2497 
Q 4003 2384 4215 2081 
Q 4428 1778 4428 1338 
Q 4428 663 3972 331 
Q 3516 0 2584 0 
L 588 0 
L 588 4666 
L 2394 4666 
Q 3366 4666 3802 4372 
Q 4238 4078 4238 3431 
Q 4238 3091 4078 2852 
Q 3919 2613 3616 2497 
z
" transform="scale(0.015625)"/>
      <path id="DejaVuSans-Bold-29" d="M 513 -844 
Q 913 -100 1113 609 
Q 1313 1319 1313 2009 
Q 1313 2700 1113 3408 
Q 913 4116 513 4856 
L 1441 4856 
Q 1916 4091 2145 3389 
Q 2375 2688 2375 2003 
Q 2375 1319 2147 623 
Q 1919 -72 1441 -844 
L 513 -844 
z
" transform="scale(0.015625)"/>
     </defs>
     <use xlink:href="#DejaVuSans-Bold-54"/>
     <use xlink:href="#DejaVuSans-Bold-61" transform="translate(55.337891 0)"/>
     <use xlink:href="#DejaVuSans-Bold-6d" transform="translate(122.818359 0)"/>
     <use xlink:href="#DejaVuSans-Bold-61" transform="translate(227.017578 0)"/>
     <use xlink:href="#DejaVuSans-Bold-f1" transform="translate(294.498047 0)"/>
     <use xlink:href="#DejaVuSans-Bold-6f" transform="translate(365.689453 0)"/>
     <use xlink:href="#DejaVuSans-Bold-20" transform="translate(434.390625 0)"/>
     <use xlink:href="#DejaVuSans-Bold-65" transform="translate(469.205078 0)"/>
     <use xlink:href="#DejaVuSans-Bold-6e" transform="translate(537.027344 0)"/>
     <use xlink:href="#DejaVuSans-Bold-20" transform="translate(608.21875 0)"/>
     <use xlink:href="#DejaVuSans-Bold-64" transform="translate(643.033203 0)"/>
     <use xlink:href="#DejaVuSans-Bold-69" transform="translate(714.615234 0)"/>
     <use xlink:href="#DejaVuSans-Bold-73" transform="translate(748.892578 0)"/>
     <use xlink:href="#DejaVuSans-Bold-63" transform="translate(808.414062 0)"/>
     <use xlink:href="#DejaVuSans-Bold-6f" transform="translate(867.691406 0)"/>
     <use xlink:href="#DejaVuSans-Bold-20" transform="translate(936.392578 0)"/>
     <use xlink:href="#DejaVuSans-Bold-28" transform="translate(971.207031 0)"/>
     <use xlink:href="#DejaVuSans-Bold-4b" transform="translate(1016.910156 0)"/>
     <use xlink:href="#DejaVuSans-Bold-42" transform="translate(1094.400391 0)"/>
     <use xlink:href="#DejaVuSans-Bold-29" transform="translate(1170.621094 0)"/>
    </g>
   </g>
  </g>
  <g id="axes_2">
   <g id="patch_8">
    <path d="M 452.099695 273.002156 
L 751.585289 273.002156 
L 751.585289 55.695281 
L 452.099695 55.695281 
L 452.099695 273.002156 
z
" style="fill: none"/>
   </g>
   <g id="matplotlib.axis_3">
    <g id="xtick_9">
     <g id="line2d_23">
      <path d="M 452.099695 273.002156 
L 452.099695 55.695281 
" clip-path="url(#p772231680c)" style="fill: none; stroke: #e9edf1; stroke-width: 0.9; stroke-linecap: square"/>
     </g>
     <g id="line2d_24">
      <g>
       <use xlink:href="#m814584ddbc" x="452.099695" y="273.002156" style="stroke: #000000; stroke-width: 0.8"/>
      </g>
     </g>
     <g id="text_17">
      <!-- 0 -->
      <g transform="translate(448.441258 288.740359) scale(0.115 -0.115)">
       <use xlink:href="#DejaVuSans-30"/>
      </g>
     </g>
    </g>
    <g id="xtick_10">
     <g id="line2d_25">
      <path d="M 508.026043 273.002156 
L 508.026043 55.695281 
" clip-path="url(#p772231680c)" style="fill: none; stroke: #e9edf1; stroke-width: 0.9; stroke-linecap: square"/>
     </g>
     <g id="line2d_26">
      <g>
       <use xlink:href="#m814584ddbc" x="508.026043" y="273.002156" style="stroke: #000000; stroke-width: 0.8"/>
      </g>
     </g>
     <g id="text_18">
      <!-- 1 -->
      <g transform="translate(504.367606 288.740359) scale(0.115 -0.115)">
       <use xlink:href="#DejaVuSans-31"/>
      </g>
     </g>
    </g>
    <g id="xtick_11">
     <g id="line2d_27">
      <path d="M 563.952391 273.002156 
L 563.952391 55.695281 
" clip-path="url(#p772231680c)" style="fill: none; stroke: #e9edf1; stroke-width: 0.9; stroke-linecap: square"/>
     </g>
     <g id="line2d_28">
      <g>
       <use xlink:href="#m814584ddbc" x="563.952391" y="273.002156" style="stroke: #000000; stroke-width: 0.8"/>
      </g>
     </g>
     <g id="text_19">
      <!-- 2 -->
      <g transform="translate(560.293954 288.740359) scale(0.115 -0.115)">
       <use xlink:href="#DejaVuSans-32"/>
      </g>
     </g>
    </g>
    <g id="xtick_12">
     <g id="line2d_29">
      <path d="M 619.878739 273.002156 
L 619.878739 55.695281 
" clip-path="url(#p772231680c)" style="fill: none; stroke: #e9edf1; stroke-width: 0.9; stroke-linecap: square"/>
     </g>
     <g id="line2d_30">
      <g>
       <use xlink:href="#m814584ddbc" x="619.878739" y="273.002156" style="stroke: #000000; stroke-width: 0.8"/>
      </g>
     </g>
     <g id="text_20">
      <!-- 3 -->
      <g transform="translate(616.220302 288.740359) scale(0.115 -0.115)">
       <use xlink:href="#DejaVuSans-33"/>
      </g>
     </g>
    </g>
    <g id="xtick_13">
     <g id="line2d_31">
      <path d="M 675.805087 273.002156 
L 675.805087 55.695281 
" clip-path="url(#p772231680c)" style="fill: none; stroke: #e9edf1; stroke-width: 0.9; stroke-linecap: square"/>
     </g>
     <g id="line2d_32">
      <g>
       <use xlink:href="#m814584ddbc" x="675.805087" y="273.002156" style="stroke: #000000; stroke-width: 0.8"/>
      </g>
     </g>
     <g id="text_21">
      <!-- 4 -->
      <g transform="translate(672.14665 288.740359) scale(0.115 -0.115)">
       <use xlink:href="#DejaVuSans-34"/>
      </g>
     </g>
    </g>
    <g id="xtick_14">
     <g id="line2d_33">
      <path d="M 731.731435 273.002156 
L 731.731435 55.695281 
" clip-path="url(#p772231680c)" style="fill: none; stroke: #e9edf1; stroke-width: 0.9; stroke-linecap: square"/>
     </g>
     <g id="line2d_34">
      <g>
       <use xlink:href="#m814584ddbc" x="731.731435" y="273.002156" style="stroke: #000000; stroke-width: 0.8"/>
      </g>
     </g>
     <g id="text_22">
      <!-- 5 -->
      <g transform="translate(728.072998 288.740359) scale(0.115 -0.115)">
       <use xlink:href="#DejaVuSans-35"/>
      </g>
     </g>
    </g>
   </g>
   <g id="matplotlib.axis_4">
    <g id="ytick_4">
     <g id="line2d_35">
      <path d="M 452.099695 234.902899 
L 751.585289 234.902899 
" clip-path="url(#p772231680c)" style="fill: none; stroke: #e9edf1; stroke-width: 0.9; stroke-linecap: square"/>
     </g>
     <g id="line2d_36">
      <g>
       <use xlink:href="#maf60b12dfd" x="452.099695" y="234.902899" style="stroke: #000000; stroke-width: 0.8"/>
      </g>
     </g>
     <g id="text_23">
      <!-- Joblib -->
      <g transform="translate(413.679539 239.272001) scale(0.115 -0.115)">
       <use xlink:href="#DejaVuSans-4a"/>
       <use xlink:href="#DejaVuSans-6f" transform="translate(29.492188 0)"/>
       <use xlink:href="#DejaVuSans-62" transform="translate(90.673828 0)"/>
       <use xlink:href="#DejaVuSans-6c" transform="translate(154.150391 0)"/>
       <use xlink:href="#DejaVuSans-69" transform="translate(181.933594 0)"/>
       <use xlink:href="#DejaVuSans-62" transform="translate(209.716797 0)"/>
      </g>
     </g>
    </g>
    <g id="ytick_5">
     <g id="line2d_37">
      <path d="M 452.099695 164.348719 
L 751.585289 164.348719 
" clip-path="url(#p772231680c)" style="fill: none; stroke: #e9edf1; stroke-width: 0.9; stroke-linecap: square"/>
     </g>
     <g id="line2d_38">
      <g>
       <use xlink:href="#maf60b12dfd" x="452.099695" y="164.348719" style="stroke: #000000; stroke-width: 0.8"/>
      </g>
     </g>
     <g id="text_24">
      <!-- LGB.txt -->
      <g transform="translate(402.413133 168.71782) scale(0.115 -0.115)">
       <use xlink:href="#DejaVuSans-4c"/>
       <use xlink:href="#DejaVuSans-47" transform="translate(55.712891 0)"/>
       <use xlink:href="#DejaVuSans-42" transform="translate(133.203125 0)"/>
       <use xlink:href="#DejaVuSans-2e" transform="translate(201.806641 0)"/>
       <use xlink:href="#DejaVuSans-74" transform="translate(233.59375 0)"/>
       <use xlink:href="#DejaVuSans-78" transform="translate(272.802734 0)"/>
       <use xlink:href="#DejaVuSans-74" transform="translate(331.982422 0)"/>
      </g>
     </g>
    </g>
    <g id="ytick_6">
     <g id="line2d_39">
      <path d="M 452.099695 93.794539 
L 751.585289 93.794539 
" clip-path="url(#p772231680c)" style="fill: none; stroke: #e9edf1; stroke-width: 0.9; stroke-linecap: square"/>
     </g>
     <g id="line2d_40">
      <g>
       <use xlink:href="#maf60b12dfd" x="452.099695" y="93.794539" style="stroke: #000000; stroke-width: 0.8"/>
      </g>
     </g>
     <g id="text_25">
      <!-- Pickle -->
      <g transform="translate(411.976102 98.16364) scale(0.115 -0.115)">
       <use xlink:href="#DejaVuSans-50"/>
       <use xlink:href="#DejaVuSans-69" transform="translate(58.052734 0)"/>
       <use xlink:href="#DejaVuSans-63" transform="translate(85.835938 0)"/>
       <use xlink:href="#DejaVuSans-6b" transform="translate(140.816406 0)"/>
       <use xlink:href="#DejaVuSans-6c" transform="translate(198.726562 0)"/>
       <use xlink:href="#DejaVuSans-65" transform="translate(226.509766 0)"/>
      </g>
     </g>
    </g>
   </g>
   <g id="patch_9">
    <path d="M 452.099695 263.124571 
L 608.69347 263.124571 
L 608.69347 206.681227 
L 452.099695 206.681227 
z
" clip-path="url(#p772231680c)" style="fill: #3498db"/>
   </g>
   <g id="patch_10">
    <path d="M 452.099695 192.570391 
L 737.32407 192.570391 
L 737.32407 136.127047 
L 452.099695 136.127047 
z
" clip-path="url(#p772231680c)" style="fill: #e07b39"/>
   </g>
   <g id="patch_11">
    <path d="M 452.099695 122.016211 
L 580.730296 122.016211 
L 580.730296 65.572866 
L 452.099695 65.572866 
z
" clip-path="url(#p772231680c)" style="fill: #3498db"/>
   </g>
   <g id="patch_12">
    <path d="M 452.099695 273.002156 
L 452.099695 55.695281 
" style="fill: none; stroke: #c9ced3; stroke-width: 1.1; stroke-linejoin: miter; stroke-linecap: square"/>
   </g>
   <g id="patch_13">
    <path d="M 452.099695 273.002156 
L 751.585289 273.002156 
" style="fill: none; stroke: #c9ced3; stroke-width: 1.1; stroke-linejoin: miter; stroke-linecap: square"/>
   </g>
   <g id="text_26">
    <!-- 2.8 ms -->
    <g transform="translate(612.049051 237.938211) scale(0.11 -0.11)">
     <defs>
      <path id="DejaVuSans-73" d="M 2834 3397 
L 2834 2853 
Q 2591 2978 2328 3040 
Q 2066 3103 1784 3103 
Q 1356 3103 1142 2972 
Q 928 2841 928 2578 
Q 928 2378 1081 2264 
Q 1234 2150 1697 2047 
L 1894 2003 
Q 2506 1872 2764 1633 
Q 3022 1394 3022 966 
Q 3022 478 2636 193 
Q 2250 -91 1575 -91 
Q 1294 -91 989 -36 
Q 684 19 347 128 
L 347 722 
Q 666 556 975 473 
Q 1284 391 1588 391 
Q 1994 391 2212 530 
Q 2431 669 2431 922 
Q 2431 1156 2273 1281 
Q 2116 1406 1581 1522 
L 1381 1569 
Q 847 1681 609 1914 
Q 372 2147 372 2553 
Q 372 3047 722 3315 
Q 1072 3584 1716 3584 
Q 2034 3584 2315 3537 
Q 2597 3491 2834 3397 
z
" transform="scale(0.015625)"/>
     </defs>
     <use xlink:href="#DejaVuSans-32"/>
     <use xlink:href="#DejaVuSans-2e" transform="translate(63.623047 0)"/>
     <use xlink:href="#DejaVuSans-38" transform="translate(95.410156 0)"/>
     <use xlink:href="#DejaVuSans-20" transform="translate(159.033203 0)"/>
     <use xlink:href="#DejaVuSans-6d" transform="translate(190.820312 0)"/>
     <use xlink:href="#DejaVuSans-73" transform="translate(288.232422 0)"/>
    </g>
   </g>
   <g id="text_27">
    <!-- 5.1 ms -->
    <g transform="translate(740.679651 167.384031) scale(0.11 -0.11)">
     <use xlink:href="#DejaVuSans-35"/>
     <use xlink:href="#DejaVuSans-2e" transform="translate(63.623047 0)"/>
     <use xlink:href="#DejaVuSans-31" transform="translate(95.410156 0)"/>
     <use xlink:href="#DejaVuSans-20" transform="translate(159.033203 0)"/>
     <use xlink:href="#DejaVuSans-6d" transform="translate(190.820312 0)"/>
     <use xlink:href="#DejaVuSans-73" transform="translate(288.232422 0)"/>
    </g>
   </g>
   <g id="text_28">
    <!-- 2.3 ms -->
    <g transform="translate(584.085877 96.829851) scale(0.11 -0.11)">
     <use xlink:href="#DejaVuSans-32"/>
     <use xlink:href="#DejaVuSans-2e" transform="translate(63.623047 0)"/>
     <use xlink:href="#DejaVuSans-33" transform="translate(95.410156 0)"/>
     <use xlink:href="#DejaVuSans-20" transform="translate(159.033203 0)"/>
     <use xlink:href="#DejaVuSans-6d" transform="translate(190.820312 0)"/>
     <use xlink:href="#DejaVuSans-73" transform="translate(288.232422 0)"/>
    </g>
   </g>
   <g id="text_29">
    <!-- Tiempo de carga (ms) -->
    <g style="fill: #2c3e50" transform="translate(452.099695 49.695281) scale(0.14 -0.14)">
     <defs>
      <path id="DejaVuSans-Bold-70" d="M 1656 506 
L 1656 -1331 
L 538 -1331 
L 538 3500 
L 1656 3500 
L 1656 2988 
Q 1888 3294 2169 3439 
Q 2450 3584 2816 3584 
Q 3463 3584 3878 3070 
Q 4294 2556 4294 1747 
Q 4294 938 3878 423 
Q 3463 -91 2816 -91 
Q 2450 -91 2169 54 
Q 1888 200 1656 506 
z
M 2400 2772 
Q 2041 2772 1848 2508 
Q 1656 2244 1656 1747 
Q 1656 1250 1848 986 
Q 2041 722 2400 722 
Q 2759 722 2948 984 
Q 3138 1247 3138 1747 
Q 3138 2247 2948 2509 
Q 2759 2772 2400 2772 
z
" transform="scale(0.015625)"/>
      <path id="DejaVuSans-Bold-72" d="M 3138 2547 
Q 2991 2616 2845 2648 
Q 2700 2681 2553 2681 
Q 2122 2681 1889 2404 
Q 1656 2128 1656 1613 
L 1656 0 
L 538 0 
L 538 3500 
L 1656 3500 
L 1656 2925 
Q 1872 3269 2151 3426 
Q 2431 3584 2822 3584 
Q 2878 3584 2943 3579 
Q 3009 3575 3134 3559 
L 3138 2547 
z
" transform="scale(0.015625)"/>
      <path id="DejaVuSans-Bold-67" d="M 2919 594 
Q 2688 288 2409 144 
Q 2131 0 1766 0 
Q 1125 0 706 504 
Q 288 1009 288 1791 
Q 288 2575 706 3076 
Q 1125 3578 1766 3578 
Q 2131 3578 2409 3434 
Q 2688 3291 2919 2981 
L 2919 3500 
L 4044 3500 
L 4044 353 
Q 4044 -491 3511 -936 
Q 2978 -1381 1966 -1381 
Q 1638 -1381 1331 -1331 
Q 1025 -1281 716 -1178 
L 716 -306 
Q 1009 -475 1290 -558 
Q 1572 -641 1856 -641 
Q 2406 -641 2662 -400 
Q 2919 -159 2919 353 
L 2919 594 
z
M 2181 2772 
Q 1834 2772 1640 2515 
Q 1447 2259 1447 1791 
Q 1447 1309 1634 1061 
Q 1822 813 2181 813 
Q 2531 813 2725 1069 
Q 2919 1325 2919 1791 
Q 2919 2259 2725 2515 
Q 2531 2772 2181 2772 
z
" transform="scale(0.015625)"/>
     </defs>
     <use xlink:href="#DejaVuSans-Bold-54"/>
     <use xlink:href="#DejaVuSans-Bold-69" transform="translate(68.212891 0)"/>
     <use xlink:href="#DejaVuSans-Bold-65" transform="translate(102.490234 0)"/>
     <use xlink:href="#DejaVuSans-Bold-6d" transform="translate(170.3125 0)"/>
     <use xlink:href="#DejaVuSans-Bold-70" transform="translate(274.511719 0)"/>
     <use xlink:href="#DejaVuSans-Bold-6f" transform="translate(346.09375 0)"/>
     <use xlink:href="#DejaVuSans-Bold-20" transform="translate(414.794922 0)"/>
     <use xlink:href="#DejaVuSans-Bold-64" transform="translate(449.609375 0)"/>
     <use xlink:href="#DejaVuSans-Bold-65" transform="translate(521.191406 0)"/>
     <use xlink:href="#DejaVuSans-Bold-20" transform="translate(589.013672 0)"/>
     <use xlink:href="#DejaVuSans-Bold-63" transform="translate(623.828125 0)"/>
     <use xlink:href="#DejaVuSans-Bold-61" transform="translate(683.105469 0)"/>
     <use xlink:href="#DejaVuSans-Bold-72" transform="translate(750.585938 0)"/>
     <use xlink:href="#DejaVuSans-Bold-67" transform="translate(799.902344 0)"/>
     <use xlink:href="#DejaVuSans-Bold-61" transform="translate(871.484375 0)"/>
     <use xlink:href="#DejaVuSans-Bold-20" transform="translate(938.964844 0)"/>
     <use xlink:href="#DejaVuSans-Bold-28" transform="translate(973.779297 0)"/>
     <use xlink:href="#DejaVuSans-Bold-6d" transform="translate(1019.482422 0)"/>
     <use xlink:href="#DejaVuSans-Bold-73" transform="translate(1123.681641 0)"/>
     <use xlink:href="#DejaVuSans-Bold-29" transform="translate(1183.203125 0)"/>
    </g>
   </g>
  </g>
  <g id="text_30">
   <!-- Comparativa de formatos: Joblib comprime sin perder velocidad -->
   <g style="fill: #2c3e50" transform="translate(7.2 17.457891) scale(0.135 -0.135)">
    <defs>
     <path id="DejaVuSans-Bold-43" d="M 4288 256 
Q 3956 84 3597 -3 
Q 3238 -91 2847 -91 
Q 1681 -91 1000 561 
Q 319 1213 319 2328 
Q 319 3447 1000 4098 
Q 1681 4750 2847 4750 
Q 3238 4750 3597 4662 
Q 3956 4575 4288 4403 
L 4288 3438 
Q 3953 3666 3628 3772 
Q 3303 3878 2944 3878 
Q 2300 3878 1931 3465 
Q 1563 3053 1563 2328 
Q 1563 1606 1931 1193 
Q 2300 781 2944 781 
Q 3303 781 3628 887 
Q 3953 994 4288 1222 
L 4288 256 
z
" transform="scale(0.015625)"/>
     <path id="DejaVuSans-Bold-74" d="M 1759 4494 
L 1759 3500 
L 2913 3500 
L 2913 2700 
L 1759 2700 
L 1759 1216 
Q 1759 972 1856 886 
Q 1953 800 2241 800 
L 2816 800 
L 2816 0 
L 1856 0 
Q 1194 0 917 276 
Q 641 553 641 1216 
L 641 2700 
L 84 2700 
L 84 3500 
L 641 3500 
L 641 4494 
L 1759 4494 
z
" transform="scale(0.015625)"/>
     <path id="DejaVuSans-Bold-76" d="M 97 3500 
L 1216 3500 
L 2088 1081 
L 2956 3500 
L 4078 3500 
L 2700 0 
L 1472 0 
L 97 3500 
z
" transform="scale(0.015625)"/>
     <path id="DejaVuSans-Bold-66" d="M 2841 4863 
L 2841 4128 
L 2222 4128 
Q 1984 4128 1890 4042 
Q 1797 3956 1797 3744 
L 1797 3500 
L 2753 3500 
L 2753 2700 
L 1797 2700 
L 1797 0 
L 678 0 
L 678 2700 
L 122 2700 
L 122 3500 
L 678 3500 
L 678 3744 
Q 678 4316 997 4589 
Q 1316 4863 1984 4863 
L 2841 4863 
z
" transform="scale(0.015625)"/>
     <path id="DejaVuSans-Bold-3a" d="M 716 3500 
L 1844 3500 
L 1844 2291 
L 716 2291 
L 716 3500 
z
M 716 1209 
L 1844 1209 
L 1844 0 
L 716 0 
L 716 1209 
z
" transform="scale(0.015625)"/>
     <path id="DejaVuSans-Bold-4a" d="M 588 4666 
L 1791 4666 
L 1791 453 
Q 1791 -419 1317 -850 
Q 844 -1281 -116 -1281 
L -359 -1281 
L -359 -372 
L -172 -372 
Q 203 -372 395 -162 
Q 588 47 588 453 
L 588 4666 
z
" transform="scale(0.015625)"/>
     <path id="DejaVuSans-Bold-62" d="M 2400 722 
Q 2759 722 2948 984 
Q 3138 1247 3138 1747 
Q 3138 2247 2948 2509 
Q 2759 2772 2400 2772 
Q 2041 2772 1848 2508 
Q 1656 2244 1656 1747 
Q 1656 1250 1848 986 
Q 2041 722 2400 722 
z
M 1656 2988 
Q 1888 3294 2169 3439 
Q 2450 3584 2816 3584 
Q 3463 3584 3878 3070 
Q 4294 2556 4294 1747 
Q 4294 938 3878 423 
Q 3463 -91 2816 -91 
Q 2450 -91 2169 54 
Q 1888 200 1656 506 
L 1656 0 
L 538 0 
L 538 4863 
L 1656 4863 
L 1656 2988 
z
" transform="scale(0.015625)"/>
     <path id="DejaVuSans-Bold-6c" d="M 538 4863 
L 1656 4863 
L 1656 0 
L 538 0 
L 538 4863 
z
" transform="scale(0.015625)"/>
    </defs>
    <use xlink:href="#DejaVuSans-Bold-43"/>
    <use xlink:href="#DejaVuSans-Bold-6f" transform="translate(73.388672 0)"/>
    <use xlink:href="#DejaVuSans-Bold-6d" transform="translate(142.089844 0)"/>
    <use xlink:href="#DejaVuSans-Bold-70" transform="translate(246.289062 0)"/>
    <use xlink:href="#DejaVuSans-Bold-61" transform="translate(317.871094 0)"/>
    <use xlink:href="#DejaVuSans-Bold-72" transform="translate(385.351562 0)"/>
    <use xlink:href="#DejaVuSans-Bold-61" transform="translate(434.667969 0)"/>
    <use xlink:href="#DejaVuSans-Bold-74" transform="translate(502.148438 0)"/>
    <use xlink:href="#DejaVuSans-Bold-69" transform="translate(549.951172 0)"/>
    <use xlink:href="#DejaVuSans-Bold-76" transform="translate(584.228516 0)"/>
    <use xlink:href="#DejaVuSans-Bold-61" transform="translate(649.414062 0)"/>
    <use xlink:href="#DejaVuSans-Bold-20" transform="translate(716.894531 0)"/>
    <use xlink:href="#DejaVuSans-Bold-64" transform="translate(751.708984 0)"/>
    <use xlink:href="#DejaVuSans-Bold-65" transform="translate(823.291016 0)"/>
    <use xlink:href="#DejaVuSans-Bold-20" transform="translate(891.113281 0)"/>
    <use xlink:href="#DejaVuSans-Bold-66" transform="translate(925.927734 0)"/>
    <use xlink:href="#DejaVuSans-Bold-6f" transform="translate(969.433594 0)"/>
    <use xlink:href="#DejaVuSans-Bold-72" transform="translate(1038.134766 0)"/>
    <use xlink:href="#DejaVuSans-Bold-6d" transform="translate(1087.451172 0)"/>
    <use xlink:href="#DejaVuSans-Bold-61" transform="translate(1191.650391 0)"/>
    <use xlink:href="#DejaVuSans-Bold-74" transform="translate(1259.130859 0)"/>
    <use xlink:href="#DejaVuSans-Bold-6f" transform="translate(1306.933594 0)"/>
    <use xlink:href="#DejaVuSans-Bold-73" transform="translate(1375.634766 0)"/>
    <use xlink:href="#DejaVuSans-Bold-3a" transform="translate(1435.15625 0)"/>
    <use xlink:href="#DejaVuSans-Bold-20" transform="translate(1475.146484 0)"/>
    <use xlink:href="#DejaVuSans-Bold-4a" transform="translate(1509.960938 0)"/>
    <use xlink:href="#DejaVuSans-Bold-6f" transform="translate(1547.167969 0)"/>
    <use xlink:href="#DejaVuSans-Bold-62" transform="translate(1615.869141 0)"/>
    <use xlink:href="#DejaVuSans-Bold-6c" transform="translate(1687.451172 0)"/>
    <use xlink:href="#DejaVuSans-Bold-69" transform="translate(1721.728516 0)"/>
    <use xlink:href="#DejaVuSans-Bold-62" transform="translate(1756.005859 0)"/>
    <use xlink:href="#DejaVuSans-Bold-20" transform="translate(1827.587891 0)"/>
    <use xlink:href="#DejaVuSans-Bold-63" transform="translate(1862.402344 0)"/>
    <use xlink:href="#DejaVuSans-Bold-6f" transform="translate(1921.679688 0)"/>
    <use xlink:href="#DejaVuSans-Bold-6d" transform="translate(1990.380859 0)"/>
    <use xlink:href="#DejaVuSans-Bold-70" transform="translate(2094.580078 0)"/>
    <use xlink:href="#DejaVuSans-Bold-72" transform="translate(2166.162109 0)"/>
    <use xlink:href="#DejaVuSans-Bold-69" transform="translate(2215.478516 0)"/>
    <use xlink:href="#DejaVuSans-Bold-6d" transform="translate(2249.755859 0)"/>
    <use xlink:href="#DejaVuSans-Bold-65" transform="translate(2353.955078 0)"/>
    <use xlink:href="#DejaVuSans-Bold-20" transform="translate(2421.777344 0)"/>
    <use xlink:href="#DejaVuSans-Bold-73" transform="translate(2456.591797 0)"/>
    <use xlink:href="#DejaVuSans-Bold-69" transform="translate(2516.113281 0)"/>
    <use xlink:href="#DejaVuSans-Bold-6e" transform="translate(2550.390625 0)"/>
    <use xlink:href="#DejaVuSans-Bold-20" transform="translate(2621.582031 0)"/>
    <use xlink:href="#DejaVuSans-Bold-70" transform="translate(2656.396484 0)"/>
    <use xlink:href="#DejaVuSans-Bold-65" transform="translate(2727.978516 0)"/>
    <use xlink:href="#DejaVuSans-Bold-72" transform="translate(2795.800781 0)"/>
    <use xlink:href="#DejaVuSans-Bold-64" transform="translate(2845.117188 0)"/>
    <use xlink:href="#DejaVuSans-Bold-65" transform="translate(2916.699219 0)"/>
    <use xlink:href="#DejaVuSans-Bold-72" transform="translate(2984.521484 0)"/>
    <use xlink:href="#DejaVuSans-Bold-20" transform="translate(3033.837891 0)"/>
    <use xlink:href="#DejaVuSans-Bold-76" transform="translate(3068.652344 0)"/>
    <use xlink:href="#DejaVuSans-Bold-65" transform="translate(3133.837891 0)"/>
    <use xlink:href="#DejaVuSans-Bold-6c" transform="translate(3201.660156 0)"/>
    <use xlink:href="#DejaVuSans-Bold-6f" transform="translate(3235.9375 0)"/>
    <use xlink:href="#DejaVuSans-Bold-63" transform="translate(3304.638672 0)"/>
    <use xlink:href="#DejaVuSans-Bold-69" transform="translate(3363.916016 0)"/>
    <use xlink:href="#DejaVuSans-Bold-64" transform="translate(3398.193359 0)"/>
    <use xlink:href="#DejaVuSans-Bold-61" transform="translate(3469.775391 0)"/>
    <use xlink:href="#DejaVuSans-Bold-64" transform="translate(3537.255859 0)"/>
   </g>
  </g>
 </g>
 <defs>
  <clipPath id="p4321443279">
   <rect x="61.386562" y="55.695281" width="299.485593" height="217.306875"/>
  </clipPath>
  <clipPath id="p772231680c">
   <rect x="452.099695" y="55.695281" width="299.485593" height="217.306875"/>
  </clipPath>
 </defs>
</svg>
