<?xml version="1.0" encoding="utf-8" standalone="no"?>
<!DOCTYPE svg PUBLIC "-//W3C//DTD SVG 1.1//EN"
  "http://www.w3.org/Graphics/SVG/1.1/DTD/svg11.dtd">
<svg xmlns:xlink="http://www.w3.org/1999/xlink" width="914.364pt" height="291.14pt" viewBox="0 0 914.364 291.14" xmlns="http://www.w3.org/2000/svg" version="1.1">
 <metadata>
  <rdf:RDF xmlns:dc="http://purl.org/dc/elements/1.1/" xmlns:cc="http://creativecommons.org/ns#" xmlns:rdf="http://www.w3.org/1999/02/22-rdf-syntax-ns#">
   <cc:Work>
    <dc:type rdf:resource="http://purl.org/dc/dcmitype/StillImage"/>
    <dc:date>2026-06-13T13:20:30.179925</dc:date>
    <dc:format>image/svg+xml</dc:format>
    <dc:creator>
     <cc:Agent>
      <dc:title>Matplotlib v3.10.0, https://matplotlib.org/</dc:title>
     </cc:Agent>
    </dc:creator>
   </cc:Work>
  </rdf:RDF>
 </metadata>
 <defs>
  <style type="text/css">*{stroke-linejoin: round; stroke-linecap: butt}</style>
 </defs>
 <g id="figure_1">
  <g id="patch_1">
   <path d="M 0 291.14 
L 914.364 291.14 
L 914.364 0 
L 0 0 
L 0 291.14 
z
" style="fill: none"/>
  </g>
  <g id="axes_1">
   <g id="patch_2">
    <path d="M 41.544 108.348393 
L 65.418 108.348393 
L 65.418 76.183109 
L 41.544 76.183109 
z
" clip-path="url(#p1fda7b389d)" style="fill: #e07b39; stroke: #ffffff; stroke-linejoin: miter"/>
   </g>
   <g id="patch_3">
    <path d="M 67.494 108.348393 
L 91.368 108.348393 
L 91.368 76.183109 
L 67.494 76.183109 
z
" clip-path="url(#p1fda7b389d)" style="fill: #e07b39; stroke: #ffffff; stroke-linejoin: miter"/>
   </g>
   <g id="patch_4">
    <path d="M 93.444 108.348393 
L 117.318 108.348393 
L 117.318 76.183109 
L 93.444 76.183109 
z
" clip-path="url(#p1fda7b389d)" style="fill: #3498db; stroke: #ffffff; stroke-linejoin: miter"/>
   </g>
   <g id="patch_5">
    <path d="M 119.394 108.348393 
L 143.268 108.348393 
L 143.268 76.183109 
L 119.394 76.183109 
z
" clip-path="url(#p1fda7b389d)" style="fill: #3498db; stroke: #ffffff; stroke-linejoin: miter"/>
   </g>
   <g id="patch_6">
    <path d="M 145.344 108.348393 
L 169.218 108.348393 
L 169.218 76.183109 
L 145.344 76.183109 
z
" clip-path="url(#p1fda7b389d)" style="fill: #3498db; stroke: #ffffff; stroke-linejoin: miter"/>
   </g>
   <g id="patch_7">
    <path d="M 171.294 108.348393 
L 195.168 108.348393 
L 195.168 76.183109 
L 171.294 76.183109 
z
" clip-path="url(#p1fda7b389d)" style="fill: #3498db; stroke: #ffffff; stroke-linejoin: miter"/>
   </g>
   <g id="patch_8">
    <path d="M 197.244 108.348393 
L 221.118 108.348393 
L 221.118 76.183109 
L 197.244 76.183109 
z
" clip-path="url(#p1fda7b389d)" style="fill: #3498db; stroke: #ffffff; stroke-linejoin: miter"/>
   </g>
   <g id="patch_9">
    <path d="M 223.194 108.348393 
L 247.068 108.348393 
L 247.068 76.183109 
L 223.194 76.183109 
z
" clip-path="url(#p1fda7b389d)" style="fill: #3498db; stroke: #ffffff; stroke-linejoin: miter"/>
   </g>
   <g id="patch_10">
    <path d="M 249.144 108.348393 
L 273.018 108.348393 
L 273.018 76.183109 
L 249.144 76.183109 
z
" clip-path="url(#p1fda7b389d)" style="fill: #3498db; stroke: #ffffff; stroke-linejoin: miter"/>
   </g>
   <g id="patch_11">
    <path d="M 275.094 108.348393 
L 298.968 108.348393 
L 298.968 76.183109 
L 275.094 76.183109 
z
" clip-path="url(#p1fda7b389d)" style="fill: #3498db; stroke: #ffffff; stroke-linejoin: miter"/>
   </g>
   <g id="patch_12">
    <path d="M 41.544 147.574348 
L 65.418 147.574348 
L 65.418 115.409065 
L 41.544 115.409065 
z
" clip-path="url(#p1fda7b389d)" style="fill: #3498db; stroke: #ffffff; stroke-linejoin: miter"/>
   </g>
   <g id="patch_13">
    <path d="M 67.494 147.574348 
L 91.368 147.574348 
L 91.368 115.409065 
L 67.494 115.409065 
z
" clip-path="url(#p1fda7b389d)" style="fill: #3498db; stroke: #ffffff; stroke-linejoin: miter"/>
   </g>
   <g id="patch_14">
    <path d="M 93.444 147.574348 
L 117.318 147.574348 
L 117.318 115.409065 
L 93.444 115.409065 
z
" clip-path="url(#p1fda7b389d)" style="fill: #e07b39; stroke: #ffffff; stroke-linejoin: miter"/>
   </g>
   <g id="patch_15">
    <path d="M 119.394 147.574348 
L 143.268 147.574348 
L 143.268 115.409065 
L 119.394 115.409065 
z
" clip-path="url(#p1fda7b389d)" style="fill: #e07b39; stroke: #ffffff; stroke-linejoin: miter"/>
   </g>
   <g id="patch_16">
    <path d="M 145.344 147.574348 
L 169.218 147.574348 
L 169.218 115.409065 
L 145.344 115.409065 
z
" clip-path="url(#p1fda7b389d)" style="fill: #3498db; stroke: #ffffff; stroke-linejoin: miter"/>
   </g>
   <g id="patch_17">
    <path d="M 171.294 147.574348 
L 195.168 147.574348 
L 195.168 115.409065 
L 171.294 115.409065 
z
" clip-path="url(#p1fda7b389d)" style="fill: #3498db; stroke: #ffffff; stroke-linejoin: miter"/>
   </g>
   <g id="patch_18">
    <path d="M 197.244 147.574348 
L 221.118 147.574348 
L 221.118 115.409065 
L 197.244 115.409065 
z
" clip-path="url(#p1fda7b389d)" style="fill: #3498db; stroke: #ffffff; stroke-linejoin: miter"/>
   </g>
   <g id="patch_19">
    <path d="M 223.194 147.574348 
L 247.068 147.574348 
L 247.068 115.409065 
L 223.194 115.409065 
z
" clip-path="url(#p1fda7b389d)" style="fill: #3498db; stroke: #ffffff; stroke-linejoin: miter"/>
   </g>
   <g id="patch_20">
    <path d="M 249.144 147.574348 
L 273.018 147.574348 
L 273.018 115.409065 
L 249.144 115.409065 
z
" clip-path="url(#p1fda7b389d)" style="fill: #3498db; stroke: #ffffff; stroke-linejoin: miter"/>
   </g>
   <g id="patch_21">
    <path d="M 275.094 147.574348 
L 298.968 147.574348 
L 298.968 115.409065 
L 275.094 115.409065 
z
" clip-path="url(#p1fda7b389d)" style="fill: #3498db; stroke: #ffffff; stroke-linejoin: miter"/>
   </g>
   <g id="patch_22">
    <path d="M 41.544 186.800303 
L 65.418 186.800303 
L 65.418 154.63502 
L 41.544 154.63502 
z
" clip-path="url(#p1fda7b389d)" style="fill: #3498db; stroke: #ffffff; stroke-linejoin: miter"/>
   </g>
   <g id="patch_23">
    <path d="M 67.494 186.800303 
L 91.368 186.800303 
L 91.368 154.63502 
L 67.494 154.63502 
z
" clip-path="url(#p1fda7b389d)" style="fill: #3498db; stroke: #ffffff; stroke-linejoin: miter"/>
   </g>
   <g id="patch_24">
    <path d="M 93.444 186.800303 
L 117.318 186.800303 
L 117.318 154.63502 
L 93.444 154.63502 
z
" clip-path="url(#p1fda7b389d)" style="fill: #3498db; stroke: #ffffff; stroke-linejoin: miter"/>
   </g>
   <g id="patch_25">
    <path d="M 119.394 186.800303 
L 143.268 186.800303 
L 143.268 154.63502 
L 119.394 154.63502 
z
" clip-path="url(#p1fda7b389d)" style="fill: #3498db; stroke: #ffffff; stroke-linejoin: miter"/>
   </g>
   <g id="patch_26">
    <path d="M 145.344 186.800303 
L 169.218 186.800303 
L 169.218 154.63502 
L 145.344 154.63502 
z
" clip-path="url(#p1fda7b389d)" style="fill: #e07b39; stroke: #ffffff; stroke-linejoin: miter"/>
   </g>
   <g id="patch_27">
    <path d="M 171.294 186.800303 
L 195.168 186.800303 
L 195.168 154.63502 
L 171.294 154.63502 
z
" clip-path="url(#p1fda7b389d)" style="fill: #e07b39; stroke: #ffffff; stroke-linejoin: miter"/>
   </g>
   <g id="patch_28">
    <path d="M 197.244 186.800303 
L 221.118 186.800303 
L 221.118 154.63502 
L 197.244 154.63502 
z
" clip-path="url(#p1fda7b389d)" style="fill: #3498db; stroke: #ffffff; stroke-linejoin: miter"/>
   </g>
   <g id="patch_29">
    <path d="M 223.194 186.800303 
L 247.068 186.800303 
L 247.068 154.63502 
L 223.194 154.63502 
z
" clip-path="url(#p1fda7b389d)" style="fill: #3498db; stroke: #ffffff; stroke-linejoin: miter"/>
   </g>
   <g id="patch_30">
    <path d="M 249.144 186.800303 
L 273.018 186.800303 
L 273.018 154.63502 
L 249.144 154.63502 
z
" clip-path="url(#p1fda7b389d)" style="fill: #3498db; stroke: #ffffff; stroke-linejoin: miter"/>
   </g>
   <g id="patch_31">
    <path d="M 275.094 186.800303 
L 298.968 186.800303 
L 298.968 154.63502 
L 275.094 154.63502 
z
" clip-path="url(#p1fda7b389d)" style="fill: #3498db; stroke: #ffffff; stroke-linejoin: miter"/>
   </g>
   <g id="patch_32">
    <path d="M 41.544 226.026258 
L 65.418 226.026258 
L 65.418 193.860975 
L 41.544 193.860975 
z
" clip-path="url(#p1fda7b389d)" style="fill: #3498db; stroke: #ffffff; stroke-linejoin: miter"/>
   </g>
   <g id="patch_33">
    <path d="M 67.494 226.026258 
L 91.368 226.026258 
L 91.368 193.860975 
L 67.494 193.860975 
z
" clip-path="url(#p1fda7b389d)" style="fill: #3498db; stroke: #ffffff; stroke-linejoin: miter"/>
   </g>
   <g id="patch_34">
    <path d="M 93.444 226.026258 
L 117.318 226.026258 
L 117.318 193.860975 
L 93.444 193.860975 
z
" clip-path="url(#p1fda7b389d)" style="fill: #3498db; stroke: #ffffff; stroke-linejoin: miter"/>
   </g>
   <g id="patch_35">
    <path d="M 119.394 226.026258 
L 143.268 226.026258 
L 143.268 193.860975 
L 119.394 193.860975 
z
" clip-path="url(#p1fda7b389d)" style="fill: #3498db; stroke: #ffffff; stroke-linejoin: miter"/>
   </g>
   <g id="patch_36">
    <path d="M 145.344 226.026258 
L 169.218 226.026258 
L 169.218 193.860975 
L 145.344 193.860975 
z
" clip-path="url(#p1fda7b389d)" style="fill: #3498db; stroke: #ffffff; stroke-linejoin: miter"/>
   </g>
   <g id="patch_37">
    <path d="M 171.294 226.026258 
L 195.168 226.026258 
L 195.168 193.860975 
L 171.294 193.860975 
z
" clip-path="url(#p1fda7b389d)" style="fill: #3498db; stroke: #ffffff; stroke-linejoin: miter"/>
   </g>
   <g id="patch_38">
    <path d="M 197.244 226.026258 
L 221.118 226.026258 
L 221.118 193.860975 
L 197.244 193.860975 
z
" clip-path="url(#p1fda7b389d)" style="fill: #e07b39; stroke: #ffffff; stroke-linejoin: miter"/>
   </g>
   <g id="patch_39">
    <path d="M 223.194 226.026258 
L 247.068 226.026258 
L 247.068 193.860975 
L 223.194 193.860975 
z
" clip-path="url(#p1fda7b389d)" style="fill: #e07b39; stroke: #ffffff; stroke-linejoin: miter"/>
   </g>
   <g id="patch_40">
    <path d="M 249.144 226.026258 
L 273.018 226.026258 
L 273.018 193.860975 
L 249.144 193.860975 
z
" clip-path="url(#p1fda7b389d)" style="fill: #3498db; stroke: #ffffff; stroke-linejoin: miter"/>
   </g>
   <g id="patch_41">
    <path d="M 275.094 226.026258 
L 298.968 226.026258 
L 298.968 193.860975 
L 275.094 193.860975 
z
" clip-path="url(#p1fda7b389d)" style="fill: #3498db; stroke: #ffffff; stroke-linejoin: miter"/>
   </g>
   <g id="patch_42">
    <path d="M 41.544 265.252213 
L 65.418 265.252213 
L 65.418 233.08693 
L 41.544 233.08693 
z
" clip-path="url(#p1fda7b389d)" style="fill: #3498db; stroke: #ffffff; stroke-linejoin: miter"/>
   </g>
   <g id="patch_43">
    <path d="M 67.494 265.252213 
L 91.368 265.252213 
L 91.368 233.08693 
L 67.494 233.08693 
z
" clip-path="url(#p1fda7b389d)" style="fill: #3498db; stroke: #ffffff; stroke-linejoin: miter"/>
   </g>
   <g id="patch_44">
    <path d="M 93.444 265.252213 
L 117.318 265.252213 
L 117.318 233.08693 
L 93.444 233.08693 
z
" clip-path="url(#p1fda7b389d)" style="fill: #3498db; stroke: #ffffff; stroke-linejoin: miter"/>
   </g>
   <g id="patch_45">
    <path d="M 119.394 265.252213 
L 143.268 265.252213 
L 143.268 233.08693 
L 119.394 233.08693 
z
" clip-path="url(#p1fda7b389d)" style="fill: #3498db; stroke: #ffffff; stroke-linejoin: miter"/>
   </g>
   <g id="patch_46">
    <path d="M 145.344 265.252213 
L 169.218 265.252213 
L 169.218 233.08693 
L 145.344 233.08693 
z
" clip-path="url(#p1fda7b389d)" style="fill: #3498db; stroke: #ffffff; stroke-linejoin: miter"/>
   </g>
   <g id="patch_47">
    <path d="M 171.294 265.252213 
L 195.168 265.252213 
L 195.168 233.08693 
L 171.294 233.08693 
z
" clip-path="url(#p1fda7b389d)" style="fill: #3498db; stroke: #ffffff; stroke-linejoin: miter"/>
   </g>
   <g id="patch_48">
    <path d="M 197.244 265.252213 
L 221.118 265.252213 
L 221.118 233.08693 
L 197.244 233.08693 
z
" clip-path="url(#p1fda7b389d)" style="fill: #3498db; stroke: #ffffff; stroke-linejoin: miter"/>
   </g>
   <g id="patch_49">
    <path d="M 223.194 265.252213 
L 247.068 265.252213 
L 247.068 233.08693 
L 223.194 233.08693 
z
" clip-path="url(#p1fda7b389d)" style="fill: #3498db; stroke: #ffffff; stroke-linejoin: miter"/>
   </g>
   <g id="patch_50">
    <path d="M 249.144 265.252213 
L 273.018 265.252213 
L 273.018 233.08693 
L 249.144 233.08693 
z
" clip-path="url(#p1fda7b389d)" style="fill: #e07b39; stroke: #ffffff; stroke-linejoin: miter"/>
   </g>
   <g id="patch_51">
    <path d="M 275.094 265.252213 
L 298.968 265.252213 
L 298.968 233.08693 
L 275.094 233.08693 
z
" clip-path="url(#p1fda7b389d)" style="fill: #e07b39; stroke: #ffffff; stroke-linejoin: miter"/>
   </g>
   <g id="text_1">
    <!-- F1 -->
    <g style="fill: #2c3e50" transform="translate(19.049937 95.417386) scale(0.1 -0.1)">
     <defs>
      <path id="DejaVuSans-46" d="M 628 4666 
L 3309 4666 
L 3309 4134 
L 1259 4134 
L 1259 2759 
L 3109 2759 
L 3109 2228 
L 1259 2228 
L 1259 0 
L 628 0 
L 628 4666 
z
" transform="scale(0.015625)"/>
      <path id="DejaVuSans-31" d="M 794 531 
L 1825 531 
L 1825 4091 
L 703 3866 
L 703 4441 
L 1819 4666 
L 2450 4666 
L 2450 531 
L 3481 531 
L 3481 0 
L 794 0 
L 794 531 
z
" transform="scale(0.015625)"/>
     </defs>
     <use xlink:href="#DejaVuSans-46"/>
     <use xlink:href="#DejaVuSans-31" transform="translate(57.519531 0)"/>
    </g>
   </g>
   <g id="text_2">
    <!-- F2 -->
    <g style="fill: #2c3e50" transform="translate(19.049937 134.643341) scale(0.1 -0.1)">
     <defs>
      <path id="DejaVuSans-32" d="M 1228 531 
L 3431 531 
L 3431 0 
L 469 0 
L 469 531 
Q 828 903 1448 1529 
Q 2069 2156 2228 2338 
Q 2531 2678 2651 2914 
Q 2772 3150 2772 3378 
Q 2772 3750 2511 3984 
Q 2250 4219 1831 4219 
Q 1534 4219 1204 4116 
Q 875 4013 500 3803 
L 500 4441 
Q 881 4594 1212 4672 
Q 1544 4750 1819 4750 
Q 2544 4750 2975 4387 
Q 3406 4025 3406 3419 
Q 3406 3131 3298 2873 
Q 3191 2616 2906 2266 
Q 2828 2175 2409 1742 
Q 1991 1309 1228 531 
z
" transform="scale(0.015625)"/>
     </defs>
     <use xlink:href="#DejaVuSans-46"/>
     <use xlink:href="#DejaVuSans-32" transform="translate(57.519531 0)"/>
    </g>
   </g>
   <g id="text_3">
    <!-- F3 -->
    <g style="fill: #2c3e50" transform="translate(19.049937 173.869296) scale(0.1 -0.1)">
     <defs>
      <path id="DejaVuSans-33" d="M 2597 2516 
Q 3050 2419 3304 2112 
Q 3559 1806 3559 1356 
Q 3559 666 3084 287 
Q 2609 -91 1734 -91 
Q 1441 -91 1130 -33 
Q 819 25 488 141 
L 488 750 
Q 750 597 1062 519 
Q 1375 441 1716 441 
Q 2309 441 2620 675 
Q 2931 909 2931 1356 
Q 2931 1769 2642 2001 
Q 2353 2234 1838 2234 
L 1294 2234 
L 1294 2753 
L 1863 2753 
Q 2328 2753 2575 2939 
Q 2822 3125 2822 3475 
Q 2822 3834 2567 4026 
Q 2313 4219 1838 4219 
Q 1578 4219 1281 4162 
Q 984 4106 628 3988 
L 628 4550 
Q 988 4650 1302 4700 
Q 1616 4750 1894 4750 
Q 2613 4750 3031 4423 
Q 3450 4097 3450 3541 
Q 3450 3153 3228 2886 
Q 3006 2619 2597 2516 
z
" transform="scale(0.015625)"/>
     </defs>
     <use xlink:href="#DejaVuSans-46"/>
     <use xlink:href="#DejaVuSans-33" transform="translate(57.519531 0)"/>
    </g>
   </g>
   <g id="text_4">
    <!-- F4 -->
    <g style="fill: #2c3e50" transform="translate(19.049937 213.095251) scale(0.1 -0.1)">
     <defs>
      <path id="DejaVuSans-34" d="M 2419 4116 
L 825 1625 
L 2419 1625 
L 2419 4116 
z
M 2253 4666 
L 3047 4666 
L 3047 1625 
L 3713 1625 
L 3713 1100 
L 3047 1100 
L 3047 0 
L 2419 0 
L 2419 1100 
L 313 1100 
L 313 1709 
L 2253 4666 
z
" transform="scale(0.015625)"/>
     </defs>
     <use xlink:href="#DejaVuSans-46"/>
     <use xlink:href="#DejaVuSans-34" transform="translate(57.519531 0)"/>
    </g>
   </g>
   <g id="text_5">
    <!-- F5 -->
    <g style="fill: #2c3e50" transform="translate(19.049937 252.321206) scale(0.1 -0.1)">
     <defs>
      <path id="DejaVuSans-35" d="M 691 4666 
L 3169 4666 
L 3169 4134 
L 1269 4134 
L 1269 2991 
Q 1406 3038 1543 3061 
Q 1681 3084 1819 3084 
Q 2600 3084 3056 2656 
Q 3513 2228 3513 1497 
Q 3513 744 3044 326 
Q 2575 -91 1722 -91 
Q 1428 -91 1123 -41 
Q 819 9 494 109 
L 494 744 
Q 775 591 1075 516 
Q 1375 441 1709 441 
Q 2250 441 2565 725 
Q 2881 1009 2881 1497 
Q 2881 1984 2565 2268 
Q 2250 2553 1709 2553 
Q 1456 2553 1204 2497 
Q 953 2441 691 2322 
L 691 4666 
z
" transform="scale(0.015625)"/>
     </defs>
     <use xlink:href="#DejaVuSans-46"/>
     <use xlink:href="#DejaVuSans-35" transform="translate(57.519531 0)"/>
    </g>
   </g>
   <g id="text_6">
    <!-- StratifiedKFold -->
    <g style="fill: #2c3e50" transform="translate(10.404 49.109063) scale(0.12 -0.12)">
     <defs>
      <path id="DejaVuSans-Bold-53" d="M 3834 4519 
L 3834 3531 
Q 3450 3703 3084 3790 
Q 2719 3878 2394 3878 
Q 1963 3878 1756 3759 
Q 1550 3641 1550 3391 
Q 1550 3203 1689 3098 
Q 1828 2994 2194 2919 
L 2706 2816 
Q 3484 2659 3812 2340 
Q 4141 2022 4141 1434 
Q 4141 663 3683 286 
Q 3225 -91 2284 -91 
Q 1841 -91 1394 -6 
Q 947 78 500 244 
L 500 1259 
Q 947 1022 1364 901 
Q 1781 781 2169 781 
Q 2563 781 2772 912 
Q 2981 1044 2981 1288 
Q 2981 1506 2839 1625 
Q 2697 1744 2272 1838 
L 1806 1941 
Q 1106 2091 782 2419 
Q 459 2747 459 3303 
Q 459 4000 909 4375 
Q 1359 4750 2203 4750 
Q 2588 4750 2994 4692 
Q 3400 4634 3834 4519 
z
" transform="scale(0.015625)"/>
      <path id="DejaVuSans-Bold-74" d="M 1759 4494 
L 1759 3500 
L 2913 3500 
L 2913 2700 
L 1759 2700 
L 1759 1216 
Q 1759 972 1856 886 
Q 1953 800 2241 800 
L 2816 800 
L 2816 0 
L 1856 0 
Q 1194 0 917 276 
Q 641 553 641 1216 
L 641 2700 
L 84 2700 
L 84 3500 
L 641 3500 
L 641 4494 
L 1759 4494 
z
" transform="scale(0.015625)"/>
      <path id="DejaVuSans-Bold-72" d="M 3138 2547 
Q 2991 2616 2845 2648 
Q 2700 2681 2553 2681 
Q 2122 2681 1889 2404 
Q 1656 2128 1656 1613 
L 1656 0 
L 538 0 
L 538 3500 
L 1656 3500 
L 1656 2925 
Q 1872 3269 2151 3426 
Q 2431 3584 2822 3584 
Q 2878 3584 2943 3579 
Q 3009 3575 3134 3559 
L 3138 2547 
z
" transform="scale(0.015625)"/>
      <path id="DejaVuSans-Bold-61" d="M 2106 1575 
Q 1756 1575 1579 1456 
Q 1403 1338 1403 1106 
Q 1403 894 1545 773 
Q 1688 653 1941 653 
Q 2256 653 2472 879 
Q 2688 1106 2688 1447 
L 2688 1575 
L 2106 1575 
z
M 3816 1997 
L 3816 0 
L 2688 0 
L 2688 519 
Q 2463 200 2181 54 
Q 1900 -91 1497 -91 
Q 953 -91 614 226 
Q 275 544 275 1050 
Q 275 1666 698 1953 
Q 1122 2241 2028 2241 
L 2688 2241 
L 2688 2328 
Q 2688 2594 2478 2717 
Q 2269 2841 1825 2841 
Q 1466 2841 1156 2769 
Q 847 2697 581 2553 
L 581 3406 
Q 941 3494 1303 3539 
Q 1666 3584 2028 3584 
Q 2975 3584 3395 3211 
Q 3816 2838 3816 1997 
z
" transform="scale(0.015625)"/>
      <path id="DejaVuSans-Bold-69" d="M 538 3500 
L 1656 3500 
L 1656 0 
L 538 0 
L 538 3500 
z
M 538 4863 
L 1656 4863 
L 1656 3950 
L 538 3950 
L 538 4863 
z
" transform="scale(0.015625)"/>
      <path id="DejaVuSans-Bold-66" d="M 2841 4863 
L 2841 4128 
L 2222 4128 
Q 1984 4128 1890 4042 
Q 1797 3956 1797 3744 
L 1797 3500 
L 2753 3500 
L 2753 2700 
L 1797 2700 
L 1797 0 
L 678 0 
L 678 2700 
L 122 2700 
L 122 3500 
L 678 3500 
L 678 3744 
Q 678 4316 997 4589 
Q 1316 4863 1984 4863 
L 2841 4863 
z
" transform="scale(0.015625)"/>
      <path id="DejaVuSans-Bold-65" d="M 4031 1759 
L 4031 1441 
L 1416 1441 
Q 1456 1047 1700 850 
Q 1944 653 2381 653 
Q 2734 653 3104 758 
Q 3475 863 3866 1075 
L 3866 213 
Q 3469 63 3072 -14 
Q 2675 -91 2278 -91 
Q 1328 -91 801 392 
Q 275 875 275 1747 
Q 275 2603 792 3093 
Q 1309 3584 2216 3584 
Q 3041 3584 3536 3087 
Q 4031 2591 4031 1759 
z
M 2881 2131 
Q 2881 2450 2695 2645 
Q 2509 2841 2209 2841 
Q 1884 2841 1681 2658 
Q 1478 2475 1428 2131 
L 2881 2131 
z
" transform="scale(0.015625)"/>
      <path id="DejaVuSans-Bold-64" d="M 2919 2988 
L 2919 4863 
L 4044 4863 
L 4044 0 
L 2919 0 
L 2919 506 
Q 2688 197 2409 53 
Q 2131 -91 1766 -91 
Q 1119 -91 703 423 
Q 288 938 288 1747 
Q 288 2556 703 3070 
Q 1119 3584 1766 3584 
Q 2128 3584 2408 3439 
Q 2688 3294 2919 2988 
z
M 2181 722 
Q 2541 722 2730 984 
Q 2919 1247 2919 1747 
Q 2919 2247 2730 2509 
Q 2541 2772 2181 2772 
Q 1825 2772 1636 2509 
Q 1447 2247 1447 1747 
Q 1447 1247 1636 984 
Q 1825 722 2181 722 
z
" transform="scale(0.015625)"/>
      <path id="DejaVuSans-Bold-4b" d="M 588 4666 
L 1791 4666 
L 1791 2963 
L 3525 4666 
L 4922 4666 
L 2675 2456 
L 5153 0 
L 3647 0 
L 1791 1838 
L 1791 0 
L 588 0 
L 588 4666 
z
" transform="scale(0.015625)"/>
      <path id="DejaVuSans-Bold-46" d="M 588 4666 
L 3834 4666 
L 3834 3756 
L 1791 3756 
L 1791 2888 
L 3713 2888 
L 3713 1978 
L 1791 1978 
L 1791 0 
L 588 0 
L 588 4666 
z
" transform="scale(0.015625)"/>
      <path id="DejaVuSans-Bold-6f" d="M 2203 2784 
Q 1831 2784 1636 2517 
Q 1441 2250 1441 1747 
Q 1441 1244 1636 976 
Q 1831 709 2203 709 
Q 2569 709 2762 976 
Q 2956 1244 2956 1747 
Q 2956 2250 2762 2517 
Q 2569 2784 2203 2784 
z
M 2203 3584 
Q 3106 3584 3614 3096 
Q 4122 2609 4122 1747 
Q 4122 884 3614 396 
Q 3106 -91 2203 -91 
Q 1297 -91 786 396 
Q 275 884 275 1747 
Q 275 2609 786 3096 
Q 1297 3584 2203 3584 
z
" transform="scale(0.015625)"/>
      <path id="DejaVuSans-Bold-6c" d="M 538 4863 
L 1656 4863 
L 1656 0 
L 538 0 
L 538 4863 
z
" transform="scale(0.015625)"/>
     </defs>
     <use xlink:href="#DejaVuSans-Bold-53"/>
     <use xlink:href="#DejaVuSans-Bold-74" transform="translate(72.021484 0)"/>
     <use xlink:href="#DejaVuSans-Bold-72" transform="translate(119.824219 0)"/>
     <use xlink:href="#DejaVuSans-Bold-61" transform="translate(169.140625 0)"/>
     <use xlink:href="#DejaVuSans-Bold-74" transform="translate(236.621094 0)"/>
     <use xlink:href="#DejaVuSans-Bold-69" transform="translate(284.423828 0)"/>
     <use xlink:href="#DejaVuSans-Bold-66" transform="translate(318.701172 0)"/>
     <use xlink:href="#DejaVuSans-Bold-69" transform="translate(362.207031 0)"/>
     <use xlink:href="#DejaVuSans-Bold-65" transform="translate(396.484375 0)"/>
     <use xlink:href="#DejaVuSans-Bold-64" transform="translate(464.306641 0)"/>
     <use xlink:href="#DejaVuSans-Bold-4b" transform="translate(535.888672 0)"/>
     <use xlink:href="#DejaVuSans-Bold-46" transform="translate(613.378906 0)"/>
     <use xlink:href="#DejaVuSans-Bold-6f" transform="translate(677.689453 0)"/>
     <use xlink:href="#DejaVuSans-Bold-6c" transform="translate(746.390625 0)"/>
     <use xlink:href="#DejaVuSans-Bold-64" transform="translate(780.667969 0)"/>
    </g>
    <!-- (mantiene proporción de clases) -->
    <g style="fill: #2c3e50" transform="translate(10.404 63.122438) scale(0.12 -0.12)">
     <defs>
      <path id="DejaVuSans-Bold-28" d="M 2413 -844 
L 1484 -844 
Q 1006 -72 778 623 
Q 550 1319 550 2003 
Q 550 2688 779 3389 
Q 1009 4091 1484 4856 
L 2413 4856 
Q 2013 4116 1813 3408 
Q 1613 2700 1613 2009 
Q 1613 1319 1811 609 
Q 2009 -100 2413 -844 
z
" transform="scale(0.015625)"/>
      <path id="DejaVuSans-Bold-6d" d="M 3781 2919 
Q 3994 3244 4286 3414 
Q 4578 3584 4928 3584 
Q 5531 3584 5847 3212 
Q 6163 2841 6163 2131 
L 6163 0 
L 5038 0 
L 5038 1825 
Q 5041 1866 5042 1909 
Q 5044 1953 5044 2034 
Q 5044 2406 4934 2573 
Q 4825 2741 4581 2741 
Q 4263 2741 4089 2478 
Q 3916 2216 3909 1719 
L 3909 0 
L 2784 0 
L 2784 1825 
Q 2784 2406 2684 2573 
Q 2584 2741 2328 2741 
Q 2006 2741 1831 2477 
Q 1656 2213 1656 1722 
L 1656 0 
L 531 0 
L 531 3500 
L 1656 3500 
L 1656 2988 
Q 1863 3284 2130 3434 
Q 2397 3584 2719 3584 
Q 3081 3584 3359 3409 
Q 3638 3234 3781 2919 
z
" transform="scale(0.015625)"/>
      <path id="DejaVuSans-Bold-6e" d="M 4056 2131 
L 4056 0 
L 2931 0 
L 2931 347 
L 2931 1631 
Q 2931 2084 2911 2256 
Q 2891 2428 2841 2509 
Q 2775 2619 2662 2680 
Q 2550 2741 2406 2741 
Q 2056 2741 1856 2470 
Q 1656 2200 1656 1722 
L 1656 0 
L 538 0 
L 538 3500 
L 1656 3500 
L 1656 2988 
Q 1909 3294 2193 3439 
Q 2478 3584 2822 3584 
Q 3428 3584 3742 3212 
Q 4056 2841 4056 2131 
z
" transform="scale(0.015625)"/>
      <path id="DejaVuSans-Bold-20" transform="scale(0.015625)"/>
      <path id="DejaVuSans-Bold-70" d="M 1656 506 
L 1656 -1331 
L 538 -1331 
L 538 3500 
L 1656 3500 
L 1656 2988 
Q 1888 3294 2169 3439 
Q 2450 3584 2816 3584 
Q 3463 3584 3878 3070 
Q 4294 2556 4294 1747 
Q 4294 938 3878 423 
Q 3463 -91 2816 -91 
Q 2450 -91 2169 54 
Q 1888 200 1656 506 
z
M 2400 2772 
Q 2041 2772 1848 2508 
Q 1656 2244 1656 1747 
Q 1656 1250 1848 986 
Q 2041 722 2400 722 
Q 2759 722 2948 984 
Q 3138 1247 3138 1747 
Q 3138 2247 2948 2509 
Q 2759 2772 2400 2772 
z
" transform="scale(0.015625)"/>
      <path id="DejaVuSans-Bold-63" d="M 3366 3391 
L 3366 2478 
Q 3138 2634 2908 2709 
Q 2678 2784 2431 2784 
Q 1963 2784 1702 2511 
Q 1441 2238 1441 1747 
Q 1441 1256 1702 982 
Q 1963 709 2431 709 
Q 2694 709 2930 787 
Q 3166 866 3366 1019 
L 3366 103 
Q 3103 6 2833 -42 
Q 2563 -91 2291 -91 
Q 1344 -91 809 395 
Q 275 881 275 1747 
Q 275 2613 809 3098 
Q 1344 3584 2291 3584 
Q 2566 3584 2833 3536 
Q 3100 3488 3366 3391 
z
" transform="scale(0.015625)"/>
      <path id="DejaVuSans-Bold-f3" d="M 2203 2784 
Q 1831 2784 1636 2517 
Q 1441 2250 1441 1747 
Q 1441 1244 1636 976 
Q 1831 709 2203 709 
Q 2569 709 2762 976 
Q 2956 1244 2956 1747 
Q 2956 2250 2762 2517 
Q 2569 2784 2203 2784 
z
M 2203 3584 
Q 3106 3584 3614 3096 
Q 4122 2609 4122 1747 
Q 4122 884 3614 396 
Q 3106 -91 2203 -91 
Q 1297 -91 786 396 
Q 275 884 275 1747 
Q 275 2609 786 3096 
Q 1297 3584 2203 3584 
z
M 2694 5119 
L 3578 5119 
L 2425 3944 
L 1813 3944 
L 2694 5119 
z
" transform="scale(0.015625)"/>
      <path id="DejaVuSans-Bold-73" d="M 3272 3391 
L 3272 2541 
Q 2913 2691 2578 2766 
Q 2244 2841 1947 2841 
Q 1628 2841 1473 2761 
Q 1319 2681 1319 2516 
Q 1319 2381 1436 2309 
Q 1553 2238 1856 2203 
L 2053 2175 
Q 2913 2066 3209 1816 
Q 3506 1566 3506 1031 
Q 3506 472 3093 190 
Q 2681 -91 1863 -91 
Q 1516 -91 1145 -36 
Q 775 19 384 128 
L 384 978 
Q 719 816 1070 734 
Q 1422 653 1784 653 
Q 2113 653 2278 743 
Q 2444 834 2444 1013 
Q 2444 1163 2330 1236 
Q 2216 1309 1875 1350 
L 1678 1375 
Q 931 1469 631 1722 
Q 331 1975 331 2491 
Q 331 3047 712 3315 
Q 1094 3584 1881 3584 
Q 2191 3584 2531 3537 
Q 2872 3491 3272 3391 
z
" transform="scale(0.015625)"/>
      <path id="DejaVuSans-Bold-29" d="M 513 -844 
Q 913 -100 1113 609 
Q 1313 1319 1313 2009 
Q 1313 2700 1113 3408 
Q 913 4116 513 4856 
L 1441 4856 
Q 1916 4091 2145 3389 
Q 2375 2688 2375 2003 
Q 2375 1319 2147 623 
Q 1919 -72 1441 -844 
L 513 -844 
z
" transform="scale(0.015625)"/>
     </defs>
     <use xlink:href="#DejaVuSans-Bold-28"/>
     <use xlink:href="#DejaVuSans-Bold-6d" transform="translate(45.703125 0)"/>
     <use xlink:href="#DejaVuSans-Bold-61" transform="translate(149.902344 0)"/>
     <use xlink:href="#DejaVuSans-Bold-6e" transform="translate(217.382812 0)"/>
     <use xlink:href="#DejaVuSans-Bold-74" transform="translate(288.574219 0)"/>
     <use xlink:href="#DejaVuSans-Bold-69" transform="translate(336.376953 0)"/>
     <use xlink:href="#DejaVuSans-Bold-65" transform="translate(370.654297 0)"/>
     <use xlink:href="#DejaVuSans-Bold-6e" transform="translate(438.476562 0)"/>
     <use xlink:href="#DejaVuSans-Bold-65" transform="translate(509.667969 0)"/>
     <use xlink:href="#DejaVuSans-Bold-20" transform="translate(577.490234 0)"/>
     <use xlink:href="#DejaVuSans-Bold-70" transform="translate(612.304688 0)"/>
     <use xlink:href="#DejaVuSans-Bold-72" transform="translate(683.886719 0)"/>
     <use xlink:href="#DejaVuSans-Bold-6f" transform="translate(733.203125 0)"/>
     <use xlink:href="#DejaVuSans-Bold-70" transform="translate(801.904297 0)"/>
     <use xlink:href="#DejaVuSans-Bold-6f" transform="translate(873.486328 0)"/>
     <use xlink:href="#DejaVuSans-Bold-72" transform="translate(942.1875 0)"/>
     <use xlink:href="#DejaVuSans-Bold-63" transform="translate(991.503906 0)"/>
     <use xlink:href="#DejaVuSans-Bold-69" transform="translate(1050.78125 0)"/>
     <use xlink:href="#DejaVuSans-Bold-f3" transform="translate(1085.058594 0)"/>
     <use xlink:href="#DejaVuSans-Bold-6e" transform="translate(1153.759766 0)"/>
     <use xlink:href="#DejaVuSans-Bold-20" transform="translate(1224.951172 0)"/>
     <use xlink:href="#DejaVuSans-Bold-64" transform="translate(1259.765625 0)"/>
     <use xlink:href="#DejaVuSans-Bold-65" transform="translate(1331.347656 0)"/>
     <use xlink:href="#DejaVuSans-Bold-20" transform="translate(1399.169922 0)"/>
     <use xlink:href="#DejaVuSans-Bold-63" transform="translate(1433.984375 0)"/>
     <use xlink:href="#DejaVuSans-Bold-6c" transform="translate(1493.261719 0)"/>
     <use xlink:href="#DejaVuSans-Bold-61" transform="translate(1527.539062 0)"/>
     <use xlink:href="#DejaVuSans-Bold-73" transform="translate(1595.019531 0)"/>
     <use xlink:href="#DejaVuSans-Bold-65" transform="translate(1654.541016 0)"/>
     <use xlink:href="#DejaVuSans-Bold-73" transform="translate(1722.363281 0)"/>
     <use xlink:href="#DejaVuSans-Bold-29" transform="translate(1781.884766 0)"/>
    </g>
   </g>
  </g>
  <g id="axes_2">
   <g id="patch_52">
    <path d="M 344.604 108.348393 
L 368.478 108.348393 
L 368.478 76.183109 
L 344.604 76.183109 
z
" clip-path="url(#pe8dd511852)" style="fill: #3498db; stroke: #ffffff; stroke-linejoin: miter"/>
   </g>
   <g id="patch_53">
    <path d="M 370.554 108.348393 
L 394.428 108.348393 
L 394.428 76.183109 
L 370.554 76.183109 
z
" clip-path="url(#pe8dd511852)" style="fill: #3498db; stroke: #ffffff; stroke-linejoin: miter"/>
   </g>
   <g id="patch_54">
    <path d="M 396.504 108.348393 
L 420.378 108.348393 
L 420.378 76.183109 
L 396.504 76.183109 
z
" clip-path="url(#pe8dd511852)" style="fill: #e07b39; stroke: #ffffff; stroke-linejoin: miter"/>
   </g>
   <g id="patch_55">
    <path d="M 422.454 108.348393 
L 446.328 108.348393 
L 446.328 76.183109 
L 422.454 76.183109 
z
" clip-path="url(#pe8dd511852)" style="fill: #e07b39; stroke: #ffffff; stroke-linejoin: miter"/>
   </g>
   <g id="patch_56">
    <path d="M 448.404 108.348393 
L 472.278 108.348393 
L 472.278 76.183109 
L 448.404 76.183109 
z
" clip-path="url(#pe8dd511852)" style="fill: #eef1f4; stroke: #ffffff; stroke-linejoin: miter"/>
   </g>
   <g id="patch_57">
    <path d="M 474.354 108.348393 
L 498.228 108.348393 
L 498.228 76.183109 
L 474.354 76.183109 
z
" clip-path="url(#pe8dd511852)" style="fill: #eef1f4; stroke: #ffffff; stroke-linejoin: miter"/>
   </g>
   <g id="patch_58">
    <path d="M 500.304 108.348393 
L 524.178 108.348393 
L 524.178 76.183109 
L 500.304 76.183109 
z
" clip-path="url(#pe8dd511852)" style="fill: #eef1f4; stroke: #ffffff; stroke-linejoin: miter"/>
   </g>
   <g id="patch_59">
    <path d="M 526.254 108.348393 
L 550.128 108.348393 
L 550.128 76.183109 
L 526.254 76.183109 
z
" clip-path="url(#pe8dd511852)" style="fill: #eef1f4; stroke: #ffffff; stroke-linejoin: miter"/>
   </g>
   <g id="patch_60">
    <path d="M 552.204 108.348393 
L 576.078 108.348393 
L 576.078 76.183109 
L 552.204 76.183109 
z
" clip-path="url(#pe8dd511852)" style="fill: #eef1f4; stroke: #ffffff; stroke-linejoin: miter"/>
   </g>
   <g id="patch_61">
    <path d="M 578.154 108.348393 
L 602.028 108.348393 
L 602.028 76.183109 
L 578.154 76.183109 
z
" clip-path="url(#pe8dd511852)" style="fill: #eef1f4; stroke: #ffffff; stroke-linejoin: miter"/>
   </g>
   <g id="patch_62">
    <path d="M 344.604 147.574348 
L 368.478 147.574348 
L 368.478 115.409065 
L 344.604 115.409065 
z
" clip-path="url(#pe8dd511852)" style="fill: #3498db; stroke: #ffffff; stroke-linejoin: miter"/>
   </g>
   <g id="patch_63">
    <path d="M 370.554 147.574348 
L 394.428 147.574348 
L 394.428 115.409065 
L 370.554 115.409065 
z
" clip-path="url(#pe8dd511852)" style="fill: #3498db; stroke: #ffffff; stroke-linejoin: miter"/>
   </g>
   <g id="patch_64">
    <path d="M 396.504 147.574348 
L 420.378 147.574348 
L 420.378 115.409065 
L 396.504 115.409065 
z
" clip-path="url(#pe8dd511852)" style="fill: #3498db; stroke: #ffffff; stroke-linejoin: miter"/>
   </g>
   <g id="patch_65">
    <path d="M 422.454 147.574348 
L 446.328 147.574348 
L 446.328 115.409065 
L 422.454 115.409065 
z
" clip-path="url(#pe8dd511852)" style="fill: #3498db; stroke: #ffffff; stroke-linejoin: miter"/>
   </g>
   <g id="patch_66">
    <path d="M 448.404 147.574348 
L 472.278 147.574348 
L 472.278 115.409065 
L 448.404 115.409065 
z
" clip-path="url(#pe8dd511852)" style="fill: #e07b39; stroke: #ffffff; stroke-linejoin: miter"/>
   </g>
   <g id="patch_67">
    <path d="M 474.354 147.574348 
L 498.228 147.574348 
L 498.228 115.409065 
L 474.354 115.409065 
z
" clip-path="url(#pe8dd511852)" style="fill: #eef1f4; stroke: #ffffff; stroke-linejoin: miter"/>
   </g>
   <g id="patch_68">
    <path d="M 500.304 147.574348 
L 524.178 147.574348 
L 524.178 115.409065 
L 500.304 115.409065 
z
" clip-path="url(#pe8dd511852)" style="fill: #eef1f4; stroke: #ffffff; stroke-linejoin: miter"/>
   </g>
   <g id="patch_69">
    <path d="M 526.254 147.574348 
L 550.128 147.574348 
L 550.128 115.409065 
L 526.254 115.409065 
z
" clip-path="url(#pe8dd511852)" style="fill: #eef1f4; stroke: #ffffff; stroke-linejoin: miter"/>
   </g>
   <g id="patch_70">
    <path d="M 552.204 147.574348 
L 576.078 147.574348 
L 576.078 115.409065 
L 552.204 115.409065 
z
" clip-path="url(#pe8dd511852)" style="fill: #eef1f4; stroke: #ffffff; stroke-linejoin: miter"/>
   </g>
   <g id="patch_71">
    <path d="M 578.154 147.574348 
L 602.028 147.574348 
L 602.028 115.409065 
L 578.154 115.409065 
z
" clip-path="url(#pe8dd511852)" style="fill: #eef1f4; stroke: #ffffff; stroke-linejoin: miter"/>
   </g>
   <g id="patch_72">
    <path d="M 344.604 186.800303 
L 368.478 186.800303 
L 368.478 154.63502 
L 344.604 154.63502 
z
" clip-path="url(#pe8dd511852)" style="fill: #3498db; stroke: #ffffff; stroke-linejoin: miter"/>
   </g>
   <g id="patch_73">
    <path d="M 370.554 186.800303 
L 394.428 186.800303 
L 394.428 154.63502 
L 370.554 154.63502 
z
" clip-path="url(#pe8dd511852)" style="fill: #3498db; stroke: #ffffff; stroke-linejoin: miter"/>
   </g>
   <g id="patch_74">
    <path d="M 396.504 186.800303 
L 420.378 186.800303 
L 420.378 154.63502 
L 396.504 154.63502 
z
" clip-path="url(#pe8dd511852)" style="fill: #3498db; stroke: #ffffff; stroke-linejoin: miter"/>
   </g>
   <g id="patch_75">
    <path d="M 422.454 186.800303 
L 446.328 186.800303 
L 446.328 154.63502 
L 422.454 154.63502 
z
" clip-path="url(#pe8dd511852)" style="fill: #3498db; stroke: #ffffff; stroke-linejoin: miter"/>
   </g>
   <g id="patch_76">
    <path d="M 448.404 186.800303 
L 472.278 186.800303 
L 472.278 154.63502 
L 448.404 154.63502 
z
" clip-path="url(#pe8dd511852)" style="fill: #3498db; stroke: #ffffff; stroke-linejoin: miter"/>
   </g>
   <g id="patch_77">
    <path d="M 474.354 186.800303 
L 498.228 186.800303 
L 498.228 154.63502 
L 474.354 154.63502 
z
" clip-path="url(#pe8dd511852)" style="fill: #e07b39; stroke: #ffffff; stroke-linejoin: miter"/>
   </g>
   <g id="patch_78">
    <path d="M 500.304 186.800303 
L 524.178 186.800303 
L 524.178 154.63502 
L 500.304 154.63502 
z
" clip-path="url(#pe8dd511852)" style="fill: #e07b39; stroke: #ffffff; stroke-linejoin: miter"/>
   </g>
   <g id="patch_79">
    <path d="M 526.254 186.800303 
L 550.128 186.800303 
L 550.128 154.63502 
L 526.254 154.63502 
z
" clip-path="url(#pe8dd511852)" style="fill: #eef1f4; stroke: #ffffff; stroke-linejoin: miter"/>
   </g>
   <g id="patch_80">
    <path d="M 552.204 186.800303 
L 576.078 186.800303 
L 576.078 154.63502 
L 552.204 154.63502 
z
" clip-path="url(#pe8dd511852)" style="fill: #eef1f4; stroke: #ffffff; stroke-linejoin: miter"/>
   </g>
   <g id="patch_81">
    <path d="M 578.154 186.800303 
L 602.028 186.800303 
L 602.028 154.63502 
L 578.154 154.63502 
z
" clip-path="url(#pe8dd511852)" style="fill: #eef1f4; stroke: #ffffff; stroke-linejoin: miter"/>
   </g>
   <g id="patch_82">
    <path d="M 344.604 226.026258 
L 368.478 226.026258 
L 368.478 193.860975 
L 344.604 193.860975 
z
" clip-path="url(#pe8dd511852)" style="fill: #3498db; stroke: #ffffff; stroke-linejoin: miter"/>
   </g>
   <g id="patch_83">
    <path d="M 370.554 226.026258 
L 394.428 226.026258 
L 394.428 193.860975 
L 370.554 193.860975 
z
" clip-path="url(#pe8dd511852)" style="fill: #3498db; stroke: #ffffff; stroke-linejoin: miter"/>
   </g>
   <g id="patch_84">
    <path d="M 396.504 226.026258 
L 420.378 226.026258 
L 420.378 193.860975 
L 396.504 193.860975 
z
" clip-path="url(#pe8dd511852)" style="fill: #3498db; stroke: #ffffff; stroke-linejoin: miter"/>
   </g>
   <g id="patch_85">
    <path d="M 422.454 226.026258 
L 446.328 226.026258 
L 446.328 193.860975 
L 422.454 193.860975 
z
" clip-path="url(#pe8dd511852)" style="fill: #3498db; stroke: #ffffff; stroke-linejoin: miter"/>
   </g>
   <g id="patch_86">
    <path d="M 448.404 226.026258 
L 472.278 226.026258 
L 472.278 193.860975 
L 448.404 193.860975 
z
" clip-path="url(#pe8dd511852)" style="fill: #3498db; stroke: #ffffff; stroke-linejoin: miter"/>
   </g>
   <g id="patch_87">
    <path d="M 474.354 226.026258 
L 498.228 226.026258 
L 498.228 193.860975 
L 474.354 193.860975 
z
" clip-path="url(#pe8dd511852)" style="fill: #3498db; stroke: #ffffff; stroke-linejoin: miter"/>
   </g>
   <g id="patch_88">
    <path d="M 500.304 226.026258 
L 524.178 226.026258 
L 524.178 193.860975 
L 500.304 193.860975 
z
" clip-path="url(#pe8dd511852)" style="fill: #3498db; stroke: #ffffff; stroke-linejoin: miter"/>
   </g>
   <g id="patch_89">
    <path d="M 526.254 226.026258 
L 550.128 226.026258 
L 550.128 193.860975 
L 526.254 193.860975 
z
" clip-path="url(#pe8dd511852)" style="fill: #e07b39; stroke: #ffffff; stroke-linejoin: miter"/>
   </g>
   <g id="patch_90">
    <path d="M 552.204 226.026258 
L 576.078 226.026258 
L 576.078 193.860975 
L 552.204 193.860975 
z
" clip-path="url(#pe8dd511852)" style="fill: #eef1f4; stroke: #ffffff; stroke-linejoin: miter"/>
   </g>
   <g id="patch_91">
    <path d="M 578.154 226.026258 
L 602.028 226.026258 
L 602.028 193.860975 
L 578.154 193.860975 
z
" clip-path="url(#pe8dd511852)" style="fill: #eef1f4; stroke: #ffffff; stroke-linejoin: miter"/>
   </g>
   <g id="patch_92">
    <path d="M 344.604 265.252213 
L 368.478 265.252213 
L 368.478 233.08693 
L 344.604 233.08693 
z
" clip-path="url(#pe8dd511852)" style="fill: #3498db; stroke: #ffffff; stroke-linejoin: miter"/>
   </g>
   <g id="patch_93">
    <path d="M 370.554 265.252213 
L 394.428 265.252213 
L 394.428 233.08693 
L 370.554 233.08693 
z
" clip-path="url(#pe8dd511852)" style="fill: #3498db; stroke: #ffffff; stroke-linejoin: miter"/>
   </g>
   <g id="patch_94">
    <path d="M 396.504 265.252213 
L 420.378 265.252213 
L 420.378 233.08693 
L 396.504 233.08693 
z
" clip-path="url(#pe8dd511852)" style="fill: #3498db; stroke: #ffffff; stroke-linejoin: miter"/>
   </g>
   <g id="patch_95">
    <path d="M 422.454 265.252213 
L 446.328 265.252213 
L 446.328 233.08693 
L 422.454 233.08693 
z
" clip-path="url(#pe8dd511852)" style="fill: #3498db; stroke: #ffffff; stroke-linejoin: miter"/>
   </g>
   <g id="patch_96">
    <path d="M 448.404 265.252213 
L 472.278 265.252213 
L 472.278 233.08693 
L 448.404 233.08693 
z
" clip-path="url(#pe8dd511852)" style="fill: #3498db; stroke: #ffffff; stroke-linejoin: miter"/>
   </g>
   <g id="patch_97">
    <path d="M 474.354 265.252213 
L 498.228 265.252213 
L 498.228 233.08693 
L 474.354 233.08693 
z
" clip-path="url(#pe8dd511852)" style="fill: #3498db; stroke: #ffffff; stroke-linejoin: miter"/>
   </g>
   <g id="patch_98">
    <path d="M 500.304 265.252213 
L 524.178 265.252213 
L 524.178 233.08693 
L 500.304 233.08693 
z
" clip-path="url(#pe8dd511852)" style="fill: #3498db; stroke: #ffffff; stroke-linejoin: miter"/>
   </g>
   <g id="patch_99">
    <path d="M 526.254 265.252213 
L 550.128 265.252213 
L 550.128 233.08693 
L 526.254 233.08693 
z
" clip-path="url(#pe8dd511852)" style="fill: #3498db; stroke: #ffffff; stroke-linejoin: miter"/>
   </g>
   <g id="patch_100">
    <path d="M 552.204 265.252213 
L 576.078 265.252213 
L 576.078 233.08693 
L 552.204 233.08693 
z
" clip-path="url(#pe8dd511852)" style="fill: #e07b39; stroke: #ffffff; stroke-linejoin: miter"/>
   </g>
   <g id="patch_101">
    <path d="M 578.154 265.252213 
L 602.028 265.252213 
L 602.028 233.08693 
L 578.154 233.08693 
z
" clip-path="url(#pe8dd511852)" style="fill: #e07b39; stroke: #ffffff; stroke-linejoin: miter"/>
   </g>
   <g id="text_7">
    <!-- F1 -->
    <g style="fill: #2c3e50" transform="translate(322.109938 95.417386) scale(0.1 -0.1)">
     <use xlink:href="#DejaVuSans-46"/>
     <use xlink:href="#DejaVuSans-31" transform="translate(57.519531 0)"/>
    </g>
   </g>
   <g id="text_8">
    <!-- F2 -->
    <g style="fill: #2c3e50" transform="translate(322.109938 134.643341) scale(0.1 -0.1)">
     <use xlink:href="#DejaVuSans-46"/>
     <use xlink:href="#DejaVuSans-32" transform="translate(57.519531 0)"/>
    </g>
   </g>
   <g id="text_9">
    <!-- F3 -->
    <g style="fill: #2c3e50" transform="translate(322.109938 173.869296) scale(0.1 -0.1)">
     <use xlink:href="#DejaVuSans-46"/>
     <use xlink:href="#DejaVuSans-33" transform="translate(57.519531 0)"/>
    </g>
   </g>
   <g id="text_10">
    <!-- F4 -->
    <g style="fill: #2c3e50" transform="translate(322.109938 213.095251) scale(0.1 -0.1)">
     <use xlink:href="#DejaVuSans-46"/>
     <use xlink:href="#DejaVuSans-34" transform="translate(57.519531 0)"/>
    </g>
   </g>
   <g id="text_11">
    <!-- F5 -->
    <g style="fill: #2c3e50" transform="translate(322.109938 252.321206) scale(0.1 -0.1)">
     <use xlink:href="#DejaVuSans-46"/>
     <use xlink:href="#DejaVuSans-35" transform="translate(57.519531 0)"/>
    </g>
   </g>
   <g id="text_12">
    <!-- TimeSeriesSplit -->
    <g style="fill: #2c3e50" transform="translate(313.464 49.685063) scale(0.12 -0.12)">
     <defs>
      <path id="DejaVuSans-Bold-54" d="M 31 4666 
L 4331 4666 
L 4331 3756 
L 2784 3756 
L 2784 0 
L 1581 0 
L 1581 3756 
L 31 3756 
L 31 4666 
z
" transform="scale(0.015625)"/>
     </defs>
     <use xlink:href="#DejaVuSans-Bold-54"/>
     <use xlink:href="#DejaVuSans-Bold-69" transform="translate(68.212891 0)"/>
     <use xlink:href="#DejaVuSans-Bold-6d" transform="translate(102.490234 0)"/>
     <use xlink:href="#DejaVuSans-Bold-65" transform="translate(206.689453 0)"/>
     <use xlink:href="#DejaVuSans-Bold-53" transform="translate(274.511719 0)"/>
     <use xlink:href="#DejaVuSans-Bold-65" transform="translate(346.533203 0)"/>
     <use xlink:href="#DejaVuSans-Bold-72" transform="translate(414.355469 0)"/>
     <use xlink:href="#DejaVuSans-Bold-69" transform="translate(463.671875 0)"/>
     <use xlink:href="#DejaVuSans-Bold-65" transform="translate(497.949219 0)"/>
     <use xlink:href="#DejaVuSans-Bold-73" transform="translate(565.771484 0)"/>
     <use xlink:href="#DejaVuSans-Bold-53" transform="translate(625.292969 0)"/>
     <use xlink:href="#DejaVuSans-Bold-70" transform="translate(697.314453 0)"/>
     <use xlink:href="#DejaVuSans-Bold-6c" transform="translate(768.896484 0)"/>
     <use xlink:href="#DejaVuSans-Bold-69" transform="translate(803.173828 0)"/>
     <use xlink:href="#DejaVuSans-Bold-74" transform="translate(837.451172 0)"/>
    </g>
    <!-- (respeta el orden temporal) -->
    <g style="fill: #2c3e50" transform="translate(313.464 63.122438) scale(0.12 -0.12)">
     <use xlink:href="#DejaVuSans-Bold-28"/>
     <use xlink:href="#DejaVuSans-Bold-72" transform="translate(45.703125 0)"/>
     <use xlink:href="#DejaVuSans-Bold-65" transform="translate(95.019531 0)"/>
     <use xlink:href="#DejaVuSans-Bold-73" transform="translate(162.841797 0)"/>
     <use xlink:href="#DejaVuSans-Bold-70" transform="translate(222.363281 0)"/>
     <use xlink:href="#DejaVuSans-Bold-65" transform="translate(293.945312 0)"/>
     <use xlink:href="#DejaVuSans-Bold-74" transform="translate(361.767578 0)"/>
     <use xlink:href="#DejaVuSans-Bold-61" transform="translate(409.570312 0)"/>
     <use xlink:href="#DejaVuSans-Bold-20" transform="translate(477.050781 0)"/>
     <use xlink:href="#DejaVuSans-Bold-65" transform="translate(511.865234 0)"/>
     <use xlink:href="#DejaVuSans-Bold-6c" transform="translate(579.6875 0)"/>
     <use xlink:href="#DejaVuSans-Bold-20" transform="translate(613.964844 0)"/>
     <use xlink:href="#DejaVuSans-Bold-6f" transform="translate(648.779297 0)"/>
     <use xlink:href="#DejaVuSans-Bold-72" transform="translate(717.480469 0)"/>
     <use xlink:href="#DejaVuSans-Bold-64" transform="translate(766.796875 0)"/>
     <use xlink:href="#DejaVuSans-Bold-65" transform="translate(838.378906 0)"/>
     <use xlink:href="#DejaVuSans-Bold-6e" transform="translate(906.201172 0)"/>
     <use xlink:href="#DejaVuSans-Bold-20" transform="translate(977.392578 0)"/>
     <use xlink:href="#DejaVuSans-Bold-74" transform="translate(1012.207031 0)"/>
     <use xlink:href="#DejaVuSans-Bold-65" transform="translate(1060.009766 0)"/>
     <use xlink:href="#DejaVuSans-Bold-6d" transform="translate(1127.832031 0)"/>
     <use xlink:href="#DejaVuSans-Bold-70" transform="translate(1232.03125 0)"/>
     <use xlink:href="#DejaVuSans-Bold-6f" transform="translate(1303.613281 0)"/>
     <use xlink:href="#DejaVuSans-Bold-72" transform="translate(1372.314453 0)"/>
     <use xlink:href="#DejaVuSans-Bold-61" transform="translate(1421.630859 0)"/>
     <use xlink:href="#DejaVuSans-Bold-6c" transform="translate(1489.111328 0)"/>
     <use xlink:href="#DejaVuSans-Bold-29" transform="translate(1523.388672 0)"/>
    </g>
   </g>
  </g>
  <g id="axes_3">
   <g id="patch_102">
    <path d="M 647.664 108.348393 
L 671.538 108.348393 
L 671.538 76.183109 
L 647.664 76.183109 
z
" clip-path="url(#p0a9be6a754)" style="fill: #e07b39; stroke: #ffffff; stroke-linejoin: miter"/>
   </g>
   <g id="patch_103">
    <path d="M 673.614 108.348393 
L 697.488 108.348393 
L 697.488 76.183109 
L 673.614 76.183109 
z
" clip-path="url(#p0a9be6a754)" style="fill: #e07b39; stroke: #ffffff; stroke-linejoin: miter"/>
   </g>
   <g id="patch_104">
    <path d="M 699.564 108.348393 
L 723.438 108.348393 
L 723.438 76.183109 
L 699.564 76.183109 
z
" clip-path="url(#p0a9be6a754)" style="fill: #3498db; stroke: #ffffff; stroke-linejoin: miter"/>
   </g>
   <g id="patch_105">
    <path d="M 725.514 108.348393 
L 749.388 108.348393 
L 749.388 76.183109 
L 725.514 76.183109 
z
" clip-path="url(#p0a9be6a754)" style="fill: #3498db; stroke: #ffffff; stroke-linejoin: miter"/>
   </g>
   <g id="patch_106">
    <path d="M 751.464 108.348393 
L 775.338 108.348393 
L 775.338 76.183109 
L 751.464 76.183109 
z
" clip-path="url(#p0a9be6a754)" style="fill: #3498db; stroke: #ffffff; stroke-linejoin: miter"/>
   </g>
   <g id="patch_107">
    <path d="M 777.414 108.348393 
L 801.288 108.348393 
L 801.288 76.183109 
L 777.414 76.183109 
z
" clip-path="url(#p0a9be6a754)" style="fill: #3498db; stroke: #ffffff; stroke-linejoin: miter"/>
   </g>
   <g id="patch_108">
    <path d="M 803.364 108.348393 
L 827.238 108.348393 
L 827.238 76.183109 
L 803.364 76.183109 
z
" clip-path="url(#p0a9be6a754)" style="fill: #3498db; stroke: #ffffff; stroke-linejoin: miter"/>
   </g>
   <g id="patch_109">
    <path d="M 829.314 108.348393 
L 853.188 108.348393 
L 853.188 76.183109 
L 829.314 76.183109 
z
" clip-path="url(#p0a9be6a754)" style="fill: #3498db; stroke: #ffffff; stroke-linejoin: miter"/>
   </g>
   <g id="patch_110">
    <path d="M 855.264 108.348393 
L 879.138 108.348393 
L 879.138 76.183109 
L 855.264 76.183109 
z
" clip-path="url(#p0a9be6a754)" style="fill: #3498db; stroke: #ffffff; stroke-linejoin: miter"/>
   </g>
   <g id="patch_111">
    <path d="M 881.214 108.348393 
L 905.088 108.348393 
L 905.088 76.183109 
L 881.214 76.183109 
z
" clip-path="url(#p0a9be6a754)" style="fill: #3498db; stroke: #ffffff; stroke-linejoin: miter"/>
   </g>
   <g id="patch_112">
    <path d="M 647.664 147.574348 
L 671.538 147.574348 
L 671.538 115.409065 
L 647.664 115.409065 
z
" clip-path="url(#p0a9be6a754)" style="fill: #3498db; stroke: #ffffff; stroke-linejoin: miter"/>
   </g>
   <g id="patch_113">
    <path d="M 673.614 147.574348 
L 697.488 147.574348 
L 697.488 115.409065 
L 673.614 115.409065 
z
" clip-path="url(#p0a9be6a754)" style="fill: #3498db; stroke: #ffffff; stroke-linejoin: miter"/>
   </g>
   <g id="patch_114">
    <path d="M 699.564 147.574348 
L 723.438 147.574348 
L 723.438 115.409065 
L 699.564 115.409065 
z
" clip-path="url(#p0a9be6a754)" style="fill: #e07b39; stroke: #ffffff; stroke-linejoin: miter"/>
   </g>
   <g id="patch_115">
    <path d="M 725.514 147.574348 
L 749.388 147.574348 
L 749.388 115.409065 
L 725.514 115.409065 
z
" clip-path="url(#p0a9be6a754)" style="fill: #e07b39; stroke: #ffffff; stroke-linejoin: miter"/>
   </g>
   <g id="patch_116">
    <path d="M 751.464 147.574348 
L 775.338 147.574348 
L 775.338 115.409065 
L 751.464 115.409065 
z
" clip-path="url(#p0a9be6a754)" style="fill: #e07b39; stroke: #ffffff; stroke-linejoin: miter"/>
   </g>
   <g id="patch_117">
    <path d="M 777.414 147.574348 
L 801.288 147.574348 
L 801.288 115.409065 
L 777.414 115.409065 
z
" clip-path="url(#p0a9be6a754)" style="fill: #3498db; stroke: #ffffff; stroke-linejoin: miter"/>
   </g>
   <g id="patch_118">
    <path d="M 803.364 147.574348 
L 827.238 147.574348 
L 827.238 115.409065 
L 803.364 115.409065 
z
" clip-path="url(#p0a9be6a754)" style="fill: #3498db; stroke: #ffffff; stroke-linejoin: miter"/>
   </g>
   <g id="patch_119">
    <path d="M 829.314 147.574348 
L 853.188 147.574348 
L 853.188 115.409065 
L 829.314 115.409065 
z
" clip-path="url(#p0a9be6a754)" style="fill: #3498db; stroke: #ffffff; stroke-linejoin: miter"/>
   </g>
   <g id="patch_120">
    <path d="M 855.264 147.574348 
L 879.138 147.574348 
L 879.138 115.409065 
L 855.264 115.409065 
z
" clip-path="url(#p0a9be6a754)" style="fill: #3498db; stroke: #ffffff; stroke-linejoin: miter"/>
   </g>
   <g id="patch_121">
    <path d="M 881.214 147.574348 
L 905.088 147.574348 
L 905.088 115.409065 
L 881.214 115.409065 
z
" clip-path="url(#p0a9be6a754)" style="fill: #3498db; stroke: #ffffff; stroke-linejoin: miter"/>
   </g>
   <g id="patch_122">
    <path d="M 647.664 186.800303 
L 671.538 186.800303 
L 671.538 154.63502 
L 647.664 154.63502 
z
" clip-path="url(#p0a9be6a754)" style="fill: #3498db; stroke: #ffffff; stroke-linejoin: miter"/>
   </g>
   <g id="patch_123">
    <path d="M 673.614 186.800303 
L 697.488 186.800303 
L 697.488 154.63502 
L 673.614 154.63502 
z
" clip-path="url(#p0a9be6a754)" style="fill: #3498db; stroke: #ffffff; stroke-linejoin: miter"/>
   </g>
   <g id="patch_124">
    <path d="M 699.564 186.800303 
L 723.438 186.800303 
L 723.438 154.63502 
L 699.564 154.63502 
z
" clip-path="url(#p0a9be6a754)" style="fill: #3498db; stroke: #ffffff; stroke-linejoin: miter"/>
   </g>
   <g id="patch_125">
    <path d="M 725.514 186.800303 
L 749.388 186.800303 
L 749.388 154.63502 
L 725.514 154.63502 
z
" clip-path="url(#p0a9be6a754)" style="fill: #3498db; stroke: #ffffff; stroke-linejoin: miter"/>
   </g>
   <g id="patch_126">
    <path d="M 751.464 186.800303 
L 775.338 186.800303 
L 775.338 154.63502 
L 751.464 154.63502 
z
" clip-path="url(#p0a9be6a754)" style="fill: #3498db; stroke: #ffffff; stroke-linejoin: miter"/>
   </g>
   <g id="patch_127">
    <path d="M 777.414 186.800303 
L 801.288 186.800303 
L 801.288 154.63502 
L 777.414 154.63502 
z
" clip-path="url(#p0a9be6a754)" style="fill: #e07b39; stroke: #ffffff; stroke-linejoin: miter"/>
   </g>
   <g id="patch_128">
    <path d="M 803.364 186.800303 
L 827.238 186.800303 
L 827.238 154.63502 
L 803.364 154.63502 
z
" clip-path="url(#p0a9be6a754)" style="fill: #e07b39; stroke: #ffffff; stroke-linejoin: miter"/>
   </g>
   <g id="patch_129">
    <path d="M 829.314 186.800303 
L 853.188 186.800303 
L 853.188 154.63502 
L 829.314 154.63502 
z
" clip-path="url(#p0a9be6a754)" style="fill: #3498db; stroke: #ffffff; stroke-linejoin: miter"/>
   </g>
   <g id="patch_130">
    <path d="M 855.264 186.800303 
L 879.138 186.800303 
L 879.138 154.63502 
L 855.264 154.63502 
z
" clip-path="url(#p0a9be6a754)" style="fill: #3498db; stroke: #ffffff; stroke-linejoin: miter"/>
   </g>
   <g id="patch_131">
    <path d="M 881.214 186.800303 
L 905.088 186.800303 
L 905.088 154.63502 
L 881.214 154.63502 
z
" clip-path="url(#p0a9be6a754)" style="fill: #3498db; stroke: #ffffff; stroke-linejoin: miter"/>
   </g>
   <g id="patch_132">
    <path d="M 647.664 226.026258 
L 671.538 226.026258 
L 671.538 193.860975 
L 647.664 193.860975 
z
" clip-path="url(#p0a9be6a754)" style="fill: #3498db; stroke: #ffffff; stroke-linejoin: miter"/>
   </g>
   <g id="patch_133">
    <path d="M 673.614 226.026258 
L 697.488 226.026258 
L 697.488 193.860975 
L 673.614 193.860975 
z
" clip-path="url(#p0a9be6a754)" style="fill: #3498db; stroke: #ffffff; stroke-linejoin: miter"/>
   </g>
   <g id="patch_134">
    <path d="M 699.564 226.026258 
L 723.438 226.026258 
L 723.438 193.860975 
L 699.564 193.860975 
z
" clip-path="url(#p0a9be6a754)" style="fill: #3498db; stroke: #ffffff; stroke-linejoin: miter"/>
   </g>
   <g id="patch_135">
    <path d="M 725.514 226.026258 
L 749.388 226.026258 
L 749.388 193.860975 
L 725.514 193.860975 
z
" clip-path="url(#p0a9be6a754)" style="fill: #3498db; stroke: #ffffff; stroke-linejoin: miter"/>
   </g>
   <g id="patch_136">
    <path d="M 751.464 226.026258 
L 775.338 226.026258 
L 775.338 193.860975 
L 751.464 193.860975 
z
" clip-path="url(#p0a9be6a754)" style="fill: #3498db; stroke: #ffffff; stroke-linejoin: miter"/>
   </g>
   <g id="patch_137">
    <path d="M 777.414 226.026258 
L 801.288 226.026258 
L 801.288 193.860975 
L 777.414 193.860975 
z
" clip-path="url(#p0a9be6a754)" style="fill: #3498db; stroke: #ffffff; stroke-linejoin: miter"/>
   </g>
   <g id="patch_138">
    <path d="M 803.364 226.026258 
L 827.238 226.026258 
L 827.238 193.860975 
L 803.364 193.860975 
z
" clip-path="url(#p0a9be6a754)" style="fill: #3498db; stroke: #ffffff; stroke-linejoin: miter"/>
   </g>
   <g id="patch_139">
    <path d="M 829.314 226.026258 
L 853.188 226.026258 
L 853.188 193.860975 
L 829.314 193.860975 
z
" clip-path="url(#p0a9be6a754)" style="fill: #e07b39; stroke: #ffffff; stroke-linejoin: miter"/>
   </g>
   <g id="patch_140">
    <path d="M 855.264 226.026258 
L 879.138 226.026258 
L 879.138 193.860975 
L 855.264 193.860975 
z
" clip-path="url(#p0a9be6a754)" style="fill: #e07b39; stroke: #ffffff; stroke-linejoin: miter"/>
   </g>
   <g id="patch_141">
    <path d="M 881.214 226.026258 
L 905.088 226.026258 
L 905.088 193.860975 
L 881.214 193.860975 
z
" clip-path="url(#p0a9be6a754)" style="fill: #3498db; stroke: #ffffff; stroke-linejoin: miter"/>
   </g>
   <g id="patch_142">
    <path d="M 647.664 265.252213 
L 671.538 265.252213 
L 671.538 233.08693 
L 647.664 233.08693 
z
" clip-path="url(#p0a9be6a754)" style="fill: #3498db; stroke: #ffffff; stroke-linejoin: miter"/>
   </g>
   <g id="patch_143">
    <path d="M 673.614 265.252213 
L 697.488 265.252213 
L 697.488 233.08693 
L 673.614 233.08693 
z
" clip-path="url(#p0a9be6a754)" style="fill: #3498db; stroke: #ffffff; stroke-linejoin: miter"/>
   </g>
   <g id="patch_144">
    <path d="M 699.564 265.252213 
L 723.438 265.252213 
L 723.438 233.08693 
L 699.564 233.08693 
z
" clip-path="url(#p0a9be6a754)" style="fill: #3498db; stroke: #ffffff; stroke-linejoin: miter"/>
   </g>
   <g id="patch_145">
    <path d="M 725.514 265.252213 
L 749.388 265.252213 
L 749.388 233.08693 
L 725.514 233.08693 
z
" clip-path="url(#p0a9be6a754)" style="fill: #3498db; stroke: #ffffff; stroke-linejoin: miter"/>
   </g>
   <g id="patch_146">
    <path d="M 751.464 265.252213 
L 775.338 265.252213 
L 775.338 233.08693 
L 751.464 233.08693 
z
" clip-path="url(#p0a9be6a754)" style="fill: #3498db; stroke: #ffffff; stroke-linejoin: miter"/>
   </g>
   <g id="patch_147">
    <path d="M 777.414 265.252213 
L 801.288 265.252213 
L 801.288 233.08693 
L 777.414 233.08693 
z
" clip-path="url(#p0a9be6a754)" style="fill: #3498db; stroke: #ffffff; stroke-linejoin: miter"/>
   </g>
   <g id="patch_148">
    <path d="M 803.364 265.252213 
L 827.238 265.252213 
L 827.238 233.08693 
L 803.364 233.08693 
z
" clip-path="url(#p0a9be6a754)" style="fill: #3498db; stroke: #ffffff; stroke-linejoin: miter"/>
   </g>
   <g id="patch_149">
    <path d="M 829.314 265.252213 
L 853.188 265.252213 
L 853.188 233.08693 
L 829.314 233.08693 
z
" clip-path="url(#p0a9be6a754)" style="fill: #3498db; stroke: #ffffff; stroke-linejoin: miter"/>
   </g>
   <g id="patch_150">
    <path d="M 855.264 265.252213 
L 879.138 265.252213 
L 879.138 233.08693 
L 855.264 233.08693 
z
" clip-path="url(#p0a9be6a754)" style="fill: #3498db; stroke: #ffffff; stroke-linejoin: miter"/>
   </g>
   <g id="patch_151">
    <path d="M 881.214 265.252213 
L 905.088 265.252213 
L 905.088 233.08693 
L 881.214 233.08693 
z
" clip-path="url(#p0a9be6a754)" style="fill: #e07b39; stroke: #ffffff; stroke-linejoin: miter"/>
   </g>
   <g id="text_13">
    <!-- F1 -->
    <g style="fill: #2c3e50" transform="translate(625.169937 95.417386) scale(0.1 -0.1)">
     <use xlink:href="#DejaVuSans-46"/>
     <use xlink:href="#DejaVuSans-31" transform="translate(57.519531 0)"/>
    </g>
   </g>
   <g id="text_14">
    <!-- F2 -->
    <g style="fill: #2c3e50" transform="translate(625.169937 134.643341) scale(0.1 -0.1)">
     <use xlink:href="#DejaVuSans-46"/>
     <use xlink:href="#DejaVuSans-32" transform="translate(57.519531 0)"/>
    </g>
   </g>
   <g id="text_15">
    <!-- F3 -->
    <g style="fill: #2c3e50" transform="translate(625.169937 173.869296) scale(0.1 -0.1)">
     <use xlink:href="#DejaVuSans-46"/>
     <use xlink:href="#DejaVuSans-33" transform="translate(57.519531 0)"/>
    </g>
   </g>
   <g id="text_16">
    <!-- F4 -->
    <g style="fill: #2c3e50" transform="translate(625.169937 213.095251) scale(0.1 -0.1)">
     <use xlink:href="#DejaVuSans-46"/>
     <use xlink:href="#DejaVuSans-34" transform="translate(57.519531 0)"/>
    </g>
   </g>
   <g id="text_17">
    <!-- F5 -->
    <g style="fill: #2c3e50" transform="translate(625.169937 252.321206) scale(0.1 -0.1)">
     <use xlink:href="#DejaVuSans-46"/>
     <use xlink:href="#DejaVuSans-35" transform="translate(57.519531 0)"/>
    </g>
   </g>
   <g id="text_18">
    <!-- GroupKFold -->
    <g style="fill: #2c3e50" transform="translate(616.524 49.685063) scale(0.12 -0.12)">
     <defs>
      <path id="DejaVuSans-Bold-47" d="M 4781 347 
Q 4331 128 3847 18 
Q 3363 -91 2847 -91 
Q 1681 -91 1000 561 
Q 319 1213 319 2328 
Q 319 3456 1012 4103 
Q 1706 4750 2913 4750 
Q 3378 4750 3804 4662 
Q 4231 4575 4609 4403 
L 4609 3438 
Q 4219 3659 3833 3768 
Q 3447 3878 3059 3878 
Q 2341 3878 1952 3476 
Q 1563 3075 1563 2328 
Q 1563 1588 1938 1184 
Q 2313 781 3003 781 
Q 3191 781 3352 804 
Q 3513 828 3641 878 
L 3641 1784 
L 2906 1784 
L 2906 2591 
L 4781 2591 
L 4781 347 
z
" transform="scale(0.015625)"/>
      <path id="DejaVuSans-Bold-75" d="M 500 1363 
L 500 3500 
L 1625 3500 
L 1625 3150 
Q 1625 2866 1622 2436 
Q 1619 2006 1619 1863 
Q 1619 1441 1641 1255 
Q 1663 1069 1716 984 
Q 1784 875 1895 815 
Q 2006 756 2150 756 
Q 2500 756 2700 1025 
Q 2900 1294 2900 1772 
L 2900 3500 
L 4019 3500 
L 4019 0 
L 2900 0 
L 2900 506 
Q 2647 200 2364 54 
Q 2081 -91 1741 -91 
Q 1134 -91 817 281 
Q 500 653 500 1363 
z
" transform="scale(0.015625)"/>
     </defs>
     <use xlink:href="#DejaVuSans-Bold-47"/>
     <use xlink:href="#DejaVuSans-Bold-72" transform="translate(82.080078 0)"/>
     <use xlink:href="#DejaVuSans-Bold-6f" transform="translate(131.396484 0)"/>
     <use xlink:href="#DejaVuSans-Bold-75" transform="translate(200.097656 0)"/>
     <use xlink:href="#DejaVuSans-Bold-70" transform="translate(271.289062 0)"/>
     <use xlink:href="#DejaVuSans-Bold-4b" transform="translate(342.871094 0)"/>
     <use xlink:href="#DejaVuSans-Bold-46" transform="translate(420.361328 0)"/>
     <use xlink:href="#DejaVuSans-Bold-6f" transform="translate(484.671875 0)"/>
     <use xlink:href="#DejaVuSans-Bold-6c" transform="translate(553.373047 0)"/>
     <use xlink:href="#DejaVuSans-Bold-64" transform="translate(587.650391 0)"/>
    </g>
    <!-- (no parte un mismo grupo) -->
    <g style="fill: #2c3e50" transform="translate(616.524 63.122438) scale(0.12 -0.12)">
     <defs>
      <path id="DejaVuSans-Bold-67" d="M 2919 594 
Q 2688 288 2409 144 
Q 2131 0 1766 0 
Q 1125 0 706 504 
Q 288 1009 288 1791 
Q 288 2575 706 3076 
Q 1125 3578 1766 3578 
Q 2131 3578 2409 3434 
Q 2688 3291 2919 2981 
L 2919 3500 
L 4044 3500 
L 4044 353 
Q 4044 -491 3511 -936 
Q 2978 -1381 1966 -1381 
Q 1638 -1381 1331 -1331 
Q 1025 -1281 716 -1178 
L 716 -306 
Q 1009 -475 1290 -558 
Q 1572 -641 1856 -641 
Q 2406 -641 2662 -400 
Q 2919 -159 2919 353 
L 2919 594 
z
M 2181 2772 
Q 1834 2772 1640 2515 
Q 1447 2259 1447 1791 
Q 1447 1309 1634 1061 
Q 1822 813 2181 813 
Q 2531 813 2725 1069 
Q 2919 1325 2919 1791 
Q 2919 2259 2725 2515 
Q 2531 2772 2181 2772 
z
" transform="scale(0.015625)"/>
     </defs>
     <use xlink:href="#DejaVuSans-Bold-28"/>
     <use xlink:href="#DejaVuSans-Bold-6e" transform="translate(45.703125 0)"/>
     <use xlink:href="#DejaVuSans-Bold-6f" transform="translate(116.894531 0)"/>
     <use xlink:href="#DejaVuSans-Bold-20" transform="translate(185.595703 0)"/>
     <use xlink:href="#DejaVuSans-Bold-70" transform="translate(220.410156 0)"/>
     <use xlink:href="#DejaVuSans-Bold-61" transform="translate(291.992188 0)"/>
     <use xlink:href="#DejaVuSans-Bold-72" transform="translate(359.472656 0)"/>
     <use xlink:href="#DejaVuSans-Bold-74" transform="translate(408.789062 0)"/>
     <use xlink:href="#DejaVuSans-Bold-65" transform="translate(456.591797 0)"/>
     <use xlink:href="#DejaVuSans-Bold-20" transform="translate(524.414062 0)"/>
     <use xlink:href="#DejaVuSans-Bold-75" transform="translate(559.228516 0)"/>
     <use xlink:href="#DejaVuSans-Bold-6e" transform="translate(630.419922 0)"/>
     <use xlink:href="#DejaVuSans-Bold-20" transform="translate(701.611328 0)"/>
     <use xlink:href="#DejaVuSans-Bold-6d" transform="translate(736.425781 0)"/>
     <use xlink:href="#DejaVuSans-Bold-69" transform="translate(840.625 0)"/>
     <use xlink:href="#DejaVuSans-Bold-73" transform="translate(874.902344 0)"/>
     <use xlink:href="#DejaVuSans-Bold-6d" transform="translate(934.423828 0)"/>
     <use xlink:href="#DejaVuSans-Bold-6f" transform="translate(1038.623047 0)"/>
     <use xlink:href="#DejaVuSans-Bold-20" transform="translate(1107.324219 0)"/>
     <use xlink:href="#DejaVuSans-Bold-67" transform="translate(1142.138672 0)"/>
     <use xlink:href="#DejaVuSans-Bold-72" transform="translate(1213.720703 0)"/>
     <use xlink:href="#DejaVuSans-Bold-75" transform="translate(1263.037109 0)"/>
     <use xlink:href="#DejaVuSans-Bold-70" transform="translate(1334.228516 0)"/>
     <use xlink:href="#DejaVuSans-Bold-6f" transform="translate(1405.810547 0)"/>
     <use xlink:href="#DejaVuSans-Bold-29" transform="translate(1474.511719 0)"/>
    </g>
   </g>
  </g>
  <g id="text_19">
   <!-- Variantes de validación cruzada según la estructura de los datos -->
   <g style="fill: #2c3e50" transform="translate(7.2 17.997891) scale(0.135 -0.135)">
    <defs>
     <path id="DejaVuSans-Bold-56" d="M 31 4666 
L 1241 4666 
L 2478 1222 
L 3713 4666 
L 4922 4666 
L 3194 0 
L 1759 0 
L 31 4666 
z
" transform="scale(0.015625)"/>
     <path id="DejaVuSans-Bold-76" d="M 97 3500 
L 1216 3500 
L 2088 1081 
L 2956 3500 
L 4078 3500 
L 2700 0 
L 1472 0 
L 97 3500 
z
" transform="scale(0.015625)"/>
     <path id="DejaVuSans-Bold-7a" d="M 366 3500 
L 3419 3500 
L 3419 2719 
L 1575 800 
L 3419 800 
L 3419 0 
L 288 0 
L 288 781 
L 2131 2700 
L 366 2700 
L 366 3500 
z
" transform="scale(0.015625)"/>
     <path id="DejaVuSans-Bold-fa" d="M 500 1363 
L 500 3500 
L 1625 3500 
L 1625 3150 
Q 1625 2866 1622 2436 
Q 1619 2006 1619 1863 
Q 1619 1441 1641 1255 
Q 1663 1069 1716 984 
Q 1784 875 1895 815 
Q 2006 756 2150 756 
Q 2500 756 2700 1025 
Q 2900 1294 2900 1772 
L 2900 3500 
L 4019 3500 
L 4019 0 
L 2900 0 
L 2900 506 
Q 2647 200 2364 54 
Q 2081 -91 1741 -91 
Q 1134 -91 817 281 
Q 500 653 500 1363 
z
M 2782 5119 
L 3666 5119 
L 2513 3944 
L 1901 3944 
L 2782 5119 
z
" transform="scale(0.015625)"/>
    </defs>
    <use xlink:href="#DejaVuSans-Bold-56"/>
    <use xlink:href="#DejaVuSans-Bold-61" transform="translate(71.892578 0)"/>
    <use xlink:href="#DejaVuSans-Bold-72" transform="translate(139.373047 0)"/>
    <use xlink:href="#DejaVuSans-Bold-69" transform="translate(188.689453 0)"/>
    <use xlink:href="#DejaVuSans-Bold-61" transform="translate(222.966797 0)"/>
    <use xlink:href="#DejaVuSans-Bold-6e" transform="translate(290.447266 0)"/>
    <use xlink:href="#DejaVuSans-Bold-74" transform="translate(361.638672 0)"/>
    <use xlink:href="#DejaVuSans-Bold-65" transform="translate(409.441406 0)"/>
    <use xlink:href="#DejaVuSans-Bold-73" transform="translate(477.263672 0)"/>
    <use xlink:href="#DejaVuSans-Bold-20" transform="translate(536.785156 0)"/>
    <use xlink:href="#DejaVuSans-Bold-64" transform="translate(571.599609 0)"/>
    <use xlink:href="#DejaVuSans-Bold-65" transform="translate(643.181641 0)"/>
    <use xlink:href="#DejaVuSans-Bold-20" transform="translate(711.003906 0)"/>
    <use xlink:href="#DejaVuSans-Bold-76" transform="translate(745.818359 0)"/>
    <use xlink:href="#DejaVuSans-Bold-61" transform="translate(811.003906 0)"/>
    <use xlink:href="#DejaVuSans-Bold-6c" transform="translate(878.484375 0)"/>
    <use xlink:href="#DejaVuSans-Bold-69" transform="translate(912.761719 0)"/>
    <use xlink:href="#DejaVuSans-Bold-64" transform="translate(947.039062 0)"/>
    <use xlink:href="#DejaVuSans-Bold-61" transform="translate(1018.621094 0)"/>
    <use xlink:href="#DejaVuSans-Bold-63" transform="translate(1086.101562 0)"/>
    <use xlink:href="#DejaVuSans-Bold-69" transform="translate(1145.378906 0)"/>
    <use xlink:href="#DejaVuSans-Bold-f3" transform="translate(1179.65625 0)"/>
    <use xlink:href="#DejaVuSans-Bold-6e" transform="translate(1248.357422 0)"/>
    <use xlink:href="#DejaVuSans-Bold-20" transform="translate(1319.548828 0)"/>
    <use xlink:href="#DejaVuSans-Bold-63" transform="translate(1354.363281 0)"/>
    <use xlink:href="#DejaVuSans-Bold-72" transform="translate(1413.640625 0)"/>
    <use xlink:href="#DejaVuSans-Bold-75" transform="translate(1462.957031 0)"/>
    <use xlink:href="#DejaVuSans-Bold-7a" transform="translate(1534.148438 0)"/>
    <use xlink:href="#DejaVuSans-Bold-61" transform="translate(1592.351562 0)"/>
    <use xlink:href="#DejaVuSans-Bold-64" transform="translate(1659.832031 0)"/>
    <use xlink:href="#DejaVuSans-Bold-61" transform="translate(1731.414062 0)"/>
    <use xlink:href="#DejaVuSans-Bold-20" transform="translate(1798.894531 0)"/>
    <use xlink:href="#DejaVuSans-Bold-73" transform="translate(1833.708984 0)"/>
    <use xlink:href="#DejaVuSans-Bold-65" transform="translate(1893.230469 0)"/>
    <use xlink:href="#DejaVuSans-Bold-67" transform="translate(1961.052734 0)"/>
    <use xlink:href="#DejaVuSans-Bold-fa" transform="translate(2032.634766 0)"/>
    <use xlink:href="#DejaVuSans-Bold-6e" transform="translate(2103.826172 0)"/>
    <use xlink:href="#DejaVuSans-Bold-20" transform="translate(2175.017578 0)"/>
    <use xlink:href="#DejaVuSans-Bold-6c" transform="translate(2209.832031 0)"/>
    <use xlink:href="#DejaVuSans-Bold-61" transform="translate(2244.109375 0)"/>
    <use xlink:href="#DejaVuSans-Bold-20" transform="translate(2311.589844 0)"/>
    <use xlink:href="#DejaVuSans-Bold-65" transform="translate(2346.404297 0)"/>
    <use xlink:href="#DejaVuSans-Bold-73" transform="translate(2414.226562 0)"/>
    <use xlink:href="#DejaVuSans-Bold-74" transform="translate(2473.748047 0)"/>
    <use xlink:href="#DejaVuSans-Bold-72" transform="translate(2521.550781 0)"/>
    <use xlink:href="#DejaVuSans-Bold-75" transform="translate(2570.867188 0)"/>
    <use xlink:href="#DejaVuSans-Bold-63" transform="translate(2642.058594 0)"/>
    <use xlink:href="#DejaVuSans-Bold-74" transform="translate(2701.335938 0)"/>
    <use xlink:href="#DejaVuSans-Bold-75" transform="translate(2749.138672 0)"/>
    <use xlink:href="#DejaVuSans-Bold-72" transform="translate(2820.330078 0)"/>
    <use xlink:href="#DejaVuSans-Bold-61" transform="translate(2869.646484 0)"/>
    <use xlink:href="#DejaVuSans-Bold-20" transform="translate(2937.126953 0)"/>
    <use xlink:href="#DejaVuSans-Bold-64" transform="translate(2971.941406 0)"/>
    <use xlink:href="#DejaVuSans-Bold-65" transform="translate(3043.523438 0)"/>
    <use xlink:href="#DejaVuSans-Bold-20" transform="translate(3111.345703 0)"/>
    <use xlink:href="#DejaVuSans-Bold-6c" transform="translate(3146.160156 0)"/>
    <use xlink:href="#DejaVuSans-Bold-6f" transform="translate(3180.4375 0)"/>
    <use xlink:href="#DejaVuSans-Bold-73" transform="translate(3249.138672 0)"/>
    <use xlink:href="#DejaVuSans-Bold-20" transform="translate(3308.660156 0)"/>
    <use xlink:href="#DejaVuSans-Bold-64" transform="translate(3343.474609 0)"/>
    <use xlink:href="#DejaVuSans-Bold-61" transform="translate(3415.056641 0)"/>
    <use xlink:href="#DejaVuSans-Bold-74" transform="translate(3482.537109 0)"/>
    <use xlink:href="#DejaVuSans-Bold-6f" transform="translate(3530.339844 0)"/>
    <use xlink:href="#DejaVuSans-Bold-73" transform="translate(3599.041016 0)"/>
   </g>
  </g>
  <g id="legend_1">
   <g id="patch_152">
    <path d="M 346.583016 278.952344 
L 368.583016 278.952344 
L 368.583016 271.252344 
L 346.583016 271.252344 
z
" style="fill: #3498db; stroke: #3498db; stroke-linejoin: miter"/>
   </g>
   <g id="text_20">
    <!-- Entrenamiento -->
    <g transform="translate(377.383016 278.952344) scale(0.11 -0.11)">
     <defs>
      <path id="DejaVuSans-45" d="M 628 4666 
L 3578 4666 
L 3578 4134 
L 1259 4134 
L 1259 2753 
L 3481 2753 
L 3481 2222 
L 1259 2222 
L 1259 531 
L 3634 531 
L 3634 0 
L 628 0 
L 628 4666 
z
" transform="scale(0.015625)"/>
      <path id="DejaVuSans-6e" d="M 3513 2113 
L 3513 0 
L 2938 0 
L 2938 2094 
Q 2938 2591 2744 2837 
Q 2550 3084 2163 3084 
Q 1697 3084 1428 2787 
Q 1159 2491 1159 1978 
L 1159 0 
L 581 0 
L 581 3500 
L 1159 3500 
L 1159 2956 
Q 1366 3272 1645 3428 
Q 1925 3584 2291 3584 
Q 2894 3584 3203 3211 
Q 3513 2838 3513 2113 
z
" transform="scale(0.015625)"/>
      <path id="DejaVuSans-74" d="M 1172 4494 
L 1172 3500 
L 2356 3500 
L 2356 3053 
L 1172 3053 
L 1172 1153 
Q 1172 725 1289 603 
Q 1406 481 1766 481 
L 2356 481 
L 2356 0 
L 1766 0 
Q 1100 0 847 248 
Q 594 497 594 1153 
L 594 3053 
L 172 3053 
L 172 3500 
L 594 3500 
L 594 4494 
L 1172 4494 
z
" transform="scale(0.015625)"/>
      <path id="DejaVuSans-72" d="M 2631 2963 
Q 2534 3019 2420 3045 
Q 2306 3072 2169 3072 
Q 1681 3072 1420 2755 
Q 1159 2438 1159 1844 
L 1159 0 
L 581 0 
L 581 3500 
L 1159 3500 
L 1159 2956 
Q 1341 3275 1631 3429 
Q 1922 3584 2338 3584 
Q 2397 3584 2469 3576 
Q 2541 3569 2628 3553 
L 2631 2963 
z
" transform="scale(0.015625)"/>
      <path id="DejaVuSans-65" d="M 3597 1894 
L 3597 1613 
L 953 1613 
Q 991 1019 1311 708 
Q 1631 397 2203 397 
Q 2534 397 2845 478 
Q 3156 559 3463 722 
L 3463 178 
Q 3153 47 2828 -22 
Q 2503 -91 2169 -91 
Q 1331 -91 842 396 
Q 353 884 353 1716 
Q 353 2575 817 3079 
Q 1281 3584 2069 3584 
Q 2775 3584 3186 3129 
Q 3597 2675 3597 1894 
z
M 3022 2063 
Q 3016 2534 2758 2815 
Q 2500 3097 2075 3097 
Q 1594 3097 1305 2825 
Q 1016 2553 972 2059 
L 3022 2063 
z
" transform="scale(0.015625)"/>
      <path id="DejaVuSans-61" d="M 2194 1759 
Q 1497 1759 1228 1600 
Q 959 1441 959 1056 
Q 959 750 1161 570 
Q 1363 391 1709 391 
Q 2188 391 2477 730 
Q 2766 1069 2766 1631 
L 2766 1759 
L 2194 1759 
z
M 3341 1997 
L 3341 0 
L 2766 0 
L 2766 531 
Q 2569 213 2275 61 
Q 1981 -91 1556 -91 
Q 1019 -91 701 211 
Q 384 513 384 1019 
Q 384 1609 779 1909 
Q 1175 2209 1959 2209 
L 2766 2209 
L 2766 2266 
Q 2766 2663 2505 2880 
Q 2244 3097 1772 3097 
Q 1472 3097 1187 3025 
Q 903 2953 641 2809 
L 641 3341 
Q 956 3463 1253 3523 
Q 1550 3584 1831 3584 
Q 2591 3584 2966 3190 
Q 3341 2797 3341 1997 
z
" transform="scale(0.015625)"/>
      <path id="DejaVuSans-6d" d="M 3328 2828 
Q 3544 3216 3844 3400 
Q 4144 3584 4550 3584 
Q 5097 3584 5394 3201 
Q 5691 2819 5691 2113 
L 5691 0 
L 5113 0 
L 5113 2094 
Q 5113 2597 4934 2840 
Q 4756 3084 4391 3084 
Q 3944 3084 3684 2787 
Q 3425 2491 3425 1978 
L 3425 0 
L 2847 0 
L 2847 2094 
Q 2847 2600 2669 2842 
Q 2491 3084 2119 3084 
Q 1678 3084 1418 2786 
Q 1159 2488 1159 1978 
L 1159 0 
L 581 0 
L 581 3500 
L 1159 3500 
L 1159 2956 
Q 1356 3278 1631 3431 
Q 1906 3584 2284 3584 
Q 2666 3584 2933 3390 
Q 3200 3197 3328 2828 
z
" transform="scale(0.015625)"/>
      <path id="DejaVuSans-69" d="M 603 3500 
L 1178 3500 
L 1178 0 
L 603 0 
L 603 3500 
z
M 603 4863 
L 1178 4863 
L 1178 4134 
L 603 4134 
L 603 4863 
z
" transform="scale(0.015625)"/>
      <path id="DejaVuSans-6f" d="M 1959 3097 
Q 1497 3097 1228 2736 
Q 959 2375 959 1747 
Q 959 1119 1226 758 
Q 1494 397 1959 397 
Q 2419 397 2687 759 
Q 2956 1122 2956 1747 
Q 2956 2369 2687 2733 
Q 2419 3097 1959 3097 
z
M 1959 3584 
Q 2709 3584 3137 3096 
Q 3566 2609 3566 1747 
Q 3566 888 3137 398 
Q 2709 -91 1959 -91 
Q 1206 -91 779 398 
Q 353 888 353 1747 
Q 353 2609 779 3096 
Q 1206 3584 1959 3584 
z
" transform="scale(0.015625)"/>
     </defs>
     <use xlink:href="#DejaVuSans-45"/>
     <use xlink:href="#DejaVuSans-6e" transform="translate(63.183594 0)"/>
     <use xlink:href="#DejaVuSans-74" transform="translate(126.5625 0)"/>
     <use xlink:href="#DejaVuSans-72" transform="translate(165.771484 0)"/>
     <use xlink:href="#DejaVuSans-65" transform="translate(204.634766 0)"/>
     <use xlink:href="#DejaVuSans-6e" transform="translate(266.158203 0)"/>
     <use xlink:href="#DejaVuSans-61" transform="translate(329.537109 0)"/>
     <use xlink:href="#DejaVuSans-6d" transform="translate(390.816406 0)"/>
     <use xlink:href="#DejaVuSans-69" transform="translate(488.228516 0)"/>
     <use xlink:href="#DejaVuSans-65" transform="translate(516.011719 0)"/>
     <use xlink:href="#DejaVuSans-6e" transform="translate(577.535156 0)"/>
     <use xlink:href="#DejaVuSans-74" transform="translate(640.914062 0)"/>
     <use xlink:href="#DejaVuSans-6f" transform="translate(680.123047 0)"/>
    </g>
   </g>
   <g id="patch_153">
    <path d="M 480.925672 278.952344 
L 502.925672 278.952344 
L 502.925672 271.252344 
L 480.925672 271.252344 
z
" style="fill: #e07b39; stroke: #e07b39; stroke-linejoin: miter"/>
   </g>
   <g id="text_21">
    <!-- Validación -->
    <g transform="translate(511.725672 278.952344) scale(0.11 -0.11)">
     <defs>
      <path id="DejaVuSans-56" d="M 1831 0 
L 50 4666 
L 709 4666 
L 2188 738 
L 3669 4666 
L 4325 4666 
L 2547 0 
L 1831 0 
z
" transform="scale(0.015625)"/>
      <path id="DejaVuSans-6c" d="M 603 4863 
L 1178 4863 
L 1178 0 
L 603 0 
L 603 4863 
z
" transform="scale(0.015625)"/>
      <path id="DejaVuSans-64" d="M 2906 2969 
L 2906 4863 
L 3481 4863 
L 3481 0 
L 2906 0 
L 2906 525 
Q 2725 213 2448 61 
Q 2172 -91 1784 -91 
Q 1150 -91 751 415 
Q 353 922 353 1747 
Q 353 2572 751 3078 
Q 1150 3584 1784 3584 
Q 2172 3584 2448 3432 
Q 2725 3281 2906 2969 
z
M 947 1747 
Q 947 1113 1208 752 
Q 1469 391 1925 391 
Q 2381 391 2643 752 
Q 2906 1113 2906 1747 
Q 2906 2381 2643 2742 
Q 2381 3103 1925 3103 
Q 1469 3103 1208 2742 
Q 947 2381 947 1747 
z
" transform="scale(0.015625)"/>
      <path id="DejaVuSans-63" d="M 3122 3366 
L 3122 2828 
Q 2878 2963 2633 3030 
Q 2388 3097 2138 3097 
Q 1578 3097 1268 2742 
Q 959 2388 959 1747 
Q 959 1106 1268 751 
Q 1578 397 2138 397 
Q 2388 397 2633 464 
Q 2878 531 3122 666 
L 3122 134 
Q 2881 22 2623 -34 
Q 2366 -91 2075 -91 
Q 1284 -91 818 406 
Q 353 903 353 1747 
Q 353 2603 823 3093 
Q 1294 3584 2113 3584 
Q 2378 3584 2631 3529 
Q 2884 3475 3122 3366 
z
" transform="scale(0.015625)"/>
      <path id="DejaVuSans-f3" d="M 1959 3097 
Q 1497 3097 1228 2736 
Q 959 2375 959 1747 
Q 959 1119 1226 758 
Q 1494 397 1959 397 
Q 2419 397 2687 759 
Q 2956 1122 2956 1747 
Q 2956 2369 2687 2733 
Q 2419 3097 1959 3097 
z
M 1959 3584 
Q 2709 3584 3137 3096 
Q 3566 2609 3566 1747 
Q 3566 888 3137 398 
Q 2709 -91 1959 -91 
Q 1206 -91 779 398 
Q 353 888 353 1747 
Q 353 2609 779 3096 
Q 1206 3584 1959 3584 
z
M 2394 5119 
L 3016 5119 
L 1998 3944 
L 1519 3944 
L 2394 5119 
z
" transform="scale(0.015625)"/>
     </defs>
     <use xlink:href="#DejaVuSans-56"/>
     <use xlink:href="#DejaVuSans-61" transform="translate(60.658203 0)"/>
     <use xlink:href="#DejaVuSans-6c" transform="translate(121.9375 0)"/>
     <use xlink:href="#DejaVuSans-69" transform="translate(149.720703 0)"/>
     <use xlink:href="#DejaVuSans-64" transform="translate(177.503906 0)"/>
     <use xlink:href="#DejaVuSans-61" transform="translate(240.980469 0)"/>
     <use xlink:href="#DejaVuSans-63" transform="translate(302.259766 0)"/>
     <use xlink:href="#DejaVuSans-69" transform="translate(357.240234 0)"/>
     <use xlink:href="#DejaVuSans-f3" transform="translate(385.023438 0)"/>
     <use xlink:href="#DejaVuSans-6e" transform="translate(446.205078 0)"/>
    </g>
   </g>
  </g>
 </g>
 <defs>
  <clipPath id="p1fda7b389d">
   <rect x="10.404" y="69.122438" width="290.64" height="207.897562"/>
  </clipPath>
  <clipPath id="pe8dd511852">
   <rect x="313.464" y="69.122438" width="290.64" height="207.897562"/>
  </clipPath>
  <clipPath id="p0a9be6a754">
   <rect x="616.524" y="69.122438" width="290.64" height="207.897562"/>
  </clipPath>
 </defs>
</svg>
