<svg viewBox="0 0 760 340" xmlns="http://www.w3.org/2000/svg">
  <style>
    .box { fill:#f4f7fb; stroke:#3498db; stroke-width:2.5; }
    .data { fill:#fbeef2; stroke:#8B1538; stroke-width:3; }
    .vote { fill:#eaf6ef; stroke:#2e8b57; stroke-width:3; }
    .tx { font:bold 17px 'Segoe UI',sans-serif; fill:#2c3e50; text-anchor:middle; }
    .txw { font:bold 17px 'Segoe UI',sans-serif; fill:#fff; text-anchor:middle; }
    .e { stroke:#8B1538; stroke-width:2.5; fill:none; }
  </style>
  <rect class="data" x="290" y="8" width="180" height="48" rx="10"/>
  <text class="tx" x="380" y="38" fill="#8B1538">Datos originales</text>
  <path class="e" d="M380 56 V84 H140 V112"/>
  <path class="e" d="M380 56 V84 H380 V112"/>
  <path class="e" d="M380 56 V84 H620 V112"/>
  <text x="380" y="100" class="tx" fill="#7f8c8d" style="font-size:14px">muestras bootstrap (con reemplazo)</text>
  <g>
    <rect class="box" x="60" y="112" width="160" height="78" rx="10"/>
    <text x="140" y="148" text-anchor="middle" font-size="34">&#127794;</text>
    <text class="tx" x="140" y="178">&#193;rbol 1</text>
  </g>
  <g>
    <rect class="box" x="300" y="112" width="160" height="78" rx="10"/>
    <text x="380" y="148" text-anchor="middle" font-size="34">&#127794;</text>
    <text class="tx" x="380" y="178">&#193;rbol 2</text>
  </g>
  <g>
    <rect class="box" x="540" y="112" width="160" height="78" rx="10"/>
    <text x="620" y="148" text-anchor="middle" font-size="34">&#127794;</text>
    <text class="tx" x="620" y="178">&#193;rbol N</text>
  </g>
  <path class="e" d="M140 190 V218 H380 V246"/>
  <path class="e" d="M380 190 V246"/>
  <path class="e" d="M620 190 V218 H380 V246"/>
  <rect class="vote" x="270" y="246" width="220" height="50" rx="10"/>
  <text class="tx" x="380" y="276" fill="#2e8b57">VOTACI&#211;N &#8594; predicci&#243;n</text>
  <text x="380" y="322" text-anchor="middle" font-family="Segoe UI,sans-serif" font-size="15" fill="#7f8c8d">Bagging: muchos &#225;rboles en PARALELO &#8594; se promedia &#8594; menos varianza</text>
</svg>
