<?xml version="1.0" encoding="utf-8" standalone="no"?>
<!DOCTYPE svg PUBLIC "-//W3C//DTD SVG 1.1//EN"
  "http://www.w3.org/Graphics/SVG/1.1/DTD/svg11.dtd">
<svg xmlns:xlink="http://www.w3.org/1999/xlink" width="622.08pt" height="319.68pt" viewBox="0 0 622.08 319.68" xmlns="http://www.w3.org/2000/svg" version="1.1">
 <metadata>
  <rdf:RDF xmlns:dc="http://purl.org/dc/elements/1.1/" xmlns:cc="http://creativecommons.org/ns#" xmlns:rdf="http://www.w3.org/1999/02/22-rdf-syntax-ns#">
   <cc:Work>
    <dc:type rdf:resource="http://purl.org/dc/dcmitype/StillImage"/>
    <dc:date>2026-06-13T13:11:48.556962</dc:date>
    <dc:format>image/svg+xml</dc:format>
    <dc:creator>
     <cc:Agent>
      <dc:title>Matplotlib v3.10.0, https://matplotlib.org/</dc:title>
     </cc:Agent>
    </dc:creator>
   </cc:Work>
  </rdf:RDF>
 </metadata>
 <defs>
  <style type="text/css">*{stroke-linejoin: round; stroke-linecap: butt}</style>
 </defs>
 <g id="figure_1">
  <g id="patch_1">
   <path d="M 0 319.68 
L 622.08 319.68 
L 622.08 0 
L 0 0 
L 0 319.68 
z
" style="fill: none"/>
  </g>
  <g id="axes_1">
   <g id="patch_2">
    <path d="M 48.8975 278.2525 
L 614.88 278.2525 
L 614.88 25.197656 
L 48.8975 25.197656 
L 48.8975 278.2525 
z
" style="fill: none"/>
   </g>
   <g id="matplotlib.axis_1">
    <g id="xtick_1">
     <g id="line2d_1">
      <path d="M 72.903143 278.2525 
L 72.903143 25.197656 
" clip-path="url(#pa05ecd894f)" style="fill: none; stroke: #e9edf1; stroke-width: 0.9; stroke-linecap: square"/>
     </g>
     <g id="line2d_2">
      <defs>
       <path id="m6c1644ab1b" d="M 0 0 
L 0 3.5 
" style="stroke: #000000; stroke-width: 0.8"/>
      </defs>
      <g>
       <use xlink:href="#m6c1644ab1b" x="72.903143" y="278.2525" style="stroke: #000000; stroke-width: 0.8"/>
      </g>
     </g>
     <g id="text_1">
      <!-- 0 -->
      <g transform="translate(69.085643 294.370625) scale(0.12 -0.12)">
       <defs>
        <path id="DejaVuSans-30" d="M 2034 4250 
Q 1547 4250 1301 3770 
Q 1056 3291 1056 2328 
Q 1056 1369 1301 889 
Q 1547 409 2034 409 
Q 2525 409 2770 889 
Q 3016 1369 3016 2328 
Q 3016 3291 2770 3770 
Q 2525 4250 2034 4250 
z
M 2034 4750 
Q 2819 4750 3233 4129 
Q 3647 3509 3647 2328 
Q 3647 1150 3233 529 
Q 2819 -91 2034 -91 
Q 1250 -91 836 529 
Q 422 1150 422 2328 
Q 422 3509 836 4129 
Q 1250 4750 2034 4750 
z
" transform="scale(0.015625)"/>
       </defs>
       <use xlink:href="#DejaVuSans-30"/>
      </g>
     </g>
    </g>
    <g id="xtick_2">
     <g id="line2d_3">
      <path d="M 158.944873 278.2525 
L 158.944873 25.197656 
" clip-path="url(#pa05ecd894f)" style="fill: none; stroke: #e9edf1; stroke-width: 0.9; stroke-linecap: square"/>
     </g>
     <g id="line2d_4">
      <g>
       <use xlink:href="#m6c1644ab1b" x="158.944873" y="278.2525" style="stroke: #000000; stroke-width: 0.8"/>
      </g>
     </g>
     <g id="text_2">
      <!-- 50 -->
      <g transform="translate(151.309873 294.370625) scale(0.12 -0.12)">
       <defs>
        <path id="DejaVuSans-35" d="M 691 4666 
L 3169 4666 
L 3169 4134 
L 1269 4134 
L 1269 2991 
Q 1406 3038 1543 3061 
Q 1681 3084 1819 3084 
Q 2600 3084 3056 2656 
Q 3513 2228 3513 1497 
Q 3513 744 3044 326 
Q 2575 -91 1722 -91 
Q 1428 -91 1123 -41 
Q 819 9 494 109 
L 494 744 
Q 775 591 1075 516 
Q 1375 441 1709 441 
Q 2250 441 2565 725 
Q 2881 1009 2881 1497 
Q 2881 1984 2565 2268 
Q 2250 2553 1709 2553 
Q 1456 2553 1204 2497 
Q 953 2441 691 2322 
L 691 4666 
z
" transform="scale(0.015625)"/>
       </defs>
       <use xlink:href="#DejaVuSans-35"/>
       <use xlink:href="#DejaVuSans-30" transform="translate(63.623047 0)"/>
      </g>
     </g>
    </g>
    <g id="xtick_3">
     <g id="line2d_5">
      <path d="M 244.986603 278.2525 
L 244.986603 25.197656 
" clip-path="url(#pa05ecd894f)" style="fill: none; stroke: #e9edf1; stroke-width: 0.9; stroke-linecap: square"/>
     </g>
     <g id="line2d_6">
      <g>
       <use xlink:href="#m6c1644ab1b" x="244.986603" y="278.2525" style="stroke: #000000; stroke-width: 0.8"/>
      </g>
     </g>
     <g id="text_3">
      <!-- 100 -->
      <g transform="translate(233.534103 294.370625) scale(0.12 -0.12)">
       <defs>
        <path id="DejaVuSans-31" d="M 794 531 
L 1825 531 
L 1825 4091 
L 703 3866 
L 703 4441 
L 1819 4666 
L 2450 4666 
L 2450 531 
L 3481 531 
L 3481 0 
L 794 0 
L 794 531 
z
" transform="scale(0.015625)"/>
       </defs>
       <use xlink:href="#DejaVuSans-31"/>
       <use xlink:href="#DejaVuSans-30" transform="translate(63.623047 0)"/>
       <use xlink:href="#DejaVuSans-30" transform="translate(127.246094 0)"/>
      </g>
     </g>
    </g>
    <g id="xtick_4">
     <g id="line2d_7">
      <path d="M 331.028333 278.2525 
L 331.028333 25.197656 
" clip-path="url(#pa05ecd894f)" style="fill: none; stroke: #e9edf1; stroke-width: 0.9; stroke-linecap: square"/>
     </g>
     <g id="line2d_8">
      <g>
       <use xlink:href="#m6c1644ab1b" x="331.028333" y="278.2525" style="stroke: #000000; stroke-width: 0.8"/>
      </g>
     </g>
     <g id="text_4">
      <!-- 150 -->
      <g transform="translate(319.575833 294.370625) scale(0.12 -0.12)">
       <use xlink:href="#DejaVuSans-31"/>
       <use xlink:href="#DejaVuSans-35" transform="translate(63.623047 0)"/>
       <use xlink:href="#DejaVuSans-30" transform="translate(127.246094 0)"/>
      </g>
     </g>
    </g>
    <g id="xtick_5">
     <g id="line2d_9">
      <path d="M 417.070063 278.2525 
L 417.070063 25.197656 
" clip-path="url(#pa05ecd894f)" style="fill: none; stroke: #e9edf1; stroke-width: 0.9; stroke-linecap: square"/>
     </g>
     <g id="line2d_10">
      <g>
       <use xlink:href="#m6c1644ab1b" x="417.070063" y="278.2525" style="stroke: #000000; stroke-width: 0.8"/>
      </g>
     </g>
     <g id="text_5">
      <!-- 200 -->
      <g transform="translate(405.617563 294.370625) scale(0.12 -0.12)">
       <defs>
        <path id="DejaVuSans-32" d="M 1228 531 
L 3431 531 
L 3431 0 
L 469 0 
L 469 531 
Q 828 903 1448 1529 
Q 2069 2156 2228 2338 
Q 2531 2678 2651 2914 
Q 2772 3150 2772 3378 
Q 2772 3750 2511 3984 
Q 2250 4219 1831 4219 
Q 1534 4219 1204 4116 
Q 875 4013 500 3803 
L 500 4441 
Q 881 4594 1212 4672 
Q 1544 4750 1819 4750 
Q 2544 4750 2975 4387 
Q 3406 4025 3406 3419 
Q 3406 3131 3298 2873 
Q 3191 2616 2906 2266 
Q 2828 2175 2409 1742 
Q 1991 1309 1228 531 
z
" transform="scale(0.015625)"/>
       </defs>
       <use xlink:href="#DejaVuSans-32"/>
       <use xlink:href="#DejaVuSans-30" transform="translate(63.623047 0)"/>
       <use xlink:href="#DejaVuSans-30" transform="translate(127.246094 0)"/>
      </g>
     </g>
    </g>
    <g id="xtick_6">
     <g id="line2d_11">
      <path d="M 503.111793 278.2525 
L 503.111793 25.197656 
" clip-path="url(#pa05ecd894f)" style="fill: none; stroke: #e9edf1; stroke-width: 0.9; stroke-linecap: square"/>
     </g>
     <g id="line2d_12">
      <g>
       <use xlink:href="#m6c1644ab1b" x="503.111793" y="278.2525" style="stroke: #000000; stroke-width: 0.8"/>
      </g>
     </g>
     <g id="text_6">
      <!-- 250 -->
      <g transform="translate(491.659293 294.370625) scale(0.12 -0.12)">
       <use xlink:href="#DejaVuSans-32"/>
       <use xlink:href="#DejaVuSans-35" transform="translate(63.623047 0)"/>
       <use xlink:href="#DejaVuSans-30" transform="translate(127.246094 0)"/>
      </g>
     </g>
    </g>
    <g id="xtick_7">
     <g id="line2d_13">
      <path d="M 589.153523 278.2525 
L 589.153523 25.197656 
" clip-path="url(#pa05ecd894f)" style="fill: none; stroke: #e9edf1; stroke-width: 0.9; stroke-linecap: square"/>
     </g>
     <g id="line2d_14">
      <g>
       <use xlink:href="#m6c1644ab1b" x="589.153523" y="278.2525" style="stroke: #000000; stroke-width: 0.8"/>
      </g>
     </g>
     <g id="text_7">
      <!-- 300 -->
      <g transform="translate(577.701023 294.370625) scale(0.12 -0.12)">
       <defs>
        <path id="DejaVuSans-33" d="M 2597 2516 
Q 3050 2419 3304 2112 
Q 3559 1806 3559 1356 
Q 3559 666 3084 287 
Q 2609 -91 1734 -91 
Q 1441 -91 1130 -33 
Q 819 25 488 141 
L 488 750 
Q 750 597 1062 519 
Q 1375 441 1716 441 
Q 2309 441 2620 675 
Q 2931 909 2931 1356 
Q 2931 1769 2642 2001 
Q 2353 2234 1838 2234 
L 1294 2234 
L 1294 2753 
L 1863 2753 
Q 2328 2753 2575 2939 
Q 2822 3125 2822 3475 
Q 2822 3834 2567 4026 
Q 2313 4219 1838 4219 
Q 1578 4219 1281 4162 
Q 984 4106 628 3988 
L 628 4550 
Q 988 4650 1302 4700 
Q 1616 4750 1894 4750 
Q 2613 4750 3031 4423 
Q 3450 4097 3450 3541 
Q 3450 3153 3228 2886 
Q 3006 2619 2597 2516 
z
" transform="scale(0.015625)"/>
       </defs>
       <use xlink:href="#DejaVuSans-33"/>
       <use xlink:href="#DejaVuSans-30" transform="translate(63.623047 0)"/>
       <use xlink:href="#DejaVuSans-30" transform="translate(127.246094 0)"/>
      </g>
     </g>
    </g>
    <g id="text_8">
     <!-- Iteraciones (nº de árboles) -->
     <g transform="translate(252.0325 309.984375) scale(0.12 -0.12)">
      <defs>
       <path id="DejaVuSans-49" d="M 628 4666 
L 1259 4666 
L 1259 0 
L 628 0 
L 628 4666 
z
" transform="scale(0.015625)"/>
       <path id="DejaVuSans-74" d="M 1172 4494 
L 1172 3500 
L 2356 3500 
L 2356 3053 
L 1172 3053 
L 1172 1153 
Q 1172 725 1289 603 
Q 1406 481 1766 481 
L 2356 481 
L 2356 0 
L 1766 0 
Q 1100 0 847 248 
Q 594 497 594 1153 
L 594 3053 
L 172 3053 
L 172 3500 
L 594 3500 
L 594 4494 
L 1172 4494 
z
" transform="scale(0.015625)"/>
       <path id="DejaVuSans-65" d="M 3597 1894 
L 3597 1613 
L 953 1613 
Q 991 1019 1311 708 
Q 1631 397 2203 397 
Q 2534 397 2845 478 
Q 3156 559 3463 722 
L 3463 178 
Q 3153 47 2828 -22 
Q 2503 -91 2169 -91 
Q 1331 -91 842 396 
Q 353 884 353 1716 
Q 353 2575 817 3079 
Q 1281 3584 2069 3584 
Q 2775 3584 3186 3129 
Q 3597 2675 3597 1894 
z
M 3022 2063 
Q 3016 2534 2758 2815 
Q 2500 3097 2075 3097 
Q 1594 3097 1305 2825 
Q 1016 2553 972 2059 
L 3022 2063 
z
" transform="scale(0.015625)"/>
       <path id="DejaVuSans-72" d="M 2631 2963 
Q 2534 3019 2420 3045 
Q 2306 3072 2169 3072 
Q 1681 3072 1420 2755 
Q 1159 2438 1159 1844 
L 1159 0 
L 581 0 
L 581 3500 
L 1159 3500 
L 1159 2956 
Q 1341 3275 1631 3429 
Q 1922 3584 2338 3584 
Q 2397 3584 2469 3576 
Q 2541 3569 2628 3553 
L 2631 2963 
z
" transform="scale(0.015625)"/>
       <path id="DejaVuSans-61" d="M 2194 1759 
Q 1497 1759 1228 1600 
Q 959 1441 959 1056 
Q 959 750 1161 570 
Q 1363 391 1709 391 
Q 2188 391 2477 730 
Q 2766 1069 2766 1631 
L 2766 1759 
L 2194 1759 
z
M 3341 1997 
L 3341 0 
L 2766 0 
L 2766 531 
Q 2569 213 2275 61 
Q 1981 -91 1556 -91 
Q 1019 -91 701 211 
Q 384 513 384 1019 
Q 384 1609 779 1909 
Q 1175 2209 1959 2209 
L 2766 2209 
L 2766 2266 
Q 2766 2663 2505 2880 
Q 2244 3097 1772 3097 
Q 1472 3097 1187 3025 
Q 903 2953 641 2809 
L 641 3341 
Q 956 3463 1253 3523 
Q 1550 3584 1831 3584 
Q 2591 3584 2966 3190 
Q 3341 2797 3341 1997 
z
" transform="scale(0.015625)"/>
       <path id="DejaVuSans-63" d="M 3122 3366 
L 3122 2828 
Q 2878 2963 2633 3030 
Q 2388 3097 2138 3097 
Q 1578 3097 1268 2742 
Q 959 2388 959 1747 
Q 959 1106 1268 751 
Q 1578 397 2138 397 
Q 2388 397 2633 464 
Q 2878 531 3122 666 
L 3122 134 
Q 2881 22 2623 -34 
Q 2366 -91 2075 -91 
Q 1284 -91 818 406 
Q 353 903 353 1747 
Q 353 2603 823 3093 
Q 1294 3584 2113 3584 
Q 2378 3584 2631 3529 
Q 2884 3475 3122 3366 
z
" transform="scale(0.015625)"/>
       <path id="DejaVuSans-69" d="M 603 3500 
L 1178 3500 
L 1178 0 
L 603 0 
L 603 3500 
z
M 603 4863 
L 1178 4863 
L 1178 4134 
L 603 4134 
L 603 4863 
z
" transform="scale(0.015625)"/>
       <path id="DejaVuSans-6f" d="M 1959 3097 
Q 1497 3097 1228 2736 
Q 959 2375 959 1747 
Q 959 1119 1226 758 
Q 1494 397 1959 397 
Q 2419 397 2687 759 
Q 2956 1122 2956 1747 
Q 2956 2369 2687 2733 
Q 2419 3097 1959 3097 
z
M 1959 3584 
Q 2709 3584 3137 3096 
Q 3566 2609 3566 1747 
Q 3566 888 3137 398 
Q 2709 -91 1959 -91 
Q 1206 -91 779 398 
Q 353 888 353 1747 
Q 353 2609 779 3096 
Q 1206 3584 1959 3584 
z
" transform="scale(0.015625)"/>
       <path id="DejaVuSans-6e" d="M 3513 2113 
L 3513 0 
L 2938 0 
L 2938 2094 
Q 2938 2591 2744 2837 
Q 2550 3084 2163 3084 
Q 1697 3084 1428 2787 
Q 1159 2491 1159 1978 
L 1159 0 
L 581 0 
L 581 3500 
L 1159 3500 
L 1159 2956 
Q 1366 3272 1645 3428 
Q 1925 3584 2291 3584 
Q 2894 3584 3203 3211 
Q 3513 2838 3513 2113 
z
" transform="scale(0.015625)"/>
       <path id="DejaVuSans-73" d="M 2834 3397 
L 2834 2853 
Q 2591 2978 2328 3040 
Q 2066 3103 1784 3103 
Q 1356 3103 1142 2972 
Q 928 2841 928 2578 
Q 928 2378 1081 2264 
Q 1234 2150 1697 2047 
L 1894 2003 
Q 2506 1872 2764 1633 
Q 3022 1394 3022 966 
Q 3022 478 2636 193 
Q 2250 -91 1575 -91 
Q 1294 -91 989 -36 
Q 684 19 347 128 
L 347 722 
Q 666 556 975 473 
Q 1284 391 1588 391 
Q 1994 391 2212 530 
Q 2431 669 2431 922 
Q 2431 1156 2273 1281 
Q 2116 1406 1581 1522 
L 1381 1569 
Q 847 1681 609 1914 
Q 372 2147 372 2553 
Q 372 3047 722 3315 
Q 1072 3584 1716 3584 
Q 2034 3584 2315 3537 
Q 2597 3491 2834 3397 
z
" transform="scale(0.015625)"/>
       <path id="DejaVuSans-20" transform="scale(0.015625)"/>
       <path id="DejaVuSans-28" d="M 1984 4856 
Q 1566 4138 1362 3434 
Q 1159 2731 1159 2009 
Q 1159 1288 1364 580 
Q 1569 -128 1984 -844 
L 1484 -844 
Q 1016 -109 783 600 
Q 550 1309 550 2009 
Q 550 2706 781 3412 
Q 1013 4119 1484 4856 
L 1984 4856 
z
" transform="scale(0.015625)"/>
       <path id="DejaVuSans-ba" d="M 434 1850 
L 2584 1850 
L 2584 1466 
L 434 1466 
L 434 1850 
z
M 1509 4750 
Q 2069 4750 2391 4404 
Q 2713 4059 2713 3463 
Q 2713 2866 2391 2523 
Q 2069 2181 1509 2181 
Q 950 2181 625 2525 
Q 300 2869 300 3463 
Q 300 4059 625 4404 
Q 950 4750 1509 4750 
z
M 1509 4391 
Q 1181 4391 984 4139 
Q 788 3888 788 3463 
Q 788 3047 986 2797 
Q 1184 2547 1509 2547 
Q 1838 2547 2033 2797 
Q 2228 3047 2228 3463 
Q 2228 3891 2034 4141 
Q 1841 4391 1509 4391 
z
" transform="scale(0.015625)"/>
       <path id="DejaVuSans-64" d="M 2906 2969 
L 2906 4863 
L 3481 4863 
L 3481 0 
L 2906 0 
L 2906 525 
Q 2725 213 2448 61 
Q 2172 -91 1784 -91 
Q 1150 -91 751 415 
Q 353 922 353 1747 
Q 353 2572 751 3078 
Q 1150 3584 1784 3584 
Q 2172 3584 2448 3432 
Q 2725 3281 2906 2969 
z
M 947 1747 
Q 947 1113 1208 752 
Q 1469 391 1925 391 
Q 2381 391 2643 752 
Q 2906 1113 2906 1747 
Q 2906 2381 2643 2742 
Q 2381 3103 1925 3103 
Q 1469 3103 1208 2742 
Q 947 2381 947 1747 
z
" transform="scale(0.015625)"/>
       <path id="DejaVuSans-e1" d="M 2194 1759 
Q 1497 1759 1228 1600 
Q 959 1441 959 1056 
Q 959 750 1161 570 
Q 1363 391 1709 391 
Q 2188 391 2477 730 
Q 2766 1069 2766 1631 
L 2766 1759 
L 2194 1759 
z
M 3341 1997 
L 3341 0 
L 2766 0 
L 2766 531 
Q 2569 213 2275 61 
Q 1981 -91 1556 -91 
Q 1019 -91 701 211 
Q 384 513 384 1019 
Q 384 1609 779 1909 
Q 1175 2209 1959 2209 
L 2766 2209 
L 2766 2266 
Q 2766 2663 2505 2880 
Q 2244 3097 1772 3097 
Q 1472 3097 1187 3025 
Q 903 2953 641 2809 
L 641 3341 
Q 956 3463 1253 3523 
Q 1550 3584 1831 3584 
Q 2591 3584 2966 3190 
Q 3341 2797 3341 1997 
z
M 2290 5119 
L 2912 5119 
L 1894 3944 
L 1415 3944 
L 2290 5119 
z
" transform="scale(0.015625)"/>
       <path id="DejaVuSans-62" d="M 3116 1747 
Q 3116 2381 2855 2742 
Q 2594 3103 2138 3103 
Q 1681 3103 1420 2742 
Q 1159 2381 1159 1747 
Q 1159 1113 1420 752 
Q 1681 391 2138 391 
Q 2594 391 2855 752 
Q 3116 1113 3116 1747 
z
M 1159 2969 
Q 1341 3281 1617 3432 
Q 1894 3584 2278 3584 
Q 2916 3584 3314 3078 
Q 3713 2572 3713 1747 
Q 3713 922 3314 415 
Q 2916 -91 2278 -91 
Q 1894 -91 1617 61 
Q 1341 213 1159 525 
L 1159 0 
L 581 0 
L 581 4863 
L 1159 4863 
L 1159 2969 
z
" transform="scale(0.015625)"/>
       <path id="DejaVuSans-6c" d="M 603 4863 
L 1178 4863 
L 1178 0 
L 603 0 
L 603 4863 
z
" transform="scale(0.015625)"/>
       <path id="DejaVuSans-29" d="M 513 4856 
L 1013 4856 
Q 1481 4119 1714 3412 
Q 1947 2706 1947 2009 
Q 1947 1309 1714 600 
Q 1481 -109 1013 -844 
L 513 -844 
Q 928 -128 1133 580 
Q 1338 1288 1338 2009 
Q 1338 2731 1133 3434 
Q 928 4138 513 4856 
z
" transform="scale(0.015625)"/>
      </defs>
      <use xlink:href="#DejaVuSans-49"/>
      <use xlink:href="#DejaVuSans-74" transform="translate(29.492188 0)"/>
      <use xlink:href="#DejaVuSans-65" transform="translate(68.701172 0)"/>
      <use xlink:href="#DejaVuSans-72" transform="translate(130.224609 0)"/>
      <use xlink:href="#DejaVuSans-61" transform="translate(171.337891 0)"/>
      <use xlink:href="#DejaVuSans-63" transform="translate(232.617188 0)"/>
      <use xlink:href="#DejaVuSans-69" transform="translate(287.597656 0)"/>
      <use xlink:href="#DejaVuSans-6f" transform="translate(315.380859 0)"/>
      <use xlink:href="#DejaVuSans-6e" transform="translate(376.5625 0)"/>
      <use xlink:href="#DejaVuSans-65" transform="translate(439.941406 0)"/>
      <use xlink:href="#DejaVuSans-73" transform="translate(501.464844 0)"/>
      <use xlink:href="#DejaVuSans-20" transform="translate(553.564453 0)"/>
      <use xlink:href="#DejaVuSans-28" transform="translate(585.351562 0)"/>
      <use xlink:href="#DejaVuSans-6e" transform="translate(624.365234 0)"/>
      <use xlink:href="#DejaVuSans-ba" transform="translate(687.744141 0)"/>
      <use xlink:href="#DejaVuSans-20" transform="translate(734.863281 0)"/>
      <use xlink:href="#DejaVuSans-64" transform="translate(766.650391 0)"/>
      <use xlink:href="#DejaVuSans-65" transform="translate(830.126953 0)"/>
      <use xlink:href="#DejaVuSans-20" transform="translate(891.650391 0)"/>
      <use xlink:href="#DejaVuSans-e1" transform="translate(923.4375 0)"/>
      <use xlink:href="#DejaVuSans-72" transform="translate(984.716797 0)"/>
      <use xlink:href="#DejaVuSans-62" transform="translate(1025.830078 0)"/>
      <use xlink:href="#DejaVuSans-6f" transform="translate(1089.306641 0)"/>
      <use xlink:href="#DejaVuSans-6c" transform="translate(1150.488281 0)"/>
      <use xlink:href="#DejaVuSans-65" transform="translate(1178.271484 0)"/>
      <use xlink:href="#DejaVuSans-73" transform="translate(1239.794922 0)"/>
      <use xlink:href="#DejaVuSans-29" transform="translate(1291.894531 0)"/>
     </g>
    </g>
   </g>
   <g id="matplotlib.axis_2">
    <g id="ytick_1">
     <g id="line2d_15">
      <path d="M 48.8975 248.145478 
L 614.88 248.145478 
" clip-path="url(#pa05ecd894f)" style="fill: none; stroke: #e9edf1; stroke-width: 0.9; stroke-linecap: square"/>
     </g>
     <g id="line2d_16">
      <defs>
       <path id="me5257dc0bc" d="M 0 0 
L -3.5 0 
" style="stroke: #000000; stroke-width: 0.8"/>
      </defs>
      <g>
       <use xlink:href="#me5257dc0bc" x="48.8975" y="248.145478" style="stroke: #000000; stroke-width: 0.8"/>
      </g>
     </g>
     <g id="text_9">
      <!-- 0.1 -->
      <g transform="translate(22.81375 252.704541) scale(0.12 -0.12)">
       <defs>
        <path id="DejaVuSans-2e" d="M 684 794 
L 1344 794 
L 1344 0 
L 684 0 
L 684 794 
z
" transform="scale(0.015625)"/>
       </defs>
       <use xlink:href="#DejaVuSans-30"/>
       <use xlink:href="#DejaVuSans-2e" transform="translate(63.623047 0)"/>
       <use xlink:href="#DejaVuSans-31" transform="translate(95.410156 0)"/>
      </g>
     </g>
    </g>
    <g id="ytick_2">
     <g id="line2d_17">
      <path d="M 48.8975 215.509519 
L 614.88 215.509519 
" clip-path="url(#pa05ecd894f)" style="fill: none; stroke: #e9edf1; stroke-width: 0.9; stroke-linecap: square"/>
     </g>
     <g id="line2d_18">
      <g>
       <use xlink:href="#me5257dc0bc" x="48.8975" y="215.509519" style="stroke: #000000; stroke-width: 0.8"/>
      </g>
     </g>
     <g id="text_10">
      <!-- 0.2 -->
      <g transform="translate(22.81375 220.068582) scale(0.12 -0.12)">
       <use xlink:href="#DejaVuSans-30"/>
       <use xlink:href="#DejaVuSans-2e" transform="translate(63.623047 0)"/>
       <use xlink:href="#DejaVuSans-32" transform="translate(95.410156 0)"/>
      </g>
     </g>
    </g>
    <g id="ytick_3">
     <g id="line2d_19">
      <path d="M 48.8975 182.87356 
L 614.88 182.87356 
" clip-path="url(#pa05ecd894f)" style="fill: none; stroke: #e9edf1; stroke-width: 0.9; stroke-linecap: square"/>
     </g>
     <g id="line2d_20">
      <g>
       <use xlink:href="#me5257dc0bc" x="48.8975" y="182.87356" style="stroke: #000000; stroke-width: 0.8"/>
      </g>
     </g>
     <g id="text_11">
      <!-- 0.3 -->
      <g transform="translate(22.81375 187.432623) scale(0.12 -0.12)">
       <use xlink:href="#DejaVuSans-30"/>
       <use xlink:href="#DejaVuSans-2e" transform="translate(63.623047 0)"/>
       <use xlink:href="#DejaVuSans-33" transform="translate(95.410156 0)"/>
      </g>
     </g>
    </g>
    <g id="ytick_4">
     <g id="line2d_21">
      <path d="M 48.8975 150.237601 
L 614.88 150.237601 
" clip-path="url(#pa05ecd894f)" style="fill: none; stroke: #e9edf1; stroke-width: 0.9; stroke-linecap: square"/>
     </g>
     <g id="line2d_22">
      <g>
       <use xlink:href="#me5257dc0bc" x="48.8975" y="150.237601" style="stroke: #000000; stroke-width: 0.8"/>
      </g>
     </g>
     <g id="text_12">
      <!-- 0.4 -->
      <g transform="translate(22.81375 154.796663) scale(0.12 -0.12)">
       <defs>
        <path id="DejaVuSans-34" d="M 2419 4116 
L 825 1625 
L 2419 1625 
L 2419 4116 
z
M 2253 4666 
L 3047 4666 
L 3047 1625 
L 3713 1625 
L 3713 1100 
L 3047 1100 
L 3047 0 
L 2419 0 
L 2419 1100 
L 313 1100 
L 313 1709 
L 2253 4666 
z
" transform="scale(0.015625)"/>
       </defs>
       <use xlink:href="#DejaVuSans-30"/>
       <use xlink:href="#DejaVuSans-2e" transform="translate(63.623047 0)"/>
       <use xlink:href="#DejaVuSans-34" transform="translate(95.410156 0)"/>
      </g>
     </g>
    </g>
    <g id="ytick_5">
     <g id="line2d_23">
      <path d="M 48.8975 117.601642 
L 614.88 117.601642 
" clip-path="url(#pa05ecd894f)" style="fill: none; stroke: #e9edf1; stroke-width: 0.9; stroke-linecap: square"/>
     </g>
     <g id="line2d_24">
      <g>
       <use xlink:href="#me5257dc0bc" x="48.8975" y="117.601642" style="stroke: #000000; stroke-width: 0.8"/>
      </g>
     </g>
     <g id="text_13">
      <!-- 0.5 -->
      <g transform="translate(22.81375 122.160704) scale(0.12 -0.12)">
       <use xlink:href="#DejaVuSans-30"/>
       <use xlink:href="#DejaVuSans-2e" transform="translate(63.623047 0)"/>
       <use xlink:href="#DejaVuSans-35" transform="translate(95.410156 0)"/>
      </g>
     </g>
    </g>
    <g id="ytick_6">
     <g id="line2d_25">
      <path d="M 48.8975 84.965682 
L 614.88 84.965682 
" clip-path="url(#pa05ecd894f)" style="fill: none; stroke: #e9edf1; stroke-width: 0.9; stroke-linecap: square"/>
     </g>
     <g id="line2d_26">
      <g>
       <use xlink:href="#me5257dc0bc" x="48.8975" y="84.965682" style="stroke: #000000; stroke-width: 0.8"/>
      </g>
     </g>
     <g id="text_14">
      <!-- 0.6 -->
      <g transform="translate(22.81375 89.524745) scale(0.12 -0.12)">
       <defs>
        <path id="DejaVuSans-36" d="M 2113 2584 
Q 1688 2584 1439 2293 
Q 1191 2003 1191 1497 
Q 1191 994 1439 701 
Q 1688 409 2113 409 
Q 2538 409 2786 701 
Q 3034 994 3034 1497 
Q 3034 2003 2786 2293 
Q 2538 2584 2113 2584 
z
M 3366 4563 
L 3366 3988 
Q 3128 4100 2886 4159 
Q 2644 4219 2406 4219 
Q 1781 4219 1451 3797 
Q 1122 3375 1075 2522 
Q 1259 2794 1537 2939 
Q 1816 3084 2150 3084 
Q 2853 3084 3261 2657 
Q 3669 2231 3669 1497 
Q 3669 778 3244 343 
Q 2819 -91 2113 -91 
Q 1303 -91 875 529 
Q 447 1150 447 2328 
Q 447 3434 972 4092 
Q 1497 4750 2381 4750 
Q 2619 4750 2861 4703 
Q 3103 4656 3366 4563 
z
" transform="scale(0.015625)"/>
       </defs>
       <use xlink:href="#DejaVuSans-30"/>
       <use xlink:href="#DejaVuSans-2e" transform="translate(63.623047 0)"/>
       <use xlink:href="#DejaVuSans-36" transform="translate(95.410156 0)"/>
      </g>
     </g>
    </g>
    <g id="ytick_7">
     <g id="line2d_27">
      <path d="M 48.8975 52.329723 
L 614.88 52.329723 
" clip-path="url(#pa05ecd894f)" style="fill: none; stroke: #e9edf1; stroke-width: 0.9; stroke-linecap: square"/>
     </g>
     <g id="line2d_28">
      <g>
       <use xlink:href="#me5257dc0bc" x="48.8975" y="52.329723" style="stroke: #000000; stroke-width: 0.8"/>
      </g>
     </g>
     <g id="text_15">
      <!-- 0.7 -->
      <g transform="translate(22.81375 56.888786) scale(0.12 -0.12)">
       <defs>
        <path id="DejaVuSans-37" d="M 525 4666 
L 3525 4666 
L 3525 4397 
L 1831 0 
L 1172 0 
L 2766 4134 
L 525 4134 
L 525 4666 
z
" transform="scale(0.015625)"/>
       </defs>
       <use xlink:href="#DejaVuSans-30"/>
       <use xlink:href="#DejaVuSans-2e" transform="translate(63.623047 0)"/>
       <use xlink:href="#DejaVuSans-37" transform="translate(95.410156 0)"/>
      </g>
     </g>
    </g>
    <g id="text_16">
     <!-- Loss -->
     <g transform="translate(16.318125 164.885703) rotate(-90) scale(0.12 -0.12)">
      <defs>
       <path id="DejaVuSans-4c" d="M 628 4666 
L 1259 4666 
L 1259 531 
L 3531 531 
L 3531 0 
L 628 0 
L 628 4666 
z
" transform="scale(0.015625)"/>
      </defs>
      <use xlink:href="#DejaVuSans-4c"/>
      <use xlink:href="#DejaVuSans-6f" transform="translate(53.962891 0)"/>
      <use xlink:href="#DejaVuSans-73" transform="translate(115.144531 0)"/>
      <use xlink:href="#DejaVuSans-73" transform="translate(167.244141 0)"/>
     </g>
    </g>
   </g>
   <g id="patch_3">
    <path d="M 348.236679 278.2525 
L 589.153523 278.2525 
L 589.153523 25.197656 
L 348.236679 25.197656 
z
" clip-path="url(#pa05ecd894f)" style="fill: #c0392b; opacity: 0.05; stroke: #c0392b; stroke-linejoin: miter"/>
   </g>
   <g id="line2d_29">
    <path d="M 74.623977 43.391474 
L 79.786481 55.300224 
L 84.948985 66.576803 
L 90.111489 77.25477 
L 95.273992 87.365903 
L 100.436496 96.94029 
L 105.599 106.006426 
L 110.761504 114.59129 
L 115.924008 122.720431 
L 121.086511 130.41804 
L 126.249015 137.707025 
L 131.411519 144.609077 
L 136.574023 151.144738 
L 141.736527 157.333456 
L 146.89903 163.193648 
L 152.061534 168.742755 
L 157.224038 173.997291 
L 162.386542 178.972892 
L 167.549046 183.684365 
L 172.711549 188.145732 
L 177.874053 192.370269 
L 183.036557 196.370549 
L 189.919895 201.375894 
L 196.803234 206.030137 
L 203.686572 210.357905 
L 210.569911 214.382098 
L 217.453249 218.124013 
L 224.336587 221.603448 
L 231.219926 224.838817 
L 238.103264 227.847238 
L 244.986603 230.644632 
L 253.590776 233.867068 
L 262.194949 236.809477 
L 270.799122 239.496192 
L 279.403295 241.949434 
L 288.007468 244.18949 
L 298.332475 246.622123 
L 308.657483 248.803341 
L 318.98249 250.759128 
L 331.028333 252.786905 
L 343.074175 254.57235 
L 355.120017 256.144423 
L 368.886694 257.712373 
L 382.653371 259.068068 
L 398.140882 260.375136 
L 415.349228 261.597371 
L 434.278409 262.708494 
L 454.928424 263.692236 
L 479.020108 264.598985 
L 504.832627 265.345654 
L 535.80765 266.010334 
L 571.945177 266.555188 
L 589.153523 266.750007 
L 589.153523 266.750007 
" clip-path="url(#pa05ecd894f)" style="fill: none; stroke: #3498db; stroke-width: 2.4; stroke-linecap: square"/>
   </g>
   <g id="line2d_30">
    <path d="M 74.623977 36.700149 
L 76.344812 41.078709 
L 78.065646 44.039368 
L 81.507316 53.299721 
L 84.948985 58.347319 
L 86.669819 62.437485 
L 88.390654 68.151454 
L 90.111489 72.379508 
L 93.553158 77.475475 
L 95.273992 83.873895 
L 96.994827 84.373992 
L 98.715662 88.905943 
L 100.436496 91.369028 
L 103.878165 96.924876 
L 107.319835 101.032103 
L 109.040669 105.42214 
L 110.761504 106.280264 
L 112.482338 111.691597 
L 114.203173 113.073766 
L 115.924008 115.013814 
L 119.365677 122.342079 
L 121.086511 125.094104 
L 122.807346 126.962349 
L 124.528181 128.506759 
L 126.249015 132.497827 
L 127.96985 133.795538 
L 129.690684 136.030761 
L 131.411519 137.375845 
L 133.132354 140.019943 
L 134.853188 142.014563 
L 136.574023 145.471079 
L 138.294857 146.887273 
L 140.015692 147.757318 
L 141.736527 148.856681 
L 143.457361 154.438916 
L 145.178196 152.772131 
L 146.89903 154.909499 
L 152.061534 162.62537 
L 153.782369 162.09566 
L 155.503203 163.191338 
L 157.224038 165.118176 
L 158.944873 167.44209 
L 160.665707 170.35069 
L 162.386542 174.023085 
L 164.107376 174.050645 
L 165.828211 174.758161 
L 167.549046 178.83905 
L 169.26988 178.155607 
L 170.990715 179.597212 
L 172.711549 180.709899 
L 174.432384 184.598192 
L 176.153219 185.324234 
L 177.874053 186.412817 
L 179.594888 188.727925 
L 181.315722 186.263462 
L 183.036557 190.490738 
L 184.757392 190.699575 
L 186.478226 192.729079 
L 188.199061 191.564158 
L 189.919895 193.125053 
L 191.64073 195.217384 
L 193.361565 200.094677 
L 195.082399 198.303002 
L 196.803234 198.610435 
L 198.524068 199.303961 
L 200.244903 202.512807 
L 201.965738 200.399574 
L 203.686572 205.554454 
L 205.407407 205.727947 
L 207.128241 204.658739 
L 208.849076 206.81209 
L 210.569911 205.240907 
L 212.290745 208.569951 
L 214.01158 210.586473 
L 215.732414 211.179585 
L 217.453249 213.021245 
L 219.174084 214.158478 
L 220.894918 212.545203 
L 222.615753 213.471299 
L 224.336587 213.38629 
L 226.057422 216.892381 
L 227.778257 214.518324 
L 229.499091 217.671422 
L 231.219926 215.799428 
L 232.94076 218.963985 
L 234.661595 219.889503 
L 236.38243 219.119989 
L 238.103264 218.602838 
L 239.824099 220.229232 
L 243.265768 223.131862 
L 244.986603 223.662521 
L 246.707437 221.616383 
L 248.428272 221.408239 
L 250.149106 223.330547 
L 251.869941 224.922802 
L 253.590776 222.773398 
L 255.31161 225.966197 
L 257.032445 225.596218 
L 258.753279 224.214486 
L 260.474114 228.311843 
L 262.194949 225.208869 
L 263.915783 226.801153 
L 265.636618 226.217769 
L 267.357452 226.767964 
L 269.078287 226.704328 
L 270.799122 226.351508 
L 272.519956 228.527911 
L 274.240791 225.953935 
L 275.961625 227.123103 
L 277.68246 227.22273 
L 279.403295 227.048032 
L 281.124129 227.77654 
L 282.844964 227.930424 
L 284.565798 229.153045 
L 286.286633 231.325636 
L 288.007468 229.842782 
L 291.449137 231.907423 
L 293.169971 229.89322 
L 294.890806 231.145945 
L 296.611641 231.913974 
L 298.332475 232.089985 
L 300.05331 230.529816 
L 301.774144 230.55695 
L 303.494979 229.437015 
L 305.215814 231.313187 
L 306.936648 230.060098 
L 308.657483 229.708348 
L 310.378317 230.149955 
L 312.099152 234.845548 
L 313.819987 230.254149 
L 315.540821 231.509174 
L 317.261656 231.48791 
L 322.42416 231.856048 
L 324.144994 232.807914 
L 325.865829 234.882881 
L 327.586663 232.598419 
L 329.307498 233.556161 
L 331.028333 231.142524 
L 332.749167 232.97031 
L 334.470002 232.520254 
L 336.190837 233.769454 
L 337.911671 233.353376 
L 339.632506 232.723696 
L 341.35334 234.665047 
L 343.074175 232.346367 
L 344.79501 232.885928 
L 346.515844 234.299634 
L 348.236679 235.882595 
L 349.957513 232.078073 
L 351.678348 233.128247 
L 353.399183 233.419629 
L 355.120017 233.020089 
L 356.840852 230.320745 
L 358.561686 232.733533 
L 360.282521 232.528231 
L 362.003356 234.55175 
L 363.72419 230.425568 
L 365.445025 231.340447 
L 367.165859 231.104024 
L 368.886694 232.389906 
L 370.607529 231.207492 
L 372.328363 231.868617 
L 374.049198 231.497929 
L 375.770032 232.439498 
L 377.490867 234.10422 
L 379.211702 230.773352 
L 380.932536 234.575768 
L 382.653371 232.293445 
L 384.374205 232.174775 
L 386.09504 233.193924 
L 387.815875 230.954131 
L 389.536709 231.935323 
L 391.257544 232.160728 
L 392.978378 230.825806 
L 394.699213 232.03801 
L 396.420048 229.511555 
L 398.140882 230.772421 
L 399.861717 231.754449 
L 401.582551 233.574979 
L 403.303386 232.643334 
L 405.024221 229.414332 
L 406.745055 230.793903 
L 408.46589 230.989945 
L 410.186724 228.365501 
L 411.907559 232.073265 
L 413.628394 231.049466 
L 415.349228 230.785876 
L 417.070063 229.285505 
L 418.790897 230.797137 
L 420.511732 230.609758 
L 422.232567 231.780529 
L 423.953401 228.607228 
L 425.674236 228.379376 
L 427.39507 229.924198 
L 429.115905 228.957878 
L 430.83674 230.725618 
L 432.557574 229.51939 
L 434.278409 226.968266 
L 435.999243 228.451879 
L 437.720078 225.473371 
L 439.440913 229.375781 
L 441.161747 227.447794 
L 442.882582 228.316168 
L 444.603416 227.176419 
L 448.045086 228.351459 
L 449.76592 228.601199 
L 451.486755 223.314378 
L 453.207589 227.264807 
L 454.928424 229.642044 
L 458.370093 225.81146 
L 460.090928 227.190979 
L 461.811762 224.602657 
L 463.532597 224.909213 
L 465.253432 226.254579 
L 466.974266 226.508891 
L 468.695101 227.039706 
L 470.415935 226.476168 
L 472.13677 227.318775 
L 473.857605 223.655572 
L 475.578439 222.982343 
L 477.299274 226.528712 
L 479.020108 226.260457 
L 480.740943 226.854435 
L 482.461778 225.630897 
L 484.182612 228.253671 
L 485.903447 225.514631 
L 487.624281 222.154368 
L 489.345116 224.121676 
L 491.065951 222.376899 
L 492.786785 223.951998 
L 494.50762 220.835515 
L 496.228454 222.693291 
L 497.949289 223.270577 
L 499.670124 219.257557 
L 501.390958 222.830028 
L 503.111793 223.816726 
L 504.832627 221.774155 
L 506.553462 221.902888 
L 508.274297 220.273853 
L 509.995131 222.681933 
L 511.715966 220.240466 
L 513.4368 219.989209 
L 515.157635 221.784771 
L 516.87847 220.510062 
L 518.599304 221.61699 
L 520.320139 217.278834 
L 522.040973 221.068331 
L 523.761808 220.547903 
L 525.482643 221.154505 
L 527.203477 220.021004 
L 528.924312 219.382258 
L 530.645146 218.177098 
L 532.365981 219.780566 
L 534.086816 219.029754 
L 535.80765 220.439424 
L 537.528485 219.472887 
L 539.249319 214.597149 
L 542.690989 218.816999 
L 544.411823 219.343098 
L 546.132658 218.670563 
L 547.853492 217.224598 
L 549.574327 216.94973 
L 551.295162 217.765074 
L 553.015996 218.270711 
L 554.736831 214.531677 
L 556.457665 215.59573 
L 558.1785 216.470769 
L 559.899335 216.065821 
L 561.620169 216.264559 
L 563.341004 219.201212 
L 565.061838 215.012068 
L 566.782673 216.354842 
L 568.503508 216.060101 
L 570.224342 215.380426 
L 571.945177 213.381678 
L 573.666011 215.658371 
L 575.386846 215.794963 
L 577.107681 212.879218 
L 578.828515 212.521265 
L 580.54935 214.549058 
L 582.270184 212.353881 
L 583.991019 213.259245 
L 585.711854 212.275357 
L 587.432688 214.104586 
L 589.153523 211.160663 
L 589.153523 211.160663 
" clip-path="url(#pa05ecd894f)" style="fill: none; stroke: #8b1538; stroke-width: 2.4; stroke-linecap: square"/>
   </g>
   <g id="line2d_31">
    <path d="M 348.236679 278.2525 
L 348.236679 25.197656 
" clip-path="url(#pa05ecd894f)" style="fill: none; stroke-dasharray: 7.4,3.2; stroke-dashoffset: 0; stroke: #2e8b57; stroke-width: 2"/>
   </g>
   <g id="patch_4">
    <path d="M 48.8975 278.2525 
L 48.8975 25.197656 
" style="fill: none; stroke: #c9ced3; stroke-width: 1.1; stroke-linejoin: miter; stroke-linecap: square"/>
   </g>
   <g id="patch_5">
    <path d="M 48.8975 278.2525 
L 614.88 278.2525 
" style="fill: none; stroke: #c9ced3; stroke-width: 1.1; stroke-linejoin: miter; stroke-linecap: square"/>
   </g>
   <g id="patch_6">
    <path d="M 411.974553 211.513138 
Q 381.041221 223.340148 351.152196 234.767879 
" style="fill: none; stroke: #2e8b57; stroke-linecap: round"/>
    <path d="M 356.047721 235.251449 
L 351.152196 234.767879 
L 354.476367 231.141602 
" style="fill: none; stroke: #2e8b57; stroke-linecap: round"/>
   </g>
   <g id="text_17">
    <!-- Early stopping -->
    <g style="fill: #2e8b57" transform="translate(408.46589 194.192638) scale(0.11 -0.11)">
     <defs>
      <path id="DejaVuSans-45" d="M 628 4666 
L 3578 4666 
L 3578 4134 
L 1259 4134 
L 1259 2753 
L 3481 2753 
L 3481 2222 
L 1259 2222 
L 1259 531 
L 3634 531 
L 3634 0 
L 628 0 
L 628 4666 
z
" transform="scale(0.015625)"/>
      <path id="DejaVuSans-79" d="M 2059 -325 
Q 1816 -950 1584 -1140 
Q 1353 -1331 966 -1331 
L 506 -1331 
L 506 -850 
L 844 -850 
Q 1081 -850 1212 -737 
Q 1344 -625 1503 -206 
L 1606 56 
L 191 3500 
L 800 3500 
L 1894 763 
L 2988 3500 
L 3597 3500 
L 2059 -325 
z
" transform="scale(0.015625)"/>
      <path id="DejaVuSans-70" d="M 1159 525 
L 1159 -1331 
L 581 -1331 
L 581 3500 
L 1159 3500 
L 1159 2969 
Q 1341 3281 1617 3432 
Q 1894 3584 2278 3584 
Q 2916 3584 3314 3078 
Q 3713 2572 3713 1747 
Q 3713 922 3314 415 
Q 2916 -91 2278 -91 
Q 1894 -91 1617 61 
Q 1341 213 1159 525 
z
M 3116 1747 
Q 3116 2381 2855 2742 
Q 2594 3103 2138 3103 
Q 1681 3103 1420 2742 
Q 1159 2381 1159 1747 
Q 1159 1113 1420 752 
Q 1681 391 2138 391 
Q 2594 391 2855 752 
Q 3116 1113 3116 1747 
z
" transform="scale(0.015625)"/>
      <path id="DejaVuSans-67" d="M 2906 1791 
Q 2906 2416 2648 2759 
Q 2391 3103 1925 3103 
Q 1463 3103 1205 2759 
Q 947 2416 947 1791 
Q 947 1169 1205 825 
Q 1463 481 1925 481 
Q 2391 481 2648 825 
Q 2906 1169 2906 1791 
z
M 3481 434 
Q 3481 -459 3084 -895 
Q 2688 -1331 1869 -1331 
Q 1566 -1331 1297 -1286 
Q 1028 -1241 775 -1147 
L 775 -588 
Q 1028 -725 1275 -790 
Q 1522 -856 1778 -856 
Q 2344 -856 2625 -561 
Q 2906 -266 2906 331 
L 2906 616 
Q 2728 306 2450 153 
Q 2172 0 1784 0 
Q 1141 0 747 490 
Q 353 981 353 1791 
Q 353 2603 747 3093 
Q 1141 3584 1784 3584 
Q 2172 3584 2450 3431 
Q 2728 3278 2906 2969 
L 2906 3500 
L 3481 3500 
L 3481 434 
z
" transform="scale(0.015625)"/>
     </defs>
     <use xlink:href="#DejaVuSans-45"/>
     <use xlink:href="#DejaVuSans-61" transform="translate(63.183594 0)"/>
     <use xlink:href="#DejaVuSans-72" transform="translate(124.462891 0)"/>
     <use xlink:href="#DejaVuSans-6c" transform="translate(165.576172 0)"/>
     <use xlink:href="#DejaVuSans-79" transform="translate(193.359375 0)"/>
     <use xlink:href="#DejaVuSans-20" transform="translate(252.539062 0)"/>
     <use xlink:href="#DejaVuSans-73" transform="translate(284.326172 0)"/>
     <use xlink:href="#DejaVuSans-74" transform="translate(336.425781 0)"/>
     <use xlink:href="#DejaVuSans-6f" transform="translate(375.634766 0)"/>
     <use xlink:href="#DejaVuSans-70" transform="translate(436.816406 0)"/>
     <use xlink:href="#DejaVuSans-70" transform="translate(500.292969 0)"/>
     <use xlink:href="#DejaVuSans-69" transform="translate(563.769531 0)"/>
     <use xlink:href="#DejaVuSans-6e" transform="translate(591.552734 0)"/>
     <use xlink:href="#DejaVuSans-67" transform="translate(654.931641 0)"/>
    </g>
    <!-- (iteración 160) -->
    <g style="fill: #2e8b57" transform="translate(408.46589 206.510231) scale(0.11 -0.11)">
     <defs>
      <path id="DejaVuSans-f3" d="M 1959 3097 
Q 1497 3097 1228 2736 
Q 959 2375 959 1747 
Q 959 1119 1226 758 
Q 1494 397 1959 397 
Q 2419 397 2687 759 
Q 2956 1122 2956 1747 
Q 2956 2369 2687 2733 
Q 2419 3097 1959 3097 
z
M 1959 3584 
Q 2709 3584 3137 3096 
Q 3566 2609 3566 1747 
Q 3566 888 3137 398 
Q 2709 -91 1959 -91 
Q 1206 -91 779 398 
Q 353 888 353 1747 
Q 353 2609 779 3096 
Q 1206 3584 1959 3584 
z
M 2394 5119 
L 3016 5119 
L 1998 3944 
L 1519 3944 
L 2394 5119 
z
" transform="scale(0.015625)"/>
     </defs>
     <use xlink:href="#DejaVuSans-28"/>
     <use xlink:href="#DejaVuSans-69" transform="translate(39.013672 0)"/>
     <use xlink:href="#DejaVuSans-74" transform="translate(66.796875 0)"/>
     <use xlink:href="#DejaVuSans-65" transform="translate(106.005859 0)"/>
     <use xlink:href="#DejaVuSans-72" transform="translate(167.529297 0)"/>
     <use xlink:href="#DejaVuSans-61" transform="translate(208.642578 0)"/>
     <use xlink:href="#DejaVuSans-63" transform="translate(269.921875 0)"/>
     <use xlink:href="#DejaVuSans-69" transform="translate(324.902344 0)"/>
     <use xlink:href="#DejaVuSans-f3" transform="translate(352.685547 0)"/>
     <use xlink:href="#DejaVuSans-6e" transform="translate(413.867188 0)"/>
     <use xlink:href="#DejaVuSans-20" transform="translate(477.246094 0)"/>
     <use xlink:href="#DejaVuSans-31" transform="translate(509.033203 0)"/>
     <use xlink:href="#DejaVuSans-36" transform="translate(572.65625 0)"/>
     <use xlink:href="#DejaVuSans-30" transform="translate(636.279297 0)"/>
     <use xlink:href="#DejaVuSans-29" transform="translate(699.902344 0)"/>
    </g>
   </g>
   <g id="text_18">
    <!-- sobreajuste -->
    <g style="fill: #c0392b" transform="translate(457.930901 56.226652) scale(0.11 -0.11)">
     <defs>
      <path id="DejaVuSans-Bold-73" d="M 3272 3391 
L 3272 2541 
Q 2913 2691 2578 2766 
Q 2244 2841 1947 2841 
Q 1628 2841 1473 2761 
Q 1319 2681 1319 2516 
Q 1319 2381 1436 2309 
Q 1553 2238 1856 2203 
L 2053 2175 
Q 2913 2066 3209 1816 
Q 3506 1566 3506 1031 
Q 3506 472 3093 190 
Q 2681 -91 1863 -91 
Q 1516 -91 1145 -36 
Q 775 19 384 128 
L 384 978 
Q 719 816 1070 734 
Q 1422 653 1784 653 
Q 2113 653 2278 743 
Q 2444 834 2444 1013 
Q 2444 1163 2330 1236 
Q 2216 1309 1875 1350 
L 1678 1375 
Q 931 1469 631 1722 
Q 331 1975 331 2491 
Q 331 3047 712 3315 
Q 1094 3584 1881 3584 
Q 2191 3584 2531 3537 
Q 2872 3491 3272 3391 
z
" transform="scale(0.015625)"/>
      <path id="DejaVuSans-Bold-6f" d="M 2203 2784 
Q 1831 2784 1636 2517 
Q 1441 2250 1441 1747 
Q 1441 1244 1636 976 
Q 1831 709 2203 709 
Q 2569 709 2762 976 
Q 2956 1244 2956 1747 
Q 2956 2250 2762 2517 
Q 2569 2784 2203 2784 
z
M 2203 3584 
Q 3106 3584 3614 3096 
Q 4122 2609 4122 1747 
Q 4122 884 3614 396 
Q 3106 -91 2203 -91 
Q 1297 -91 786 396 
Q 275 884 275 1747 
Q 275 2609 786 3096 
Q 1297 3584 2203 3584 
z
" transform="scale(0.015625)"/>
      <path id="DejaVuSans-Bold-62" d="M 2400 722 
Q 2759 722 2948 984 
Q 3138 1247 3138 1747 
Q 3138 2247 2948 2509 
Q 2759 2772 2400 2772 
Q 2041 2772 1848 2508 
Q 1656 2244 1656 1747 
Q 1656 1250 1848 986 
Q 2041 722 2400 722 
z
M 1656 2988 
Q 1888 3294 2169 3439 
Q 2450 3584 2816 3584 
Q 3463 3584 3878 3070 
Q 4294 2556 4294 1747 
Q 4294 938 3878 423 
Q 3463 -91 2816 -91 
Q 2450 -91 2169 54 
Q 1888 200 1656 506 
L 1656 0 
L 538 0 
L 538 4863 
L 1656 4863 
L 1656 2988 
z
" transform="scale(0.015625)"/>
      <path id="DejaVuSans-Bold-72" d="M 3138 2547 
Q 2991 2616 2845 2648 
Q 2700 2681 2553 2681 
Q 2122 2681 1889 2404 
Q 1656 2128 1656 1613 
L 1656 0 
L 538 0 
L 538 3500 
L 1656 3500 
L 1656 2925 
Q 1872 3269 2151 3426 
Q 2431 3584 2822 3584 
Q 2878 3584 2943 3579 
Q 3009 3575 3134 3559 
L 3138 2547 
z
" transform="scale(0.015625)"/>
      <path id="DejaVuSans-Bold-65" d="M 4031 1759 
L 4031 1441 
L 1416 1441 
Q 1456 1047 1700 850 
Q 1944 653 2381 653 
Q 2734 653 3104 758 
Q 3475 863 3866 1075 
L 3866 213 
Q 3469 63 3072 -14 
Q 2675 -91 2278 -91 
Q 1328 -91 801 392 
Q 275 875 275 1747 
Q 275 2603 792 3093 
Q 1309 3584 2216 3584 
Q 3041 3584 3536 3087 
Q 4031 2591 4031 1759 
z
M 2881 2131 
Q 2881 2450 2695 2645 
Q 2509 2841 2209 2841 
Q 1884 2841 1681 2658 
Q 1478 2475 1428 2131 
L 2881 2131 
z
" transform="scale(0.015625)"/>
      <path id="DejaVuSans-Bold-61" d="M 2106 1575 
Q 1756 1575 1579 1456 
Q 1403 1338 1403 1106 
Q 1403 894 1545 773 
Q 1688 653 1941 653 
Q 2256 653 2472 879 
Q 2688 1106 2688 1447 
L 2688 1575 
L 2106 1575 
z
M 3816 1997 
L 3816 0 
L 2688 0 
L 2688 519 
Q 2463 200 2181 54 
Q 1900 -91 1497 -91 
Q 953 -91 614 226 
Q 275 544 275 1050 
Q 275 1666 698 1953 
Q 1122 2241 2028 2241 
L 2688 2241 
L 2688 2328 
Q 2688 2594 2478 2717 
Q 2269 2841 1825 2841 
Q 1466 2841 1156 2769 
Q 847 2697 581 2553 
L 581 3406 
Q 941 3494 1303 3539 
Q 1666 3584 2028 3584 
Q 2975 3584 3395 3211 
Q 3816 2838 3816 1997 
z
" transform="scale(0.015625)"/>
      <path id="DejaVuSans-Bold-6a" d="M 538 3500 
L 1656 3500 
L 1656 63 
Q 1656 -641 1318 -1011 
Q 981 -1381 341 -1381 
L -213 -1381 
L -213 -647 
L -19 -647 
Q 300 -647 419 -503 
Q 538 -359 538 63 
L 538 3500 
z
M 538 4863 
L 1656 4863 
L 1656 3950 
L 538 3950 
L 538 4863 
z
" transform="scale(0.015625)"/>
      <path id="DejaVuSans-Bold-75" d="M 500 1363 
L 500 3500 
L 1625 3500 
L 1625 3150 
Q 1625 2866 1622 2436 
Q 1619 2006 1619 1863 
Q 1619 1441 1641 1255 
Q 1663 1069 1716 984 
Q 1784 875 1895 815 
Q 2006 756 2150 756 
Q 2500 756 2700 1025 
Q 2900 1294 2900 1772 
L 2900 3500 
L 4019 3500 
L 4019 0 
L 2900 0 
L 2900 506 
Q 2647 200 2364 54 
Q 2081 -91 1741 -91 
Q 1134 -91 817 281 
Q 500 653 500 1363 
z
" transform="scale(0.015625)"/>
      <path id="DejaVuSans-Bold-74" d="M 1759 4494 
L 1759 3500 
L 2913 3500 
L 2913 2700 
L 1759 2700 
L 1759 1216 
Q 1759 972 1856 886 
Q 1953 800 2241 800 
L 2816 800 
L 2816 0 
L 1856 0 
Q 1194 0 917 276 
Q 641 553 641 1216 
L 641 2700 
L 84 2700 
L 84 3500 
L 641 3500 
L 641 4494 
L 1759 4494 
z
" transform="scale(0.015625)"/>
     </defs>
     <use xlink:href="#DejaVuSans-Bold-73"/>
     <use xlink:href="#DejaVuSans-Bold-6f" transform="translate(59.521484 0)"/>
     <use xlink:href="#DejaVuSans-Bold-62" transform="translate(128.222656 0)"/>
     <use xlink:href="#DejaVuSans-Bold-72" transform="translate(199.804688 0)"/>
     <use xlink:href="#DejaVuSans-Bold-65" transform="translate(249.121094 0)"/>
     <use xlink:href="#DejaVuSans-Bold-61" transform="translate(316.943359 0)"/>
     <use xlink:href="#DejaVuSans-Bold-6a" transform="translate(384.423828 0)"/>
     <use xlink:href="#DejaVuSans-Bold-75" transform="translate(418.701172 0)"/>
     <use xlink:href="#DejaVuSans-Bold-73" transform="translate(489.892578 0)"/>
     <use xlink:href="#DejaVuSans-Bold-74" transform="translate(549.414062 0)"/>
     <use xlink:href="#DejaVuSans-Bold-65" transform="translate(597.216797 0)"/>
    </g>
   </g>
   <g id="text_19">
    <!-- Early stopping: frenar cuando la validación deja de mejorar -->
    <g style="fill: #2c3e50" transform="translate(48.8975 19.197656) scale(0.15 -0.15)">
     <defs>
      <path id="DejaVuSans-Bold-45" d="M 588 4666 
L 3834 4666 
L 3834 3756 
L 1791 3756 
L 1791 2888 
L 3713 2888 
L 3713 1978 
L 1791 1978 
L 1791 909 
L 3903 909 
L 3903 0 
L 588 0 
L 588 4666 
z
" transform="scale(0.015625)"/>
      <path id="DejaVuSans-Bold-6c" d="M 538 4863 
L 1656 4863 
L 1656 0 
L 538 0 
L 538 4863 
z
" transform="scale(0.015625)"/>
      <path id="DejaVuSans-Bold-79" d="M 78 3500 
L 1197 3500 
L 2138 1125 
L 2938 3500 
L 4056 3500 
L 2584 -331 
Q 2363 -916 2067 -1148 
Q 1772 -1381 1288 -1381 
L 641 -1381 
L 641 -647 
L 991 -647 
Q 1275 -647 1404 -556 
Q 1534 -466 1606 -231 
L 1638 -134 
L 78 3500 
z
" transform="scale(0.015625)"/>
      <path id="DejaVuSans-Bold-20" transform="scale(0.015625)"/>
      <path id="DejaVuSans-Bold-70" d="M 1656 506 
L 1656 -1331 
L 538 -1331 
L 538 3500 
L 1656 3500 
L 1656 2988 
Q 1888 3294 2169 3439 
Q 2450 3584 2816 3584 
Q 3463 3584 3878 3070 
Q 4294 2556 4294 1747 
Q 4294 938 3878 423 
Q 3463 -91 2816 -91 
Q 2450 -91 2169 54 
Q 1888 200 1656 506 
z
M 2400 2772 
Q 2041 2772 1848 2508 
Q 1656 2244 1656 1747 
Q 1656 1250 1848 986 
Q 2041 722 2400 722 
Q 2759 722 2948 984 
Q 3138 1247 3138 1747 
Q 3138 2247 2948 2509 
Q 2759 2772 2400 2772 
z
" transform="scale(0.015625)"/>
      <path id="DejaVuSans-Bold-69" d="M 538 3500 
L 1656 3500 
L 1656 0 
L 538 0 
L 538 3500 
z
M 538 4863 
L 1656 4863 
L 1656 3950 
L 538 3950 
L 538 4863 
z
" transform="scale(0.015625)"/>
      <path id="DejaVuSans-Bold-6e" d="M 4056 2131 
L 4056 0 
L 2931 0 
L 2931 347 
L 2931 1631 
Q 2931 2084 2911 2256 
Q 2891 2428 2841 2509 
Q 2775 2619 2662 2680 
Q 2550 2741 2406 2741 
Q 2056 2741 1856 2470 
Q 1656 2200 1656 1722 
L 1656 0 
L 538 0 
L 538 3500 
L 1656 3500 
L 1656 2988 
Q 1909 3294 2193 3439 
Q 2478 3584 2822 3584 
Q 3428 3584 3742 3212 
Q 4056 2841 4056 2131 
z
" transform="scale(0.015625)"/>
      <path id="DejaVuSans-Bold-67" d="M 2919 594 
Q 2688 288 2409 144 
Q 2131 0 1766 0 
Q 1125 0 706 504 
Q 288 1009 288 1791 
Q 288 2575 706 3076 
Q 1125 3578 1766 3578 
Q 2131 3578 2409 3434 
Q 2688 3291 2919 2981 
L 2919 3500 
L 4044 3500 
L 4044 353 
Q 4044 -491 3511 -936 
Q 2978 -1381 1966 -1381 
Q 1638 -1381 1331 -1331 
Q 1025 -1281 716 -1178 
L 716 -306 
Q 1009 -475 1290 -558 
Q 1572 -641 1856 -641 
Q 2406 -641 2662 -400 
Q 2919 -159 2919 353 
L 2919 594 
z
M 2181 2772 
Q 1834 2772 1640 2515 
Q 1447 2259 1447 1791 
Q 1447 1309 1634 1061 
Q 1822 813 2181 813 
Q 2531 813 2725 1069 
Q 2919 1325 2919 1791 
Q 2919 2259 2725 2515 
Q 2531 2772 2181 2772 
z
" transform="scale(0.015625)"/>
      <path id="DejaVuSans-Bold-3a" d="M 716 3500 
L 1844 3500 
L 1844 2291 
L 716 2291 
L 716 3500 
z
M 716 1209 
L 1844 1209 
L 1844 0 
L 716 0 
L 716 1209 
z
" transform="scale(0.015625)"/>
      <path id="DejaVuSans-Bold-66" d="M 2841 4863 
L 2841 4128 
L 2222 4128 
Q 1984 4128 1890 4042 
Q 1797 3956 1797 3744 
L 1797 3500 
L 2753 3500 
L 2753 2700 
L 1797 2700 
L 1797 0 
L 678 0 
L 678 2700 
L 122 2700 
L 122 3500 
L 678 3500 
L 678 3744 
Q 678 4316 997 4589 
Q 1316 4863 1984 4863 
L 2841 4863 
z
" transform="scale(0.015625)"/>
      <path id="DejaVuSans-Bold-63" d="M 3366 3391 
L 3366 2478 
Q 3138 2634 2908 2709 
Q 2678 2784 2431 2784 
Q 1963 2784 1702 2511 
Q 1441 2238 1441 1747 
Q 1441 1256 1702 982 
Q 1963 709 2431 709 
Q 2694 709 2930 787 
Q 3166 866 3366 1019 
L 3366 103 
Q 3103 6 2833 -42 
Q 2563 -91 2291 -91 
Q 1344 -91 809 395 
Q 275 881 275 1747 
Q 275 2613 809 3098 
Q 1344 3584 2291 3584 
Q 2566 3584 2833 3536 
Q 3100 3488 3366 3391 
z
" transform="scale(0.015625)"/>
      <path id="DejaVuSans-Bold-64" d="M 2919 2988 
L 2919 4863 
L 4044 4863 
L 4044 0 
L 2919 0 
L 2919 506 
Q 2688 197 2409 53 
Q 2131 -91 1766 -91 
Q 1119 -91 703 423 
Q 288 938 288 1747 
Q 288 2556 703 3070 
Q 1119 3584 1766 3584 
Q 2128 3584 2408 3439 
Q 2688 3294 2919 2988 
z
M 2181 722 
Q 2541 722 2730 984 
Q 2919 1247 2919 1747 
Q 2919 2247 2730 2509 
Q 2541 2772 2181 2772 
Q 1825 2772 1636 2509 
Q 1447 2247 1447 1747 
Q 1447 1247 1636 984 
Q 1825 722 2181 722 
z
" transform="scale(0.015625)"/>
      <path id="DejaVuSans-Bold-76" d="M 97 3500 
L 1216 3500 
L 2088 1081 
L 2956 3500 
L 4078 3500 
L 2700 0 
L 1472 0 
L 97 3500 
z
" transform="scale(0.015625)"/>
      <path id="DejaVuSans-Bold-f3" d="M 2203 2784 
Q 1831 2784 1636 2517 
Q 1441 2250 1441 1747 
Q 1441 1244 1636 976 
Q 1831 709 2203 709 
Q 2569 709 2762 976 
Q 2956 1244 2956 1747 
Q 2956 2250 2762 2517 
Q 2569 2784 2203 2784 
z
M 2203 3584 
Q 3106 3584 3614 3096 
Q 4122 2609 4122 1747 
Q 4122 884 3614 396 
Q 3106 -91 2203 -91 
Q 1297 -91 786 396 
Q 275 884 275 1747 
Q 275 2609 786 3096 
Q 1297 3584 2203 3584 
z
M 2694 5119 
L 3578 5119 
L 2425 3944 
L 1813 3944 
L 2694 5119 
z
" transform="scale(0.015625)"/>
      <path id="DejaVuSans-Bold-6d" d="M 3781 2919 
Q 3994 3244 4286 3414 
Q 4578 3584 4928 3584 
Q 5531 3584 5847 3212 
Q 6163 2841 6163 2131 
L 6163 0 
L 5038 0 
L 5038 1825 
Q 5041 1866 5042 1909 
Q 5044 1953 5044 2034 
Q 5044 2406 4934 2573 
Q 4825 2741 4581 2741 
Q 4263 2741 4089 2478 
Q 3916 2216 3909 1719 
L 3909 0 
L 2784 0 
L 2784 1825 
Q 2784 2406 2684 2573 
Q 2584 2741 2328 2741 
Q 2006 2741 1831 2477 
Q 1656 2213 1656 1722 
L 1656 0 
L 531 0 
L 531 3500 
L 1656 3500 
L 1656 2988 
Q 1863 3284 2130 3434 
Q 2397 3584 2719 3584 
Q 3081 3584 3359 3409 
Q 3638 3234 3781 2919 
z
" transform="scale(0.015625)"/>
     </defs>
     <use xlink:href="#DejaVuSans-Bold-45"/>
     <use xlink:href="#DejaVuSans-Bold-61" transform="translate(68.310547 0)"/>
     <use xlink:href="#DejaVuSans-Bold-72" transform="translate(135.791016 0)"/>
     <use xlink:href="#DejaVuSans-Bold-6c" transform="translate(185.107422 0)"/>
     <use xlink:href="#DejaVuSans-Bold-79" transform="translate(219.384766 0)"/>
     <use xlink:href="#DejaVuSans-Bold-20" transform="translate(284.570312 0)"/>
     <use xlink:href="#DejaVuSans-Bold-73" transform="translate(319.384766 0)"/>
     <use xlink:href="#DejaVuSans-Bold-74" transform="translate(378.90625 0)"/>
     <use xlink:href="#DejaVuSans-Bold-6f" transform="translate(426.708984 0)"/>
     <use xlink:href="#DejaVuSans-Bold-70" transform="translate(495.410156 0)"/>
     <use xlink:href="#DejaVuSans-Bold-70" transform="translate(566.992188 0)"/>
     <use xlink:href="#DejaVuSans-Bold-69" transform="translate(638.574219 0)"/>
     <use xlink:href="#DejaVuSans-Bold-6e" transform="translate(672.851562 0)"/>
     <use xlink:href="#DejaVuSans-Bold-67" transform="translate(744.042969 0)"/>
     <use xlink:href="#DejaVuSans-Bold-3a" transform="translate(815.625 0)"/>
     <use xlink:href="#DejaVuSans-Bold-20" transform="translate(855.615234 0)"/>
     <use xlink:href="#DejaVuSans-Bold-66" transform="translate(890.429688 0)"/>
     <use xlink:href="#DejaVuSans-Bold-72" transform="translate(933.935547 0)"/>
     <use xlink:href="#DejaVuSans-Bold-65" transform="translate(983.251953 0)"/>
     <use xlink:href="#DejaVuSans-Bold-6e" transform="translate(1051.074219 0)"/>
     <use xlink:href="#DejaVuSans-Bold-61" transform="translate(1122.265625 0)"/>
     <use xlink:href="#DejaVuSans-Bold-72" transform="translate(1189.746094 0)"/>
     <use xlink:href="#DejaVuSans-Bold-20" transform="translate(1239.0625 0)"/>
     <use xlink:href="#DejaVuSans-Bold-63" transform="translate(1273.876953 0)"/>
     <use xlink:href="#DejaVuSans-Bold-75" transform="translate(1333.154297 0)"/>
     <use xlink:href="#DejaVuSans-Bold-61" transform="translate(1404.345703 0)"/>
     <use xlink:href="#DejaVuSans-Bold-6e" transform="translate(1471.826172 0)"/>
     <use xlink:href="#DejaVuSans-Bold-64" transform="translate(1543.017578 0)"/>
     <use xlink:href="#DejaVuSans-Bold-6f" transform="translate(1614.599609 0)"/>
     <use xlink:href="#DejaVuSans-Bold-20" transform="translate(1683.300781 0)"/>
     <use xlink:href="#DejaVuSans-Bold-6c" transform="translate(1718.115234 0)"/>
     <use xlink:href="#DejaVuSans-Bold-61" transform="translate(1752.392578 0)"/>
     <use xlink:href="#DejaVuSans-Bold-20" transform="translate(1819.873047 0)"/>
     <use xlink:href="#DejaVuSans-Bold-76" transform="translate(1854.6875 0)"/>
     <use xlink:href="#DejaVuSans-Bold-61" transform="translate(1919.873047 0)"/>
     <use xlink:href="#DejaVuSans-Bold-6c" transform="translate(1987.353516 0)"/>
     <use xlink:href="#DejaVuSans-Bold-69" transform="translate(2021.630859 0)"/>
     <use xlink:href="#DejaVuSans-Bold-64" transform="translate(2055.908203 0)"/>
     <use xlink:href="#DejaVuSans-Bold-61" transform="translate(2127.490234 0)"/>
     <use xlink:href="#DejaVuSans-Bold-63" transform="translate(2194.970703 0)"/>
     <use xlink:href="#DejaVuSans-Bold-69" transform="translate(2254.248047 0)"/>
     <use xlink:href="#DejaVuSans-Bold-f3" transform="translate(2288.525391 0)"/>
     <use xlink:href="#DejaVuSans-Bold-6e" transform="translate(2357.226562 0)"/>
     <use xlink:href="#DejaVuSans-Bold-20" transform="translate(2428.417969 0)"/>
     <use xlink:href="#DejaVuSans-Bold-64" transform="translate(2463.232422 0)"/>
     <use xlink:href="#DejaVuSans-Bold-65" transform="translate(2534.814453 0)"/>
     <use xlink:href="#DejaVuSans-Bold-6a" transform="translate(2602.636719 0)"/>
     <use xlink:href="#DejaVuSans-Bold-61" transform="translate(2636.914062 0)"/>
     <use xlink:href="#DejaVuSans-Bold-20" transform="translate(2704.394531 0)"/>
     <use xlink:href="#DejaVuSans-Bold-64" transform="translate(2739.208984 0)"/>
     <use xlink:href="#DejaVuSans-Bold-65" transform="translate(2810.791016 0)"/>
     <use xlink:href="#DejaVuSans-Bold-20" transform="translate(2878.613281 0)"/>
     <use xlink:href="#DejaVuSans-Bold-6d" transform="translate(2913.427734 0)"/>
     <use xlink:href="#DejaVuSans-Bold-65" transform="translate(3017.626953 0)"/>
     <use xlink:href="#DejaVuSans-Bold-6a" transform="translate(3085.449219 0)"/>
     <use xlink:href="#DejaVuSans-Bold-6f" transform="translate(3119.726562 0)"/>
     <use xlink:href="#DejaVuSans-Bold-72" transform="translate(3188.427734 0)"/>
     <use xlink:href="#DejaVuSans-Bold-61" transform="translate(3237.744141 0)"/>
     <use xlink:href="#DejaVuSans-Bold-72" transform="translate(3305.224609 0)"/>
    </g>
   </g>
   <g id="PathCollection_1">
    <defs>
     <path id="m360d14c5cc" d="M 0 4.609772 
C 1.222526 4.609772 2.395145 4.124058 3.259601 3.259601 
C 4.124058 2.395145 4.609772 1.222526 4.609772 0 
C 4.609772 -1.222526 4.124058 -2.395145 3.259601 -3.259601 
C 2.395145 -4.124058 1.222526 -4.609772 0 -4.609772 
C -1.222526 -4.609772 -2.395145 -4.124058 -3.259601 -3.259601 
C -4.124058 -2.395145 -4.609772 -1.222526 -4.609772 0 
C -4.609772 1.222526 -4.124058 2.395145 -3.259601 3.259601 
C -2.395145 4.124058 -1.222526 4.609772 0 4.609772 
z
" style="stroke: #ffffff"/>
    </defs>
    <g clip-path="url(#pa05ecd894f)">
     <use xlink:href="#m360d14c5cc" x="348.236679" y="235.882595" style="fill: #2e8b57; stroke: #ffffff"/>
    </g>
   </g>
   <g id="legend_1">
    <g id="line2d_32">
     <path d="M 484.23 40.915781 
L 496.23 40.915781 
L 508.23 40.915781 
" style="fill: none; stroke: #3498db; stroke-width: 2.4; stroke-linecap: square"/>
    </g>
    <g id="text_20">
     <!-- Train loss -->
     <g transform="translate(517.83 45.115781) scale(0.12 -0.12)">
      <defs>
       <path id="DejaVuSans-54" d="M -19 4666 
L 3928 4666 
L 3928 4134 
L 2272 4134 
L 2272 0 
L 1638 0 
L 1638 4134 
L -19 4134 
L -19 4666 
z
" transform="scale(0.015625)"/>
      </defs>
      <use xlink:href="#DejaVuSans-54"/>
      <use xlink:href="#DejaVuSans-72" transform="translate(46.333984 0)"/>
      <use xlink:href="#DejaVuSans-61" transform="translate(87.447266 0)"/>
      <use xlink:href="#DejaVuSans-69" transform="translate(148.726562 0)"/>
      <use xlink:href="#DejaVuSans-6e" transform="translate(176.509766 0)"/>
      <use xlink:href="#DejaVuSans-20" transform="translate(239.888672 0)"/>
      <use xlink:href="#DejaVuSans-6c" transform="translate(271.675781 0)"/>
      <use xlink:href="#DejaVuSans-6f" transform="translate(299.458984 0)"/>
      <use xlink:href="#DejaVuSans-73" transform="translate(360.640625 0)"/>
      <use xlink:href="#DejaVuSans-73" transform="translate(412.740234 0)"/>
     </g>
    </g>
    <g id="line2d_33">
     <path d="M 484.23 58.529531 
L 496.23 58.529531 
L 508.23 58.529531 
" style="fill: none; stroke: #8b1538; stroke-width: 2.4; stroke-linecap: square"/>
    </g>
    <g id="text_21">
     <!-- Validation loss -->
     <g transform="translate(517.83 62.729531) scale(0.12 -0.12)">
      <defs>
       <path id="DejaVuSans-56" d="M 1831 0 
L 50 4666 
L 709 4666 
L 2188 738 
L 3669 4666 
L 4325 4666 
L 2547 0 
L 1831 0 
z
" transform="scale(0.015625)"/>
      </defs>
      <use xlink:href="#DejaVuSans-56"/>
      <use xlink:href="#DejaVuSans-61" transform="translate(60.658203 0)"/>
      <use xlink:href="#DejaVuSans-6c" transform="translate(121.9375 0)"/>
      <use xlink:href="#DejaVuSans-69" transform="translate(149.720703 0)"/>
      <use xlink:href="#DejaVuSans-64" transform="translate(177.503906 0)"/>
      <use xlink:href="#DejaVuSans-61" transform="translate(240.980469 0)"/>
      <use xlink:href="#DejaVuSans-74" transform="translate(302.259766 0)"/>
      <use xlink:href="#DejaVuSans-69" transform="translate(341.46875 0)"/>
      <use xlink:href="#DejaVuSans-6f" transform="translate(369.251953 0)"/>
      <use xlink:href="#DejaVuSans-6e" transform="translate(430.433594 0)"/>
      <use xlink:href="#DejaVuSans-20" transform="translate(493.8125 0)"/>
      <use xlink:href="#DejaVuSans-6c" transform="translate(525.599609 0)"/>
      <use xlink:href="#DejaVuSans-6f" transform="translate(553.382812 0)"/>
      <use xlink:href="#DejaVuSans-73" transform="translate(614.564453 0)"/>
      <use xlink:href="#DejaVuSans-73" transform="translate(666.664062 0)"/>
     </g>
    </g>
   </g>
  </g>
 </g>
 <defs>
  <clipPath id="pa05ecd894f">
   <rect x="48.8975" y="25.197656" width="565.9825" height="253.054844"/>
  </clipPath>
 </defs>
</svg>
