<?xml version="1.0" encoding="utf-8" standalone="no"?>
<!DOCTYPE svg PUBLIC "-//W3C//DTD SVG 1.1//EN"
  "http://www.w3.org/Graphics/SVG/1.1/DTD/svg11.dtd">
<svg xmlns:xlink="http://www.w3.org/1999/xlink" width="661.101562pt" height="319.68pt" viewBox="0 0 661.101562 319.68" xmlns="http://www.w3.org/2000/svg" version="1.1">
 <metadata>
  <rdf:RDF xmlns:dc="http://purl.org/dc/elements/1.1/" xmlns:cc="http://creativecommons.org/ns#" xmlns:rdf="http://www.w3.org/1999/02/22-rdf-syntax-ns#">
   <cc:Work>
    <dc:type rdf:resource="http://purl.org/dc/dcmitype/StillImage"/>
    <dc:date>2026-06-13T13:11:48.197339</dc:date>
    <dc:format>image/svg+xml</dc:format>
    <dc:creator>
     <cc:Agent>
      <dc:title>Matplotlib v3.10.0, https://matplotlib.org/</dc:title>
     </cc:Agent>
    </dc:creator>
   </cc:Work>
  </rdf:RDF>
 </metadata>
 <defs>
  <style type="text/css">*{stroke-linejoin: round; stroke-linecap: butt}</style>
 </defs>
 <g id="figure_1">
  <g id="patch_1">
   <path d="M -0 319.68 
L 661.101562 319.68 
L 661.101562 0 
L -0 0 
L -0 319.68 
z
" style="fill: none"/>
  </g>
  <g id="axes_1">
   <g id="patch_2">
    <path d="M 7.2 312.48 
L 614.88 312.48 
L 614.88 25.197656 
L 7.2 25.197656 
L 7.2 312.48 
z
" style="fill: none"/>
   </g>
   <g id="matplotlib.axis_1"/>
   <g id="matplotlib.axis_2"/>
   <g id="line2d_1">
    <path d="M 34.821818 140.472914 
L 44.059884 140.472914 
L 45.907498 193.286344 
L 60.688404 193.286344 
L 62.536017 106.959384 
L 75.46931 106.959384 
L 77.316923 107.775772 
L 82.859763 107.775772 
L 84.707376 119.445758 
L 92.097829 119.445758 
L 93.945442 138.391054 
L 108.726348 138.391054 
L 110.573962 96.544727 
L 114.269188 96.544727 
L 116.116801 151.976885 
L 117.964415 151.976885 
L 119.812028 139.708067 
L 121.659641 139.708067 
L 123.507254 104.092387 
L 125.354868 104.092387 
L 127.202481 90.326983 
L 129.050094 90.326983 
L 130.897708 60.353808 
L 134.592934 60.353808 
L 136.440547 38.255945 
L 141.983387 38.255945 
L 143.831 145.90219 
L 151.221453 145.90219 
L 153.069067 141.679092 
L 160.45952 141.679092 
L 162.307133 150.400318 
L 171.545199 150.400318 
L 173.392812 157.266432 
L 186.326105 157.266432 
L 188.173718 173.755515 
L 193.716558 173.755515 
L 195.564171 201.20894 
L 197.411785 201.20894 
L 199.259398 224.334856 
L 202.954625 224.334856 
L 204.802238 140.279625 
L 210.345078 140.279625 
L 212.192691 200.094839 
L 260.230635 200.094839 
L 262.078249 284.145392 
L 273.163928 284.145392 
L 275.011542 246.060779 
L 276.859155 246.060779 
L 278.706768 265.256157 
L 304.573354 265.256157 
L 306.420967 227.308897 
L 324.897099 227.308897 
L 326.744713 235.290242 
L 339.678005 235.290242 
L 341.525619 249.698079 
L 367.392204 249.698079 
L 369.239818 226.553553 
L 382.17311 226.553553 
L 384.020724 156.515491 
L 402.496856 156.515491 
L 404.344469 143.428563 
L 457.925254 143.428563 
L 459.772867 112.993374 
L 500.420359 112.993374 
L 502.267972 71.334898 
L 507.810812 71.334898 
L 509.658425 154.956468 
L 517.048878 154.956468 
L 518.896491 160.476318 
L 531.829784 160.476318 
L 533.677397 179.439157 
L 550.305917 179.439157 
L 552.15353 171.521966 
L 566.934436 171.521966 
L 568.782049 226.846641 
L 570.629663 226.846641 
L 572.477276 218.382663 
L 587.258182 218.382663 
L 587.258182 218.382663 
" clip-path="url(#p7a4f817dae)" style="fill: none; stroke: #5b9bd5; stroke-opacity: 0.45; stroke-width: 0.8; stroke-linecap: square"/>
   </g>
   <g id="line2d_2">
    <path d="M 34.821818 140.726843 
L 73.621697 140.726843 
L 75.46931 105.024198 
L 92.097829 105.024198 
L 93.945442 136.430553 
L 97.640669 136.430553 
L 99.488282 143.06744 
L 105.031122 143.06744 
L 106.878735 96.544727 
L 110.573962 96.544727 
L 112.421575 119.538074 
L 114.269188 119.538074 
L 116.116801 151.976885 
L 121.659641 151.976885 
L 123.507254 90.326983 
L 129.050094 90.326983 
L 130.897708 60.353808 
L 134.592934 60.353808 
L 136.440547 38.255945 
L 141.983387 38.255945 
L 143.831 177.352637 
L 153.069067 177.352637 
L 154.91668 145.807004 
L 186.326105 145.807004 
L 188.173718 160.192861 
L 195.564171 160.192861 
L 197.411785 224.334856 
L 201.107011 224.334856 
L 202.954625 194.312794 
L 215.887917 194.312794 
L 217.735531 192.821397 
L 232.516437 192.821397 
L 234.36405 225.649416 
L 252.840182 225.649416 
L 254.687796 245.684225 
L 275.011542 245.684225 
L 276.859155 281.815121 
L 287.944834 281.815121 
L 289.792448 257.826076 
L 302.72574 257.826076 
L 304.573354 231.797962 
L 345.220845 231.797962 
L 347.068458 210.129173 
L 350.763685 210.129173 
L 352.611298 258.062477 
L 367.392204 258.062477 
L 369.239818 226.553553 
L 382.17311 226.553553 
L 384.020724 160.689691 
L 415.430149 160.689691 
L 417.277762 122.055037 
L 420.972989 122.055037 
L 422.820602 190.804974 
L 426.515829 190.804974 
L 428.363442 125.155803 
L 494.877519 125.155803 
L 496.725132 80.716468 
L 507.810812 80.716468 
L 509.658425 154.956468 
L 517.048878 154.956468 
L 518.896491 160.476318 
L 529.982171 160.476318 
L 531.829784 198.577308 
L 533.677397 198.577308 
L 535.525011 179.439157 
L 541.06785 179.439157 
L 542.915464 170.796237 
L 566.934436 170.796237 
L 568.782049 227.621983 
L 570.629663 227.621983 
L 572.477276 218.382663 
L 587.258182 218.382663 
L 587.258182 218.382663 
" clip-path="url(#p7a4f817dae)" style="fill: none; stroke: #5b9bd5; stroke-opacity: 0.45; stroke-width: 0.8; stroke-linecap: square"/>
   </g>
   <g id="line2d_3">
    <path d="M 34.821818 140.472914 
L 42.212271 140.472914 
L 44.059884 178.241278 
L 49.602724 178.241278 
L 51.450337 193.286344 
L 55.145564 193.286344 
L 56.993177 151.760126 
L 62.536017 151.760126 
L 64.38363 140.980772 
L 68.078857 140.980772 
L 69.92647 107.231513 
L 90.250216 107.231513 
L 92.097829 138.837486 
L 108.726348 138.837486 
L 110.573962 96.544727 
L 112.421575 119.538074 
L 114.269188 119.538074 
L 116.116801 151.976885 
L 117.964415 151.976885 
L 119.812028 139.708067 
L 121.659641 139.708067 
L 123.507254 104.092387 
L 130.897708 104.092387 
L 132.745321 38.255945 
L 141.983387 38.255945 
L 143.831 145.90219 
L 145.678614 145.90219 
L 147.526227 161.673129 
L 186.326105 161.673129 
L 188.173718 173.755515 
L 197.411785 173.755515 
L 199.259398 224.334856 
L 201.107011 224.334856 
L 202.954625 189.27717 
L 204.802238 189.27717 
L 206.649851 140.279625 
L 219.583144 140.279625 
L 221.430757 253.792537 
L 267.621088 253.792537 
L 269.468702 270.030795 
L 289.792448 270.030795 
L 291.640061 223.284344 
L 293.487674 223.284344 
L 295.335287 246.634235 
L 341.525619 246.634235 
L 343.373232 226.470702 
L 382.17311 226.470702 
L 384.020724 188.24133 
L 395.106403 188.24133 
L 396.954016 191.779354 
L 402.496856 191.779354 
L 404.344469 147.212282 
L 420.972989 147.212282 
L 422.820602 190.804974 
L 426.515829 190.804974 
L 428.363442 132.665324 
L 454.230027 132.665324 
L 456.077641 150.259967 
L 457.925254 150.259967 
L 459.772867 116.055955 
L 500.420359 116.055955 
L 502.267972 80.716468 
L 507.810812 80.716468 
L 509.658425 154.956468 
L 520.744105 154.956468 
L 522.591718 198.577308 
L 533.677397 198.577308 
L 535.525011 179.439157 
L 541.06785 179.439157 
L 542.915464 170.070507 
L 566.934436 170.070507 
L 568.782049 227.621983 
L 570.629663 268.023032 
L 572.477276 218.382663 
L 587.258182 218.382663 
L 587.258182 218.382663 
" clip-path="url(#p7a4f817dae)" style="fill: none; stroke: #5b9bd5; stroke-opacity: 0.45; stroke-width: 0.8; stroke-linecap: square"/>
   </g>
   <g id="line2d_4">
    <path d="M 34.821818 140.472914 
L 42.212271 140.472914 
L 44.059884 178.241278 
L 56.993177 178.241278 
L 58.840791 140.980772 
L 68.078857 140.980772 
L 69.92647 107.571675 
L 84.707376 107.571675 
L 86.554989 87.851064 
L 92.097829 87.851064 
L 93.945442 143.561404 
L 108.726348 143.561404 
L 110.573962 120.080753 
L 121.659641 120.080753 
L 123.507254 104.092387 
L 127.202481 104.092387 
L 129.050094 60.353808 
L 136.440547 60.353808 
L 138.288161 106.661236 
L 141.983387 106.661236 
L 143.831 145.90219 
L 145.678614 145.90219 
L 147.526227 177.352637 
L 153.069067 177.352637 
L 154.91668 151.587933 
L 171.545199 151.587933 
L 173.392812 157.266432 
L 182.630879 157.266432 
L 184.478492 129.288863 
L 188.173718 129.288863 
L 190.021332 173.755515 
L 193.716558 173.755515 
L 195.564171 201.20894 
L 197.411785 201.20894 
L 199.259398 224.334856 
L 201.107011 224.334856 
L 202.954625 184.241547 
L 208.497464 184.241547 
L 210.345078 188.890022 
L 252.840182 188.890022 
L 254.687796 272.195582 
L 267.621088 272.195582 
L 269.468702 251.173525 
L 282.401995 251.173525 
L 284.249608 293.748489 
L 291.640061 293.748489 
L 293.487674 261.620289 
L 304.573354 261.620289 
L 306.420967 227.308897 
L 324.897099 227.308897 
L 326.744713 251.630625 
L 341.525619 251.630625 
L 343.373232 209.527166 
L 345.220845 209.527166 
L 347.068458 237.262559 
L 382.17311 237.262559 
L 384.020724 140.276965 
L 385.868337 188.992526 
L 391.411177 188.992526 
L 393.25879 168.711634 
L 415.430149 168.711634 
L 417.277762 128.087576 
L 443.144348 128.087576 
L 444.991961 109.386764 
L 517.048878 109.386764 
L 518.896491 160.476318 
L 529.982171 160.476318 
L 531.829784 198.577308 
L 533.677397 198.577308 
L 535.525011 179.439157 
L 550.305917 179.439157 
L 552.15353 171.521966 
L 566.934436 171.521966 
L 568.782049 227.621983 
L 570.629663 226.846641 
L 587.258182 226.846641 
L 587.258182 226.846641 
" clip-path="url(#p7a4f817dae)" style="fill: none; stroke: #5b9bd5; stroke-opacity: 0.45; stroke-width: 0.8; stroke-linecap: square"/>
   </g>
   <g id="line2d_5">
    <path d="M 34.821818 178.241278 
L 56.993177 178.241278 
L 58.840791 117.468318 
L 86.554989 117.468318 
L 88.402603 138.34515 
L 121.659641 138.34515 
L 123.507254 104.092387 
L 125.354868 104.092387 
L 127.202481 90.326983 
L 129.050094 90.326983 
L 130.897708 60.353808 
L 138.288161 60.353808 
L 140.135774 161.627413 
L 149.37384 161.627413 
L 151.221453 144.838587 
L 186.326105 144.838587 
L 188.173718 173.755515 
L 193.716558 173.755515 
L 195.564171 197.760867 
L 204.802238 197.760867 
L 206.649851 140.279625 
L 219.583144 140.279625 
L 221.430757 237.628729 
L 236.211663 237.628729 
L 238.059276 257.488625 
L 245.449729 257.488625 
L 247.297343 183.2751 
L 254.687796 183.2751 
L 256.535409 236.092949 
L 275.011542 236.092949 
L 276.859155 265.753718 
L 284.249608 265.753718 
L 286.097221 299.421712 
L 287.944834 299.421712 
L 289.792448 242.02051 
L 291.640061 242.02051 
L 293.487674 265.222158 
L 304.573354 265.222158 
L 306.420967 227.308897 
L 324.897099 227.308897 
L 326.744713 235.290242 
L 341.525619 235.290242 
L 343.373232 217.978222 
L 345.220845 217.978222 
L 347.068458 193.0867 
L 348.916072 227.171646 
L 363.696978 227.171646 
L 365.544591 226.553553 
L 382.17311 226.553553 
L 384.020724 151.291866 
L 400.649243 151.291866 
L 402.496856 188.739091 
L 404.344469 135.615765 
L 430.211055 135.615765 
L 432.058668 149.313547 
L 448.687188 149.313547 
L 450.534801 90.617817 
L 454.230027 90.617817 
L 456.077641 114.890361 
L 500.420359 114.890361 
L 502.267972 61.953329 
L 505.963199 61.953329 
L 507.810812 154.956468 
L 517.048878 154.956468 
L 518.896491 160.476318 
L 537.372624 160.476318 
L 539.220237 168.619048 
L 555.848756 168.619048 
L 557.69637 171.521966 
L 566.934436 171.521966 
L 568.782049 268.023032 
L 570.629663 268.023032 
L 572.477276 218.382663 
L 587.258182 218.382663 
L 587.258182 218.382663 
" clip-path="url(#p7a4f817dae)" style="fill: none; stroke: #5b9bd5; stroke-opacity: 0.45; stroke-width: 0.8; stroke-linecap: square"/>
   </g>
   <g id="line2d_6">
    <path d="M 34.821818 140.472914 
L 42.212271 140.472914 
L 44.059884 178.241278 
L 49.602724 178.241278 
L 51.450337 193.286344 
L 58.840791 193.286344 
L 60.688404 124.683754 
L 114.269188 124.683754 
L 116.116801 145.842476 
L 121.659641 145.842476 
L 123.507254 60.239521 
L 140.135774 60.239521 
L 141.983387 135.036177 
L 169.697586 135.036177 
L 171.545199 157.266432 
L 184.478492 157.266432 
L 186.326105 160.192861 
L 191.868945 160.192861 
L 193.716558 173.755515 
L 195.564171 189.649275 
L 204.802238 189.649275 
L 206.649851 140.279625 
L 217.735531 140.279625 
L 219.583144 192.821397 
L 232.516437 192.821397 
L 234.36405 237.628729 
L 239.90689 237.628729 
L 241.754503 256.04442 
L 245.449729 256.04442 
L 247.297343 183.2751 
L 254.687796 183.2751 
L 256.535409 228.646491 
L 265.773475 228.646491 
L 267.621088 284.145392 
L 273.163928 284.145392 
L 275.011542 243.598234 
L 276.859155 262.544126 
L 304.573354 262.544126 
L 306.420967 227.308897 
L 324.897099 227.308897 
L 326.744713 235.290242 
L 339.678005 235.290242 
L 341.525619 251.630625 
L 343.373232 226.429277 
L 345.220845 226.429277 
L 347.068458 193.0867 
L 350.763685 193.0867 
L 352.611298 258.062477 
L 367.392204 258.062477 
L 369.239818 226.553553 
L 382.17311 226.553553 
L 384.020724 147.694972 
L 400.649243 147.694972 
L 402.496856 189.752512 
L 404.344469 144.508332 
L 415.430149 144.508332 
L 417.277762 130.355143 
L 422.820602 130.355143 
L 424.668215 190.804974 
L 428.363442 190.804974 
L 430.211055 159.86099 
L 439.449121 159.86099 
L 441.296735 142.233145 
L 448.687188 142.233145 
L 450.534801 121.690422 
L 485.639453 121.690422 
L 487.487066 148.258224 
L 498.572746 148.258224 
L 500.420359 61.953329 
L 505.963199 61.953329 
L 507.810812 80.716468 
L 509.658425 154.956468 
L 517.048878 154.956468 
L 518.896491 160.476318 
L 529.982171 160.476318 
L 531.829784 198.577308 
L 550.305917 198.577308 
L 552.15353 226.846641 
L 570.629663 226.846641 
L 572.477276 218.382663 
L 587.258182 218.382663 
L 587.258182 218.382663 
" clip-path="url(#p7a4f817dae)" style="fill: none; stroke: #5b9bd5; stroke-opacity: 0.45; stroke-width: 0.8; stroke-linecap: square"/>
   </g>
   <g id="line2d_7">
    <path d="M 34.821818 140.472914 
L 47.755111 140.472914 
L 49.602724 151.760126 
L 62.536017 151.760126 
L 64.38363 140.980772 
L 68.078857 140.980772 
L 69.92647 107.231513 
L 84.707376 107.231513 
L 86.554989 87.851064 
L 92.097829 87.851064 
L 93.945442 140.22186 
L 108.726348 140.22186 
L 110.573962 102.432783 
L 151.221453 102.432783 
L 153.069067 150.756602 
L 171.545199 150.756602 
L 173.392812 157.266432 
L 182.630879 157.266432 
L 184.478492 129.288863 
L 186.326105 129.288863 
L 188.173718 160.192861 
L 191.868945 160.192861 
L 193.716558 173.755515 
L 197.411785 173.755515 
L 199.259398 206.023339 
L 234.36405 206.023339 
L 236.211663 261.77176 
L 243.602116 261.77176 
L 245.449729 183.2751 
L 252.840182 183.2751 
L 254.687796 280.162122 
L 273.163928 280.162122 
L 275.011542 261.088911 
L 304.573354 261.088911 
L 306.420967 238.076588 
L 341.525619 238.076588 
L 343.373232 222.234818 
L 382.17311 222.234818 
L 384.020724 188.992526 
L 387.71595 188.992526 
L 389.563563 187.490135 
L 395.106403 187.490135 
L 396.954016 191.779354 
L 400.649243 191.779354 
L 402.496856 185.698828 
L 404.344469 141.915234 
L 406.192083 141.915234 
L 408.039696 152.607649 
L 415.430149 152.607649 
L 417.277762 115.034345 
L 424.668215 115.034345 
L 426.515829 138.337998 
L 463.468094 138.337998 
L 465.315707 110.370758 
L 489.334679 110.370758 
L 491.182292 127.083152 
L 500.420359 127.083152 
L 502.267972 61.953329 
L 505.963199 61.953329 
L 507.810812 154.956468 
L 517.048878 154.956468 
L 518.896491 160.476318 
L 537.372624 160.476318 
L 539.220237 168.619048 
L 555.848756 168.619048 
L 557.69637 171.521966 
L 566.934436 171.521966 
L 568.782049 227.621983 
L 570.629663 226.846641 
L 572.477276 268.023032 
L 587.258182 268.023032 
L 587.258182 268.023032 
" clip-path="url(#p7a4f817dae)" style="fill: none; stroke: #5b9bd5; stroke-opacity: 0.45; stroke-width: 0.8; stroke-linecap: square"/>
   </g>
   <g id="line2d_8">
    <path d="M 34.821818 140.472914 
L 44.059884 140.472914 
L 45.907498 193.286344 
L 55.145564 193.286344 
L 56.993177 151.760126 
L 62.536017 151.760126 
L 64.38363 125.414737 
L 108.726348 125.414737 
L 110.573962 96.544727 
L 114.269188 96.544727 
L 116.116801 151.976885 
L 119.812028 151.976885 
L 121.659641 104.092387 
L 127.202481 104.092387 
L 129.050094 49.304876 
L 140.135774 49.304876 
L 141.983387 106.661236 
L 143.831 106.661236 
L 145.678614 177.352637 
L 149.37384 177.352637 
L 151.221453 117.580663 
L 156.764293 117.580663 
L 158.611906 150.994126 
L 173.392812 150.994126 
L 175.240426 129.288863 
L 188.173718 129.288863 
L 190.021332 173.755515 
L 193.716558 173.755515 
L 195.564171 201.20894 
L 197.411785 201.20894 
L 199.259398 224.334856 
L 201.107011 224.334856 
L 202.954625 190.284295 
L 208.497464 190.284295 
L 210.345078 194.084057 
L 234.36405 194.084057 
L 236.211663 256.999961 
L 275.011542 256.999961 
L 276.859155 266.467124 
L 317.506646 266.467124 
L 319.35426 235.290242 
L 339.678005 235.290242 
L 341.525619 251.630625 
L 343.373232 226.429277 
L 345.220845 226.429277 
L 347.068458 193.0867 
L 348.916072 227.171646 
L 363.696978 227.171646 
L 365.544591 226.553553 
L 382.17311 226.553553 
L 384.020724 143.286853 
L 385.868337 143.286853 
L 387.71595 190.707049 
L 402.496856 190.707049 
L 404.344469 145.543757 
L 422.820602 145.543757 
L 424.668215 157.423212 
L 456.077641 157.423212 
L 457.925254 113.46984 
L 489.334679 113.46984 
L 491.182292 124.879947 
L 500.420359 124.879947 
L 502.267972 61.953329 
L 505.963199 61.953329 
L 507.810812 80.716468 
L 520.744105 80.716468 
L 522.591718 198.577308 
L 533.677397 198.577308 
L 535.525011 179.439157 
L 541.06785 179.439157 
L 542.915464 170.941383 
L 566.934436 170.941383 
L 568.782049 226.846641 
L 570.629663 226.846641 
L 572.477276 218.382663 
L 587.258182 218.382663 
L 587.258182 218.382663 
" clip-path="url(#p7a4f817dae)" style="fill: none; stroke: #5b9bd5; stroke-opacity: 0.45; stroke-width: 0.8; stroke-linecap: square"/>
   </g>
   <g id="line2d_9">
    <path d="M 34.821818 140.472914 
L 42.212271 140.472914 
L 44.059884 185.763811 
L 55.145564 185.763811 
L 56.993177 151.760126 
L 62.536017 151.760126 
L 64.38363 140.980772 
L 68.078857 140.980772 
L 69.92647 110.760173 
L 90.250216 110.760173 
L 92.097829 132.981947 
L 105.031122 132.981947 
L 106.878735 152.134695 
L 119.812028 152.134695 
L 121.659641 104.092387 
L 125.354868 104.092387 
L 127.202481 90.326983 
L 134.592934 90.326983 
L 136.440547 106.661236 
L 143.831 106.661236 
L 145.678614 177.352637 
L 153.069067 177.352637 
L 154.91668 141.679092 
L 160.45952 141.679092 
L 162.307133 155.893209 
L 182.630879 155.893209 
L 184.478492 129.288863 
L 186.326105 129.288863 
L 188.173718 160.192861 
L 191.868945 160.192861 
L 193.716558 173.755515 
L 195.564171 201.20894 
L 197.411785 201.20894 
L 199.259398 224.334856 
L 201.107011 224.334856 
L 202.954625 189.27717 
L 204.802238 189.27717 
L 206.649851 140.279625 
L 210.345078 140.279625 
L 212.192691 194.504943 
L 221.430757 194.504943 
L 223.27837 192.821397 
L 232.516437 192.821397 
L 234.36405 237.628729 
L 247.297343 237.628729 
L 249.144956 228.646491 
L 265.773475 228.646491 
L 267.621088 268.648297 
L 289.792448 268.648297 
L 291.640061 249.381664 
L 317.506646 249.381664 
L 319.35426 235.290242 
L 341.525619 235.290242 
L 343.373232 226.429277 
L 345.220845 226.429277 
L 347.068458 226.965615 
L 382.17311 226.965615 
L 384.020724 140.276965 
L 385.868337 140.276965 
L 387.71595 188.919875 
L 406.192083 188.919875 
L 408.039696 153.57869 
L 415.430149 153.57869 
L 417.277762 132.690819 
L 456.077641 132.690819 
L 457.925254 111.040285 
L 507.810812 111.040285 
L 509.658425 154.956468 
L 517.048878 154.956468 
L 518.896491 160.476318 
L 548.458303 160.476318 
L 550.305917 227.621983 
L 568.782049 227.621983 
L 570.629663 226.846641 
L 572.477276 218.382663 
L 587.258182 218.382663 
L 587.258182 218.382663 
" clip-path="url(#p7a4f817dae)" style="fill: none; stroke: #5b9bd5; stroke-opacity: 0.45; stroke-width: 0.8; stroke-linecap: square"/>
   </g>
   <g id="line2d_10">
    <path d="M 34.821818 140.472914 
L 42.212271 140.472914 
L 44.059884 178.241278 
L 49.602724 178.241278 
L 51.450337 193.286344 
L 55.145564 193.286344 
L 56.993177 151.760126 
L 62.536017 151.760126 
L 64.38363 118.994518 
L 84.707376 118.994518 
L 86.554989 151.156344 
L 108.726348 151.156344 
L 110.573962 96.544727 
L 112.421575 119.538074 
L 114.269188 119.538074 
L 116.116801 139.708067 
L 121.659641 139.708067 
L 123.507254 104.092387 
L 125.354868 104.092387 
L 127.202481 90.326983 
L 129.050094 90.326983 
L 130.897708 60.353808 
L 134.592934 60.353808 
L 136.440547 38.255945 
L 140.135774 38.255945 
L 141.983387 106.661236 
L 147.526227 106.661236 
L 149.37384 117.580663 
L 156.764293 117.580663 
L 158.611906 146.039705 
L 173.392812 146.039705 
L 175.240426 129.288863 
L 186.326105 129.288863 
L 188.173718 160.192861 
L 191.868945 160.192861 
L 193.716558 173.755515 
L 197.411785 173.755515 
L 199.259398 194.312794 
L 202.954625 194.312794 
L 204.802238 184.241547 
L 208.497464 184.241547 
L 210.345078 194.504943 
L 226.973597 194.504943 
L 228.82121 258.90809 
L 252.840182 258.90809 
L 254.687796 228.646491 
L 265.773475 228.646491 
L 267.621088 284.145392 
L 273.163928 284.145392 
L 275.011542 256.087298 
L 304.573354 256.087298 
L 306.420967 237.380002 
L 341.525619 237.380002 
L 343.373232 223.345802 
L 350.763685 223.345802 
L 352.611298 258.062477 
L 367.392204 258.062477 
L 369.239818 226.553553 
L 382.17311 226.553553 
L 384.020724 142.534381 
L 385.868337 182.213772 
L 408.039696 182.213772 
L 409.887309 135.741759 
L 422.820602 135.741759 
L 424.668215 154.909264 
L 448.687188 154.909264 
L 450.534801 129.418308 
L 463.468094 129.418308 
L 465.315707 110.749666 
L 507.810812 110.749666 
L 509.658425 154.956468 
L 522.591718 154.956468 
L 524.439331 179.439157 
L 552.15353 179.439157 
L 554.001143 226.846641 
L 570.629663 226.846641 
L 572.477276 218.382663 
L 587.258182 218.382663 
L 587.258182 218.382663 
" clip-path="url(#p7a4f817dae)" style="fill: none; stroke: #5b9bd5; stroke-opacity: 0.45; stroke-width: 0.8; stroke-linecap: square"/>
   </g>
   <g id="line2d_11">
    <path d="M 34.821818 189.078557 
L 47.755111 171.298739 
L 55.145564 161.513731 
L 60.688404 154.488976 
L 66.231244 147.812143 
L 71.774083 141.55039 
L 75.46931 137.637783 
L 79.164536 133.955248 
L 82.859763 130.519255 
L 86.554989 127.345172 
L 90.250216 124.447194 
L 93.945442 121.838284 
L 97.640669 119.53011 
L 101.335895 117.532995 
L 105.031122 115.855871 
L 108.726348 114.50624 
L 112.421575 113.490137 
L 116.116801 112.812108 
L 119.812028 112.475185 
L 123.507254 112.480875 
L 127.202481 112.829152 
L 130.897708 113.518459 
L 134.592934 114.545712 
L 138.288161 115.906318 
L 141.983387 117.59419 
L 145.678614 119.60178 
L 149.37384 121.920109 
L 153.069067 124.538808 
L 156.764293 127.446164 
L 160.45952 130.629175 
L 164.154746 134.073603 
L 167.849973 137.764045 
L 171.545199 141.683993 
L 177.088039 147.955628 
L 182.630879 154.6409 
L 188.173718 161.672566 
L 195.564171 171.464294 
L 204.802238 184.125513 
L 221.430757 207.023843 
L 228.82121 216.802083 
L 234.36405 223.819892 
L 239.90689 230.488254 
L 245.449729 236.740093 
L 249.144956 240.645339 
L 252.840182 244.31995 
L 256.535409 247.747491 
L 260.230635 250.912631 
L 263.925862 253.801216 
L 267.621088 256.400324 
L 271.316315 258.698333 
L 275.011542 260.684963 
L 278.706768 262.351329 
L 282.401995 263.689979 
L 286.097221 264.694926 
L 289.792448 265.361674 
L 293.487674 265.687241 
L 297.182901 265.670172 
L 300.878127 265.310543 
L 304.573354 264.609962 
L 308.26858 263.571563 
L 311.963807 262.19999 
L 315.659033 260.501377 
L 319.35426 258.483321 
L 323.049486 256.154849 
L 326.744713 253.526375 
L 330.439939 250.609654 
L 334.135166 247.417732 
L 337.830392 243.964885 
L 341.525619 240.266555 
L 345.220845 236.339285 
L 350.763685 230.057799 
L 356.306525 223.36412 
L 361.849365 216.325579 
L 369.239818 206.527179 
L 378.477884 193.861793 
L 395.106403 170.967893 
L 402.496856 161.196469 
L 408.039696 154.18564 
L 413.582536 147.525783 
L 419.125375 141.283888 
L 422.820602 137.386022 
L 426.515829 133.719353 
L 430.211055 130.300282 
L 433.906282 127.1441 
L 437.601508 124.264923 
L 441.296735 121.675628 
L 444.991961 119.387797 
L 448.687188 117.411662 
L 452.382414 115.756061 
L 456.077641 114.428398 
L 459.772867 113.434613 
L 463.468094 112.779149 
L 467.16332 112.464939 
L 470.858547 112.493387 
L 474.553773 112.864366 
L 478.249 113.576218 
L 481.944226 114.625758 
L 485.639453 116.008292 
L 489.334679 117.717637 
L 493.029906 119.746148 
L 496.725132 122.084752 
L 500.420359 124.722989 
L 504.115585 127.64906 
L 507.810812 130.849878 
L 511.506038 134.311127 
L 515.201265 138.017326 
L 518.896491 141.951899 
L 524.439331 148.243206 
L 529.982171 154.945257 
L 535.525011 161.99064 
L 542.915464 171.795663 
L 552.15353 184.465155 
L 568.782049 207.35451 
L 576.172502 217.119071 
L 581.715342 224.122885 
L 587.258182 230.774204 
L 587.258182 230.774204 
" clip-path="url(#p7a4f817dae)" style="fill: none; stroke-dasharray: 8.14,3.52; stroke-dashoffset: 0; stroke: #7f8c8d; stroke-width: 2.2"/>
   </g>
   <g id="line2d_12">
    <path d="M 34.821818 153.074997 
L 42.212271 153.074997 
L 44.059884 168.93771 
L 45.907498 175.9795 
L 47.755111 175.9795 
L 49.602724 176.694357 
L 51.450337 183.163736 
L 53.297951 179.561574 
L 55.145564 179.226438 
L 56.993177 163.861738 
L 58.840791 160.956476 
L 60.688404 150.669714 
L 64.38363 142.257211 
L 66.231244 136.11268 
L 68.078857 134.687504 
L 69.92647 119.543563 
L 73.621697 115.559294 
L 75.46931 110.357178 
L 77.316923 108.408985 
L 79.164536 110.35228 
L 82.859763 110.337112 
L 84.707376 115.260919 
L 86.554989 106.472998 
L 88.402603 134.068978 
L 90.250216 134.068978 
L 92.097829 136.148272 
L 93.945442 139.531802 
L 95.793056 137.604682 
L 97.640669 137.694214 
L 99.488282 140.058258 
L 101.335895 139.392005 
L 103.183509 132.056592 
L 105.031122 133.301175 
L 106.878735 140.78687 
L 108.726348 140.890513 
L 110.573962 110.610056 
L 112.421575 118.906986 
L 114.269188 118.780747 
L 116.116801 142.827159 
L 117.964415 142.621001 
L 119.812028 136.593561 
L 121.659641 129.410887 
L 123.507254 112.533259 
L 125.354868 104.961493 
L 127.202481 92.479094 
L 129.050094 86.064102 
L 130.897708 72.007597 
L 132.745321 68.365057 
L 134.592934 61.120476 
L 136.440547 55.992992 
L 138.288161 64.13671 
L 140.135774 70.85894 
L 141.983387 99.680008 
L 143.831 136.449655 
L 145.678614 145.875175 
L 147.526227 159.038932 
L 149.37384 156.005479 
L 151.221453 133.381452 
L 153.069067 135.42727 
L 154.91668 129.946471 
L 156.764293 129.407425 
L 158.611906 146.932638 
L 160.45952 144.700758 
L 162.307133 148.276202 
L 164.154746 148.276202 
L 166.002359 148.07534 
L 167.849973 148.736769 
L 169.697586 148.796652 
L 173.392812 152.924016 
L 175.240426 149.485552 
L 177.088039 149.979253 
L 178.935652 150.944072 
L 180.783265 152.294855 
L 182.630879 152.294855 
L 184.478492 142.409447 
L 186.326105 142.897185 
L 188.173718 154.386976 
L 190.021332 161.344682 
L 191.868945 167.257161 
L 193.716558 180.967067 
L 195.564171 192.324142 
L 197.411785 196.54731 
L 199.259398 214.316516 
L 201.107011 212.161228 
L 202.954625 193.361899 
L 204.802238 184.191396 
L 206.649851 157.959358 
L 208.497464 157.561625 
L 210.345078 159.149437 
L 212.192691 182.827827 
L 214.040304 182.827827 
L 215.887917 183.040737 
L 217.735531 183.076872 
L 219.583144 190.832947 
L 221.430757 194.951775 
L 223.27837 194.684418 
L 225.125984 205.025505 
L 226.973597 205.025505 
L 228.82121 210.555368 
L 230.668823 210.965631 
L 232.516437 210.928198 
L 234.36405 231.083144 
L 238.059276 257.415984 
L 239.90689 255.239471 
L 241.754503 256.467184 
L 243.602116 255.141035 
L 245.449729 241.512879 
L 247.297343 213.120725 
L 249.144956 213.090784 
L 250.992569 213.735728 
L 252.840182 215.781542 
L 254.687796 250.184914 
L 256.535409 256.656011 
L 258.383022 257.026917 
L 260.230635 239.434145 
L 262.078249 243.220648 
L 263.925862 244.22319 
L 265.773475 244.22319 
L 267.621088 267.079579 
L 269.468702 268.607166 
L 273.163928 269.029684 
L 275.011542 246.688699 
L 276.859155 260.520066 
L 278.706768 263.230061 
L 280.554381 274.331191 
L 282.401995 262.481727 
L 284.249608 272.792361 
L 286.097221 293.812292 
L 287.944834 292.654598 
L 289.792448 266.549439 
L 291.640061 237.263411 
L 293.487674 253.173694 
L 295.335287 265.117766 
L 297.182901 260.376809 
L 299.030514 260.376809 
L 300.878127 260.265317 
L 302.72574 260.318977 
L 304.573354 250.746308 
L 306.420967 237.558496 
L 313.81142 237.506177 
L 317.506646 236.727165 
L 319.35426 231.7121 
L 321.201873 230.354479 
L 324.897099 230.354479 
L 326.744713 237.998446 
L 328.592326 237.100564 
L 330.439939 236.872416 
L 339.678005 236.872416 
L 341.525619 244.17112 
L 343.373232 224.015134 
L 345.220845 218.290077 
L 347.068458 206.072615 
L 348.916072 219.38339 
L 350.763685 220.754162 
L 352.611298 243.694764 
L 360.001751 243.694764 
L 361.849365 243.388086 
L 363.696978 241.673224 
L 365.544591 240.978737 
L 367.392204 235.48499 
L 369.239818 205.856481 
L 371.087431 198.81604 
L 372.935044 198.062487 
L 374.782657 197.720602 
L 376.630271 197.720602 
L 378.477884 197.499659 
L 382.17311 197.499659 
L 384.020724 148.034248 
L 385.868337 173.087274 
L 387.71595 182.622455 
L 389.563563 182.086603 
L 391.411177 181.406953 
L 393.25879 173.205058 
L 395.106403 173.225417 
L 396.954016 151.156989 
L 398.80163 150.210159 
L 400.649243 150.092113 
L 402.496856 181.177318 
L 404.344469 153.449678 
L 406.192083 164.273308 
L 408.039696 162.155924 
L 409.887309 153.127078 
L 411.734922 152.285988 
L 413.582536 148.10653 
L 415.430149 148.179996 
L 417.277762 124.88298 
L 419.125375 125.255243 
L 420.972989 129.951501 
L 422.820602 132.29824 
L 424.668215 166.246924 
L 426.515829 168.658458 
L 428.363442 141.178155 
L 430.211055 140.352982 
L 433.906282 156.691108 
L 435.753895 154.725896 
L 437.601508 154.725896 
L 439.449121 153.753648 
L 441.296735 146.349953 
L 443.144348 143.476356 
L 444.991961 135.188245 
L 446.839574 134.877189 
L 448.687188 134.793202 
L 450.534801 121.490563 
L 452.382414 121.615865 
L 454.230027 108.727902 
L 456.077641 136.347347 
L 457.925254 119.918578 
L 459.772867 118.013606 
L 461.62048 121.870582 
L 463.468094 121.558143 
L 465.315707 95.418524 
L 467.16332 86.300622 
L 469.010933 114.439143 
L 470.858547 120.881389 
L 472.70616 120.871118 
L 474.553773 119.576803 
L 476.401386 120.599944 
L 478.249 117.445806 
L 480.096613 117.251999 
L 481.944226 117.884824 
L 483.791839 113.602315 
L 485.639453 112.362732 
L 487.487066 115.723158 
L 489.334679 120.197834 
L 491.182292 136.891707 
L 493.029906 137.495946 
L 494.877519 117.844378 
L 496.725132 117.687395 
L 498.572746 116.666734 
L 500.420359 110.652552 
L 502.267972 75.486359 
L 505.963199 75.486359 
L 507.810812 100.357618 
L 509.658425 128.568818 
L 511.506038 128.850191 
L 515.201265 130.439514 
L 517.048878 130.655242 
L 518.896491 151.125855 
L 520.744105 153.858335 
L 522.591718 168.271597 
L 524.439331 169.414122 
L 526.286944 169.414122 
L 528.134558 170.273391 
L 529.982171 170.273391 
L 531.829784 186.656817 
L 533.677397 190.070128 
L 535.525011 181.45796 
L 539.220237 182.115363 
L 541.06785 178.160841 
L 542.915464 173.508194 
L 546.61069 173.508194 
L 548.458303 173.692288 
L 550.305917 173.319812 
L 552.15353 172.547029 
L 554.001143 177.31465 
L 555.848756 177.444462 
L 557.69637 178.595953 
L 559.543983 192.154345 
L 561.391596 192.651982 
L 566.934436 192.651982 
L 568.782049 230.327595 
L 570.629663 236.809538 
L 572.477276 229.34762 
L 587.258182 229.34762 
L 587.258182 229.34762 
" clip-path="url(#p7a4f817dae)" style="fill: none; stroke: #8b1538; stroke-width: 3; stroke-linecap: square"/>
   </g>
   <g id="line2d_13"/>
   <g id="patch_3">
    <path d="M 7.2 312.48 
L 7.2 25.197656 
" style="fill: none; stroke: #c9ced3; stroke-width: 1.1; stroke-linejoin: miter; stroke-linecap: square"/>
   </g>
   <g id="patch_4">
    <path d="M 7.2 312.48 
L 614.88 312.48 
" style="fill: none; stroke: #c9ced3; stroke-width: 1.1; stroke-linejoin: miter; stroke-linecap: square"/>
   </g>
   <g id="text_1">
    <!-- Random Forest reduce la varianza: promediar suaviza el ruido de cada árbol -->
    <g style="fill: #2c3e50" transform="translate(7.2 19.197656) scale(0.15 -0.15)">
     <defs>
      <path id="DejaVuSans-Bold-52" d="M 2297 2597 
Q 2675 2597 2839 2737 
Q 3003 2878 3003 3200 
Q 3003 3519 2839 3656 
Q 2675 3794 2297 3794 
L 1791 3794 
L 1791 2597 
L 2297 2597 
z
M 1791 1766 
L 1791 0 
L 588 0 
L 588 4666 
L 2425 4666 
Q 3347 4666 3776 4356 
Q 4206 4047 4206 3378 
Q 4206 2916 3982 2619 
Q 3759 2322 3309 2181 
Q 3556 2125 3751 1926 
Q 3947 1728 4147 1325 
L 4800 0 
L 3519 0 
L 2950 1159 
Q 2778 1509 2601 1637 
Q 2425 1766 2131 1766 
L 1791 1766 
z
" transform="scale(0.015625)"/>
      <path id="DejaVuSans-Bold-61" d="M 2106 1575 
Q 1756 1575 1579 1456 
Q 1403 1338 1403 1106 
Q 1403 894 1545 773 
Q 1688 653 1941 653 
Q 2256 653 2472 879 
Q 2688 1106 2688 1447 
L 2688 1575 
L 2106 1575 
z
M 3816 1997 
L 3816 0 
L 2688 0 
L 2688 519 
Q 2463 200 2181 54 
Q 1900 -91 1497 -91 
Q 953 -91 614 226 
Q 275 544 275 1050 
Q 275 1666 698 1953 
Q 1122 2241 2028 2241 
L 2688 2241 
L 2688 2328 
Q 2688 2594 2478 2717 
Q 2269 2841 1825 2841 
Q 1466 2841 1156 2769 
Q 847 2697 581 2553 
L 581 3406 
Q 941 3494 1303 3539 
Q 1666 3584 2028 3584 
Q 2975 3584 3395 3211 
Q 3816 2838 3816 1997 
z
" transform="scale(0.015625)"/>
      <path id="DejaVuSans-Bold-6e" d="M 4056 2131 
L 4056 0 
L 2931 0 
L 2931 347 
L 2931 1631 
Q 2931 2084 2911 2256 
Q 2891 2428 2841 2509 
Q 2775 2619 2662 2680 
Q 2550 2741 2406 2741 
Q 2056 2741 1856 2470 
Q 1656 2200 1656 1722 
L 1656 0 
L 538 0 
L 538 3500 
L 1656 3500 
L 1656 2988 
Q 1909 3294 2193 3439 
Q 2478 3584 2822 3584 
Q 3428 3584 3742 3212 
Q 4056 2841 4056 2131 
z
" transform="scale(0.015625)"/>
      <path id="DejaVuSans-Bold-64" d="M 2919 2988 
L 2919 4863 
L 4044 4863 
L 4044 0 
L 2919 0 
L 2919 506 
Q 2688 197 2409 53 
Q 2131 -91 1766 -91 
Q 1119 -91 703 423 
Q 288 938 288 1747 
Q 288 2556 703 3070 
Q 1119 3584 1766 3584 
Q 2128 3584 2408 3439 
Q 2688 3294 2919 2988 
z
M 2181 722 
Q 2541 722 2730 984 
Q 2919 1247 2919 1747 
Q 2919 2247 2730 2509 
Q 2541 2772 2181 2772 
Q 1825 2772 1636 2509 
Q 1447 2247 1447 1747 
Q 1447 1247 1636 984 
Q 1825 722 2181 722 
z
" transform="scale(0.015625)"/>
      <path id="DejaVuSans-Bold-6f" d="M 2203 2784 
Q 1831 2784 1636 2517 
Q 1441 2250 1441 1747 
Q 1441 1244 1636 976 
Q 1831 709 2203 709 
Q 2569 709 2762 976 
Q 2956 1244 2956 1747 
Q 2956 2250 2762 2517 
Q 2569 2784 2203 2784 
z
M 2203 3584 
Q 3106 3584 3614 3096 
Q 4122 2609 4122 1747 
Q 4122 884 3614 396 
Q 3106 -91 2203 -91 
Q 1297 -91 786 396 
Q 275 884 275 1747 
Q 275 2609 786 3096 
Q 1297 3584 2203 3584 
z
" transform="scale(0.015625)"/>
      <path id="DejaVuSans-Bold-6d" d="M 3781 2919 
Q 3994 3244 4286 3414 
Q 4578 3584 4928 3584 
Q 5531 3584 5847 3212 
Q 6163 2841 6163 2131 
L 6163 0 
L 5038 0 
L 5038 1825 
Q 5041 1866 5042 1909 
Q 5044 1953 5044 2034 
Q 5044 2406 4934 2573 
Q 4825 2741 4581 2741 
Q 4263 2741 4089 2478 
Q 3916 2216 3909 1719 
L 3909 0 
L 2784 0 
L 2784 1825 
Q 2784 2406 2684 2573 
Q 2584 2741 2328 2741 
Q 2006 2741 1831 2477 
Q 1656 2213 1656 1722 
L 1656 0 
L 531 0 
L 531 3500 
L 1656 3500 
L 1656 2988 
Q 1863 3284 2130 3434 
Q 2397 3584 2719 3584 
Q 3081 3584 3359 3409 
Q 3638 3234 3781 2919 
z
" transform="scale(0.015625)"/>
      <path id="DejaVuSans-Bold-20" transform="scale(0.015625)"/>
      <path id="DejaVuSans-Bold-46" d="M 588 4666 
L 3834 4666 
L 3834 3756 
L 1791 3756 
L 1791 2888 
L 3713 2888 
L 3713 1978 
L 1791 1978 
L 1791 0 
L 588 0 
L 588 4666 
z
" transform="scale(0.015625)"/>
      <path id="DejaVuSans-Bold-72" d="M 3138 2547 
Q 2991 2616 2845 2648 
Q 2700 2681 2553 2681 
Q 2122 2681 1889 2404 
Q 1656 2128 1656 1613 
L 1656 0 
L 538 0 
L 538 3500 
L 1656 3500 
L 1656 2925 
Q 1872 3269 2151 3426 
Q 2431 3584 2822 3584 
Q 2878 3584 2943 3579 
Q 3009 3575 3134 3559 
L 3138 2547 
z
" transform="scale(0.015625)"/>
      <path id="DejaVuSans-Bold-65" d="M 4031 1759 
L 4031 1441 
L 1416 1441 
Q 1456 1047 1700 850 
Q 1944 653 2381 653 
Q 2734 653 3104 758 
Q 3475 863 3866 1075 
L 3866 213 
Q 3469 63 3072 -14 
Q 2675 -91 2278 -91 
Q 1328 -91 801 392 
Q 275 875 275 1747 
Q 275 2603 792 3093 
Q 1309 3584 2216 3584 
Q 3041 3584 3536 3087 
Q 4031 2591 4031 1759 
z
M 2881 2131 
Q 2881 2450 2695 2645 
Q 2509 2841 2209 2841 
Q 1884 2841 1681 2658 
Q 1478 2475 1428 2131 
L 2881 2131 
z
" transform="scale(0.015625)"/>
      <path id="DejaVuSans-Bold-73" d="M 3272 3391 
L 3272 2541 
Q 2913 2691 2578 2766 
Q 2244 2841 1947 2841 
Q 1628 2841 1473 2761 
Q 1319 2681 1319 2516 
Q 1319 2381 1436 2309 
Q 1553 2238 1856 2203 
L 2053 2175 
Q 2913 2066 3209 1816 
Q 3506 1566 3506 1031 
Q 3506 472 3093 190 
Q 2681 -91 1863 -91 
Q 1516 -91 1145 -36 
Q 775 19 384 128 
L 384 978 
Q 719 816 1070 734 
Q 1422 653 1784 653 
Q 2113 653 2278 743 
Q 2444 834 2444 1013 
Q 2444 1163 2330 1236 
Q 2216 1309 1875 1350 
L 1678 1375 
Q 931 1469 631 1722 
Q 331 1975 331 2491 
Q 331 3047 712 3315 
Q 1094 3584 1881 3584 
Q 2191 3584 2531 3537 
Q 2872 3491 3272 3391 
z
" transform="scale(0.015625)"/>
      <path id="DejaVuSans-Bold-74" d="M 1759 4494 
L 1759 3500 
L 2913 3500 
L 2913 2700 
L 1759 2700 
L 1759 1216 
Q 1759 972 1856 886 
Q 1953 800 2241 800 
L 2816 800 
L 2816 0 
L 1856 0 
Q 1194 0 917 276 
Q 641 553 641 1216 
L 641 2700 
L 84 2700 
L 84 3500 
L 641 3500 
L 641 4494 
L 1759 4494 
z
" transform="scale(0.015625)"/>
      <path id="DejaVuSans-Bold-75" d="M 500 1363 
L 500 3500 
L 1625 3500 
L 1625 3150 
Q 1625 2866 1622 2436 
Q 1619 2006 1619 1863 
Q 1619 1441 1641 1255 
Q 1663 1069 1716 984 
Q 1784 875 1895 815 
Q 2006 756 2150 756 
Q 2500 756 2700 1025 
Q 2900 1294 2900 1772 
L 2900 3500 
L 4019 3500 
L 4019 0 
L 2900 0 
L 2900 506 
Q 2647 200 2364 54 
Q 2081 -91 1741 -91 
Q 1134 -91 817 281 
Q 500 653 500 1363 
z
" transform="scale(0.015625)"/>
      <path id="DejaVuSans-Bold-63" d="M 3366 3391 
L 3366 2478 
Q 3138 2634 2908 2709 
Q 2678 2784 2431 2784 
Q 1963 2784 1702 2511 
Q 1441 2238 1441 1747 
Q 1441 1256 1702 982 
Q 1963 709 2431 709 
Q 2694 709 2930 787 
Q 3166 866 3366 1019 
L 3366 103 
Q 3103 6 2833 -42 
Q 2563 -91 2291 -91 
Q 1344 -91 809 395 
Q 275 881 275 1747 
Q 275 2613 809 3098 
Q 1344 3584 2291 3584 
Q 2566 3584 2833 3536 
Q 3100 3488 3366 3391 
z
" transform="scale(0.015625)"/>
      <path id="DejaVuSans-Bold-6c" d="M 538 4863 
L 1656 4863 
L 1656 0 
L 538 0 
L 538 4863 
z
" transform="scale(0.015625)"/>
      <path id="DejaVuSans-Bold-76" d="M 97 3500 
L 1216 3500 
L 2088 1081 
L 2956 3500 
L 4078 3500 
L 2700 0 
L 1472 0 
L 97 3500 
z
" transform="scale(0.015625)"/>
      <path id="DejaVuSans-Bold-69" d="M 538 3500 
L 1656 3500 
L 1656 0 
L 538 0 
L 538 3500 
z
M 538 4863 
L 1656 4863 
L 1656 3950 
L 538 3950 
L 538 4863 
z
" transform="scale(0.015625)"/>
      <path id="DejaVuSans-Bold-7a" d="M 366 3500 
L 3419 3500 
L 3419 2719 
L 1575 800 
L 3419 800 
L 3419 0 
L 288 0 
L 288 781 
L 2131 2700 
L 366 2700 
L 366 3500 
z
" transform="scale(0.015625)"/>
      <path id="DejaVuSans-Bold-3a" d="M 716 3500 
L 1844 3500 
L 1844 2291 
L 716 2291 
L 716 3500 
z
M 716 1209 
L 1844 1209 
L 1844 0 
L 716 0 
L 716 1209 
z
" transform="scale(0.015625)"/>
      <path id="DejaVuSans-Bold-70" d="M 1656 506 
L 1656 -1331 
L 538 -1331 
L 538 3500 
L 1656 3500 
L 1656 2988 
Q 1888 3294 2169 3439 
Q 2450 3584 2816 3584 
Q 3463 3584 3878 3070 
Q 4294 2556 4294 1747 
Q 4294 938 3878 423 
Q 3463 -91 2816 -91 
Q 2450 -91 2169 54 
Q 1888 200 1656 506 
z
M 2400 2772 
Q 2041 2772 1848 2508 
Q 1656 2244 1656 1747 
Q 1656 1250 1848 986 
Q 2041 722 2400 722 
Q 2759 722 2948 984 
Q 3138 1247 3138 1747 
Q 3138 2247 2948 2509 
Q 2759 2772 2400 2772 
z
" transform="scale(0.015625)"/>
      <path id="DejaVuSans-Bold-e1" d="M 2106 1575 
Q 1756 1575 1579 1456 
Q 1403 1338 1403 1106 
Q 1403 894 1545 773 
Q 1688 653 1941 653 
Q 2256 653 2472 879 
Q 2688 1106 2688 1447 
L 2688 1575 
L 2106 1575 
z
M 3816 1997 
L 3816 0 
L 2688 0 
L 2688 519 
Q 2463 200 2181 54 
Q 1900 -91 1497 -91 
Q 953 -91 614 226 
Q 275 544 275 1050 
Q 275 1666 698 1953 
Q 1122 2241 2028 2241 
L 2688 2241 
L 2688 2328 
Q 2688 2594 2478 2717 
Q 2269 2841 1825 2841 
Q 1466 2841 1156 2769 
Q 847 2697 581 2553 
L 581 3406 
Q 941 3494 1303 3539 
Q 1666 3584 2028 3584 
Q 2975 3584 3395 3211 
Q 3816 2838 3816 1997 
z
M 2606 5119 
L 3490 5119 
L 2337 3944 
L 1725 3944 
L 2606 5119 
z
" transform="scale(0.015625)"/>
      <path id="DejaVuSans-Bold-62" d="M 2400 722 
Q 2759 722 2948 984 
Q 3138 1247 3138 1747 
Q 3138 2247 2948 2509 
Q 2759 2772 2400 2772 
Q 2041 2772 1848 2508 
Q 1656 2244 1656 1747 
Q 1656 1250 1848 986 
Q 2041 722 2400 722 
z
M 1656 2988 
Q 1888 3294 2169 3439 
Q 2450 3584 2816 3584 
Q 3463 3584 3878 3070 
Q 4294 2556 4294 1747 
Q 4294 938 3878 423 
Q 3463 -91 2816 -91 
Q 2450 -91 2169 54 
Q 1888 200 1656 506 
L 1656 0 
L 538 0 
L 538 4863 
L 1656 4863 
L 1656 2988 
z
" transform="scale(0.015625)"/>
     </defs>
     <use xlink:href="#DejaVuSans-Bold-52"/>
     <use xlink:href="#DejaVuSans-Bold-61" transform="translate(77.001953 0)"/>
     <use xlink:href="#DejaVuSans-Bold-6e" transform="translate(144.482422 0)"/>
     <use xlink:href="#DejaVuSans-Bold-64" transform="translate(215.673828 0)"/>
     <use xlink:href="#DejaVuSans-Bold-6f" transform="translate(287.255859 0)"/>
     <use xlink:href="#DejaVuSans-Bold-6d" transform="translate(355.957031 0)"/>
     <use xlink:href="#DejaVuSans-Bold-20" transform="translate(460.15625 0)"/>
     <use xlink:href="#DejaVuSans-Bold-46" transform="translate(494.970703 0)"/>
     <use xlink:href="#DejaVuSans-Bold-6f" transform="translate(559.28125 0)"/>
     <use xlink:href="#DejaVuSans-Bold-72" transform="translate(627.982422 0)"/>
     <use xlink:href="#DejaVuSans-Bold-65" transform="translate(677.298828 0)"/>
     <use xlink:href="#DejaVuSans-Bold-73" transform="translate(745.121094 0)"/>
     <use xlink:href="#DejaVuSans-Bold-74" transform="translate(804.642578 0)"/>
     <use xlink:href="#DejaVuSans-Bold-20" transform="translate(852.445312 0)"/>
     <use xlink:href="#DejaVuSans-Bold-72" transform="translate(887.259766 0)"/>
     <use xlink:href="#DejaVuSans-Bold-65" transform="translate(936.576172 0)"/>
     <use xlink:href="#DejaVuSans-Bold-64" transform="translate(1004.398438 0)"/>
     <use xlink:href="#DejaVuSans-Bold-75" transform="translate(1075.980469 0)"/>
     <use xlink:href="#DejaVuSans-Bold-63" transform="translate(1147.171875 0)"/>
     <use xlink:href="#DejaVuSans-Bold-65" transform="translate(1206.449219 0)"/>
     <use xlink:href="#DejaVuSans-Bold-20" transform="translate(1274.271484 0)"/>
     <use xlink:href="#DejaVuSans-Bold-6c" transform="translate(1309.085938 0)"/>
     <use xlink:href="#DejaVuSans-Bold-61" transform="translate(1343.363281 0)"/>
     <use xlink:href="#DejaVuSans-Bold-20" transform="translate(1410.84375 0)"/>
     <use xlink:href="#DejaVuSans-Bold-76" transform="translate(1445.658203 0)"/>
     <use xlink:href="#DejaVuSans-Bold-61" transform="translate(1510.84375 0)"/>
     <use xlink:href="#DejaVuSans-Bold-72" transform="translate(1578.324219 0)"/>
     <use xlink:href="#DejaVuSans-Bold-69" transform="translate(1627.640625 0)"/>
     <use xlink:href="#DejaVuSans-Bold-61" transform="translate(1661.917969 0)"/>
     <use xlink:href="#DejaVuSans-Bold-6e" transform="translate(1729.398438 0)"/>
     <use xlink:href="#DejaVuSans-Bold-7a" transform="translate(1800.589844 0)"/>
     <use xlink:href="#DejaVuSans-Bold-61" transform="translate(1858.792969 0)"/>
     <use xlink:href="#DejaVuSans-Bold-3a" transform="translate(1926.273438 0)"/>
     <use xlink:href="#DejaVuSans-Bold-20" transform="translate(1966.263672 0)"/>
     <use xlink:href="#DejaVuSans-Bold-70" transform="translate(2001.078125 0)"/>
     <use xlink:href="#DejaVuSans-Bold-72" transform="translate(2072.660156 0)"/>
     <use xlink:href="#DejaVuSans-Bold-6f" transform="translate(2121.976562 0)"/>
     <use xlink:href="#DejaVuSans-Bold-6d" transform="translate(2190.677734 0)"/>
     <use xlink:href="#DejaVuSans-Bold-65" transform="translate(2294.876953 0)"/>
     <use xlink:href="#DejaVuSans-Bold-64" transform="translate(2362.699219 0)"/>
     <use xlink:href="#DejaVuSans-Bold-69" transform="translate(2434.28125 0)"/>
     <use xlink:href="#DejaVuSans-Bold-61" transform="translate(2468.558594 0)"/>
     <use xlink:href="#DejaVuSans-Bold-72" transform="translate(2536.039062 0)"/>
     <use xlink:href="#DejaVuSans-Bold-20" transform="translate(2585.355469 0)"/>
     <use xlink:href="#DejaVuSans-Bold-73" transform="translate(2620.169922 0)"/>
     <use xlink:href="#DejaVuSans-Bold-75" transform="translate(2679.691406 0)"/>
     <use xlink:href="#DejaVuSans-Bold-61" transform="translate(2750.882812 0)"/>
     <use xlink:href="#DejaVuSans-Bold-76" transform="translate(2818.363281 0)"/>
     <use xlink:href="#DejaVuSans-Bold-69" transform="translate(2883.548828 0)"/>
     <use xlink:href="#DejaVuSans-Bold-7a" transform="translate(2917.826172 0)"/>
     <use xlink:href="#DejaVuSans-Bold-61" transform="translate(2976.029297 0)"/>
     <use xlink:href="#DejaVuSans-Bold-20" transform="translate(3043.509766 0)"/>
     <use xlink:href="#DejaVuSans-Bold-65" transform="translate(3078.324219 0)"/>
     <use xlink:href="#DejaVuSans-Bold-6c" transform="translate(3146.146484 0)"/>
     <use xlink:href="#DejaVuSans-Bold-20" transform="translate(3180.423828 0)"/>
     <use xlink:href="#DejaVuSans-Bold-72" transform="translate(3215.238281 0)"/>
     <use xlink:href="#DejaVuSans-Bold-75" transform="translate(3264.554688 0)"/>
     <use xlink:href="#DejaVuSans-Bold-69" transform="translate(3335.746094 0)"/>
     <use xlink:href="#DejaVuSans-Bold-64" transform="translate(3370.023438 0)"/>
     <use xlink:href="#DejaVuSans-Bold-6f" transform="translate(3441.605469 0)"/>
     <use xlink:href="#DejaVuSans-Bold-20" transform="translate(3510.306641 0)"/>
     <use xlink:href="#DejaVuSans-Bold-64" transform="translate(3545.121094 0)"/>
     <use xlink:href="#DejaVuSans-Bold-65" transform="translate(3616.703125 0)"/>
     <use xlink:href="#DejaVuSans-Bold-20" transform="translate(3684.525391 0)"/>
     <use xlink:href="#DejaVuSans-Bold-63" transform="translate(3719.339844 0)"/>
     <use xlink:href="#DejaVuSans-Bold-61" transform="translate(3778.617188 0)"/>
     <use xlink:href="#DejaVuSans-Bold-64" transform="translate(3846.097656 0)"/>
     <use xlink:href="#DejaVuSans-Bold-61" transform="translate(3917.679688 0)"/>
     <use xlink:href="#DejaVuSans-Bold-20" transform="translate(3985.160156 0)"/>
     <use xlink:href="#DejaVuSans-Bold-e1" transform="translate(4019.974609 0)"/>
     <use xlink:href="#DejaVuSans-Bold-72" transform="translate(4087.455078 0)"/>
     <use xlink:href="#DejaVuSans-Bold-62" transform="translate(4136.771484 0)"/>
     <use xlink:href="#DejaVuSans-Bold-6f" transform="translate(4208.353516 0)"/>
     <use xlink:href="#DejaVuSans-Bold-6c" transform="translate(4277.054688 0)"/>
    </g>
   </g>
   <g id="legend_1">
    <g id="line2d_14">
     <path d="M 385.8675 40.915781 
L 397.8675 40.915781 
L 409.8675 40.915781 
" style="fill: none; stroke-dasharray: 8.14,3.52; stroke-dashoffset: 0; stroke: #7f8c8d; stroke-width: 2.2"/>
    </g>
    <g id="text_2">
     <!-- Función real -->
     <g transform="translate(419.4675 45.115781) scale(0.12 -0.12)">
      <defs>
       <path id="DejaVuSans-46" d="M 628 4666 
L 3309 4666 
L 3309 4134 
L 1259 4134 
L 1259 2759 
L 3109 2759 
L 3109 2228 
L 1259 2228 
L 1259 0 
L 628 0 
L 628 4666 
z
" transform="scale(0.015625)"/>
       <path id="DejaVuSans-75" d="M 544 1381 
L 544 3500 
L 1119 3500 
L 1119 1403 
Q 1119 906 1312 657 
Q 1506 409 1894 409 
Q 2359 409 2629 706 
Q 2900 1003 2900 1516 
L 2900 3500 
L 3475 3500 
L 3475 0 
L 2900 0 
L 2900 538 
Q 2691 219 2414 64 
Q 2138 -91 1772 -91 
Q 1169 -91 856 284 
Q 544 659 544 1381 
z
M 1991 3584 
L 1991 3584 
z
" transform="scale(0.015625)"/>
       <path id="DejaVuSans-6e" d="M 3513 2113 
L 3513 0 
L 2938 0 
L 2938 2094 
Q 2938 2591 2744 2837 
Q 2550 3084 2163 3084 
Q 1697 3084 1428 2787 
Q 1159 2491 1159 1978 
L 1159 0 
L 581 0 
L 581 3500 
L 1159 3500 
L 1159 2956 
Q 1366 3272 1645 3428 
Q 1925 3584 2291 3584 
Q 2894 3584 3203 3211 
Q 3513 2838 3513 2113 
z
" transform="scale(0.015625)"/>
       <path id="DejaVuSans-63" d="M 3122 3366 
L 3122 2828 
Q 2878 2963 2633 3030 
Q 2388 3097 2138 3097 
Q 1578 3097 1268 2742 
Q 959 2388 959 1747 
Q 959 1106 1268 751 
Q 1578 397 2138 397 
Q 2388 397 2633 464 
Q 2878 531 3122 666 
L 3122 134 
Q 2881 22 2623 -34 
Q 2366 -91 2075 -91 
Q 1284 -91 818 406 
Q 353 903 353 1747 
Q 353 2603 823 3093 
Q 1294 3584 2113 3584 
Q 2378 3584 2631 3529 
Q 2884 3475 3122 3366 
z
" transform="scale(0.015625)"/>
       <path id="DejaVuSans-69" d="M 603 3500 
L 1178 3500 
L 1178 0 
L 603 0 
L 603 3500 
z
M 603 4863 
L 1178 4863 
L 1178 4134 
L 603 4134 
L 603 4863 
z
" transform="scale(0.015625)"/>
       <path id="DejaVuSans-f3" d="M 1959 3097 
Q 1497 3097 1228 2736 
Q 959 2375 959 1747 
Q 959 1119 1226 758 
Q 1494 397 1959 397 
Q 2419 397 2687 759 
Q 2956 1122 2956 1747 
Q 2956 2369 2687 2733 
Q 2419 3097 1959 3097 
z
M 1959 3584 
Q 2709 3584 3137 3096 
Q 3566 2609 3566 1747 
Q 3566 888 3137 398 
Q 2709 -91 1959 -91 
Q 1206 -91 779 398 
Q 353 888 353 1747 
Q 353 2609 779 3096 
Q 1206 3584 1959 3584 
z
M 2394 5119 
L 3016 5119 
L 1998 3944 
L 1519 3944 
L 2394 5119 
z
" transform="scale(0.015625)"/>
       <path id="DejaVuSans-20" transform="scale(0.015625)"/>
       <path id="DejaVuSans-72" d="M 2631 2963 
Q 2534 3019 2420 3045 
Q 2306 3072 2169 3072 
Q 1681 3072 1420 2755 
Q 1159 2438 1159 1844 
L 1159 0 
L 581 0 
L 581 3500 
L 1159 3500 
L 1159 2956 
Q 1341 3275 1631 3429 
Q 1922 3584 2338 3584 
Q 2397 3584 2469 3576 
Q 2541 3569 2628 3553 
L 2631 2963 
z
" transform="scale(0.015625)"/>
       <path id="DejaVuSans-65" d="M 3597 1894 
L 3597 1613 
L 953 1613 
Q 991 1019 1311 708 
Q 1631 397 2203 397 
Q 2534 397 2845 478 
Q 3156 559 3463 722 
L 3463 178 
Q 3153 47 2828 -22 
Q 2503 -91 2169 -91 
Q 1331 -91 842 396 
Q 353 884 353 1716 
Q 353 2575 817 3079 
Q 1281 3584 2069 3584 
Q 2775 3584 3186 3129 
Q 3597 2675 3597 1894 
z
M 3022 2063 
Q 3016 2534 2758 2815 
Q 2500 3097 2075 3097 
Q 1594 3097 1305 2825 
Q 1016 2553 972 2059 
L 3022 2063 
z
" transform="scale(0.015625)"/>
       <path id="DejaVuSans-61" d="M 2194 1759 
Q 1497 1759 1228 1600 
Q 959 1441 959 1056 
Q 959 750 1161 570 
Q 1363 391 1709 391 
Q 2188 391 2477 730 
Q 2766 1069 2766 1631 
L 2766 1759 
L 2194 1759 
z
M 3341 1997 
L 3341 0 
L 2766 0 
L 2766 531 
Q 2569 213 2275 61 
Q 1981 -91 1556 -91 
Q 1019 -91 701 211 
Q 384 513 384 1019 
Q 384 1609 779 1909 
Q 1175 2209 1959 2209 
L 2766 2209 
L 2766 2266 
Q 2766 2663 2505 2880 
Q 2244 3097 1772 3097 
Q 1472 3097 1187 3025 
Q 903 2953 641 2809 
L 641 3341 
Q 956 3463 1253 3523 
Q 1550 3584 1831 3584 
Q 2591 3584 2966 3190 
Q 3341 2797 3341 1997 
z
" transform="scale(0.015625)"/>
       <path id="DejaVuSans-6c" d="M 603 4863 
L 1178 4863 
L 1178 0 
L 603 0 
L 603 4863 
z
" transform="scale(0.015625)"/>
      </defs>
      <use xlink:href="#DejaVuSans-46"/>
      <use xlink:href="#DejaVuSans-75" transform="translate(52.019531 0)"/>
      <use xlink:href="#DejaVuSans-6e" transform="translate(115.398438 0)"/>
      <use xlink:href="#DejaVuSans-63" transform="translate(178.777344 0)"/>
      <use xlink:href="#DejaVuSans-69" transform="translate(233.757812 0)"/>
      <use xlink:href="#DejaVuSans-f3" transform="translate(261.541016 0)"/>
      <use xlink:href="#DejaVuSans-6e" transform="translate(322.722656 0)"/>
      <use xlink:href="#DejaVuSans-20" transform="translate(386.101562 0)"/>
      <use xlink:href="#DejaVuSans-72" transform="translate(417.888672 0)"/>
      <use xlink:href="#DejaVuSans-65" transform="translate(456.751953 0)"/>
      <use xlink:href="#DejaVuSans-61" transform="translate(518.275391 0)"/>
      <use xlink:href="#DejaVuSans-6c" transform="translate(579.554688 0)"/>
     </g>
    </g>
    <g id="line2d_15">
     <path d="M 385.8675 58.529531 
L 397.8675 58.529531 
L 409.8675 58.529531 
" style="fill: none; stroke: #8b1538; stroke-width: 3; stroke-linecap: square"/>
    </g>
    <g id="text_3">
     <!-- Random Forest (promedio) -->
     <g transform="translate(419.4675 62.729531) scale(0.12 -0.12)">
      <defs>
       <path id="DejaVuSans-52" d="M 2841 2188 
Q 3044 2119 3236 1894 
Q 3428 1669 3622 1275 
L 4263 0 
L 3584 0 
L 2988 1197 
Q 2756 1666 2539 1819 
Q 2322 1972 1947 1972 
L 1259 1972 
L 1259 0 
L 628 0 
L 628 4666 
L 2053 4666 
Q 2853 4666 3247 4331 
Q 3641 3997 3641 3322 
Q 3641 2881 3436 2590 
Q 3231 2300 2841 2188 
z
M 1259 4147 
L 1259 2491 
L 2053 2491 
Q 2509 2491 2742 2702 
Q 2975 2913 2975 3322 
Q 2975 3731 2742 3939 
Q 2509 4147 2053 4147 
L 1259 4147 
z
" transform="scale(0.015625)"/>
       <path id="DejaVuSans-64" d="M 2906 2969 
L 2906 4863 
L 3481 4863 
L 3481 0 
L 2906 0 
L 2906 525 
Q 2725 213 2448 61 
Q 2172 -91 1784 -91 
Q 1150 -91 751 415 
Q 353 922 353 1747 
Q 353 2572 751 3078 
Q 1150 3584 1784 3584 
Q 2172 3584 2448 3432 
Q 2725 3281 2906 2969 
z
M 947 1747 
Q 947 1113 1208 752 
Q 1469 391 1925 391 
Q 2381 391 2643 752 
Q 2906 1113 2906 1747 
Q 2906 2381 2643 2742 
Q 2381 3103 1925 3103 
Q 1469 3103 1208 2742 
Q 947 2381 947 1747 
z
" transform="scale(0.015625)"/>
       <path id="DejaVuSans-6f" d="M 1959 3097 
Q 1497 3097 1228 2736 
Q 959 2375 959 1747 
Q 959 1119 1226 758 
Q 1494 397 1959 397 
Q 2419 397 2687 759 
Q 2956 1122 2956 1747 
Q 2956 2369 2687 2733 
Q 2419 3097 1959 3097 
z
M 1959 3584 
Q 2709 3584 3137 3096 
Q 3566 2609 3566 1747 
Q 3566 888 3137 398 
Q 2709 -91 1959 -91 
Q 1206 -91 779 398 
Q 353 888 353 1747 
Q 353 2609 779 3096 
Q 1206 3584 1959 3584 
z
" transform="scale(0.015625)"/>
       <path id="DejaVuSans-6d" d="M 3328 2828 
Q 3544 3216 3844 3400 
Q 4144 3584 4550 3584 
Q 5097 3584 5394 3201 
Q 5691 2819 5691 2113 
L 5691 0 
L 5113 0 
L 5113 2094 
Q 5113 2597 4934 2840 
Q 4756 3084 4391 3084 
Q 3944 3084 3684 2787 
Q 3425 2491 3425 1978 
L 3425 0 
L 2847 0 
L 2847 2094 
Q 2847 2600 2669 2842 
Q 2491 3084 2119 3084 
Q 1678 3084 1418 2786 
Q 1159 2488 1159 1978 
L 1159 0 
L 581 0 
L 581 3500 
L 1159 3500 
L 1159 2956 
Q 1356 3278 1631 3431 
Q 1906 3584 2284 3584 
Q 2666 3584 2933 3390 
Q 3200 3197 3328 2828 
z
" transform="scale(0.015625)"/>
       <path id="DejaVuSans-73" d="M 2834 3397 
L 2834 2853 
Q 2591 2978 2328 3040 
Q 2066 3103 1784 3103 
Q 1356 3103 1142 2972 
Q 928 2841 928 2578 
Q 928 2378 1081 2264 
Q 1234 2150 1697 2047 
L 1894 2003 
Q 2506 1872 2764 1633 
Q 3022 1394 3022 966 
Q 3022 478 2636 193 
Q 2250 -91 1575 -91 
Q 1294 -91 989 -36 
Q 684 19 347 128 
L 347 722 
Q 666 556 975 473 
Q 1284 391 1588 391 
Q 1994 391 2212 530 
Q 2431 669 2431 922 
Q 2431 1156 2273 1281 
Q 2116 1406 1581 1522 
L 1381 1569 
Q 847 1681 609 1914 
Q 372 2147 372 2553 
Q 372 3047 722 3315 
Q 1072 3584 1716 3584 
Q 2034 3584 2315 3537 
Q 2597 3491 2834 3397 
z
" transform="scale(0.015625)"/>
       <path id="DejaVuSans-74" d="M 1172 4494 
L 1172 3500 
L 2356 3500 
L 2356 3053 
L 1172 3053 
L 1172 1153 
Q 1172 725 1289 603 
Q 1406 481 1766 481 
L 2356 481 
L 2356 0 
L 1766 0 
Q 1100 0 847 248 
Q 594 497 594 1153 
L 594 3053 
L 172 3053 
L 172 3500 
L 594 3500 
L 594 4494 
L 1172 4494 
z
" transform="scale(0.015625)"/>
       <path id="DejaVuSans-28" d="M 1984 4856 
Q 1566 4138 1362 3434 
Q 1159 2731 1159 2009 
Q 1159 1288 1364 580 
Q 1569 -128 1984 -844 
L 1484 -844 
Q 1016 -109 783 600 
Q 550 1309 550 2009 
Q 550 2706 781 3412 
Q 1013 4119 1484 4856 
L 1984 4856 
z
" transform="scale(0.015625)"/>
       <path id="DejaVuSans-70" d="M 1159 525 
L 1159 -1331 
L 581 -1331 
L 581 3500 
L 1159 3500 
L 1159 2969 
Q 1341 3281 1617 3432 
Q 1894 3584 2278 3584 
Q 2916 3584 3314 3078 
Q 3713 2572 3713 1747 
Q 3713 922 3314 415 
Q 2916 -91 2278 -91 
Q 1894 -91 1617 61 
Q 1341 213 1159 525 
z
M 3116 1747 
Q 3116 2381 2855 2742 
Q 2594 3103 2138 3103 
Q 1681 3103 1420 2742 
Q 1159 2381 1159 1747 
Q 1159 1113 1420 752 
Q 1681 391 2138 391 
Q 2594 391 2855 752 
Q 3116 1113 3116 1747 
z
" transform="scale(0.015625)"/>
       <path id="DejaVuSans-29" d="M 513 4856 
L 1013 4856 
Q 1481 4119 1714 3412 
Q 1947 2706 1947 2009 
Q 1947 1309 1714 600 
Q 1481 -109 1013 -844 
L 513 -844 
Q 928 -128 1133 580 
Q 1338 1288 1338 2009 
Q 1338 2731 1133 3434 
Q 928 4138 513 4856 
z
" transform="scale(0.015625)"/>
      </defs>
      <use xlink:href="#DejaVuSans-52"/>
      <use xlink:href="#DejaVuSans-61" transform="translate(67.232422 0)"/>
      <use xlink:href="#DejaVuSans-6e" transform="translate(128.511719 0)"/>
      <use xlink:href="#DejaVuSans-64" transform="translate(191.890625 0)"/>
      <use xlink:href="#DejaVuSans-6f" transform="translate(255.367188 0)"/>
      <use xlink:href="#DejaVuSans-6d" transform="translate(316.548828 0)"/>
      <use xlink:href="#DejaVuSans-20" transform="translate(413.960938 0)"/>
      <use xlink:href="#DejaVuSans-46" transform="translate(445.748047 0)"/>
      <use xlink:href="#DejaVuSans-6f" transform="translate(499.642578 0)"/>
      <use xlink:href="#DejaVuSans-72" transform="translate(560.824219 0)"/>
      <use xlink:href="#DejaVuSans-65" transform="translate(599.6875 0)"/>
      <use xlink:href="#DejaVuSans-73" transform="translate(661.210938 0)"/>
      <use xlink:href="#DejaVuSans-74" transform="translate(713.310547 0)"/>
      <use xlink:href="#DejaVuSans-20" transform="translate(752.519531 0)"/>
      <use xlink:href="#DejaVuSans-28" transform="translate(784.306641 0)"/>
      <use xlink:href="#DejaVuSans-70" transform="translate(823.320312 0)"/>
      <use xlink:href="#DejaVuSans-72" transform="translate(886.796875 0)"/>
      <use xlink:href="#DejaVuSans-6f" transform="translate(925.660156 0)"/>
      <use xlink:href="#DejaVuSans-6d" transform="translate(986.841797 0)"/>
      <use xlink:href="#DejaVuSans-65" transform="translate(1084.253906 0)"/>
      <use xlink:href="#DejaVuSans-64" transform="translate(1145.777344 0)"/>
      <use xlink:href="#DejaVuSans-69" transform="translate(1209.253906 0)"/>
      <use xlink:href="#DejaVuSans-6f" transform="translate(1237.037109 0)"/>
      <use xlink:href="#DejaVuSans-29" transform="translate(1298.21875 0)"/>
     </g>
    </g>
    <g id="line2d_16">
     <path d="M 385.8675 77.213906 
L 397.8675 77.213906 
L 409.8675 77.213906 
" style="fill: none; stroke: #5b9bd5; stroke-width: 1.2; stroke-linecap: square"/>
    </g>
    <g id="text_4">
     <!-- Árboles individuales (ruidosos) -->
     <g transform="translate(419.4675 81.413906) scale(0.12 -0.12)">
      <defs>
       <path id="DejaVuSans-c1" d="M 2188 4044 
L 1331 1722 
L 3047 1722 
L 2188 4044 
z
M 1831 4666 
L 2547 4666 
L 4325 0 
L 3669 0 
L 3244 1197 
L 1141 1197 
L 716 0 
L 50 0 
L 1831 4666 
z
M 2356 5921 
L 2934 5921 
L 2222 5096 
L 1743 5096 
L 2356 5921 
z
" transform="scale(0.015625)"/>
       <path id="DejaVuSans-62" d="M 3116 1747 
Q 3116 2381 2855 2742 
Q 2594 3103 2138 3103 
Q 1681 3103 1420 2742 
Q 1159 2381 1159 1747 
Q 1159 1113 1420 752 
Q 1681 391 2138 391 
Q 2594 391 2855 752 
Q 3116 1113 3116 1747 
z
M 1159 2969 
Q 1341 3281 1617 3432 
Q 1894 3584 2278 3584 
Q 2916 3584 3314 3078 
Q 3713 2572 3713 1747 
Q 3713 922 3314 415 
Q 2916 -91 2278 -91 
Q 1894 -91 1617 61 
Q 1341 213 1159 525 
L 1159 0 
L 581 0 
L 581 4863 
L 1159 4863 
L 1159 2969 
z
" transform="scale(0.015625)"/>
       <path id="DejaVuSans-76" d="M 191 3500 
L 800 3500 
L 1894 563 
L 2988 3500 
L 3597 3500 
L 2284 0 
L 1503 0 
L 191 3500 
z
" transform="scale(0.015625)"/>
      </defs>
      <use xlink:href="#DejaVuSans-c1"/>
      <use xlink:href="#DejaVuSans-72" transform="translate(68.408203 0)"/>
      <use xlink:href="#DejaVuSans-62" transform="translate(109.521484 0)"/>
      <use xlink:href="#DejaVuSans-6f" transform="translate(172.998047 0)"/>
      <use xlink:href="#DejaVuSans-6c" transform="translate(234.179688 0)"/>
      <use xlink:href="#DejaVuSans-65" transform="translate(261.962891 0)"/>
      <use xlink:href="#DejaVuSans-73" transform="translate(323.486328 0)"/>
      <use xlink:href="#DejaVuSans-20" transform="translate(375.585938 0)"/>
      <use xlink:href="#DejaVuSans-69" transform="translate(407.373047 0)"/>
      <use xlink:href="#DejaVuSans-6e" transform="translate(435.15625 0)"/>
      <use xlink:href="#DejaVuSans-64" transform="translate(498.535156 0)"/>
      <use xlink:href="#DejaVuSans-69" transform="translate(562.011719 0)"/>
      <use xlink:href="#DejaVuSans-76" transform="translate(589.794922 0)"/>
      <use xlink:href="#DejaVuSans-69" transform="translate(648.974609 0)"/>
      <use xlink:href="#DejaVuSans-64" transform="translate(676.757812 0)"/>
      <use xlink:href="#DejaVuSans-75" transform="translate(740.234375 0)"/>
      <use xlink:href="#DejaVuSans-61" transform="translate(803.613281 0)"/>
      <use xlink:href="#DejaVuSans-6c" transform="translate(864.892578 0)"/>
      <use xlink:href="#DejaVuSans-65" transform="translate(892.675781 0)"/>
      <use xlink:href="#DejaVuSans-73" transform="translate(954.199219 0)"/>
      <use xlink:href="#DejaVuSans-20" transform="translate(1006.298828 0)"/>
      <use xlink:href="#DejaVuSans-28" transform="translate(1038.085938 0)"/>
      <use xlink:href="#DejaVuSans-72" transform="translate(1077.099609 0)"/>
      <use xlink:href="#DejaVuSans-75" transform="translate(1118.212891 0)"/>
      <use xlink:href="#DejaVuSans-69" transform="translate(1181.591797 0)"/>
      <use xlink:href="#DejaVuSans-64" transform="translate(1209.375 0)"/>
      <use xlink:href="#DejaVuSans-6f" transform="translate(1272.851562 0)"/>
      <use xlink:href="#DejaVuSans-73" transform="translate(1334.033203 0)"/>
      <use xlink:href="#DejaVuSans-6f" transform="translate(1386.132812 0)"/>
      <use xlink:href="#DejaVuSans-73" transform="translate(1447.314453 0)"/>
      <use xlink:href="#DejaVuSans-29" transform="translate(1499.414062 0)"/>
     </g>
    </g>
   </g>
  </g>
 </g>
 <defs>
  <clipPath id="p7a4f817dae">
   <rect x="7.2" y="25.197656" width="607.68" height="287.282344"/>
  </clipPath>
 </defs>
</svg>
