<?xml version="1.0" encoding="utf-8" standalone="no"?>
<!DOCTYPE svg PUBLIC "-//W3C//DTD SVG 1.1//EN"
  "http://www.w3.org/Graphics/SVG/1.1/DTD/svg11.dtd">
<svg xmlns:xlink="http://www.w3.org/1999/xlink" width="535.68pt" height="334.08pt" viewBox="0 0 535.68 334.08" xmlns="http://www.w3.org/2000/svg" version="1.1">
 <metadata>
  <rdf:RDF xmlns:dc="http://purl.org/dc/elements/1.1/" xmlns:cc="http://creativecommons.org/ns#" xmlns:rdf="http://www.w3.org/1999/02/22-rdf-syntax-ns#">
   <cc:Work>
    <dc:type rdf:resource="http://purl.org/dc/dcmitype/StillImage"/>
    <dc:date>2026-06-13T11:42:57.184184</dc:date>
    <dc:format>image/svg+xml</dc:format>
    <dc:creator>
     <cc:Agent>
      <dc:title>Matplotlib v3.10.0, https://matplotlib.org/</dc:title>
     </cc:Agent>
    </dc:creator>
   </cc:Work>
  </rdf:RDF>
 </metadata>
 <defs>
  <style type="text/css">*{stroke-linejoin: round; stroke-linecap: butt}</style>
 </defs>
 <g id="figure_1">
  <g id="patch_1">
   <path d="M 0 334.08 
L 535.68 334.08 
L 535.68 0 
L 0 0 
L 0 334.08 
z
" style="fill: none"/>
  </g>
  <g id="axes_1">
   <g id="patch_2">
    <path d="M 7.2 326.88 
L 528.48 326.88 
L 528.48 24.597656 
L 7.2 24.597656 
L 7.2 326.88 
z
" style="fill: none"/>
   </g>
   <g id="matplotlib.axis_1"/>
   <g id="matplotlib.axis_2"/>
   <g id="QuadContourSet_1">
    <path d="M 7.2 103.221398 
L 25.175172 106.26924 
L 35.299405 107.985889 
L 43.150345 109.317082 
L 61.125517 112.364925 
L 79.10069 115.412767 
L 96.773953 118.409418 
L 97.075862 118.460609 
L 115.051034 121.508452 
L 133.026207 124.556294 
L 151.001379 127.604136 
L 158.248501 128.832947 
L 168.976552 130.651979 
L 186.951724 133.699821 
L 204.926897 136.747664 
L 219.72305 139.256476 
L 222.902069 139.795506 
L 240.877241 142.843348 
L 258.852414 145.891191 
L 276.827586 148.939033 
L 281.197598 149.680005 
L 294.802759 151.986875 
L 312.777931 155.034718 
L 330.753103 158.08256 
L 342.672146 160.103534 
L 348.728276 161.130402 
L 366.703448 164.178245 
L 384.678621 167.226087 
L 402.653793 170.27393 
L 404.146695 170.527064 
L 420.628966 173.321772 
L 438.604138 176.369614 
L 456.57931 179.417457 
L 465.621243 180.950593 
L 474.554483 182.465299 
L 492.529655 185.513141 
L 510.504828 188.560984 
L 527.095791 191.374122 
L 528.48 191.608826 
" clip-path="url(#p9bcbfb6314)" style="fill: none; stroke-dasharray: 5.55,2.4; stroke-dashoffset: 0; stroke: #7f8c8d; stroke-width: 1.5"/>
    <path d="M 7.2 135.62685 
L 25.175172 138.674693 
L 28.60634 139.256476 
L 43.150345 141.722535 
L 61.125517 144.770378 
L 79.10069 147.81822 
L 90.080889 149.680005 
L 97.075862 150.866062 
L 115.051034 153.913905 
L 133.026207 156.961747 
L 151.001379 160.009589 
L 151.555437 160.103534 
L 168.976552 163.057432 
L 186.951724 166.105274 
L 204.926897 169.153116 
L 213.029985 170.527064 
L 222.902069 172.200959 
L 240.877241 175.248801 
L 258.852414 178.296643 
L 274.504534 180.950593 
L 276.827586 181.344486 
L 294.802759 184.392328 
L 312.777931 187.440171 
L 330.753103 190.488013 
L 335.979082 191.374122 
L 348.728276 193.535855 
L 366.703448 196.583698 
L 384.678621 199.63154 
L 397.45363 201.797651 
L 402.653793 202.679382 
L 420.628966 205.727225 
L 438.604138 208.775067 
L 456.57931 211.822909 
L 458.928179 212.22118 
L 474.554483 214.870752 
L 492.529655 217.918594 
L 510.504828 220.966437 
L 520.402727 222.644709 
L 528.48 224.014279 
" clip-path="url(#p9bcbfb6314)" style="fill: none; stroke: #8b1538; stroke-width: 2.6"/>
    <path d="M 7.2 168.032303 
L 21.913276 170.527064 
L 25.175172 171.080146 
L 43.150345 174.127988 
L 61.125517 177.17583 
L 79.10069 180.223673 
L 83.387824 180.950593 
L 97.075862 183.271515 
L 115.051034 186.319357 
L 133.026207 189.3672 
L 144.862373 191.374122 
L 151.001379 192.415042 
L 168.976552 195.462885 
L 186.951724 198.510727 
L 204.926897 201.558569 
L 206.336921 201.797651 
L 222.902069 204.606412 
L 240.877241 207.654254 
L 258.852414 210.702096 
L 267.811469 212.22118 
L 276.827586 213.749939 
L 294.802759 216.797781 
L 312.777931 219.845623 
L 329.286018 222.644709 
L 330.753103 222.893466 
L 348.728276 225.941308 
L 366.703448 228.989151 
L 384.678621 232.036993 
L 390.760566 233.068238 
L 402.653793 235.084835 
L 420.628966 238.132678 
L 438.604138 241.18052 
L 452.235114 243.491767 
L 456.57931 244.228362 
L 474.554483 247.276205 
L 492.529655 250.324047 
L 510.504828 253.371889 
L 513.709663 253.915296 
L 528.48 256.419732 
" clip-path="url(#p9bcbfb6314)" style="fill: none; stroke-dasharray: 5.55,2.4; stroke-dashoffset: 0; stroke: #7f8c8d; stroke-width: 1.5"/>
   </g>
   <g id="patch_3">
    <path d="M 7.2 326.88 
L 7.2 24.597656 
" style="fill: none; stroke: #c9ced3; stroke-width: 1.1; stroke-linejoin: miter; stroke-linecap: square"/>
   </g>
   <g id="patch_4">
    <path d="M 7.2 326.88 
L 528.48 326.88 
" style="fill: none; stroke: #c9ced3; stroke-width: 1.1; stroke-linejoin: miter; stroke-linecap: square"/>
   </g>
   <g id="PathCollection_1">
    <defs>
     <path id="C0_0_2922123307" d="M 0 3.24037 
C 0.859356 3.24037 1.683631 2.898944 2.291288 2.291288 
C 2.898944 1.683631 3.24037 0.859356 3.24037 -0 
C 3.24037 -0.859356 2.898944 -1.683631 2.291288 -2.291288 
C 1.683631 -2.898944 0.859356 -3.24037 0 -3.24037 
C -0.859356 -3.24037 -1.683631 -2.898944 -2.291288 -2.291288 
C -2.898944 -1.683631 -3.24037 -0.859356 -3.24037 0 
C -3.24037 0.859356 -2.898944 1.683631 -2.291288 2.291288 
C -1.683631 2.898944 -0.859356 3.24037 0 3.24037 
z
"/>
    </defs>
    <g clip-path="url(#p9bcbfb6314)">
     <use xlink:href="#C0_0_2922123307" x="400.292651" y="136.021585" style="fill: #3498db; stroke: #ffffff"/>
    </g>
    <g clip-path="url(#p9bcbfb6314)">
     <use xlink:href="#C0_0_2922123307" x="356.556999" y="133.323851" style="fill: #3498db; stroke: #ffffff"/>
    </g>
    <g clip-path="url(#p9bcbfb6314)">
     <use xlink:href="#C0_0_2922123307" x="231.274487" y="234.518255" style="fill: #8b1538; stroke: #ffffff"/>
    </g>
    <g clip-path="url(#p9bcbfb6314)">
     <use xlink:href="#C0_0_2922123307" x="234.759223" y="253.002718" style="fill: #8b1538; stroke: #ffffff"/>
    </g>
    <g clip-path="url(#p9bcbfb6314)">
     <use xlink:href="#C0_0_2922123307" x="368.036984" y="90.722176" style="fill: #3498db; stroke: #ffffff"/>
    </g>
    <g clip-path="url(#p9bcbfb6314)">
     <use xlink:href="#C0_0_2922123307" x="357.539571" y="136.003152" style="fill: #3498db; stroke: #ffffff"/>
    </g>
    <g clip-path="url(#p9bcbfb6314)">
     <use xlink:href="#C0_0_2922123307" x="423.524827" y="124.409735" style="fill: #3498db; stroke: #ffffff"/>
    </g>
    <g clip-path="url(#p9bcbfb6314)">
     <use xlink:href="#C0_0_2922123307" x="215.300884" y="108.014498" style="fill: #3498db; stroke: #ffffff"/>
    </g>
    <g clip-path="url(#p9bcbfb6314)">
     <use xlink:href="#C0_0_2922123307" x="419.395177" y="93.382042" style="fill: #3498db; stroke: #ffffff"/>
    </g>
    <g clip-path="url(#p9bcbfb6314)">
     <use xlink:href="#C0_0_2922123307" x="208.489565" y="285.19153" style="fill: #8b1538; stroke: #ffffff"/>
    </g>
    <g clip-path="url(#p9bcbfb6314)">
     <use xlink:href="#C0_0_2922123307" x="331.024591" y="115.202798" style="fill: #3498db; stroke: #ffffff"/>
    </g>
    <g clip-path="url(#p9bcbfb6314)">
     <use xlink:href="#C0_0_2922123307" x="276.958495" y="254.650234" style="fill: #8b1538; stroke: #ffffff"/>
    </g>
    <g clip-path="url(#p9bcbfb6314)">
     <use xlink:href="#C0_0_2922123307" x="194.795999" y="231.845341" style="fill: #8b1538; stroke: #ffffff"/>
    </g>
    <g clip-path="url(#p9bcbfb6314)">
     <use xlink:href="#C0_0_2922123307" x="357.696663" y="140.288958" style="fill: #3498db; stroke: #ffffff"/>
    </g>
    <g clip-path="url(#p9bcbfb6314)">
     <use xlink:href="#C0_0_2922123307" x="206.755384" y="261.778157" style="fill: #8b1538; stroke: #ffffff"/>
    </g>
    <g clip-path="url(#p9bcbfb6314)">
     <use xlink:href="#C0_0_2922123307" x="323.029519" y="98.229427" style="fill: #3498db; stroke: #ffffff"/>
    </g>
    <g clip-path="url(#p9bcbfb6314)">
     <use xlink:href="#C0_0_2922123307" x="292.509208" y="277.917643" style="fill: #8b1538; stroke: #ffffff"/>
    </g>
    <g clip-path="url(#p9bcbfb6314)">
     <use xlink:href="#C0_0_2922123307" x="312.291632" y="101.972305" style="fill: #3498db; stroke: #ffffff"/>
    </g>
    <g clip-path="url(#p9bcbfb6314)">
     <use xlink:href="#C0_0_2922123307" x="378.550194" y="144.682249" style="fill: #3498db; stroke: #ffffff"/>
    </g>
    <g clip-path="url(#p9bcbfb6314)">
     <use xlink:href="#C0_0_2922123307" x="224.48792" y="267.836779" style="fill: #8b1538; stroke: #ffffff"/>
    </g>
    <g clip-path="url(#p9bcbfb6314)">
     <use xlink:href="#C0_0_2922123307" x="230.576134" y="266.212192" style="fill: #8b1538; stroke: #ffffff"/>
    </g>
    <g clip-path="url(#p9bcbfb6314)">
     <use xlink:href="#C0_0_2922123307" x="262.810249" y="264.137205" style="fill: #8b1538; stroke: #ffffff"/>
    </g>
    <g clip-path="url(#p9bcbfb6314)">
     <use xlink:href="#C0_0_2922123307" x="324.058578" y="92.999019" style="fill: #3498db; stroke: #ffffff"/>
    </g>
    <g clip-path="url(#p9bcbfb6314)">
     <use xlink:href="#C0_0_2922123307" x="352.829651" y="83.579597" style="fill: #3498db; stroke: #ffffff"/>
    </g>
    <g clip-path="url(#p9bcbfb6314)">
     <use xlink:href="#C0_0_2922123307" x="155.450804" y="259.857603" style="fill: #8b1538; stroke: #ffffff"/>
    </g>
    <g clip-path="url(#p9bcbfb6314)">
     <use xlink:href="#C0_0_2922123307" x="195.731947" y="87.936129" style="fill: #3498db; stroke: #ffffff"/>
    </g>
    <g clip-path="url(#p9bcbfb6314)">
     <use xlink:href="#C0_0_2922123307" x="243.757895" y="259.995369" style="fill: #8b1538; stroke: #ffffff"/>
    </g>
    <g clip-path="url(#p9bcbfb6314)">
     <use xlink:href="#C0_0_2922123307" x="326.025678" y="149.901005" style="fill: #3498db; stroke: #ffffff"/>
    </g>
    <g clip-path="url(#p9bcbfb6314)">
     <use xlink:href="#C0_0_2922123307" x="267.557795" y="274.585455" style="fill: #8b1538; stroke: #ffffff"/>
    </g>
    <g clip-path="url(#p9bcbfb6314)">
     <use xlink:href="#C0_0_2922123307" x="266.133148" y="248.719313" style="fill: #8b1538; stroke: #ffffff"/>
    </g>
    <g clip-path="url(#p9bcbfb6314)">
     <use xlink:href="#C0_0_2922123307" x="300.636733" y="152.976092" style="fill: #3498db; stroke: #ffffff"/>
    </g>
    <g clip-path="url(#p9bcbfb6314)">
     <use xlink:href="#C0_0_2922123307" x="362.191306" y="87.214522" style="fill: #3498db; stroke: #ffffff"/>
    </g>
    <g clip-path="url(#p9bcbfb6314)">
     <use xlink:href="#C0_0_2922123307" x="352.540341" y="130.205878" style="fill: #3498db; stroke: #ffffff"/>
    </g>
    <g clip-path="url(#p9bcbfb6314)">
     <use xlink:href="#C0_0_2922123307" x="143.721638" y="235.65263" style="fill: #8b1538; stroke: #ffffff"/>
    </g>
    <g clip-path="url(#p9bcbfb6314)">
     <use xlink:href="#C0_0_2922123307" x="352.610897" y="63.514249" style="fill: #3498db; stroke: #ffffff"/>
    </g>
    <g clip-path="url(#p9bcbfb6314)">
     <use xlink:href="#C0_0_2922123307" x="366.277756" y="237.208516" style="fill: #8b1538; stroke: #ffffff"/>
    </g>
    <g clip-path="url(#p9bcbfb6314)">
     <use xlink:href="#C0_0_2922123307" x="258.134012" y="125.325913" style="fill: #3498db; stroke: #ffffff"/>
    </g>
    <g clip-path="url(#p9bcbfb6314)">
     <use xlink:href="#C0_0_2922123307" x="345.04805" y="137.150987" style="fill: #3498db; stroke: #ffffff"/>
    </g>
    <g clip-path="url(#p9bcbfb6314)">
     <use xlink:href="#C0_0_2922123307" x="478.290752" y="96.393107" style="fill: #3498db; stroke: #ffffff"/>
    </g>
    <g clip-path="url(#p9bcbfb6314)">
     <use xlink:href="#C0_0_2922123307" x="297.897775" y="277.680921" style="fill: #8b1538; stroke: #ffffff"/>
    </g>
    <g clip-path="url(#p9bcbfb6314)">
     <use xlink:href="#C0_0_2922123307" x="309.387174" y="276.141859" style="fill: #8b1538; stroke: #ffffff"/>
    </g>
    <g clip-path="url(#p9bcbfb6314)">
     <use xlink:href="#C0_0_2922123307" x="206.165104" y="259.157669" style="fill: #8b1538; stroke: #ffffff"/>
    </g>
    <g clip-path="url(#p9bcbfb6314)">
     <use xlink:href="#C0_0_2922123307" x="195.730924" y="270.401243" style="fill: #8b1538; stroke: #ffffff"/>
    </g>
    <g clip-path="url(#p9bcbfb6314)">
     <use xlink:href="#C0_0_2922123307" x="306.994875" y="49.284359" style="fill: #3498db; stroke: #ffffff"/>
    </g>
    <g clip-path="url(#p9bcbfb6314)">
     <use xlink:href="#C0_0_2922123307" x="337.225428" y="116.948377" style="fill: #3498db; stroke: #ffffff"/>
    </g>
    <g clip-path="url(#p9bcbfb6314)">
     <use xlink:href="#C0_0_2922123307" x="307.322699" y="106.389316" style="fill: #3498db; stroke: #ffffff"/>
    </g>
    <g clip-path="url(#p9bcbfb6314)">
     <use xlink:href="#C0_0_2922123307" x="390.254218" y="264.566902" style="fill: #8b1538; stroke: #ffffff"/>
    </g>
    <g clip-path="url(#p9bcbfb6314)">
     <use xlink:href="#C0_0_2922123307" x="342.755229" y="83.010989" style="fill: #3498db; stroke: #ffffff"/>
    </g>
    <g clip-path="url(#p9bcbfb6314)">
     <use xlink:href="#C0_0_2922123307" x="336.765631" y="226.197007" style="fill: #8b1538; stroke: #ffffff"/>
    </g>
    <g clip-path="url(#p9bcbfb6314)">
     <use xlink:href="#C0_0_2922123307" x="296.635911" y="268.22126" style="fill: #8b1538; stroke: #ffffff"/>
    </g>
    <g clip-path="url(#p9bcbfb6314)">
     <use xlink:href="#C0_0_2922123307" x="257.829037" y="250.78579" style="fill: #8b1538; stroke: #ffffff"/>
    </g>
    <g clip-path="url(#p9bcbfb6314)">
     <use xlink:href="#C0_0_2922123307" x="215.586799" y="135.39446" style="fill: #3498db; stroke: #ffffff"/>
    </g>
    <g clip-path="url(#p9bcbfb6314)">
     <use xlink:href="#C0_0_2922123307" x="236.539302" y="259.913459" style="fill: #8b1538; stroke: #ffffff"/>
    </g>
    <g clip-path="url(#p9bcbfb6314)">
     <use xlink:href="#C0_0_2922123307" x="267.46519" y="266.785001" style="fill: #8b1538; stroke: #ffffff"/>
    </g>
    <g clip-path="url(#p9bcbfb6314)">
     <use xlink:href="#C0_0_2922123307" x="385.536645" y="100.735926" style="fill: #3498db; stroke: #ffffff"/>
    </g>
    <g clip-path="url(#p9bcbfb6314)">
     <use xlink:href="#C0_0_2922123307" x="395.24569" y="153.85158" style="fill: #3498db; stroke: #ffffff"/>
    </g>
    <g clip-path="url(#p9bcbfb6314)">
     <use xlink:href="#C0_0_2922123307" x="414.124327" y="65.227046" style="fill: #3498db; stroke: #ffffff"/>
    </g>
    <g clip-path="url(#p9bcbfb6314)">
     <use xlink:href="#C0_0_2922123307" x="57.389248" y="241.561836" style="fill: #8b1538; stroke: #ffffff"/>
    </g>
    <g clip-path="url(#p9bcbfb6314)">
     <use xlink:href="#C0_0_2922123307" x="302.024781" y="140.801432" style="fill: #3498db; stroke: #ffffff"/>
    </g>
    <g clip-path="url(#p9bcbfb6314)">
     <use xlink:href="#C0_0_2922123307" x="270.707498" y="284.176107" style="fill: #8b1538; stroke: #ffffff"/>
    </g>
    <g clip-path="url(#p9bcbfb6314)">
     <use xlink:href="#C0_0_2922123307" x="269.550026" y="300.392924" style="fill: #8b1538; stroke: #ffffff"/>
    </g>
    <g clip-path="url(#p9bcbfb6314)">
     <use xlink:href="#C0_0_2922123307" x="304.328007" y="269.457468" style="fill: #8b1538; stroke: #ffffff"/>
    </g>
    <g clip-path="url(#p9bcbfb6314)">
     <use xlink:href="#C0_0_2922123307" x="338.443956" y="245.611613" style="fill: #8b1538; stroke: #ffffff"/>
    </g>
    <g clip-path="url(#p9bcbfb6314)">
     <use xlink:href="#C0_0_2922123307" x="339.157745" y="109.228664" style="fill: #3498db; stroke: #ffffff"/>
    </g>
    <g clip-path="url(#p9bcbfb6314)">
     <use xlink:href="#C0_0_2922123307" x="330.414691" y="152.08503" style="fill: #3498db; stroke: #ffffff"/>
    </g>
    <g clip-path="url(#p9bcbfb6314)">
     <use xlink:href="#C0_0_2922123307" x="380.349636" y="87.12561" style="fill: #3498db; stroke: #ffffff"/>
    </g>
    <g clip-path="url(#p9bcbfb6314)">
     <use xlink:href="#C0_0_2922123307" x="280.739773" y="302.193298" style="fill: #8b1538; stroke: #ffffff"/>
    </g>
    <g clip-path="url(#p9bcbfb6314)">
     <use xlink:href="#C0_0_2922123307" x="263.966447" y="262.021477" style="fill: #8b1538; stroke: #ffffff"/>
    </g>
    <g clip-path="url(#p9bcbfb6314)">
     <use xlink:href="#C0_0_2922123307" x="314.479152" y="79.124582" style="fill: #3498db; stroke: #ffffff"/>
    </g>
    <g clip-path="url(#p9bcbfb6314)">
     <use xlink:href="#C0_0_2922123307" x="415.988605" y="128.905745" style="fill: #3498db; stroke: #ffffff"/>
    </g>
    <g clip-path="url(#p9bcbfb6314)">
     <use xlink:href="#C0_0_2922123307" x="409.487825" y="126.846481" style="fill: #3498db; stroke: #ffffff"/>
    </g>
    <g clip-path="url(#p9bcbfb6314)">
     <use xlink:href="#C0_0_2922123307" x="207.671304" y="251.521744" style="fill: #8b1538; stroke: #ffffff"/>
    </g>
    <g clip-path="url(#p9bcbfb6314)">
     <use xlink:href="#C0_0_2922123307" x="234.375057" y="219.047418" style="fill: #8b1538; stroke: #ffffff"/>
    </g>
    <g clip-path="url(#p9bcbfb6314)">
     <use xlink:href="#C0_0_2922123307" x="339.340664" y="113.332056" style="fill: #3498db; stroke: #ffffff"/>
    </g>
    <g clip-path="url(#p9bcbfb6314)">
     <use xlink:href="#C0_0_2922123307" x="289.951788" y="86.78588" style="fill: #3498db; stroke: #ffffff"/>
    </g>
    <g clip-path="url(#p9bcbfb6314)">
     <use xlink:href="#C0_0_2922123307" x="289.991271" y="272.13113" style="fill: #8b1538; stroke: #ffffff"/>
    </g>
    <g clip-path="url(#p9bcbfb6314)">
     <use xlink:href="#C0_0_2922123307" x="297.406403" y="268.886039" style="fill: #8b1538; stroke: #ffffff"/>
    </g>
    <g clip-path="url(#p9bcbfb6314)">
     <use xlink:href="#C0_0_2922123307" x="286.096643" y="264.462075" style="fill: #8b1538; stroke: #ffffff"/>
    </g>
    <g clip-path="url(#p9bcbfb6314)">
     <use xlink:href="#C0_0_2922123307" x="260.039364" y="210.903386" style="fill: #8b1538; stroke: #ffffff"/>
    </g>
    <g clip-path="url(#p9bcbfb6314)">
     <use xlink:href="#C0_0_2922123307" x="288.077687" y="226.993844" style="fill: #8b1538; stroke: #ffffff"/>
    </g>
   </g>
   <g id="text_1">
    <!-- SVM: el hiperplano que maximiza el margen -->
    <g style="fill: #2c3e50" transform="translate(7.2 18.597656) scale(0.15 -0.15)">
     <defs>
      <path id="DejaVuSans-Bold-53" d="M 3834 4519 
L 3834 3531 
Q 3450 3703 3084 3790 
Q 2719 3878 2394 3878 
Q 1963 3878 1756 3759 
Q 1550 3641 1550 3391 
Q 1550 3203 1689 3098 
Q 1828 2994 2194 2919 
L 2706 2816 
Q 3484 2659 3812 2340 
Q 4141 2022 4141 1434 
Q 4141 663 3683 286 
Q 3225 -91 2284 -91 
Q 1841 -91 1394 -6 
Q 947 78 500 244 
L 500 1259 
Q 947 1022 1364 901 
Q 1781 781 2169 781 
Q 2563 781 2772 912 
Q 2981 1044 2981 1288 
Q 2981 1506 2839 1625 
Q 2697 1744 2272 1838 
L 1806 1941 
Q 1106 2091 782 2419 
Q 459 2747 459 3303 
Q 459 4000 909 4375 
Q 1359 4750 2203 4750 
Q 2588 4750 2994 4692 
Q 3400 4634 3834 4519 
z
" transform="scale(0.015625)"/>
      <path id="DejaVuSans-Bold-56" d="M 31 4666 
L 1241 4666 
L 2478 1222 
L 3713 4666 
L 4922 4666 
L 3194 0 
L 1759 0 
L 31 4666 
z
" transform="scale(0.015625)"/>
      <path id="DejaVuSans-Bold-4d" d="M 588 4666 
L 2119 4666 
L 3181 2169 
L 4250 4666 
L 5778 4666 
L 5778 0 
L 4641 0 
L 4641 3413 
L 3566 897 
L 2803 897 
L 1728 3413 
L 1728 0 
L 588 0 
L 588 4666 
z
" transform="scale(0.015625)"/>
      <path id="DejaVuSans-Bold-3a" d="M 716 3500 
L 1844 3500 
L 1844 2291 
L 716 2291 
L 716 3500 
z
M 716 1209 
L 1844 1209 
L 1844 0 
L 716 0 
L 716 1209 
z
" transform="scale(0.015625)"/>
      <path id="DejaVuSans-Bold-20" transform="scale(0.015625)"/>
      <path id="DejaVuSans-Bold-65" d="M 4031 1759 
L 4031 1441 
L 1416 1441 
Q 1456 1047 1700 850 
Q 1944 653 2381 653 
Q 2734 653 3104 758 
Q 3475 863 3866 1075 
L 3866 213 
Q 3469 63 3072 -14 
Q 2675 -91 2278 -91 
Q 1328 -91 801 392 
Q 275 875 275 1747 
Q 275 2603 792 3093 
Q 1309 3584 2216 3584 
Q 3041 3584 3536 3087 
Q 4031 2591 4031 1759 
z
M 2881 2131 
Q 2881 2450 2695 2645 
Q 2509 2841 2209 2841 
Q 1884 2841 1681 2658 
Q 1478 2475 1428 2131 
L 2881 2131 
z
" transform="scale(0.015625)"/>
      <path id="DejaVuSans-Bold-6c" d="M 538 4863 
L 1656 4863 
L 1656 0 
L 538 0 
L 538 4863 
z
" transform="scale(0.015625)"/>
      <path id="DejaVuSans-Bold-68" d="M 4056 2131 
L 4056 0 
L 2931 0 
L 2931 347 
L 2931 1625 
Q 2931 2084 2911 2256 
Q 2891 2428 2841 2509 
Q 2775 2619 2662 2680 
Q 2550 2741 2406 2741 
Q 2056 2741 1856 2470 
Q 1656 2200 1656 1722 
L 1656 0 
L 538 0 
L 538 4863 
L 1656 4863 
L 1656 2988 
Q 1909 3294 2193 3439 
Q 2478 3584 2822 3584 
Q 3428 3584 3742 3212 
Q 4056 2841 4056 2131 
z
" transform="scale(0.015625)"/>
      <path id="DejaVuSans-Bold-69" d="M 538 3500 
L 1656 3500 
L 1656 0 
L 538 0 
L 538 3500 
z
M 538 4863 
L 1656 4863 
L 1656 3950 
L 538 3950 
L 538 4863 
z
" transform="scale(0.015625)"/>
      <path id="DejaVuSans-Bold-70" d="M 1656 506 
L 1656 -1331 
L 538 -1331 
L 538 3500 
L 1656 3500 
L 1656 2988 
Q 1888 3294 2169 3439 
Q 2450 3584 2816 3584 
Q 3463 3584 3878 3070 
Q 4294 2556 4294 1747 
Q 4294 938 3878 423 
Q 3463 -91 2816 -91 
Q 2450 -91 2169 54 
Q 1888 200 1656 506 
z
M 2400 2772 
Q 2041 2772 1848 2508 
Q 1656 2244 1656 1747 
Q 1656 1250 1848 986 
Q 2041 722 2400 722 
Q 2759 722 2948 984 
Q 3138 1247 3138 1747 
Q 3138 2247 2948 2509 
Q 2759 2772 2400 2772 
z
" transform="scale(0.015625)"/>
      <path id="DejaVuSans-Bold-72" d="M 3138 2547 
Q 2991 2616 2845 2648 
Q 2700 2681 2553 2681 
Q 2122 2681 1889 2404 
Q 1656 2128 1656 1613 
L 1656 0 
L 538 0 
L 538 3500 
L 1656 3500 
L 1656 2925 
Q 1872 3269 2151 3426 
Q 2431 3584 2822 3584 
Q 2878 3584 2943 3579 
Q 3009 3575 3134 3559 
L 3138 2547 
z
" transform="scale(0.015625)"/>
      <path id="DejaVuSans-Bold-61" d="M 2106 1575 
Q 1756 1575 1579 1456 
Q 1403 1338 1403 1106 
Q 1403 894 1545 773 
Q 1688 653 1941 653 
Q 2256 653 2472 879 
Q 2688 1106 2688 1447 
L 2688 1575 
L 2106 1575 
z
M 3816 1997 
L 3816 0 
L 2688 0 
L 2688 519 
Q 2463 200 2181 54 
Q 1900 -91 1497 -91 
Q 953 -91 614 226 
Q 275 544 275 1050 
Q 275 1666 698 1953 
Q 1122 2241 2028 2241 
L 2688 2241 
L 2688 2328 
Q 2688 2594 2478 2717 
Q 2269 2841 1825 2841 
Q 1466 2841 1156 2769 
Q 847 2697 581 2553 
L 581 3406 
Q 941 3494 1303 3539 
Q 1666 3584 2028 3584 
Q 2975 3584 3395 3211 
Q 3816 2838 3816 1997 
z
" transform="scale(0.015625)"/>
      <path id="DejaVuSans-Bold-6e" d="M 4056 2131 
L 4056 0 
L 2931 0 
L 2931 347 
L 2931 1631 
Q 2931 2084 2911 2256 
Q 2891 2428 2841 2509 
Q 2775 2619 2662 2680 
Q 2550 2741 2406 2741 
Q 2056 2741 1856 2470 
Q 1656 2200 1656 1722 
L 1656 0 
L 538 0 
L 538 3500 
L 1656 3500 
L 1656 2988 
Q 1909 3294 2193 3439 
Q 2478 3584 2822 3584 
Q 3428 3584 3742 3212 
Q 4056 2841 4056 2131 
z
" transform="scale(0.015625)"/>
      <path id="DejaVuSans-Bold-6f" d="M 2203 2784 
Q 1831 2784 1636 2517 
Q 1441 2250 1441 1747 
Q 1441 1244 1636 976 
Q 1831 709 2203 709 
Q 2569 709 2762 976 
Q 2956 1244 2956 1747 
Q 2956 2250 2762 2517 
Q 2569 2784 2203 2784 
z
M 2203 3584 
Q 3106 3584 3614 3096 
Q 4122 2609 4122 1747 
Q 4122 884 3614 396 
Q 3106 -91 2203 -91 
Q 1297 -91 786 396 
Q 275 884 275 1747 
Q 275 2609 786 3096 
Q 1297 3584 2203 3584 
z
" transform="scale(0.015625)"/>
      <path id="DejaVuSans-Bold-71" d="M 2181 2772 
Q 1825 2772 1636 2509 
Q 1447 2247 1447 1747 
Q 1447 1247 1636 984 
Q 1825 722 2181 722 
Q 2541 722 2730 984 
Q 2919 1247 2919 1747 
Q 2919 2247 2730 2509 
Q 2541 2772 2181 2772 
z
M 2919 506 
Q 2688 197 2409 53 
Q 2131 -91 1766 -91 
Q 1119 -91 703 423 
Q 288 938 288 1747 
Q 288 2556 703 3067 
Q 1119 3578 1766 3578 
Q 2131 3578 2409 3434 
Q 2688 3291 2919 2981 
L 2919 3500 
L 4044 3500 
L 4044 -1331 
L 2919 -1331 
L 2919 506 
z
" transform="scale(0.015625)"/>
      <path id="DejaVuSans-Bold-75" d="M 500 1363 
L 500 3500 
L 1625 3500 
L 1625 3150 
Q 1625 2866 1622 2436 
Q 1619 2006 1619 1863 
Q 1619 1441 1641 1255 
Q 1663 1069 1716 984 
Q 1784 875 1895 815 
Q 2006 756 2150 756 
Q 2500 756 2700 1025 
Q 2900 1294 2900 1772 
L 2900 3500 
L 4019 3500 
L 4019 0 
L 2900 0 
L 2900 506 
Q 2647 200 2364 54 
Q 2081 -91 1741 -91 
Q 1134 -91 817 281 
Q 500 653 500 1363 
z
" transform="scale(0.015625)"/>
      <path id="DejaVuSans-Bold-6d" d="M 3781 2919 
Q 3994 3244 4286 3414 
Q 4578 3584 4928 3584 
Q 5531 3584 5847 3212 
Q 6163 2841 6163 2131 
L 6163 0 
L 5038 0 
L 5038 1825 
Q 5041 1866 5042 1909 
Q 5044 1953 5044 2034 
Q 5044 2406 4934 2573 
Q 4825 2741 4581 2741 
Q 4263 2741 4089 2478 
Q 3916 2216 3909 1719 
L 3909 0 
L 2784 0 
L 2784 1825 
Q 2784 2406 2684 2573 
Q 2584 2741 2328 2741 
Q 2006 2741 1831 2477 
Q 1656 2213 1656 1722 
L 1656 0 
L 531 0 
L 531 3500 
L 1656 3500 
L 1656 2988 
Q 1863 3284 2130 3434 
Q 2397 3584 2719 3584 
Q 3081 3584 3359 3409 
Q 3638 3234 3781 2919 
z
" transform="scale(0.015625)"/>
      <path id="DejaVuSans-Bold-78" d="M 1422 1791 
L 159 3500 
L 1344 3500 
L 2059 2463 
L 2784 3500 
L 3969 3500 
L 2706 1797 
L 4031 0 
L 2847 0 
L 2059 1106 
L 1281 0 
L 97 0 
L 1422 1791 
z
" transform="scale(0.015625)"/>
      <path id="DejaVuSans-Bold-7a" d="M 366 3500 
L 3419 3500 
L 3419 2719 
L 1575 800 
L 3419 800 
L 3419 0 
L 288 0 
L 288 781 
L 2131 2700 
L 366 2700 
L 366 3500 
z
" transform="scale(0.015625)"/>
      <path id="DejaVuSans-Bold-67" d="M 2919 594 
Q 2688 288 2409 144 
Q 2131 0 1766 0 
Q 1125 0 706 504 
Q 288 1009 288 1791 
Q 288 2575 706 3076 
Q 1125 3578 1766 3578 
Q 2131 3578 2409 3434 
Q 2688 3291 2919 2981 
L 2919 3500 
L 4044 3500 
L 4044 353 
Q 4044 -491 3511 -936 
Q 2978 -1381 1966 -1381 
Q 1638 -1381 1331 -1331 
Q 1025 -1281 716 -1178 
L 716 -306 
Q 1009 -475 1290 -558 
Q 1572 -641 1856 -641 
Q 2406 -641 2662 -400 
Q 2919 -159 2919 353 
L 2919 594 
z
M 2181 2772 
Q 1834 2772 1640 2515 
Q 1447 2259 1447 1791 
Q 1447 1309 1634 1061 
Q 1822 813 2181 813 
Q 2531 813 2725 1069 
Q 2919 1325 2919 1791 
Q 2919 2259 2725 2515 
Q 2531 2772 2181 2772 
z
" transform="scale(0.015625)"/>
     </defs>
     <use xlink:href="#DejaVuSans-Bold-53"/>
     <use xlink:href="#DejaVuSans-Bold-56" transform="translate(72.021484 0)"/>
     <use xlink:href="#DejaVuSans-Bold-4d" transform="translate(149.414062 0)"/>
     <use xlink:href="#DejaVuSans-Bold-3a" transform="translate(248.925781 0)"/>
     <use xlink:href="#DejaVuSans-Bold-20" transform="translate(288.916016 0)"/>
     <use xlink:href="#DejaVuSans-Bold-65" transform="translate(323.730469 0)"/>
     <use xlink:href="#DejaVuSans-Bold-6c" transform="translate(391.552734 0)"/>
     <use xlink:href="#DejaVuSans-Bold-20" transform="translate(425.830078 0)"/>
     <use xlink:href="#DejaVuSans-Bold-68" transform="translate(460.644531 0)"/>
     <use xlink:href="#DejaVuSans-Bold-69" transform="translate(531.835938 0)"/>
     <use xlink:href="#DejaVuSans-Bold-70" transform="translate(566.113281 0)"/>
     <use xlink:href="#DejaVuSans-Bold-65" transform="translate(637.695312 0)"/>
     <use xlink:href="#DejaVuSans-Bold-72" transform="translate(705.517578 0)"/>
     <use xlink:href="#DejaVuSans-Bold-70" transform="translate(754.833984 0)"/>
     <use xlink:href="#DejaVuSans-Bold-6c" transform="translate(826.416016 0)"/>
     <use xlink:href="#DejaVuSans-Bold-61" transform="translate(860.693359 0)"/>
     <use xlink:href="#DejaVuSans-Bold-6e" transform="translate(928.173828 0)"/>
     <use xlink:href="#DejaVuSans-Bold-6f" transform="translate(999.365234 0)"/>
     <use xlink:href="#DejaVuSans-Bold-20" transform="translate(1068.066406 0)"/>
     <use xlink:href="#DejaVuSans-Bold-71" transform="translate(1102.880859 0)"/>
     <use xlink:href="#DejaVuSans-Bold-75" transform="translate(1174.462891 0)"/>
     <use xlink:href="#DejaVuSans-Bold-65" transform="translate(1245.654297 0)"/>
     <use xlink:href="#DejaVuSans-Bold-20" transform="translate(1313.476562 0)"/>
     <use xlink:href="#DejaVuSans-Bold-6d" transform="translate(1348.291016 0)"/>
     <use xlink:href="#DejaVuSans-Bold-61" transform="translate(1452.490234 0)"/>
     <use xlink:href="#DejaVuSans-Bold-78" transform="translate(1519.970703 0)"/>
     <use xlink:href="#DejaVuSans-Bold-69" transform="translate(1584.472656 0)"/>
     <use xlink:href="#DejaVuSans-Bold-6d" transform="translate(1618.75 0)"/>
     <use xlink:href="#DejaVuSans-Bold-69" transform="translate(1722.949219 0)"/>
     <use xlink:href="#DejaVuSans-Bold-7a" transform="translate(1757.226562 0)"/>
     <use xlink:href="#DejaVuSans-Bold-61" transform="translate(1815.429688 0)"/>
     <use xlink:href="#DejaVuSans-Bold-20" transform="translate(1882.910156 0)"/>
     <use xlink:href="#DejaVuSans-Bold-65" transform="translate(1917.724609 0)"/>
     <use xlink:href="#DejaVuSans-Bold-6c" transform="translate(1985.546875 0)"/>
     <use xlink:href="#DejaVuSans-Bold-20" transform="translate(2019.824219 0)"/>
     <use xlink:href="#DejaVuSans-Bold-6d" transform="translate(2054.638672 0)"/>
     <use xlink:href="#DejaVuSans-Bold-61" transform="translate(2158.837891 0)"/>
     <use xlink:href="#DejaVuSans-Bold-72" transform="translate(2226.318359 0)"/>
     <use xlink:href="#DejaVuSans-Bold-67" transform="translate(2275.634766 0)"/>
     <use xlink:href="#DejaVuSans-Bold-65" transform="translate(2347.216797 0)"/>
     <use xlink:href="#DejaVuSans-Bold-6e" transform="translate(2415.039062 0)"/>
    </g>
   </g>
   <g id="PathCollection_2">
    <defs>
     <path id="C1_0_27df6ce5d3" d="M 0 6.519202 
C 1.728913 6.519202 3.387246 5.832298 4.609772 4.609772 
C 5.832298 3.387246 6.519202 1.728913 6.519202 -0 
C 6.519202 -1.728913 5.832298 -3.387246 4.609772 -4.609772 
C 3.387246 -5.832298 1.728913 -6.519202 0 -6.519202 
C -1.728913 -6.519202 -3.387246 -5.832298 -4.609772 -4.609772 
C -5.832298 -3.387246 -6.519202 -1.728913 -6.519202 0 
C -6.519202 1.728913 -5.832298 3.387246 -4.609772 4.609772 
C -3.387246 5.832298 -1.728913 6.519202 0 6.519202 
z
"/>
    </defs>
    <g clip-path="url(#p9bcbfb6314)">
     <use xlink:href="#C1_0_27df6ce5d3" x="300.636733" y="152.976092" style="fill: none; stroke: #2c3e50; stroke-width: 2"/>
    </g>
    <g clip-path="url(#p9bcbfb6314)">
     <use xlink:href="#C1_0_27df6ce5d3" x="260.039364" y="210.903386" style="fill: none; stroke: #2c3e50; stroke-width: 2"/>
    </g>
   </g>
   <g id="legend_1">
    <g id="PathCollection_3">
     <path d="M 30 47.884984 
C 31.728913 47.884984 33.387246 47.198079 34.609772 45.975553 
C 35.832298 44.753028 36.519202 43.094694 36.519202 41.365781 
C 36.519202 39.636869 35.832298 37.978535 34.609772 36.756009 
C 33.387246 35.533483 31.728913 34.846579 30 34.846579 
C 28.271087 34.846579 26.612754 35.533483 25.390228 36.756009 
C 24.167702 37.978535 23.480798 39.636869 23.480798 41.365781 
C 23.480798 43.094694 24.167702 44.753028 25.390228 45.975553 
C 26.612754 47.198079 28.271087 47.884984 30 47.884984 
L 30 47.884984 
z
" style="fill: none; stroke: #2c3e50; stroke-width: 2"/>
    </g>
    <g id="text_2">
     <!-- Vectores de soporte -->
     <g transform="translate(51.6 44.515781) scale(0.12 -0.12)">
      <defs>
       <path id="DejaVuSans-56" d="M 1831 0 
L 50 4666 
L 709 4666 
L 2188 738 
L 3669 4666 
L 4325 4666 
L 2547 0 
L 1831 0 
z
" transform="scale(0.015625)"/>
       <path id="DejaVuSans-65" d="M 3597 1894 
L 3597 1613 
L 953 1613 
Q 991 1019 1311 708 
Q 1631 397 2203 397 
Q 2534 397 2845 478 
Q 3156 559 3463 722 
L 3463 178 
Q 3153 47 2828 -22 
Q 2503 -91 2169 -91 
Q 1331 -91 842 396 
Q 353 884 353 1716 
Q 353 2575 817 3079 
Q 1281 3584 2069 3584 
Q 2775 3584 3186 3129 
Q 3597 2675 3597 1894 
z
M 3022 2063 
Q 3016 2534 2758 2815 
Q 2500 3097 2075 3097 
Q 1594 3097 1305 2825 
Q 1016 2553 972 2059 
L 3022 2063 
z
" transform="scale(0.015625)"/>
       <path id="DejaVuSans-63" d="M 3122 3366 
L 3122 2828 
Q 2878 2963 2633 3030 
Q 2388 3097 2138 3097 
Q 1578 3097 1268 2742 
Q 959 2388 959 1747 
Q 959 1106 1268 751 
Q 1578 397 2138 397 
Q 2388 397 2633 464 
Q 2878 531 3122 666 
L 3122 134 
Q 2881 22 2623 -34 
Q 2366 -91 2075 -91 
Q 1284 -91 818 406 
Q 353 903 353 1747 
Q 353 2603 823 3093 
Q 1294 3584 2113 3584 
Q 2378 3584 2631 3529 
Q 2884 3475 3122 3366 
z
" transform="scale(0.015625)"/>
       <path id="DejaVuSans-74" d="M 1172 4494 
L 1172 3500 
L 2356 3500 
L 2356 3053 
L 1172 3053 
L 1172 1153 
Q 1172 725 1289 603 
Q 1406 481 1766 481 
L 2356 481 
L 2356 0 
L 1766 0 
Q 1100 0 847 248 
Q 594 497 594 1153 
L 594 3053 
L 172 3053 
L 172 3500 
L 594 3500 
L 594 4494 
L 1172 4494 
z
" transform="scale(0.015625)"/>
       <path id="DejaVuSans-6f" d="M 1959 3097 
Q 1497 3097 1228 2736 
Q 959 2375 959 1747 
Q 959 1119 1226 758 
Q 1494 397 1959 397 
Q 2419 397 2687 759 
Q 2956 1122 2956 1747 
Q 2956 2369 2687 2733 
Q 2419 3097 1959 3097 
z
M 1959 3584 
Q 2709 3584 3137 3096 
Q 3566 2609 3566 1747 
Q 3566 888 3137 398 
Q 2709 -91 1959 -91 
Q 1206 -91 779 398 
Q 353 888 353 1747 
Q 353 2609 779 3096 
Q 1206 3584 1959 3584 
z
" transform="scale(0.015625)"/>
       <path id="DejaVuSans-72" d="M 2631 2963 
Q 2534 3019 2420 3045 
Q 2306 3072 2169 3072 
Q 1681 3072 1420 2755 
Q 1159 2438 1159 1844 
L 1159 0 
L 581 0 
L 581 3500 
L 1159 3500 
L 1159 2956 
Q 1341 3275 1631 3429 
Q 1922 3584 2338 3584 
Q 2397 3584 2469 3576 
Q 2541 3569 2628 3553 
L 2631 2963 
z
" transform="scale(0.015625)"/>
       <path id="DejaVuSans-73" d="M 2834 3397 
L 2834 2853 
Q 2591 2978 2328 3040 
Q 2066 3103 1784 3103 
Q 1356 3103 1142 2972 
Q 928 2841 928 2578 
Q 928 2378 1081 2264 
Q 1234 2150 1697 2047 
L 1894 2003 
Q 2506 1872 2764 1633 
Q 3022 1394 3022 966 
Q 3022 478 2636 193 
Q 2250 -91 1575 -91 
Q 1294 -91 989 -36 
Q 684 19 347 128 
L 347 722 
Q 666 556 975 473 
Q 1284 391 1588 391 
Q 1994 391 2212 530 
Q 2431 669 2431 922 
Q 2431 1156 2273 1281 
Q 2116 1406 1581 1522 
L 1381 1569 
Q 847 1681 609 1914 
Q 372 2147 372 2553 
Q 372 3047 722 3315 
Q 1072 3584 1716 3584 
Q 2034 3584 2315 3537 
Q 2597 3491 2834 3397 
z
" transform="scale(0.015625)"/>
       <path id="DejaVuSans-20" transform="scale(0.015625)"/>
       <path id="DejaVuSans-64" d="M 2906 2969 
L 2906 4863 
L 3481 4863 
L 3481 0 
L 2906 0 
L 2906 525 
Q 2725 213 2448 61 
Q 2172 -91 1784 -91 
Q 1150 -91 751 415 
Q 353 922 353 1747 
Q 353 2572 751 3078 
Q 1150 3584 1784 3584 
Q 2172 3584 2448 3432 
Q 2725 3281 2906 2969 
z
M 947 1747 
Q 947 1113 1208 752 
Q 1469 391 1925 391 
Q 2381 391 2643 752 
Q 2906 1113 2906 1747 
Q 2906 2381 2643 2742 
Q 2381 3103 1925 3103 
Q 1469 3103 1208 2742 
Q 947 2381 947 1747 
z
" transform="scale(0.015625)"/>
       <path id="DejaVuSans-70" d="M 1159 525 
L 1159 -1331 
L 581 -1331 
L 581 3500 
L 1159 3500 
L 1159 2969 
Q 1341 3281 1617 3432 
Q 1894 3584 2278 3584 
Q 2916 3584 3314 3078 
Q 3713 2572 3713 1747 
Q 3713 922 3314 415 
Q 2916 -91 2278 -91 
Q 1894 -91 1617 61 
Q 1341 213 1159 525 
z
M 3116 1747 
Q 3116 2381 2855 2742 
Q 2594 3103 2138 3103 
Q 1681 3103 1420 2742 
Q 1159 2381 1159 1747 
Q 1159 1113 1420 752 
Q 1681 391 2138 391 
Q 2594 391 2855 752 
Q 3116 1113 3116 1747 
z
" transform="scale(0.015625)"/>
      </defs>
      <use xlink:href="#DejaVuSans-56"/>
      <use xlink:href="#DejaVuSans-65" transform="translate(60.658203 0)"/>
      <use xlink:href="#DejaVuSans-63" transform="translate(122.181641 0)"/>
      <use xlink:href="#DejaVuSans-74" transform="translate(177.162109 0)"/>
      <use xlink:href="#DejaVuSans-6f" transform="translate(216.371094 0)"/>
      <use xlink:href="#DejaVuSans-72" transform="translate(277.552734 0)"/>
      <use xlink:href="#DejaVuSans-65" transform="translate(316.416016 0)"/>
      <use xlink:href="#DejaVuSans-73" transform="translate(377.939453 0)"/>
      <use xlink:href="#DejaVuSans-20" transform="translate(430.039062 0)"/>
      <use xlink:href="#DejaVuSans-64" transform="translate(461.826172 0)"/>
      <use xlink:href="#DejaVuSans-65" transform="translate(525.302734 0)"/>
      <use xlink:href="#DejaVuSans-20" transform="translate(586.826172 0)"/>
      <use xlink:href="#DejaVuSans-73" transform="translate(618.613281 0)"/>
      <use xlink:href="#DejaVuSans-6f" transform="translate(670.712891 0)"/>
      <use xlink:href="#DejaVuSans-70" transform="translate(731.894531 0)"/>
      <use xlink:href="#DejaVuSans-6f" transform="translate(795.371094 0)"/>
      <use xlink:href="#DejaVuSans-72" transform="translate(856.552734 0)"/>
      <use xlink:href="#DejaVuSans-74" transform="translate(897.666016 0)"/>
      <use xlink:href="#DejaVuSans-65" transform="translate(936.875 0)"/>
     </g>
    </g>
   </g>
  </g>
 </g>
 <defs>
  <clipPath id="p9bcbfb6314">
   <rect x="7.2" y="24.597656" width="521.28" height="302.282344"/>
  </clipPath>
 </defs>
</svg>
