<?xml version="1.0" encoding="utf-8" standalone="no"?>
<!DOCTYPE svg PUBLIC "-//W3C//DTD SVG 1.1//EN"
  "http://www.w3.org/Graphics/SVG/1.1/DTD/svg11.dtd">
<svg xmlns:xlink="http://www.w3.org/1999/xlink" width="664.2pt" height="297pt" viewBox="0 0 664.2 297" xmlns="http://www.w3.org/2000/svg" version="1.1">
 <metadata>
  <rdf:RDF xmlns:dc="http://purl.org/dc/elements/1.1/" xmlns:cc="http://creativecommons.org/ns#" xmlns:rdf="http://www.w3.org/1999/02/22-rdf-syntax-ns#">
   <cc:Work>
    <dc:type rdf:resource="http://purl.org/dc/dcmitype/StillImage"/>
    <dc:date>2026-06-13T07:38:26.723010</dc:date>
    <dc:format>image/svg+xml</dc:format>
    <dc:creator>
     <cc:Agent>
      <dc:title>Matplotlib v3.10.0, https://matplotlib.org/</dc:title>
     </cc:Agent>
    </dc:creator>
   </cc:Work>
  </rdf:RDF>
 </metadata>
 <defs>
  <style type="text/css">*{stroke-linejoin: round; stroke-linecap: butt}</style>
 </defs>
 <g id="figure_1">
  <g id="patch_1">
   <path d="M 0 297 
L 664.2 297 
L 664.2 0 
L 0 0 
L 0 297 
z
" style="fill: none"/>
  </g>
  <g id="axes_1">
   <g id="patch_2">
    <path d="M 50.660469 254.120781 
L 325.35 254.120781 
L 325.35 25.3575 
L 50.660469 25.3575 
L 50.660469 254.120781 
z
" style="fill: none"/>
   </g>
   <g id="matplotlib.axis_1">
    <g id="xtick_1">
     <g id="line2d_1">
      <path d="M 63.146357 254.120781 
L 63.146357 25.3575 
" clip-path="url(#p8e2911c08f)" style="fill: none; stroke: #e9edf1; stroke-width: 0.9; stroke-linecap: square"/>
     </g>
     <g id="line2d_2">
      <defs>
       <path id="m2bfc345d9e" d="M 0 0 
L 0 3.5 
" style="stroke: #000000; stroke-width: 0.8"/>
      </defs>
      <g>
       <use xlink:href="#m2bfc345d9e" x="63.146357" y="254.120781" style="stroke: #000000; stroke-width: 0.8"/>
      </g>
     </g>
     <g id="text_1">
      <!-- 0.0 -->
      <g transform="translate(53.206903 270.618828) scale(0.125 -0.125)">
       <defs>
        <path id="DejaVuSans-30" d="M 2034 4250 
Q 1547 4250 1301 3770 
Q 1056 3291 1056 2328 
Q 1056 1369 1301 889 
Q 1547 409 2034 409 
Q 2525 409 2770 889 
Q 3016 1369 3016 2328 
Q 3016 3291 2770 3770 
Q 2525 4250 2034 4250 
z
M 2034 4750 
Q 2819 4750 3233 4129 
Q 3647 3509 3647 2328 
Q 3647 1150 3233 529 
Q 2819 -91 2034 -91 
Q 1250 -91 836 529 
Q 422 1150 422 2328 
Q 422 3509 836 4129 
Q 1250 4750 2034 4750 
z
" transform="scale(0.015625)"/>
        <path id="DejaVuSans-2e" d="M 684 794 
L 1344 794 
L 1344 0 
L 684 0 
L 684 794 
z
" transform="scale(0.015625)"/>
       </defs>
       <use xlink:href="#DejaVuSans-30"/>
       <use xlink:href="#DejaVuSans-2e" transform="translate(63.623047 0)"/>
       <use xlink:href="#DejaVuSans-30" transform="translate(95.410156 0)"/>
      </g>
     </g>
    </g>
    <g id="xtick_2">
     <g id="line2d_3">
      <path d="M 113.089908 254.120781 
L 113.089908 25.3575 
" clip-path="url(#p8e2911c08f)" style="fill: none; stroke: #e9edf1; stroke-width: 0.9; stroke-linecap: square"/>
     </g>
     <g id="line2d_4">
      <g>
       <use xlink:href="#m2bfc345d9e" x="113.089908" y="254.120781" style="stroke: #000000; stroke-width: 0.8"/>
      </g>
     </g>
     <g id="text_2">
      <!-- 0.2 -->
      <g transform="translate(103.150455 270.618828) scale(0.125 -0.125)">
       <defs>
        <path id="DejaVuSans-32" d="M 1228 531 
L 3431 531 
L 3431 0 
L 469 0 
L 469 531 
Q 828 903 1448 1529 
Q 2069 2156 2228 2338 
Q 2531 2678 2651 2914 
Q 2772 3150 2772 3378 
Q 2772 3750 2511 3984 
Q 2250 4219 1831 4219 
Q 1534 4219 1204 4116 
Q 875 4013 500 3803 
L 500 4441 
Q 881 4594 1212 4672 
Q 1544 4750 1819 4750 
Q 2544 4750 2975 4387 
Q 3406 4025 3406 3419 
Q 3406 3131 3298 2873 
Q 3191 2616 2906 2266 
Q 2828 2175 2409 1742 
Q 1991 1309 1228 531 
z
" transform="scale(0.015625)"/>
       </defs>
       <use xlink:href="#DejaVuSans-30"/>
       <use xlink:href="#DejaVuSans-2e" transform="translate(63.623047 0)"/>
       <use xlink:href="#DejaVuSans-32" transform="translate(95.410156 0)"/>
      </g>
     </g>
    </g>
    <g id="xtick_3">
     <g id="line2d_5">
      <path d="M 163.033459 254.120781 
L 163.033459 25.3575 
" clip-path="url(#p8e2911c08f)" style="fill: none; stroke: #e9edf1; stroke-width: 0.9; stroke-linecap: square"/>
     </g>
     <g id="line2d_6">
      <g>
       <use xlink:href="#m2bfc345d9e" x="163.033459" y="254.120781" style="stroke: #000000; stroke-width: 0.8"/>
      </g>
     </g>
     <g id="text_3">
      <!-- 0.4 -->
      <g transform="translate(153.094006 270.618828) scale(0.125 -0.125)">
       <defs>
        <path id="DejaVuSans-34" d="M 2419 4116 
L 825 1625 
L 2419 1625 
L 2419 4116 
z
M 2253 4666 
L 3047 4666 
L 3047 1625 
L 3713 1625 
L 3713 1100 
L 3047 1100 
L 3047 0 
L 2419 0 
L 2419 1100 
L 313 1100 
L 313 1709 
L 2253 4666 
z
" transform="scale(0.015625)"/>
       </defs>
       <use xlink:href="#DejaVuSans-30"/>
       <use xlink:href="#DejaVuSans-2e" transform="translate(63.623047 0)"/>
       <use xlink:href="#DejaVuSans-34" transform="translate(95.410156 0)"/>
      </g>
     </g>
    </g>
    <g id="xtick_4">
     <g id="line2d_7">
      <path d="M 212.97701 254.120781 
L 212.97701 25.3575 
" clip-path="url(#p8e2911c08f)" style="fill: none; stroke: #e9edf1; stroke-width: 0.9; stroke-linecap: square"/>
     </g>
     <g id="line2d_8">
      <g>
       <use xlink:href="#m2bfc345d9e" x="212.97701" y="254.120781" style="stroke: #000000; stroke-width: 0.8"/>
      </g>
     </g>
     <g id="text_4">
      <!-- 0.6 -->
      <g transform="translate(203.037557 270.618828) scale(0.125 -0.125)">
       <defs>
        <path id="DejaVuSans-36" d="M 2113 2584 
Q 1688 2584 1439 2293 
Q 1191 2003 1191 1497 
Q 1191 994 1439 701 
Q 1688 409 2113 409 
Q 2538 409 2786 701 
Q 3034 994 3034 1497 
Q 3034 2003 2786 2293 
Q 2538 2584 2113 2584 
z
M 3366 4563 
L 3366 3988 
Q 3128 4100 2886 4159 
Q 2644 4219 2406 4219 
Q 1781 4219 1451 3797 
Q 1122 3375 1075 2522 
Q 1259 2794 1537 2939 
Q 1816 3084 2150 3084 
Q 2853 3084 3261 2657 
Q 3669 2231 3669 1497 
Q 3669 778 3244 343 
Q 2819 -91 2113 -91 
Q 1303 -91 875 529 
Q 447 1150 447 2328 
Q 447 3434 972 4092 
Q 1497 4750 2381 4750 
Q 2619 4750 2861 4703 
Q 3103 4656 3366 4563 
z
" transform="scale(0.015625)"/>
       </defs>
       <use xlink:href="#DejaVuSans-30"/>
       <use xlink:href="#DejaVuSans-2e" transform="translate(63.623047 0)"/>
       <use xlink:href="#DejaVuSans-36" transform="translate(95.410156 0)"/>
      </g>
     </g>
    </g>
    <g id="xtick_5">
     <g id="line2d_9">
      <path d="M 262.920561 254.120781 
L 262.920561 25.3575 
" clip-path="url(#p8e2911c08f)" style="fill: none; stroke: #e9edf1; stroke-width: 0.9; stroke-linecap: square"/>
     </g>
     <g id="line2d_10">
      <g>
       <use xlink:href="#m2bfc345d9e" x="262.920561" y="254.120781" style="stroke: #000000; stroke-width: 0.8"/>
      </g>
     </g>
     <g id="text_5">
      <!-- 0.8 -->
      <g transform="translate(252.981108 270.618828) scale(0.125 -0.125)">
       <defs>
        <path id="DejaVuSans-38" d="M 2034 2216 
Q 1584 2216 1326 1975 
Q 1069 1734 1069 1313 
Q 1069 891 1326 650 
Q 1584 409 2034 409 
Q 2484 409 2743 651 
Q 3003 894 3003 1313 
Q 3003 1734 2745 1975 
Q 2488 2216 2034 2216 
z
M 1403 2484 
Q 997 2584 770 2862 
Q 544 3141 544 3541 
Q 544 4100 942 4425 
Q 1341 4750 2034 4750 
Q 2731 4750 3128 4425 
Q 3525 4100 3525 3541 
Q 3525 3141 3298 2862 
Q 3072 2584 2669 2484 
Q 3125 2378 3379 2068 
Q 3634 1759 3634 1313 
Q 3634 634 3220 271 
Q 2806 -91 2034 -91 
Q 1263 -91 848 271 
Q 434 634 434 1313 
Q 434 1759 690 2068 
Q 947 2378 1403 2484 
z
M 1172 3481 
Q 1172 3119 1398 2916 
Q 1625 2713 2034 2713 
Q 2441 2713 2670 2916 
Q 2900 3119 2900 3481 
Q 2900 3844 2670 4047 
Q 2441 4250 2034 4250 
Q 1625 4250 1398 4047 
Q 1172 3844 1172 3481 
z
" transform="scale(0.015625)"/>
       </defs>
       <use xlink:href="#DejaVuSans-30"/>
       <use xlink:href="#DejaVuSans-2e" transform="translate(63.623047 0)"/>
       <use xlink:href="#DejaVuSans-38" transform="translate(95.410156 0)"/>
      </g>
     </g>
    </g>
    <g id="xtick_6">
     <g id="line2d_11">
      <path d="M 312.864112 254.120781 
L 312.864112 25.3575 
" clip-path="url(#p8e2911c08f)" style="fill: none; stroke: #e9edf1; stroke-width: 0.9; stroke-linecap: square"/>
     </g>
     <g id="line2d_12">
      <g>
       <use xlink:href="#m2bfc345d9e" x="312.864112" y="254.120781" style="stroke: #000000; stroke-width: 0.8"/>
      </g>
     </g>
     <g id="text_6">
      <!-- 1.0 -->
      <g transform="translate(302.924659 270.618828) scale(0.125 -0.125)">
       <defs>
        <path id="DejaVuSans-31" d="M 794 531 
L 1825 531 
L 1825 4091 
L 703 3866 
L 703 4441 
L 1819 4666 
L 2450 4666 
L 2450 531 
L 3481 531 
L 3481 0 
L 794 0 
L 794 531 
z
" transform="scale(0.015625)"/>
       </defs>
       <use xlink:href="#DejaVuSans-31"/>
       <use xlink:href="#DejaVuSans-2e" transform="translate(63.623047 0)"/>
       <use xlink:href="#DejaVuSans-30" transform="translate(95.410156 0)"/>
      </g>
     </g>
    </g>
    <g id="text_7">
     <!-- FPR (1−especificidad) -->
     <g transform="translate(116.509297 287.096406) scale(0.13 -0.13)">
      <defs>
       <path id="DejaVuSans-46" d="M 628 4666 
L 3309 4666 
L 3309 4134 
L 1259 4134 
L 1259 2759 
L 3109 2759 
L 3109 2228 
L 1259 2228 
L 1259 0 
L 628 0 
L 628 4666 
z
" transform="scale(0.015625)"/>
       <path id="DejaVuSans-50" d="M 1259 4147 
L 1259 2394 
L 2053 2394 
Q 2494 2394 2734 2622 
Q 2975 2850 2975 3272 
Q 2975 3691 2734 3919 
Q 2494 4147 2053 4147 
L 1259 4147 
z
M 628 4666 
L 2053 4666 
Q 2838 4666 3239 4311 
Q 3641 3956 3641 3272 
Q 3641 2581 3239 2228 
Q 2838 1875 2053 1875 
L 1259 1875 
L 1259 0 
L 628 0 
L 628 4666 
z
" transform="scale(0.015625)"/>
       <path id="DejaVuSans-52" d="M 2841 2188 
Q 3044 2119 3236 1894 
Q 3428 1669 3622 1275 
L 4263 0 
L 3584 0 
L 2988 1197 
Q 2756 1666 2539 1819 
Q 2322 1972 1947 1972 
L 1259 1972 
L 1259 0 
L 628 0 
L 628 4666 
L 2053 4666 
Q 2853 4666 3247 4331 
Q 3641 3997 3641 3322 
Q 3641 2881 3436 2590 
Q 3231 2300 2841 2188 
z
M 1259 4147 
L 1259 2491 
L 2053 2491 
Q 2509 2491 2742 2702 
Q 2975 2913 2975 3322 
Q 2975 3731 2742 3939 
Q 2509 4147 2053 4147 
L 1259 4147 
z
" transform="scale(0.015625)"/>
       <path id="DejaVuSans-20" transform="scale(0.015625)"/>
       <path id="DejaVuSans-28" d="M 1984 4856 
Q 1566 4138 1362 3434 
Q 1159 2731 1159 2009 
Q 1159 1288 1364 580 
Q 1569 -128 1984 -844 
L 1484 -844 
Q 1016 -109 783 600 
Q 550 1309 550 2009 
Q 550 2706 781 3412 
Q 1013 4119 1484 4856 
L 1984 4856 
z
" transform="scale(0.015625)"/>
       <path id="DejaVuSans-2212" d="M 678 2272 
L 4684 2272 
L 4684 1741 
L 678 1741 
L 678 2272 
z
" transform="scale(0.015625)"/>
       <path id="DejaVuSans-65" d="M 3597 1894 
L 3597 1613 
L 953 1613 
Q 991 1019 1311 708 
Q 1631 397 2203 397 
Q 2534 397 2845 478 
Q 3156 559 3463 722 
L 3463 178 
Q 3153 47 2828 -22 
Q 2503 -91 2169 -91 
Q 1331 -91 842 396 
Q 353 884 353 1716 
Q 353 2575 817 3079 
Q 1281 3584 2069 3584 
Q 2775 3584 3186 3129 
Q 3597 2675 3597 1894 
z
M 3022 2063 
Q 3016 2534 2758 2815 
Q 2500 3097 2075 3097 
Q 1594 3097 1305 2825 
Q 1016 2553 972 2059 
L 3022 2063 
z
" transform="scale(0.015625)"/>
       <path id="DejaVuSans-73" d="M 2834 3397 
L 2834 2853 
Q 2591 2978 2328 3040 
Q 2066 3103 1784 3103 
Q 1356 3103 1142 2972 
Q 928 2841 928 2578 
Q 928 2378 1081 2264 
Q 1234 2150 1697 2047 
L 1894 2003 
Q 2506 1872 2764 1633 
Q 3022 1394 3022 966 
Q 3022 478 2636 193 
Q 2250 -91 1575 -91 
Q 1294 -91 989 -36 
Q 684 19 347 128 
L 347 722 
Q 666 556 975 473 
Q 1284 391 1588 391 
Q 1994 391 2212 530 
Q 2431 669 2431 922 
Q 2431 1156 2273 1281 
Q 2116 1406 1581 1522 
L 1381 1569 
Q 847 1681 609 1914 
Q 372 2147 372 2553 
Q 372 3047 722 3315 
Q 1072 3584 1716 3584 
Q 2034 3584 2315 3537 
Q 2597 3491 2834 3397 
z
" transform="scale(0.015625)"/>
       <path id="DejaVuSans-70" d="M 1159 525 
L 1159 -1331 
L 581 -1331 
L 581 3500 
L 1159 3500 
L 1159 2969 
Q 1341 3281 1617 3432 
Q 1894 3584 2278 3584 
Q 2916 3584 3314 3078 
Q 3713 2572 3713 1747 
Q 3713 922 3314 415 
Q 2916 -91 2278 -91 
Q 1894 -91 1617 61 
Q 1341 213 1159 525 
z
M 3116 1747 
Q 3116 2381 2855 2742 
Q 2594 3103 2138 3103 
Q 1681 3103 1420 2742 
Q 1159 2381 1159 1747 
Q 1159 1113 1420 752 
Q 1681 391 2138 391 
Q 2594 391 2855 752 
Q 3116 1113 3116 1747 
z
" transform="scale(0.015625)"/>
       <path id="DejaVuSans-63" d="M 3122 3366 
L 3122 2828 
Q 2878 2963 2633 3030 
Q 2388 3097 2138 3097 
Q 1578 3097 1268 2742 
Q 959 2388 959 1747 
Q 959 1106 1268 751 
Q 1578 397 2138 397 
Q 2388 397 2633 464 
Q 2878 531 3122 666 
L 3122 134 
Q 2881 22 2623 -34 
Q 2366 -91 2075 -91 
Q 1284 -91 818 406 
Q 353 903 353 1747 
Q 353 2603 823 3093 
Q 1294 3584 2113 3584 
Q 2378 3584 2631 3529 
Q 2884 3475 3122 3366 
z
" transform="scale(0.015625)"/>
       <path id="DejaVuSans-69" d="M 603 3500 
L 1178 3500 
L 1178 0 
L 603 0 
L 603 3500 
z
M 603 4863 
L 1178 4863 
L 1178 4134 
L 603 4134 
L 603 4863 
z
" transform="scale(0.015625)"/>
       <path id="DejaVuSans-66" d="M 2375 4863 
L 2375 4384 
L 1825 4384 
Q 1516 4384 1395 4259 
Q 1275 4134 1275 3809 
L 1275 3500 
L 2222 3500 
L 2222 3053 
L 1275 3053 
L 1275 0 
L 697 0 
L 697 3053 
L 147 3053 
L 147 3500 
L 697 3500 
L 697 3744 
Q 697 4328 969 4595 
Q 1241 4863 1831 4863 
L 2375 4863 
z
" transform="scale(0.015625)"/>
       <path id="DejaVuSans-64" d="M 2906 2969 
L 2906 4863 
L 3481 4863 
L 3481 0 
L 2906 0 
L 2906 525 
Q 2725 213 2448 61 
Q 2172 -91 1784 -91 
Q 1150 -91 751 415 
Q 353 922 353 1747 
Q 353 2572 751 3078 
Q 1150 3584 1784 3584 
Q 2172 3584 2448 3432 
Q 2725 3281 2906 2969 
z
M 947 1747 
Q 947 1113 1208 752 
Q 1469 391 1925 391 
Q 2381 391 2643 752 
Q 2906 1113 2906 1747 
Q 2906 2381 2643 2742 
Q 2381 3103 1925 3103 
Q 1469 3103 1208 2742 
Q 947 2381 947 1747 
z
" transform="scale(0.015625)"/>
       <path id="DejaVuSans-61" d="M 2194 1759 
Q 1497 1759 1228 1600 
Q 959 1441 959 1056 
Q 959 750 1161 570 
Q 1363 391 1709 391 
Q 2188 391 2477 730 
Q 2766 1069 2766 1631 
L 2766 1759 
L 2194 1759 
z
M 3341 1997 
L 3341 0 
L 2766 0 
L 2766 531 
Q 2569 213 2275 61 
Q 1981 -91 1556 -91 
Q 1019 -91 701 211 
Q 384 513 384 1019 
Q 384 1609 779 1909 
Q 1175 2209 1959 2209 
L 2766 2209 
L 2766 2266 
Q 2766 2663 2505 2880 
Q 2244 3097 1772 3097 
Q 1472 3097 1187 3025 
Q 903 2953 641 2809 
L 641 3341 
Q 956 3463 1253 3523 
Q 1550 3584 1831 3584 
Q 2591 3584 2966 3190 
Q 3341 2797 3341 1997 
z
" transform="scale(0.015625)"/>
       <path id="DejaVuSans-29" d="M 513 4856 
L 1013 4856 
Q 1481 4119 1714 3412 
Q 1947 2706 1947 2009 
Q 1947 1309 1714 600 
Q 1481 -109 1013 -844 
L 513 -844 
Q 928 -128 1133 580 
Q 1338 1288 1338 2009 
Q 1338 2731 1133 3434 
Q 928 4138 513 4856 
z
" transform="scale(0.015625)"/>
      </defs>
      <use xlink:href="#DejaVuSans-46"/>
      <use xlink:href="#DejaVuSans-50" transform="translate(57.519531 0)"/>
      <use xlink:href="#DejaVuSans-52" transform="translate(117.822266 0)"/>
      <use xlink:href="#DejaVuSans-20" transform="translate(187.304688 0)"/>
      <use xlink:href="#DejaVuSans-28" transform="translate(219.091797 0)"/>
      <use xlink:href="#DejaVuSans-31" transform="translate(258.105469 0)"/>
      <use xlink:href="#DejaVuSans-2212" transform="translate(321.728516 0)"/>
      <use xlink:href="#DejaVuSans-65" transform="translate(405.517578 0)"/>
      <use xlink:href="#DejaVuSans-73" transform="translate(467.041016 0)"/>
      <use xlink:href="#DejaVuSans-70" transform="translate(519.140625 0)"/>
      <use xlink:href="#DejaVuSans-65" transform="translate(582.617188 0)"/>
      <use xlink:href="#DejaVuSans-63" transform="translate(644.140625 0)"/>
      <use xlink:href="#DejaVuSans-69" transform="translate(699.121094 0)"/>
      <use xlink:href="#DejaVuSans-66" transform="translate(726.904297 0)"/>
      <use xlink:href="#DejaVuSans-69" transform="translate(762.109375 0)"/>
      <use xlink:href="#DejaVuSans-63" transform="translate(789.892578 0)"/>
      <use xlink:href="#DejaVuSans-69" transform="translate(844.873047 0)"/>
      <use xlink:href="#DejaVuSans-64" transform="translate(872.65625 0)"/>
      <use xlink:href="#DejaVuSans-61" transform="translate(936.132812 0)"/>
      <use xlink:href="#DejaVuSans-64" transform="translate(997.412109 0)"/>
      <use xlink:href="#DejaVuSans-29" transform="translate(1060.888672 0)"/>
     </g>
    </g>
   </g>
   <g id="matplotlib.axis_2">
    <g id="ytick_1">
     <g id="line2d_13">
      <path d="M 50.660469 243.72245 
L 325.35 243.72245 
" clip-path="url(#p8e2911c08f)" style="fill: none; stroke: #e9edf1; stroke-width: 0.9; stroke-linecap: square"/>
     </g>
     <g id="line2d_14">
      <defs>
       <path id="mb324cf7bd8" d="M 0 0 
L -3.5 0 
" style="stroke: #000000; stroke-width: 0.8"/>
      </defs>
      <g>
       <use xlink:href="#mb324cf7bd8" x="50.660469" y="243.72245" style="stroke: #000000; stroke-width: 0.8"/>
      </g>
     </g>
     <g id="text_8">
      <!-- 0.0 -->
      <g transform="translate(23.781563 248.471474) scale(0.125 -0.125)">
       <use xlink:href="#DejaVuSans-30"/>
       <use xlink:href="#DejaVuSans-2e" transform="translate(63.623047 0)"/>
       <use xlink:href="#DejaVuSans-30" transform="translate(95.410156 0)"/>
      </g>
     </g>
    </g>
    <g id="ytick_2">
     <g id="line2d_15">
      <path d="M 50.660469 202.129126 
L 325.35 202.129126 
" clip-path="url(#p8e2911c08f)" style="fill: none; stroke: #e9edf1; stroke-width: 0.9; stroke-linecap: square"/>
     </g>
     <g id="line2d_16">
      <g>
       <use xlink:href="#mb324cf7bd8" x="50.660469" y="202.129126" style="stroke: #000000; stroke-width: 0.8"/>
      </g>
     </g>
     <g id="text_9">
      <!-- 0.2 -->
      <g transform="translate(23.781563 206.87815) scale(0.125 -0.125)">
       <use xlink:href="#DejaVuSans-30"/>
       <use xlink:href="#DejaVuSans-2e" transform="translate(63.623047 0)"/>
       <use xlink:href="#DejaVuSans-32" transform="translate(95.410156 0)"/>
      </g>
     </g>
    </g>
    <g id="ytick_3">
     <g id="line2d_17">
      <path d="M 50.660469 160.535803 
L 325.35 160.535803 
" clip-path="url(#p8e2911c08f)" style="fill: none; stroke: #e9edf1; stroke-width: 0.9; stroke-linecap: square"/>
     </g>
     <g id="line2d_18">
      <g>
       <use xlink:href="#mb324cf7bd8" x="50.660469" y="160.535803" style="stroke: #000000; stroke-width: 0.8"/>
      </g>
     </g>
     <g id="text_10">
      <!-- 0.4 -->
      <g transform="translate(23.781563 165.284826) scale(0.125 -0.125)">
       <use xlink:href="#DejaVuSans-30"/>
       <use xlink:href="#DejaVuSans-2e" transform="translate(63.623047 0)"/>
       <use xlink:href="#DejaVuSans-34" transform="translate(95.410156 0)"/>
      </g>
     </g>
    </g>
    <g id="ytick_4">
     <g id="line2d_19">
      <path d="M 50.660469 118.942479 
L 325.35 118.942479 
" clip-path="url(#p8e2911c08f)" style="fill: none; stroke: #e9edf1; stroke-width: 0.9; stroke-linecap: square"/>
     </g>
     <g id="line2d_20">
      <g>
       <use xlink:href="#mb324cf7bd8" x="50.660469" y="118.942479" style="stroke: #000000; stroke-width: 0.8"/>
      </g>
     </g>
     <g id="text_11">
      <!-- 0.6 -->
      <g transform="translate(23.781563 123.691502) scale(0.125 -0.125)">
       <use xlink:href="#DejaVuSans-30"/>
       <use xlink:href="#DejaVuSans-2e" transform="translate(63.623047 0)"/>
       <use xlink:href="#DejaVuSans-36" transform="translate(95.410156 0)"/>
      </g>
     </g>
    </g>
    <g id="ytick_5">
     <g id="line2d_21">
      <path d="M 50.660469 77.349155 
L 325.35 77.349155 
" clip-path="url(#p8e2911c08f)" style="fill: none; stroke: #e9edf1; stroke-width: 0.9; stroke-linecap: square"/>
     </g>
     <g id="line2d_22">
      <g>
       <use xlink:href="#mb324cf7bd8" x="50.660469" y="77.349155" style="stroke: #000000; stroke-width: 0.8"/>
      </g>
     </g>
     <g id="text_12">
      <!-- 0.8 -->
      <g transform="translate(23.781563 82.098178) scale(0.125 -0.125)">
       <use xlink:href="#DejaVuSans-30"/>
       <use xlink:href="#DejaVuSans-2e" transform="translate(63.623047 0)"/>
       <use xlink:href="#DejaVuSans-38" transform="translate(95.410156 0)"/>
      </g>
     </g>
    </g>
    <g id="ytick_6">
     <g id="line2d_23">
      <path d="M 50.660469 35.755831 
L 325.35 35.755831 
" clip-path="url(#p8e2911c08f)" style="fill: none; stroke: #e9edf1; stroke-width: 0.9; stroke-linecap: square"/>
     </g>
     <g id="line2d_24">
      <g>
       <use xlink:href="#mb324cf7bd8" x="50.660469" y="35.755831" style="stroke: #000000; stroke-width: 0.8"/>
      </g>
     </g>
     <g id="text_13">
      <!-- 1.0 -->
      <g transform="translate(23.781563 40.504854) scale(0.125 -0.125)">
       <use xlink:href="#DejaVuSans-31"/>
       <use xlink:href="#DejaVuSans-2e" transform="translate(63.623047 0)"/>
       <use xlink:href="#DejaVuSans-30" transform="translate(95.410156 0)"/>
      </g>
     </g>
    </g>
    <g id="text_14">
     <!-- TPR (sensibilidad) -->
     <g transform="translate(17.077969 197.759766) rotate(-90) scale(0.13 -0.13)">
      <defs>
       <path id="DejaVuSans-54" d="M -19 4666 
L 3928 4666 
L 3928 4134 
L 2272 4134 
L 2272 0 
L 1638 0 
L 1638 4134 
L -19 4134 
L -19 4666 
z
" transform="scale(0.015625)"/>
       <path id="DejaVuSans-6e" d="M 3513 2113 
L 3513 0 
L 2938 0 
L 2938 2094 
Q 2938 2591 2744 2837 
Q 2550 3084 2163 3084 
Q 1697 3084 1428 2787 
Q 1159 2491 1159 1978 
L 1159 0 
L 581 0 
L 581 3500 
L 1159 3500 
L 1159 2956 
Q 1366 3272 1645 3428 
Q 1925 3584 2291 3584 
Q 2894 3584 3203 3211 
Q 3513 2838 3513 2113 
z
" transform="scale(0.015625)"/>
       <path id="DejaVuSans-62" d="M 3116 1747 
Q 3116 2381 2855 2742 
Q 2594 3103 2138 3103 
Q 1681 3103 1420 2742 
Q 1159 2381 1159 1747 
Q 1159 1113 1420 752 
Q 1681 391 2138 391 
Q 2594 391 2855 752 
Q 3116 1113 3116 1747 
z
M 1159 2969 
Q 1341 3281 1617 3432 
Q 1894 3584 2278 3584 
Q 2916 3584 3314 3078 
Q 3713 2572 3713 1747 
Q 3713 922 3314 415 
Q 2916 -91 2278 -91 
Q 1894 -91 1617 61 
Q 1341 213 1159 525 
L 1159 0 
L 581 0 
L 581 4863 
L 1159 4863 
L 1159 2969 
z
" transform="scale(0.015625)"/>
       <path id="DejaVuSans-6c" d="M 603 4863 
L 1178 4863 
L 1178 0 
L 603 0 
L 603 4863 
z
" transform="scale(0.015625)"/>
      </defs>
      <use xlink:href="#DejaVuSans-54"/>
      <use xlink:href="#DejaVuSans-50" transform="translate(61.083984 0)"/>
      <use xlink:href="#DejaVuSans-52" transform="translate(121.386719 0)"/>
      <use xlink:href="#DejaVuSans-20" transform="translate(190.869141 0)"/>
      <use xlink:href="#DejaVuSans-28" transform="translate(222.65625 0)"/>
      <use xlink:href="#DejaVuSans-73" transform="translate(261.669922 0)"/>
      <use xlink:href="#DejaVuSans-65" transform="translate(313.769531 0)"/>
      <use xlink:href="#DejaVuSans-6e" transform="translate(375.292969 0)"/>
      <use xlink:href="#DejaVuSans-73" transform="translate(438.671875 0)"/>
      <use xlink:href="#DejaVuSans-69" transform="translate(490.771484 0)"/>
      <use xlink:href="#DejaVuSans-62" transform="translate(518.554688 0)"/>
      <use xlink:href="#DejaVuSans-69" transform="translate(582.03125 0)"/>
      <use xlink:href="#DejaVuSans-6c" transform="translate(609.814453 0)"/>
      <use xlink:href="#DejaVuSans-69" transform="translate(637.597656 0)"/>
      <use xlink:href="#DejaVuSans-64" transform="translate(665.380859 0)"/>
      <use xlink:href="#DejaVuSans-61" transform="translate(728.857422 0)"/>
      <use xlink:href="#DejaVuSans-64" transform="translate(790.136719 0)"/>
      <use xlink:href="#DejaVuSans-29" transform="translate(853.613281 0)"/>
     </g>
    </g>
   </g>
   <g id="line2d_25">
    <path d="M 63.146357 243.72245 
L 63.226394 237.341656 
L 63.306432 237.341656 
L 63.38647 219.144577 
L 63.466508 219.144577 
L 63.546545 215.836017 
L 63.626583 215.836017 
L 63.706621 210.400526 
L 63.786658 210.400526 
L 63.866696 199.293218 
L 63.946734 199.293218 
L 64.026772 195.748332 
L 64.106809 195.748332 
L 64.186847 195.039355 
L 64.266885 195.039355 
L 64.346923 192.912424 
L 64.42696 192.912424 
L 64.506998 191.49447 
L 64.587036 191.49447 
L 64.587036 191.258144 
L 64.747111 191.258144 
L 64.827149 187.713258 
L 64.907187 187.713258 
L 64.987225 184.87735 
L 65.067262 184.87735 
L 65.1473 183.932047 
L 65.227338 183.932047 
L 65.307376 181.805116 
L 65.387413 181.805116 
L 65.467451 180.623487 
L 65.547489 180.623487 
L 65.627527 173.297391 
L 65.707564 173.297391 
L 65.787602 172.352088 
L 65.86764 172.352088 
L 65.947678 171.170459 
L 66.027715 171.170459 
L 66.107753 168.807202 
L 66.187791 168.807202 
L 66.267828 164.789665 
L 66.347866 164.789665 
L 66.427904 162.89906 
L 66.507942 162.89906 
L 66.587979 161.481105 
L 66.668017 161.481105 
L 66.668017 160.772128 
L 66.828093 160.772128 
L 66.828093 160.535803 
L 66.988168 160.535803 
L 66.988168 160.063151 
L 67.228281 160.063151 
L 67.308319 157.699894 
L 67.388357 157.699894 
L 67.468395 153.918683 
L 67.548432 153.918683 
L 67.548432 153.209706 
L 67.788546 153.209706 
L 67.788546 151.555426 
L 68.108697 151.555426 
L 68.108697 150.610123 
L 68.34881 150.610123 
L 68.428848 150.137472 
L 68.588923 150.137472 
L 68.588923 147.537889 
L 68.748998 147.537889 
L 68.829036 146.828912 
L 68.989112 146.828912 
L 69.069149 146.35626 
L 69.229225 146.35626 
L 69.309263 145.410958 
L 69.3893 145.410958 
L 69.469338 143.993003 
L 69.629414 143.993003 
L 69.709451 142.338723 
L 69.789489 142.338723 
L 69.869527 139.502815 
L 69.949565 139.502815 
L 70.029602 138.793838 
L 70.10964 138.793838 
L 70.10964 138.557512 
L 70.269716 138.557512 
L 70.269716 138.321186 
L 70.429791 138.321186 
L 70.429791 137.848535 
L 70.749942 137.848535 
L 70.749942 137.375884 
L 70.910018 137.375884 
L 70.990055 136.903232 
L 71.070093 136.903232 
L 71.150131 135.721604 
L 71.230168 135.721604 
L 71.230168 135.485278 
L 71.390244 135.485278 
L 71.390244 135.248952 
L 71.550319 135.248952 
L 71.630357 134.067324 
L 71.710395 134.067324 
L 71.790433 133.358347 
L 71.87047 133.358347 
L 71.950508 132.176718 
L 72.030546 132.176718 
L 72.110584 130.99509 
L 72.190621 130.99509 
L 72.270659 130.286112 
L 72.510772 130.286112 
L 72.59081 129.577135 
L 72.750886 129.577135 
L 72.830923 128.159181 
L 72.990999 128.159181 
L 73.071037 127.450204 
L 73.151074 127.450204 
L 73.231112 125.559598 
L 73.631301 125.559598 
L 73.631301 125.086947 
L 73.791376 125.086947 
L 73.871414 124.141644 
L 74.031489 124.141644 
L 74.031489 123.905318 
L 74.271603 123.905318 
L 74.271603 123.196341 
L 74.431678 123.196341 
L 74.431678 122.72369 
L 74.591754 122.72369 
L 74.671791 122.014713 
L 74.751829 122.014713 
L 74.751829 121.778387 
L 75.07198 121.778387 
L 75.152018 121.305736 
L 75.232056 121.305736 
L 75.312093 119.887782 
L 75.392131 119.887782 
L 75.472169 119.41513 
L 75.79232 119.41513 
L 75.872358 118.706153 
L 75.952395 118.706153 
L 76.032433 118.233502 
L 76.112471 118.233502 
L 76.112471 117.997176 
L 76.512659 117.997176 
L 76.512659 117.524524 
L 77.152961 117.524524 
L 77.152961 117.051873 
L 77.393075 117.051873 
L 77.473112 116.342896 
L 77.953339 116.342896 
L 78.033377 115.397593 
L 78.193452 115.397593 
L 78.27349 114.45229 
L 78.353528 114.45229 
L 78.353528 113.743313 
L 78.513603 113.743313 
L 78.513603 113.506988 
L 78.833754 113.506988 
L 78.833754 112.79801 
L 79.073867 112.79801 
L 79.153905 112.325359 
L 79.233943 112.325359 
L 79.233943 112.089033 
L 79.474056 112.089033 
L 79.554094 111.380056 
L 79.634131 111.380056 
L 79.634131 110.907405 
L 79.794207 110.907405 
L 79.874245 110.434753 
L 80.03432 110.434753 
L 80.03432 110.198428 
L 80.194396 110.198428 
L 80.194396 109.962102 
L 80.434509 109.962102 
L 80.434509 109.725776 
L 80.594584 109.725776 
L 80.594584 109.253125 
L 80.75466 109.253125 
L 80.75466 109.016799 
L 80.914735 109.016799 
L 80.994773 107.598845 
L 81.074811 107.598845 
L 81.074811 106.889868 
L 81.474999 106.889868 
L 81.555037 105.944565 
L 81.635075 105.944565 
L 81.715113 105.235588 
L 82.195339 105.235588 
L 82.195339 104.999262 
L 82.755603 104.999262 
L 82.835641 104.053959 
L 83.155792 104.053959 
L 83.155792 103.817634 
L 83.395905 103.817634 
L 83.395905 103.581308 
L 83.796094 103.581308 
L 83.876132 102.872331 
L 84.036207 102.872331 
L 84.036207 102.636005 
L 84.27632 102.636005 
L 84.27632 102.163354 
L 84.516434 102.163354 
L 84.516434 101.927028 
L 84.916622 101.927028 
L 84.916622 101.690702 
L 85.076698 101.690702 
L 85.156736 101.218051 
L 85.236773 101.218051 
L 85.316811 100.509074 
L 85.476887 100.509074 
L 85.556924 99.800097 
L 85.636962 99.800097 
L 85.636962 99.563771 
L 85.797038 99.563771 
L 85.797038 99.327445 
L 86.277264 99.327445 
L 86.357302 98.382142 
L 86.517377 98.382142 
L 86.597415 97.673165 
L 86.837528 97.673165 
L 86.917566 97.200514 
L 87.157679 97.200514 
L 87.237717 96.727863 
L 87.317755 96.727863 
L 87.397792 96.018885 
L 87.717943 96.018885 
L 87.797981 95.546234 
L 88.19817 95.546234 
L 88.19817 94.837257 
L 88.358245 94.837257 
L 88.438283 93.891954 
L 88.518321 93.891954 
L 88.518321 93.655628 
L 88.678396 93.655628 
L 88.678396 93.419303 
L 88.998547 93.419303 
L 89.078585 92.710326 
L 89.23866 92.710326 
L 89.23866 92.474 
L 90.119076 92.474 
L 90.119076 92.237674 
L 90.759378 92.237674 
L 90.839415 91.765023 
L 91.319642 91.765023 
L 91.319642 91.528697 
L 91.639793 91.528697 
L 91.639793 91.056046 
L 91.799868 91.056046 
L 91.799868 90.81972 
L 92.039981 90.81972 
L 92.039981 90.583394 
L 92.520208 90.583394 
L 92.600246 89.874417 
L 92.840359 89.874417 
L 92.840359 89.638091 
L 93.000434 89.638091 
L 93.080472 89.16544 
L 93.720774 89.16544 
L 93.800812 88.220137 
L 94.040925 88.220137 
L 94.040925 87.747486 
L 94.281038 87.747486 
L 94.281038 87.038509 
L 95.241491 87.038509 
L 95.241491 86.565857 
L 95.881793 86.565857 
L 95.881793 86.329532 
L 96.041869 86.329532 
L 96.121906 85.147903 
L 96.682171 85.147903 
L 96.762208 84.675252 
L 97.002321 84.675252 
L 97.002321 84.438926 
L 97.162397 84.438926 
L 97.162397 84.2026 
L 97.40251 84.2026 
L 97.482548 83.729949 
L 97.642623 83.729949 
L 97.722661 83.257297 
L 97.802699 83.257297 
L 97.882737 82.784646 
L 97.962774 82.784646 
L 97.962774 82.311995 
L 98.603076 82.311995 
L 98.603076 81.839343 
L 98.84319 81.839343 
L 98.84319 81.603017 
L 99.083303 81.603017 
L 99.163341 80.657715 
L 99.403454 80.657715 
L 99.403454 80.421389 
L 99.803642 80.421389 
L 99.803642 79.948738 
L 99.963718 79.948738 
L 99.963718 79.712412 
L 100.363907 79.712412 
L 100.363907 79.476086 
L 100.764095 79.476086 
L 100.764095 79.23976 
L 100.924171 79.23976 
L 100.924171 79.003435 
L 101.484435 79.003435 
L 101.484435 78.767109 
L 101.724548 78.767109 
L 101.804586 78.294458 
L 102.124737 78.294458 
L 102.204775 77.821806 
L 102.444888 77.821806 
L 102.524926 77.349155 
L 102.925114 77.349155 
L 102.925114 76.876503 
L 103.565416 76.876503 
L 103.645454 76.167526 
L 103.885567 76.167526 
L 103.885567 75.931201 
L 104.765982 75.931201 
L 104.765982 75.694875 
L 104.926058 75.694875 
L 104.926058 75.458549 
L 105.246209 75.458549 
L 105.326247 74.985898 
L 105.406284 74.985898 
L 105.406284 74.749572 
L 106.526813 74.749572 
L 106.606851 73.804269 
L 106.686888 73.804269 
L 106.686888 73.567944 
L 106.846964 73.567944 
L 106.846964 73.331618 
L 107.007039 73.331618 
L 107.007039 73.095292 
L 107.167115 73.095292 
L 107.247152 72.622641 
L 107.567303 72.622641 
L 107.647341 72.149989 
L 107.807417 72.149989 
L 107.807417 71.913664 
L 107.967492 71.913664 
L 107.967492 71.677338 
L 108.287643 71.677338 
L 108.367681 71.204687 
L 108.447719 71.204687 
L 108.447719 70.732035 
L 108.927945 70.732035 
L 108.927945 70.495709 
L 109.408172 70.495709 
L 109.488209 70.023058 
L 109.968436 70.023058 
L 109.968436 69.786732 
L 110.288587 69.786732 
L 110.288587 69.550407 
L 110.448662 69.550407 
L 110.5287 69.077755 
L 110.768813 69.077755 
L 110.768813 68.841429 
L 111.649228 68.841429 
L 111.649228 68.605104 
L 111.969379 68.605104 
L 112.049417 68.132452 
L 113.00987 68.132452 
L 113.00987 67.896127 
L 113.410059 67.896127 
L 113.410059 67.659801 
L 113.810247 67.659801 
L 113.810247 67.423475 
L 113.970323 67.423475 
L 113.970323 67.18715 
L 114.130398 67.18715 
L 114.130398 66.950824 
L 115.411002 66.950824 
L 115.411002 66.714498 
L 115.891229 66.714498 
L 115.891229 66.478172 
L 116.051304 66.478172 
L 116.051304 66.241847 
L 116.21138 66.241847 
L 116.21138 65.769195 
L 116.371455 65.769195 
L 116.371455 65.296544 
L 116.851682 65.296544 
L 116.851682 65.060218 
L 117.091795 65.060218 
L 117.091795 64.823893 
L 118.132285 64.823893 
L 118.212323 64.351241 
L 118.69255 64.351241 
L 118.69255 64.114915 
L 119.092738 64.114915 
L 119.092738 63.642264 
L 120.533418 63.642264 
L 120.533418 63.169613 
L 120.693493 63.169613 
L 120.773531 62.696961 
L 121.093682 62.696961 
L 121.17372 62.22431 
L 121.333795 62.22431 
L 121.333795 61.987984 
L 121.653946 61.987984 
L 121.653946 61.751658 
L 122.21421 61.751658 
L 122.21421 61.515333 
L 122.694437 61.515333 
L 122.694437 61.279007 
L 123.254701 61.279007 
L 123.254701 61.042681 
L 124.375229 61.042681 
L 124.375229 60.806356 
L 124.69538 60.806356 
L 124.69538 60.57003 
L 125.41572 60.57003 
L 125.41572 60.333704 
L 126.376173 60.333704 
L 126.376173 60.097378 
L 127.416664 60.097378 
L 127.416664 59.624727 
L 127.656777 59.624727 
L 127.656777 59.388401 
L 128.377116 59.388401 
L 128.377116 59.152076 
L 128.61723 59.152076 
L 128.61723 58.91575 
L 129.417607 58.91575 
L 129.417607 58.679424 
L 129.65772 58.679424 
L 129.65772 58.443099 
L 129.817796 58.443099 
L 129.817796 58.206773 
L 130.137947 58.206773 
L 130.137947 57.970447 
L 130.698211 57.970447 
L 130.698211 57.734121 
L 131.018362 57.734121 
L 131.018362 57.497796 
L 131.178437 57.497796 
L 131.178437 57.26147 
L 131.818739 57.26147 
L 131.818739 57.025144 
L 133.259419 57.025144 
L 133.259419 56.788819 
L 134.860174 56.788819 
L 134.860174 56.552493 
L 135.180325 56.552493 
L 135.180325 56.316167 
L 135.660551 56.316167 
L 135.660551 56.079841 
L 136.06074 56.079841 
L 136.06074 55.843516 
L 136.300853 55.843516 
L 136.300853 55.60719 
L 136.941155 55.60719 
L 136.941155 55.370864 
L 138.381834 55.370864 
L 138.381834 54.898213 
L 138.701985 54.898213 
L 138.782023 54.425562 
L 138.862061 54.425562 
L 138.862061 54.189236 
L 139.262249 54.189236 
L 139.262249 53.95291 
L 139.662438 53.95291 
L 139.742476 53.480259 
L 140.622891 53.480259 
L 140.622891 53.243933 
L 141.583344 53.243933 
L 141.583344 52.771282 
L 142.623835 52.771282 
L 142.703872 52.29863 
L 143.424212 52.29863 
L 143.50425 51.825979 
L 144.464703 51.825979 
L 144.464703 51.589653 
L 144.944929 51.589653 
L 144.944929 51.353327 
L 149.106892 51.353327 
L 149.106892 51.117002 
L 149.266967 51.117002 
L 149.266967 50.880676 
L 149.427043 50.880676 
L 149.427043 50.64435 
L 151.347948 50.64435 
L 151.347948 50.408025 
L 151.508024 50.408025 
L 151.508024 50.171699 
L 154.709534 50.171699 
L 154.709534 49.935373 
L 154.869609 49.935373 
L 154.869609 49.699047 
L 155.589949 49.699047 
L 155.589949 49.462722 
L 155.750024 49.462722 
L 155.750024 49.226396 
L 155.9101 49.226396 
L 155.9101 48.99007 
L 156.790515 48.99007 
L 156.790515 48.753745 
L 157.430817 48.753745 
L 157.430817 48.517419 
L 158.39127 48.517419 
L 158.39127 48.281093 
L 160.392213 48.281093 
L 160.392213 48.044768 
L 160.87244 48.044768 
L 160.87244 47.808442 
L 161.832893 47.808442 
L 161.832893 47.572116 
L 162.233081 47.572116 
L 162.233081 47.33579 
L 164.073949 47.33579 
L 164.073949 47.099465 
L 167.355497 47.099465 
L 167.355497 46.863139 
L 168.476025 46.863139 
L 168.476025 46.626813 
L 169.436478 46.626813 
L 169.516516 46.154162 
L 176.079611 46.154162 
L 176.079611 45.917836 
L 177.920479 45.917836 
L 177.920479 45.681511 
L 178.080554 45.681511 
L 178.080554 45.445185 
L 178.800894 45.445185 
L 178.800894 45.208859 
L 179.361158 45.208859 
L 179.441196 44.736208 
L 182.722743 44.736208 
L 182.802781 44.263556 
L 184.003347 44.263556 
L 184.003347 44.027231 
L 184.323498 44.027231 
L 184.323498 43.790905 
L 185.123876 43.790905 
L 185.123876 43.554579 
L 185.524064 43.554579 
L 185.524064 43.318253 
L 188.805612 43.318253 
L 188.805612 43.081928 
L 190.566442 43.081928 
L 190.566442 42.845602 
L 190.806555 42.845602 
L 190.806555 42.609276 
L 197.049499 42.609276 
L 197.129537 42.136625 
L 198.08999 42.136625 
L 198.08999 41.900299 
L 198.250065 41.900299 
L 198.250065 41.663974 
L 201.051386 41.663974 
L 201.051386 41.427648 
L 202.011839 41.427648 
L 202.011839 41.191322 
L 202.572103 41.191322 
L 202.572103 40.954996 
L 206.013726 40.954996 
L 206.013726 40.718671 
L 206.654028 40.718671 
L 206.654028 40.482345 
L 206.894142 40.482345 
L 206.894142 40.246019 
L 207.214293 40.246019 
L 207.214293 40.009694 
L 207.854594 40.009694 
L 207.854594 39.773368 
L 210.255727 39.773368 
L 210.255727 39.537042 
L 212.336708 39.537042 
L 212.336708 39.300717 
L 212.816934 39.300717 
L 212.816934 39.064391 
L 214.73784 39.064391 
L 214.73784 38.828065 
L 217.459124 38.828065 
L 217.459124 38.591739 
L 218.579652 38.591739 
L 218.579652 38.355414 
L 219.059878 38.355414 
L 219.059878 38.119088 
L 220.660633 38.119088 
L 220.660633 37.882762 
L 229.064596 37.882762 
L 229.064596 37.646437 
L 235.627691 37.646437 
L 235.627691 37.410111 
L 244.912069 37.410111 
L 244.912069 37.173785 
L 245.392296 37.173785 
L 245.392296 36.937459 
L 249.074032 36.937459 
L 249.074032 36.701134 
L 255.076862 36.701134 
L 255.076862 36.464808 
L 262.280259 36.464808 
L 262.280259 36.228482 
L 271.564637 36.228482 
L 271.564637 35.992157 
L 277.407392 35.992157 
L 277.407392 35.755831 
L 312.864112 35.755831 
L 312.864112 35.755831 
" clip-path="url(#p8e2911c08f)" style="fill: none; stroke: #8b1538; stroke-width: 3; stroke-linecap: square"/>
   </g>
   <g id="line2d_26">
    <path d="M 63.146357 243.72245 
L 312.864112 35.755831 
" clip-path="url(#p8e2911c08f)" style="fill: none; stroke-dasharray: 5.55,2.4; stroke-dashoffset: 0; stroke: #7f8c8d; stroke-width: 1.5"/>
   </g>
   <g id="patch_3">
    <path d="M 50.660469 254.120781 
L 50.660469 25.3575 
" style="fill: none; stroke: #c9ced3; stroke-width: 1.1; stroke-linejoin: miter; stroke-linecap: square"/>
   </g>
   <g id="patch_4">
    <path d="M 50.660469 254.120781 
L 325.35 254.120781 
" style="fill: none; stroke: #c9ced3; stroke-width: 1.1; stroke-linejoin: miter; stroke-linecap: square"/>
   </g>
   <g id="text_15">
    <!-- Curva ROC -->
    <g style="fill: #2c3e50" transform="translate(50.660469 19.3575) scale(0.16 -0.16)">
     <defs>
      <path id="DejaVuSans-Bold-43" d="M 4288 256 
Q 3956 84 3597 -3 
Q 3238 -91 2847 -91 
Q 1681 -91 1000 561 
Q 319 1213 319 2328 
Q 319 3447 1000 4098 
Q 1681 4750 2847 4750 
Q 3238 4750 3597 4662 
Q 3956 4575 4288 4403 
L 4288 3438 
Q 3953 3666 3628 3772 
Q 3303 3878 2944 3878 
Q 2300 3878 1931 3465 
Q 1563 3053 1563 2328 
Q 1563 1606 1931 1193 
Q 2300 781 2944 781 
Q 3303 781 3628 887 
Q 3953 994 4288 1222 
L 4288 256 
z
" transform="scale(0.015625)"/>
      <path id="DejaVuSans-Bold-75" d="M 500 1363 
L 500 3500 
L 1625 3500 
L 1625 3150 
Q 1625 2866 1622 2436 
Q 1619 2006 1619 1863 
Q 1619 1441 1641 1255 
Q 1663 1069 1716 984 
Q 1784 875 1895 815 
Q 2006 756 2150 756 
Q 2500 756 2700 1025 
Q 2900 1294 2900 1772 
L 2900 3500 
L 4019 3500 
L 4019 0 
L 2900 0 
L 2900 506 
Q 2647 200 2364 54 
Q 2081 -91 1741 -91 
Q 1134 -91 817 281 
Q 500 653 500 1363 
z
" transform="scale(0.015625)"/>
      <path id="DejaVuSans-Bold-72" d="M 3138 2547 
Q 2991 2616 2845 2648 
Q 2700 2681 2553 2681 
Q 2122 2681 1889 2404 
Q 1656 2128 1656 1613 
L 1656 0 
L 538 0 
L 538 3500 
L 1656 3500 
L 1656 2925 
Q 1872 3269 2151 3426 
Q 2431 3584 2822 3584 
Q 2878 3584 2943 3579 
Q 3009 3575 3134 3559 
L 3138 2547 
z
" transform="scale(0.015625)"/>
      <path id="DejaVuSans-Bold-76" d="M 97 3500 
L 1216 3500 
L 2088 1081 
L 2956 3500 
L 4078 3500 
L 2700 0 
L 1472 0 
L 97 3500 
z
" transform="scale(0.015625)"/>
      <path id="DejaVuSans-Bold-61" d="M 2106 1575 
Q 1756 1575 1579 1456 
Q 1403 1338 1403 1106 
Q 1403 894 1545 773 
Q 1688 653 1941 653 
Q 2256 653 2472 879 
Q 2688 1106 2688 1447 
L 2688 1575 
L 2106 1575 
z
M 3816 1997 
L 3816 0 
L 2688 0 
L 2688 519 
Q 2463 200 2181 54 
Q 1900 -91 1497 -91 
Q 953 -91 614 226 
Q 275 544 275 1050 
Q 275 1666 698 1953 
Q 1122 2241 2028 2241 
L 2688 2241 
L 2688 2328 
Q 2688 2594 2478 2717 
Q 2269 2841 1825 2841 
Q 1466 2841 1156 2769 
Q 847 2697 581 2553 
L 581 3406 
Q 941 3494 1303 3539 
Q 1666 3584 2028 3584 
Q 2975 3584 3395 3211 
Q 3816 2838 3816 1997 
z
" transform="scale(0.015625)"/>
      <path id="DejaVuSans-Bold-20" transform="scale(0.015625)"/>
      <path id="DejaVuSans-Bold-52" d="M 2297 2597 
Q 2675 2597 2839 2737 
Q 3003 2878 3003 3200 
Q 3003 3519 2839 3656 
Q 2675 3794 2297 3794 
L 1791 3794 
L 1791 2597 
L 2297 2597 
z
M 1791 1766 
L 1791 0 
L 588 0 
L 588 4666 
L 2425 4666 
Q 3347 4666 3776 4356 
Q 4206 4047 4206 3378 
Q 4206 2916 3982 2619 
Q 3759 2322 3309 2181 
Q 3556 2125 3751 1926 
Q 3947 1728 4147 1325 
L 4800 0 
L 3519 0 
L 2950 1159 
Q 2778 1509 2601 1637 
Q 2425 1766 2131 1766 
L 1791 1766 
z
" transform="scale(0.015625)"/>
      <path id="DejaVuSans-Bold-4f" d="M 2719 3878 
Q 2169 3878 1866 3472 
Q 1563 3066 1563 2328 
Q 1563 1594 1866 1187 
Q 2169 781 2719 781 
Q 3272 781 3575 1187 
Q 3878 1594 3878 2328 
Q 3878 3066 3575 3472 
Q 3272 3878 2719 3878 
z
M 2719 4750 
Q 3844 4750 4481 4106 
Q 5119 3463 5119 2328 
Q 5119 1197 4481 553 
Q 3844 -91 2719 -91 
Q 1597 -91 958 553 
Q 319 1197 319 2328 
Q 319 3463 958 4106 
Q 1597 4750 2719 4750 
z
" transform="scale(0.015625)"/>
     </defs>
     <use xlink:href="#DejaVuSans-Bold-43"/>
     <use xlink:href="#DejaVuSans-Bold-75" transform="translate(73.388672 0)"/>
     <use xlink:href="#DejaVuSans-Bold-72" transform="translate(144.580078 0)"/>
     <use xlink:href="#DejaVuSans-Bold-76" transform="translate(193.896484 0)"/>
     <use xlink:href="#DejaVuSans-Bold-61" transform="translate(259.082031 0)"/>
     <use xlink:href="#DejaVuSans-Bold-20" transform="translate(326.5625 0)"/>
     <use xlink:href="#DejaVuSans-Bold-52" transform="translate(361.376953 0)"/>
     <use xlink:href="#DejaVuSans-Bold-4f" transform="translate(438.378906 0)"/>
     <use xlink:href="#DejaVuSans-Bold-43" transform="translate(523.388672 0)"/>
    </g>
   </g>
   <g id="legend_1">
    <g id="line2d_27">
     <path d="M 155.457422 217.548516 
L 167.957422 217.548516 
L 180.457422 217.548516 
" style="fill: none; stroke: #8b1538; stroke-width: 3; stroke-linecap: square"/>
    </g>
    <g id="text_16">
     <!-- Modelo (AUC=0.91) -->
     <g transform="translate(190.457422 221.923516) scale(0.125 -0.125)">
      <defs>
       <path id="DejaVuSans-4d" d="M 628 4666 
L 1569 4666 
L 2759 1491 
L 3956 4666 
L 4897 4666 
L 4897 0 
L 4281 0 
L 4281 4097 
L 3078 897 
L 2444 897 
L 1241 4097 
L 1241 0 
L 628 0 
L 628 4666 
z
" transform="scale(0.015625)"/>
       <path id="DejaVuSans-6f" d="M 1959 3097 
Q 1497 3097 1228 2736 
Q 959 2375 959 1747 
Q 959 1119 1226 758 
Q 1494 397 1959 397 
Q 2419 397 2687 759 
Q 2956 1122 2956 1747 
Q 2956 2369 2687 2733 
Q 2419 3097 1959 3097 
z
M 1959 3584 
Q 2709 3584 3137 3096 
Q 3566 2609 3566 1747 
Q 3566 888 3137 398 
Q 2709 -91 1959 -91 
Q 1206 -91 779 398 
Q 353 888 353 1747 
Q 353 2609 779 3096 
Q 1206 3584 1959 3584 
z
" transform="scale(0.015625)"/>
       <path id="DejaVuSans-41" d="M 2188 4044 
L 1331 1722 
L 3047 1722 
L 2188 4044 
z
M 1831 4666 
L 2547 4666 
L 4325 0 
L 3669 0 
L 3244 1197 
L 1141 1197 
L 716 0 
L 50 0 
L 1831 4666 
z
" transform="scale(0.015625)"/>
       <path id="DejaVuSans-55" d="M 556 4666 
L 1191 4666 
L 1191 1831 
Q 1191 1081 1462 751 
Q 1734 422 2344 422 
Q 2950 422 3222 751 
Q 3494 1081 3494 1831 
L 3494 4666 
L 4128 4666 
L 4128 1753 
Q 4128 841 3676 375 
Q 3225 -91 2344 -91 
Q 1459 -91 1007 375 
Q 556 841 556 1753 
L 556 4666 
z
" transform="scale(0.015625)"/>
       <path id="DejaVuSans-43" d="M 4122 4306 
L 4122 3641 
Q 3803 3938 3442 4084 
Q 3081 4231 2675 4231 
Q 1875 4231 1450 3742 
Q 1025 3253 1025 2328 
Q 1025 1406 1450 917 
Q 1875 428 2675 428 
Q 3081 428 3442 575 
Q 3803 722 4122 1019 
L 4122 359 
Q 3791 134 3420 21 
Q 3050 -91 2638 -91 
Q 1578 -91 968 557 
Q 359 1206 359 2328 
Q 359 3453 968 4101 
Q 1578 4750 2638 4750 
Q 3056 4750 3426 4639 
Q 3797 4528 4122 4306 
z
" transform="scale(0.015625)"/>
       <path id="DejaVuSans-3d" d="M 678 2906 
L 4684 2906 
L 4684 2381 
L 678 2381 
L 678 2906 
z
M 678 1631 
L 4684 1631 
L 4684 1100 
L 678 1100 
L 678 1631 
z
" transform="scale(0.015625)"/>
       <path id="DejaVuSans-39" d="M 703 97 
L 703 672 
Q 941 559 1184 500 
Q 1428 441 1663 441 
Q 2288 441 2617 861 
Q 2947 1281 2994 2138 
Q 2813 1869 2534 1725 
Q 2256 1581 1919 1581 
Q 1219 1581 811 2004 
Q 403 2428 403 3163 
Q 403 3881 828 4315 
Q 1253 4750 1959 4750 
Q 2769 4750 3195 4129 
Q 3622 3509 3622 2328 
Q 3622 1225 3098 567 
Q 2575 -91 1691 -91 
Q 1453 -91 1209 -44 
Q 966 3 703 97 
z
M 1959 2075 
Q 2384 2075 2632 2365 
Q 2881 2656 2881 3163 
Q 2881 3666 2632 3958 
Q 2384 4250 1959 4250 
Q 1534 4250 1286 3958 
Q 1038 3666 1038 3163 
Q 1038 2656 1286 2365 
Q 1534 2075 1959 2075 
z
" transform="scale(0.015625)"/>
      </defs>
      <use xlink:href="#DejaVuSans-4d"/>
      <use xlink:href="#DejaVuSans-6f" transform="translate(86.279297 0)"/>
      <use xlink:href="#DejaVuSans-64" transform="translate(147.460938 0)"/>
      <use xlink:href="#DejaVuSans-65" transform="translate(210.9375 0)"/>
      <use xlink:href="#DejaVuSans-6c" transform="translate(272.460938 0)"/>
      <use xlink:href="#DejaVuSans-6f" transform="translate(300.244141 0)"/>
      <use xlink:href="#DejaVuSans-20" transform="translate(361.425781 0)"/>
      <use xlink:href="#DejaVuSans-28" transform="translate(393.212891 0)"/>
      <use xlink:href="#DejaVuSans-41" transform="translate(432.226562 0)"/>
      <use xlink:href="#DejaVuSans-55" transform="translate(500.634766 0)"/>
      <use xlink:href="#DejaVuSans-43" transform="translate(573.828125 0)"/>
      <use xlink:href="#DejaVuSans-3d" transform="translate(643.652344 0)"/>
      <use xlink:href="#DejaVuSans-30" transform="translate(727.441406 0)"/>
      <use xlink:href="#DejaVuSans-2e" transform="translate(791.064453 0)"/>
      <use xlink:href="#DejaVuSans-39" transform="translate(822.851562 0)"/>
      <use xlink:href="#DejaVuSans-31" transform="translate(886.474609 0)"/>
      <use xlink:href="#DejaVuSans-29" transform="translate(950.097656 0)"/>
     </g>
    </g>
    <g id="line2d_28">
     <path d="M 155.457422 235.896172 
L 167.957422 235.896172 
L 180.457422 235.896172 
" style="fill: none; stroke-dasharray: 5.55,2.4; stroke-dashoffset: 0; stroke: #7f8c8d; stroke-width: 1.5"/>
    </g>
    <g id="text_17">
     <!-- Azar -->
     <g transform="translate(190.457422 240.271172) scale(0.125 -0.125)">
      <defs>
       <path id="DejaVuSans-7a" d="M 353 3500 
L 3084 3500 
L 3084 2975 
L 922 459 
L 3084 459 
L 3084 0 
L 275 0 
L 275 525 
L 2438 3041 
L 353 3041 
L 353 3500 
z
" transform="scale(0.015625)"/>
       <path id="DejaVuSans-72" d="M 2631 2963 
Q 2534 3019 2420 3045 
Q 2306 3072 2169 3072 
Q 1681 3072 1420 2755 
Q 1159 2438 1159 1844 
L 1159 0 
L 581 0 
L 581 3500 
L 1159 3500 
L 1159 2956 
Q 1341 3275 1631 3429 
Q 1922 3584 2338 3584 
Q 2397 3584 2469 3576 
Q 2541 3569 2628 3553 
L 2631 2963 
z
" transform="scale(0.015625)"/>
      </defs>
      <use xlink:href="#DejaVuSans-41"/>
      <use xlink:href="#DejaVuSans-7a" transform="translate(68.408203 0)"/>
      <use xlink:href="#DejaVuSans-61" transform="translate(120.898438 0)"/>
      <use xlink:href="#DejaVuSans-72" transform="translate(182.177734 0)"/>
     </g>
    </g>
   </g>
  </g>
  <g id="axes_2">
   <g id="patch_5">
    <path d="M 382.310469 254.120781 
L 657 254.120781 
L 657 25.3575 
L 382.310469 25.3575 
L 382.310469 254.120781 
z
" style="fill: none"/>
   </g>
   <g id="matplotlib.axis_3">
    <g id="xtick_7">
     <g id="line2d_29">
      <path d="M 394.796357 254.120781 
L 394.796357 25.3575 
" clip-path="url(#p5ac133088f)" style="fill: none; stroke: #e9edf1; stroke-width: 0.9; stroke-linecap: square"/>
     </g>
     <g id="line2d_30">
      <g>
       <use xlink:href="#m2bfc345d9e" x="394.796357" y="254.120781" style="stroke: #000000; stroke-width: 0.8"/>
      </g>
     </g>
     <g id="text_18">
      <!-- 0.0 -->
      <g transform="translate(384.856903 270.618828) scale(0.125 -0.125)">
       <use xlink:href="#DejaVuSans-30"/>
       <use xlink:href="#DejaVuSans-2e" transform="translate(63.623047 0)"/>
       <use xlink:href="#DejaVuSans-30" transform="translate(95.410156 0)"/>
      </g>
     </g>
    </g>
    <g id="xtick_8">
     <g id="line2d_31">
      <path d="M 444.739908 254.120781 
L 444.739908 25.3575 
" clip-path="url(#p5ac133088f)" style="fill: none; stroke: #e9edf1; stroke-width: 0.9; stroke-linecap: square"/>
     </g>
     <g id="line2d_32">
      <g>
       <use xlink:href="#m2bfc345d9e" x="444.739908" y="254.120781" style="stroke: #000000; stroke-width: 0.8"/>
      </g>
     </g>
     <g id="text_19">
      <!-- 0.2 -->
      <g transform="translate(434.800455 270.618828) scale(0.125 -0.125)">
       <use xlink:href="#DejaVuSans-30"/>
       <use xlink:href="#DejaVuSans-2e" transform="translate(63.623047 0)"/>
       <use xlink:href="#DejaVuSans-32" transform="translate(95.410156 0)"/>
      </g>
     </g>
    </g>
    <g id="xtick_9">
     <g id="line2d_33">
      <path d="M 494.683459 254.120781 
L 494.683459 25.3575 
" clip-path="url(#p5ac133088f)" style="fill: none; stroke: #e9edf1; stroke-width: 0.9; stroke-linecap: square"/>
     </g>
     <g id="line2d_34">
      <g>
       <use xlink:href="#m2bfc345d9e" x="494.683459" y="254.120781" style="stroke: #000000; stroke-width: 0.8"/>
      </g>
     </g>
     <g id="text_20">
      <!-- 0.4 -->
      <g transform="translate(484.744006 270.618828) scale(0.125 -0.125)">
       <use xlink:href="#DejaVuSans-30"/>
       <use xlink:href="#DejaVuSans-2e" transform="translate(63.623047 0)"/>
       <use xlink:href="#DejaVuSans-34" transform="translate(95.410156 0)"/>
      </g>
     </g>
    </g>
    <g id="xtick_10">
     <g id="line2d_35">
      <path d="M 544.62701 254.120781 
L 544.62701 25.3575 
" clip-path="url(#p5ac133088f)" style="fill: none; stroke: #e9edf1; stroke-width: 0.9; stroke-linecap: square"/>
     </g>
     <g id="line2d_36">
      <g>
       <use xlink:href="#m2bfc345d9e" x="544.62701" y="254.120781" style="stroke: #000000; stroke-width: 0.8"/>
      </g>
     </g>
     <g id="text_21">
      <!-- 0.6 -->
      <g transform="translate(534.687557 270.618828) scale(0.125 -0.125)">
       <use xlink:href="#DejaVuSans-30"/>
       <use xlink:href="#DejaVuSans-2e" transform="translate(63.623047 0)"/>
       <use xlink:href="#DejaVuSans-36" transform="translate(95.410156 0)"/>
      </g>
     </g>
    </g>
    <g id="xtick_11">
     <g id="line2d_37">
      <path d="M 594.570561 254.120781 
L 594.570561 25.3575 
" clip-path="url(#p5ac133088f)" style="fill: none; stroke: #e9edf1; stroke-width: 0.9; stroke-linecap: square"/>
     </g>
     <g id="line2d_38">
      <g>
       <use xlink:href="#m2bfc345d9e" x="594.570561" y="254.120781" style="stroke: #000000; stroke-width: 0.8"/>
      </g>
     </g>
     <g id="text_22">
      <!-- 0.8 -->
      <g transform="translate(584.631108 270.618828) scale(0.125 -0.125)">
       <use xlink:href="#DejaVuSans-30"/>
       <use xlink:href="#DejaVuSans-2e" transform="translate(63.623047 0)"/>
       <use xlink:href="#DejaVuSans-38" transform="translate(95.410156 0)"/>
      </g>
     </g>
    </g>
    <g id="xtick_12">
     <g id="line2d_39">
      <path d="M 644.514112 254.120781 
L 644.514112 25.3575 
" clip-path="url(#p5ac133088f)" style="fill: none; stroke: #e9edf1; stroke-width: 0.9; stroke-linecap: square"/>
     </g>
     <g id="line2d_40">
      <g>
       <use xlink:href="#m2bfc345d9e" x="644.514112" y="254.120781" style="stroke: #000000; stroke-width: 0.8"/>
      </g>
     </g>
     <g id="text_23">
      <!-- 1.0 -->
      <g transform="translate(634.574659 270.618828) scale(0.125 -0.125)">
       <use xlink:href="#DejaVuSans-31"/>
       <use xlink:href="#DejaVuSans-2e" transform="translate(63.623047 0)"/>
       <use xlink:href="#DejaVuSans-30" transform="translate(95.410156 0)"/>
      </g>
     </g>
    </g>
    <g id="text_24">
     <!-- Recall -->
     <g transform="translate(500.262891 287.096406) scale(0.13 -0.13)">
      <use xlink:href="#DejaVuSans-52"/>
      <use xlink:href="#DejaVuSans-65" transform="translate(64.982422 0)"/>
      <use xlink:href="#DejaVuSans-63" transform="translate(126.505859 0)"/>
      <use xlink:href="#DejaVuSans-61" transform="translate(181.486328 0)"/>
      <use xlink:href="#DejaVuSans-6c" transform="translate(242.765625 0)"/>
      <use xlink:href="#DejaVuSans-6c" transform="translate(270.548828 0)"/>
     </g>
    </g>
   </g>
   <g id="matplotlib.axis_4">
    <g id="ytick_7">
     <g id="line2d_41">
      <path d="M 382.310469 249.054928 
L 657 249.054928 
" clip-path="url(#p5ac133088f)" style="fill: none; stroke: #e9edf1; stroke-width: 0.9; stroke-linecap: square"/>
     </g>
     <g id="line2d_42">
      <g>
       <use xlink:href="#mb324cf7bd8" x="382.310469" y="249.054928" style="stroke: #000000; stroke-width: 0.8"/>
      </g>
     </g>
     <g id="text_25">
      <!-- 0.2 -->
      <g transform="translate(355.431562 253.803951) scale(0.125 -0.125)">
       <use xlink:href="#DejaVuSans-30"/>
       <use xlink:href="#DejaVuSans-2e" transform="translate(63.623047 0)"/>
       <use xlink:href="#DejaVuSans-32" transform="translate(95.410156 0)"/>
      </g>
     </g>
    </g>
    <g id="ytick_8">
     <g id="line2d_43">
      <path d="M 382.310469 222.392541 
L 657 222.392541 
" clip-path="url(#p5ac133088f)" style="fill: none; stroke: #e9edf1; stroke-width: 0.9; stroke-linecap: square"/>
     </g>
     <g id="line2d_44">
      <g>
       <use xlink:href="#mb324cf7bd8" x="382.310469" y="222.392541" style="stroke: #000000; stroke-width: 0.8"/>
      </g>
     </g>
     <g id="text_26">
      <!-- 0.3 -->
      <g transform="translate(355.431562 227.141564) scale(0.125 -0.125)">
       <defs>
        <path id="DejaVuSans-33" d="M 2597 2516 
Q 3050 2419 3304 2112 
Q 3559 1806 3559 1356 
Q 3559 666 3084 287 
Q 2609 -91 1734 -91 
Q 1441 -91 1130 -33 
Q 819 25 488 141 
L 488 750 
Q 750 597 1062 519 
Q 1375 441 1716 441 
Q 2309 441 2620 675 
Q 2931 909 2931 1356 
Q 2931 1769 2642 2001 
Q 2353 2234 1838 2234 
L 1294 2234 
L 1294 2753 
L 1863 2753 
Q 2328 2753 2575 2939 
Q 2822 3125 2822 3475 
Q 2822 3834 2567 4026 
Q 2313 4219 1838 4219 
Q 1578 4219 1281 4162 
Q 984 4106 628 3988 
L 628 4550 
Q 988 4650 1302 4700 
Q 1616 4750 1894 4750 
Q 2613 4750 3031 4423 
Q 3450 4097 3450 3541 
Q 3450 3153 3228 2886 
Q 3006 2619 2597 2516 
z
" transform="scale(0.015625)"/>
       </defs>
       <use xlink:href="#DejaVuSans-30"/>
       <use xlink:href="#DejaVuSans-2e" transform="translate(63.623047 0)"/>
       <use xlink:href="#DejaVuSans-33" transform="translate(95.410156 0)"/>
      </g>
     </g>
    </g>
    <g id="ytick_9">
     <g id="line2d_45">
      <path d="M 382.310469 195.730154 
L 657 195.730154 
" clip-path="url(#p5ac133088f)" style="fill: none; stroke: #e9edf1; stroke-width: 0.9; stroke-linecap: square"/>
     </g>
     <g id="line2d_46">
      <g>
       <use xlink:href="#mb324cf7bd8" x="382.310469" y="195.730154" style="stroke: #000000; stroke-width: 0.8"/>
      </g>
     </g>
     <g id="text_27">
      <!-- 0.4 -->
      <g transform="translate(355.431562 200.479177) scale(0.125 -0.125)">
       <use xlink:href="#DejaVuSans-30"/>
       <use xlink:href="#DejaVuSans-2e" transform="translate(63.623047 0)"/>
       <use xlink:href="#DejaVuSans-34" transform="translate(95.410156 0)"/>
      </g>
     </g>
    </g>
    <g id="ytick_10">
     <g id="line2d_47">
      <path d="M 382.310469 169.067766 
L 657 169.067766 
" clip-path="url(#p5ac133088f)" style="fill: none; stroke: #e9edf1; stroke-width: 0.9; stroke-linecap: square"/>
     </g>
     <g id="line2d_48">
      <g>
       <use xlink:href="#mb324cf7bd8" x="382.310469" y="169.067766" style="stroke: #000000; stroke-width: 0.8"/>
      </g>
     </g>
     <g id="text_28">
      <!-- 0.5 -->
      <g transform="translate(355.431562 173.81679) scale(0.125 -0.125)">
       <defs>
        <path id="DejaVuSans-35" d="M 691 4666 
L 3169 4666 
L 3169 4134 
L 1269 4134 
L 1269 2991 
Q 1406 3038 1543 3061 
Q 1681 3084 1819 3084 
Q 2600 3084 3056 2656 
Q 3513 2228 3513 1497 
Q 3513 744 3044 326 
Q 2575 -91 1722 -91 
Q 1428 -91 1123 -41 
Q 819 9 494 109 
L 494 744 
Q 775 591 1075 516 
Q 1375 441 1709 441 
Q 2250 441 2565 725 
Q 2881 1009 2881 1497 
Q 2881 1984 2565 2268 
Q 2250 2553 1709 2553 
Q 1456 2553 1204 2497 
Q 953 2441 691 2322 
L 691 4666 
z
" transform="scale(0.015625)"/>
       </defs>
       <use xlink:href="#DejaVuSans-30"/>
       <use xlink:href="#DejaVuSans-2e" transform="translate(63.623047 0)"/>
       <use xlink:href="#DejaVuSans-35" transform="translate(95.410156 0)"/>
      </g>
     </g>
    </g>
    <g id="ytick_11">
     <g id="line2d_49">
      <path d="M 382.310469 142.405379 
L 657 142.405379 
" clip-path="url(#p5ac133088f)" style="fill: none; stroke: #e9edf1; stroke-width: 0.9; stroke-linecap: square"/>
     </g>
     <g id="line2d_50">
      <g>
       <use xlink:href="#mb324cf7bd8" x="382.310469" y="142.405379" style="stroke: #000000; stroke-width: 0.8"/>
      </g>
     </g>
     <g id="text_29">
      <!-- 0.6 -->
      <g transform="translate(355.431562 147.154403) scale(0.125 -0.125)">
       <use xlink:href="#DejaVuSans-30"/>
       <use xlink:href="#DejaVuSans-2e" transform="translate(63.623047 0)"/>
       <use xlink:href="#DejaVuSans-36" transform="translate(95.410156 0)"/>
      </g>
     </g>
    </g>
    <g id="ytick_12">
     <g id="line2d_51">
      <path d="M 382.310469 115.742992 
L 657 115.742992 
" clip-path="url(#p5ac133088f)" style="fill: none; stroke: #e9edf1; stroke-width: 0.9; stroke-linecap: square"/>
     </g>
     <g id="line2d_52">
      <g>
       <use xlink:href="#mb324cf7bd8" x="382.310469" y="115.742992" style="stroke: #000000; stroke-width: 0.8"/>
      </g>
     </g>
     <g id="text_30">
      <!-- 0.7 -->
      <g transform="translate(355.431562 120.492016) scale(0.125 -0.125)">
       <defs>
        <path id="DejaVuSans-37" d="M 525 4666 
L 3525 4666 
L 3525 4397 
L 1831 0 
L 1172 0 
L 2766 4134 
L 525 4134 
L 525 4666 
z
" transform="scale(0.015625)"/>
       </defs>
       <use xlink:href="#DejaVuSans-30"/>
       <use xlink:href="#DejaVuSans-2e" transform="translate(63.623047 0)"/>
       <use xlink:href="#DejaVuSans-37" transform="translate(95.410156 0)"/>
      </g>
     </g>
    </g>
    <g id="ytick_13">
     <g id="line2d_53">
      <path d="M 382.310469 89.080605 
L 657 89.080605 
" clip-path="url(#p5ac133088f)" style="fill: none; stroke: #e9edf1; stroke-width: 0.9; stroke-linecap: square"/>
     </g>
     <g id="line2d_54">
      <g>
       <use xlink:href="#mb324cf7bd8" x="382.310469" y="89.080605" style="stroke: #000000; stroke-width: 0.8"/>
      </g>
     </g>
     <g id="text_31">
      <!-- 0.8 -->
      <g transform="translate(355.431562 93.829629) scale(0.125 -0.125)">
       <use xlink:href="#DejaVuSans-30"/>
       <use xlink:href="#DejaVuSans-2e" transform="translate(63.623047 0)"/>
       <use xlink:href="#DejaVuSans-38" transform="translate(95.410156 0)"/>
      </g>
     </g>
    </g>
    <g id="ytick_14">
     <g id="line2d_55">
      <path d="M 382.310469 62.418218 
L 657 62.418218 
" clip-path="url(#p5ac133088f)" style="fill: none; stroke: #e9edf1; stroke-width: 0.9; stroke-linecap: square"/>
     </g>
     <g id="line2d_56">
      <g>
       <use xlink:href="#mb324cf7bd8" x="382.310469" y="62.418218" style="stroke: #000000; stroke-width: 0.8"/>
      </g>
     </g>
     <g id="text_32">
      <!-- 0.9 -->
      <g transform="translate(355.431562 67.167241) scale(0.125 -0.125)">
       <use xlink:href="#DejaVuSans-30"/>
       <use xlink:href="#DejaVuSans-2e" transform="translate(63.623047 0)"/>
       <use xlink:href="#DejaVuSans-39" transform="translate(95.410156 0)"/>
      </g>
     </g>
    </g>
    <g id="ytick_15">
     <g id="line2d_57">
      <path d="M 382.310469 35.755831 
L 657 35.755831 
" clip-path="url(#p5ac133088f)" style="fill: none; stroke: #e9edf1; stroke-width: 0.9; stroke-linecap: square"/>
     </g>
     <g id="line2d_58">
      <g>
       <use xlink:href="#mb324cf7bd8" x="382.310469" y="35.755831" style="stroke: #000000; stroke-width: 0.8"/>
      </g>
     </g>
     <g id="text_33">
      <!-- 1.0 -->
      <g transform="translate(355.431562 40.504854) scale(0.125 -0.125)">
       <use xlink:href="#DejaVuSans-31"/>
       <use xlink:href="#DejaVuSans-2e" transform="translate(63.623047 0)"/>
       <use xlink:href="#DejaVuSans-30" transform="translate(95.410156 0)"/>
      </g>
     </g>
    </g>
    <g id="text_34">
     <!-- Precision -->
     <g transform="translate(348.727969 168.738281) rotate(-90) scale(0.13 -0.13)">
      <use xlink:href="#DejaVuSans-50"/>
      <use xlink:href="#DejaVuSans-72" transform="translate(58.552734 0)"/>
      <use xlink:href="#DejaVuSans-65" transform="translate(97.416016 0)"/>
      <use xlink:href="#DejaVuSans-63" transform="translate(158.939453 0)"/>
      <use xlink:href="#DejaVuSans-69" transform="translate(213.919922 0)"/>
      <use xlink:href="#DejaVuSans-73" transform="translate(241.703125 0)"/>
      <use xlink:href="#DejaVuSans-69" transform="translate(293.802734 0)"/>
      <use xlink:href="#DejaVuSans-6f" transform="translate(321.585938 0)"/>
      <use xlink:href="#DejaVuSans-6e" transform="translate(382.767578 0)"/>
     </g>
    </g>
   </g>
   <g id="line2d_59">
    <path d="M 644.514112 243.72245 
L 644.514112 236.417091 
L 644.230342 236.47352 
L 644.230342 236.362129 
L 644.230342 235.092196 
L 643.946572 235.149444 
L 643.946572 235.052765 
L 643.946572 232.832537 
L 643.662802 232.891103 
L 643.662802 232.787697 
L 643.662802 230.981493 
L 643.379032 231.041122 
L 643.379032 230.932008 
L 643.379032 229.368601 
L 643.095261 229.429143 
L 643.095261 229.337784 
L 643.095261 228.364509 
L 642.811491 228.425635 
L 642.811491 228.331636 
L 642.811491 228.284547 
L 642.527721 228.345784 
L 642.527721 228.251473 
L 642.527721 225.50961 
L 642.243951 225.572297 
L 642.243951 225.470666 
L 642.243951 223.433686 
L 641.960181 223.497436 
L 641.960181 223.390113 
L 641.960181 220.579987 
L 641.67641 220.645111 
L 641.67641 220.55862 
L 641.67641 220.065022 
L 641.39264 220.13045 
L 641.39264 220.042764 
L 641.39264 219.954891 
L 641.10887 220.020442 
L 641.10887 219.93242 
L 641.10887 219.608057 
L 640.8251 219.673836 
L 640.8251 219.584968 
L 640.8251 218.655364 
L 640.54133 218.721632 
L 640.54133 218.630601 
L 640.54133 217.98779 
L 640.25756 218.054419 
L 640.25756 217.961822 
L 640.25756 217.869021 
L 639.973789 217.935778 
L 639.973789 217.842812 
L 639.973789 217.123216 
L 639.690019 217.190364 
L 639.690019 217.095639 
L 639.690019 216.233539 
L 639.406249 216.301134 
L 639.406249 216.204308 
L 639.406249 216.042445 
L 639.122479 216.110197 
L 639.122479 216.012827 
L 639.122479 215.980322 
L 638.554939 216.018501 
L 638.554939 215.757196 
L 638.271168 215.825301 
L 638.271168 215.726944 
L 638.271168 214.393824 
L 637.987398 214.462558 
L 637.987398 214.360959 
L 637.987398 214.225127 
L 637.703628 214.294008 
L 637.703628 214.191899 
L 637.703628 213.884148 
L 637.419858 213.953244 
L 637.419858 213.850222 
L 637.419858 212.736206 
L 636.852317 212.805002 
L 636.852317 212.769709 
L 636.852317 212.379638 
L 636.284777 212.483936 
L 636.284777 212.412646 
L 636.284777 209.617268 
L 635.717237 209.645713 
L 635.717237 208.802328 
L 635.433467 208.873894 
L 635.433467 208.796489 
L 635.433467 207.261047 
L 635.149696 207.333229 
L 635.149696 207.253157 
L 635.149696 207.132794 
L 634.865926 207.205105 
L 634.865926 207.124721 
L 634.865926 206.801823 
L 634.582156 206.874331 
L 634.582156 206.793291 
L 634.582156 206.712113 
L 634.298386 206.784737 
L 634.298386 206.703449 
L 634.298386 206.171687 
L 633.730845 206.276406 
L 633.730845 206.235248 
L 633.730845 204.559528 
L 633.163305 204.664147 
L 633.163305 204.621495 
L 633.163305 204.3648 
L 632.879535 204.438621 
L 632.879535 204.352784 
L 632.879535 204.051162 
L 632.311995 204.11278 
L 632.311995 203.10738 
L 632.028224 203.181858 
L 632.028224 203.093485 
L 632.028224 199.424711 
L 631.460684 199.528495 
L 631.460684 199.480901 
L 631.460684 198.954442 
L 631.176914 199.030384 
L 631.176914 198.934111 
L 631.176914 198.352683 
L 630.893144 198.428877 
L 630.893144 198.331362 
L 630.893144 196.392573 
L 630.609374 196.469359 
L 630.609374 196.36801 
L 630.609374 195.292009 
L 630.325603 195.369154 
L 630.325603 195.265562 
L 630.325603 195.109797 
L 630.041833 195.187079 
L 630.041833 195.083008 
L 630.041833 194.55961 
L 629.758063 194.637113 
L 629.758063 194.531844 
L 629.758063 194.320688 
L 629.474293 194.39834 
L 629.474293 194.292476 
L 629.474293 193.059949 
L 629.190523 193.137977 
L 629.190523 193.029495 
L 629.190523 192.483835 
L 628.906752 192.562082 
L 628.906752 192.452319 
L 628.906752 192.12171 
L 628.622982 192.200128 
L 628.622982 192.089506 
L 628.622982 191.588946 
L 628.055442 191.634466 
L 628.055442 191.522432 
L 627.771672 191.601262 
L 627.771672 191.489024 
L 627.771672 191.094395 
L 627.204131 191.139279 
L 627.204131 188.825386 
L 626.920361 188.905026 
L 626.920361 188.845956 
L 626.920361 188.786824 
L 626.636591 188.866569 
L 626.636591 188.807386 
L 626.636591 187.428935 
L 626.352821 187.509016 
L 626.352821 187.448334 
L 626.352821 187.387588 
L 626.069051 187.467774 
L 626.069051 187.406974 
L 626.069051 187.34611 
L 625.785281 187.426402 
L 625.785281 187.365483 
L 625.785281 184.170644 
L 625.50151 184.251524 
L 625.50151 184.187114 
L 625.50151 183.864006 
L 625.21774 183.945028 
L 625.21774 183.880204 
L 625.21774 183.16242 
L 624.6502 183.259274 
L 624.6502 182.664993 
L 624.082659 182.761663 
L 624.082659 181.891957 
L 623.515119 182.055603 
L 623.515119 181.988195 
L 623.515119 181.241686 
L 623.231349 181.323742 
L 623.231349 181.255426 
L 623.231349 180.568001 
L 622.663809 180.663404 
L 622.663809 180.316436 
L 622.380038 180.398901 
L 622.380038 180.329277 
L 622.380038 180.049985 
L 621.812498 180.145262 
L 621.812498 180.075174 
L 621.528728 180.157973 
L 621.528728 180.087812 
L 621.528728 179.876842 
L 620.961188 180.042785 
L 620.961188 179.972314 
L 620.961188 178.76177 
L 620.677417 178.84501 
L 620.677417 178.773062 
L 620.677417 178.26707 
L 620.393647 178.350458 
L 620.393647 178.277842 
L 620.393647 178.132353 
L 620.109877 178.215858 
L 620.109877 178.142992 
L 620.109877 177.85067 
L 619.826107 177.934305 
L 619.826107 177.861015 
L 619.826107 177.49327 
L 619.542337 177.577039 
L 619.542337 177.503235 
L 619.542337 177.281298 
L 619.258566 177.36519 
L 619.258566 177.291041 
L 619.258566 175.865316 
L 618.974796 175.949415 
L 618.974796 175.873481 
L 618.974796 174.568502 
L 618.691026 174.652784 
L 618.691026 174.575185 
L 618.691026 174.029345 
L 618.407256 174.113762 
L 618.407256 174.035407 
L 618.407256 173.956957 
L 618.123486 174.041484 
L 618.123486 173.962942 
L 618.123486 173.726737 
L 617.839716 173.811381 
L 617.839716 173.732457 
L 617.839716 173.256866 
L 617.555945 173.341639 
L 617.555945 173.262035 
L 617.555945 173.022632 
L 617.272175 173.107522 
L 617.272175 173.027527 
L 617.272175 172.947433 
L 616.988405 173.032434 
L 616.988405 172.952243 
L 616.988405 172.791564 
L 616.704635 172.876679 
L 616.704635 172.796192 
L 616.704635 172.067285 
L 616.420865 172.152533 
L 616.420865 172.071039 
L 616.420865 171.907745 
L 616.137095 171.993107 
L 616.137095 171.911308 
L 616.137095 171.253208 
L 615.853324 171.338695 
L 615.853324 171.255967 
L 615.853324 171.090198 
L 615.285784 171.261507 
L 615.285784 171.178468 
L 615.285784 170.173737 
L 615.002014 170.259572 
L 615.002014 170.17515 
L 615.002014 169.239339 
L 614.718244 169.325291 
L 614.718244 169.23956 
L 614.718244 168.549715 
L 614.434473 168.635777 
L 614.434473 168.549043 
L 614.434473 168.288164 
L 614.150703 168.374336 
L 614.150703 168.28715 
L 614.150703 167.143316 
L 613.866933 167.229585 
L 613.866933 167.140787 
L 613.866933 166.605541 
L 613.583163 166.69191 
L 613.583163 166.602288 
L 613.583163 166.152396 
L 613.299393 166.238866 
L 613.299393 166.148527 
L 613.299393 165.603965 
L 613.015623 165.690531 
L 613.015623 165.599344 
L 613.015623 165.325052 
L 612.731852 165.41172 
L 612.731852 165.320041 
L 612.731852 165.22824 
L 612.164312 165.30998 
L 612.164312 164.941017 
L 611.596772 165.022563 
L 611.596772 164.83707 
L 611.029231 165.011622 
L 611.029231 164.91868 
L 611.029231 163.319202 
L 610.461691 163.494067 
L 610.461691 163.398809 
L 610.461691 163.016468 
L 610.177921 163.104053 
L 610.177921 163.008133 
L 610.177921 162.526545 
L 609.61038 162.605276 
L 609.61038 161.335488 
L 609.32661 161.423306 
L 609.32661 161.324666 
L 609.32661 161.126971 
L 609.04284 161.214889 
L 609.04284 161.115826 
L 609.04284 160.618418 
L 608.4753 160.794529 
L 608.4753 160.69461 
L 608.4753 160.59455 
L 607.907759 160.771125 
L 607.907759 160.670907 
L 607.907759 160.570547 
L 607.623989 160.659005 
L 607.623989 160.558494 
L 607.623989 160.45784 
L 607.340219 160.546407 
L 607.340219 160.445601 
L 607.340219 159.939417 
L 607.056449 160.028056 
L 607.056449 159.926377 
L 607.056449 158.383561 
L 606.772679 158.472165 
L 606.772679 158.36811 
L 606.772679 158.263905 
L 606.488909 158.352614 
L 606.488909 158.248247 
L 606.488909 158.143728 
L 606.205138 158.232544 
L 606.205138 158.127862 
L 606.205138 157.707609 
L 605.921368 157.796495 
L 605.921368 157.691037 
L 605.921368 157.267661 
L 605.637598 157.356615 
L 605.637598 157.250371 
L 605.637598 156.07133 
L 605.070058 156.141146 
L 605.070058 155.706882 
L 604.786287 155.795999 
L 604.786287 155.687015 
L 604.786287 154.588193 
L 604.502517 154.677273 
L 604.502517 154.566468 
L 604.502517 154.34436 
L 603.934977 154.411484 
L 603.934977 154.188305 
L 603.651207 154.277688 
L 603.651207 154.165828 
L 603.651207 153.829233 
L 603.367437 153.918683 
L 603.367437 153.806127 
L 603.367437 153.240779 
L 602.799896 153.306249 
L 602.799896 152.620853 
L 602.516126 152.710474 
L 602.516126 152.595609 
L 602.516126 152.018628 
L 601.664816 152.171972 
L 601.664816 152.055803 
L 601.381045 152.145818 
L 601.381045 152.029448 
L 601.381045 151.679253 
L 601.097275 151.769326 
L 601.097275 151.534913 
L 600.813505 151.625083 
L 600.813505 151.389897 
L 600.529735 151.480165 
L 600.529735 151.362275 
L 600.245965 151.452663 
L 600.245965 150.979167 
L 599.962194 151.069609 
L 599.962194 150.950748 
L 599.678424 151.04131 
L 599.678424 150.802982 
L 599.394654 150.893641 
L 599.394654 150.654516 
L 599.110884 150.745273 
L 599.110884 150.505345 
L 598.827114 150.5962 
L 598.827114 150.475928 
L 598.543344 150.566903 
L 598.543344 150.446417 
L 597.692033 150.720141 
L 597.692033 149.011989 
L 597.408263 149.103177 
L 597.408263 148.979667 
L 597.124493 149.070976 
L 597.124493 148.94724 
L 596.840722 149.038671 
L 596.840722 148.541618 
L 596.556952 148.63309 
L 596.556952 148.383299 
L 596.273182 148.474866 
L 596.273182 147.086061 
L 595.989412 147.177465 
L 595.989412 146.79425 
L 595.705642 146.885715 
L 595.705642 146.757525 
L 595.138101 146.940847 
L 595.138101 145.907172 
L 594.570561 146.090605 
L 594.570561 145.437223 
L 594.286791 145.529006 
L 594.286791 145.397641 
L 594.003021 145.489545 
L 594.003021 145.094023 
L 593.719251 145.185982 
L 593.719251 145.053664 
L 593.43548 145.145743 
L 593.43548 144.614098 
L 593.15171 144.706194 
L 593.15171 144.572686 
L 592.86794 144.664904 
L 592.86794 144.262912 
L 592.58417 144.35518 
L 592.58417 143.408925 
L 592.3004 143.501094 
L 592.3004 143.228575 
L 592.016629 143.320826 
L 592.016629 142.635227 
L 591.732859 142.727444 
L 591.732859 142.03571 
L 591.449089 142.127887 
L 591.449089 141.84943 
L 590.881549 142.034102 
L 590.881549 141.33329 
L 590.597779 141.425659 
L 590.597779 141.002096 
L 590.030238 141.187063 
L 590.030238 141.045293 
L 589.462698 141.230825 
L 589.462698 140.803752 
L 589.178928 140.896632 
L 589.178928 140.467156 
L 588.611387 140.653144 
L 588.611387 139.495888 
L 588.043847 139.681802 
L 588.043847 139.535885 
L 587.760077 139.629045 
L 587.760077 139.482818 
L 587.476307 139.576097 
L 587.476307 139.429559 
L 587.192536 139.522959 
L 587.192536 139.376109 
L 586.908766 139.469629 
L 586.908766 139.175036 
L 586.624996 139.268628 
L 586.624996 139.120882 
L 586.341226 139.214595 
L 586.341226 138.769599 
L 586.057456 138.863333 
L 586.057456 138.565218 
L 585.773686 138.659022 
L 585.773686 138.209651 
L 585.489915 138.303474 
L 585.489915 138.153083 
L 585.206145 138.247025 
L 585.206145 137.186149 
L 584.071065 137.562165 
L 584.071065 137.409273 
L 583.787294 137.503659 
L 583.787294 137.196913 
L 583.503524 137.291365 
L 583.503524 136.052428 
L 582.935984 136.240955 
L 582.935984 134.345836 
L 582.084673 134.627791 
L 582.084673 134.146667 
L 581.517133 134.335155 
L 581.517133 133.850877 
L 580.665822 134.134388 
L 580.665822 133.972146 
L 580.382052 134.066949 
L 580.382052 132.757123 
L 580.098282 132.851574 
L 580.098282 132.686342 
L 579.814512 132.780908 
L 579.814512 132.449336 
L 579.530742 132.543948 
L 579.530742 132.043941 
L 579.246972 132.138527 
L 579.246972 131.971131 
L 578.679431 132.160718 
L 578.679431 131.148514 
L 578.395661 131.24315 
L 578.395661 130.732294 
L 578.111891 130.826893 
L 578.111891 130.484472 
L 577.54435 130.673929 
L 577.54435 129.984348 
L 577.26058 130.07905 
L 577.26058 129.033747 
L 576.97681 129.128158 
L 576.97681 128.952625 
L 576.69304 129.047145 
L 576.69304 127.629292 
L 576.40927 127.723328 
L 576.40927 125.734487 
L 576.1255 125.827729 
L 576.1255 125.461059 
L 575.841729 125.554307 
L 575.841729 125.370306 
L 575.274189 125.557197 
L 575.274189 124.816579 
L 574.990419 124.909935 
L 574.990419 124.537099 
L 574.706649 124.630455 
L 574.706649 124.44335 
L 574.139108 124.630455 
L 574.139108 124.442757 
L 573.571568 124.630455 
L 573.571568 124.253468 
L 572.720257 124.535907 
L 572.720257 123.584871 
L 572.436487 123.678906 
L 572.436487 123.487373 
L 572.152717 123.581505 
L 572.152717 122.810823 
L 571.585177 122.998847 
L 571.585177 122.804922 
L 571.301407 122.899131 
L 571.301407 122.704677 
L 571.017636 122.798982 
L 571.017636 122.603997 
L 570.733866 122.698398 
L 570.733866 122.110563 
L 570.450096 122.204837 
L 570.450096 122.007925 
L 570.166326 122.102292 
L 570.166326 121.508624 
L 569.882556 121.602858 
L 569.882556 121.403983 
L 569.315015 121.592843 
L 569.315015 121.193314 
L 568.463705 121.477475 
L 568.463705 121.276695 
L 568.179935 121.371718 
L 568.179935 120.1569 
L 567.896164 120.251414 
L 567.896164 119.842596 
L 567.612394 119.937076 
L 567.612394 119.731853 
L 567.044854 119.921202 
L 567.044854 119.715267 
L 566.761084 119.810136 
L 566.761084 119.396615 
L 566.477314 119.491446 
L 566.477314 119.283854 
L 565.909773 119.473906 
L 565.909773 119.265586 
L 565.626003 119.360808 
L 565.626003 119.151882 
L 565.342233 119.247192 
L 565.342233 118.827644 
L 565.058463 118.92291 
L 565.058463 117.864912 
L 564.774693 117.959727 
L 564.774693 117.318637 
L 564.207152 117.508098 
L 564.207152 116.861694 
L 563.923382 116.956333 
L 563.923382 116.522594 
L 563.639612 116.617169 
L 563.639612 116.399393 
L 563.072071 116.58892 
L 563.072071 115.490866 
L 562.788301 115.585227 
L 562.788301 114.919688 
L 562.504531 115.013819 
L 562.504531 114.118402 
L 562.220761 114.212137 
L 562.220761 113.986787 
L 561.36945 114.26887 
L 561.36945 112.672778 
L 561.08568 112.766124 
L 561.08568 111.375315 
L 560.80191 111.467873 
L 560.80191 111.233912 
L 560.23437 111.419362 
L 560.23437 111.184478 
L 559.950599 111.277371 
L 559.950599 111.041733 
L 559.099289 111.32126 
L 559.099289 110.131606 
L 558.247978 110.410515 
L 558.247978 110.170253 
L 557.112898 110.544665 
L 557.112898 110.303059 
L 556.545357 110.49131 
L 556.545357 110.005517 
L 556.261587 110.099623 
L 556.261587 109.610982 
L 555.694047 109.799148 
L 555.694047 109.307244 
L 555.410277 109.401299 
L 555.410277 108.658122 
L 555.126506 108.751826 
L 555.126506 108.252786 
L 554.842736 108.34633 
L 554.842736 107.844303 
L 554.558966 107.937682 
L 554.558966 107.685487 
L 554.275196 107.778903 
L 554.275196 107.27213 
L 553.707656 107.458856 
L 553.707656 107.204058 
L 553.140115 107.39134 
L 553.140115 107.13545 
L 552.856345 107.229247 
L 552.856345 106.456884 
L 552.572575 106.55028 
L 552.572575 106.291247 
L 552.288805 106.384671 
L 552.288805 106.124731 
L 552.005035 106.218182 
L 552.005035 105.433536 
L 551.153724 105.713366 
L 551.153724 104.654597 
L 550.869954 104.747453 
L 550.869954 104.213311 
L 550.018643 104.491971 
L 550.018643 104.223102 
L 549.167333 104.503323 
L 549.167333 104.233 
L 548.883563 104.326676 
L 548.883563 103.783321 
L 548.032252 104.064426 
L 548.032252 103.790888 
L 547.748482 103.884859 
L 547.748482 102.226127 
L 547.464712 102.318834 
L 547.464712 102.039419 
L 546.897171 102.225087 
L 546.897171 101.380553 
L 546.329631 101.565672 
L 546.329631 99.273929 
L 545.762091 99.455669 
L 545.762091 97.99368 
L 545.47832 98.083489 
L 545.47832 97.788263 
L 545.19455 97.878035 
L 545.19455 97.581656 
L 544.91078 97.671389 
L 544.91078 97.373848 
L 544.34324 97.553492 
L 544.34324 97.254476 
L 544.05947 97.344386 
L 544.05947 96.138296 
L 543.775699 96.227224 
L 543.775699 95.923165 
L 543.491929 96.012038 
L 543.491929 95.706761 
L 542.924389 95.884656 
L 542.924389 95.577829 
L 541.789308 95.935509 
L 541.789308 95.626461 
L 541.505538 95.716222 
L 541.505538 95.405916 
L 541.221768 95.495616 
L 541.221768 94.24367 
L 540.937998 94.332287 
L 540.937998 94.016586 
L 540.654227 94.105128 
L 540.654227 93.788119 
L 540.086687 93.965317 
L 540.086687 93.326988 
L 539.519147 93.503858 
L 539.519147 92.860173 
L 538.667836 93.125364 
L 538.667836 92.14906 
L 538.384066 92.2369 
L 538.384066 91.580204 
L 537.532756 91.843113 
L 537.532756 91.512081 
L 537.248985 91.599886 
L 537.248985 90.933915 
L 536.681445 91.108806 
L 536.681445 89.421339 
L 536.113905 89.593343 
L 536.113905 89.251792 
L 534.411284 89.772012 
L 534.411284 89.42687 
L 533.843743 89.601694 
L 533.843743 89.254585 
L 533.559973 89.342001 
L 533.559973 88.643517 
L 532.708663 88.904906 
L 532.708663 88.552637 
L 531.857352 88.815308 
L 531.857352 88.104611 
L 531.573582 88.191859 
L 531.573582 87.834283 
L 531.006041 88.00875 
L 531.006041 86.926069 
L 530.722271 87.012359 
L 530.722271 86.648563 
L 530.154731 86.821081 
L 530.154731 86.455107 
L 529.587191 86.627847 
L 529.587191 86.25967 
L 528.73588 86.519553 
L 528.73588 86.148659 
L 527.600799 86.497398 
L 527.600799 86.123252 
L 527.317029 86.210695 
L 527.317029 85.834749 
L 527.033259 85.921995 
L 527.033259 85.544233 
L 526.465719 85.718623 
L 526.465719 85.338516 
L 525.898178 85.513103 
L 525.898178 85.130622 
L 525.046868 85.393254 
L 525.046868 84.62106 
L 524.763098 84.708164 
L 524.763098 83.929375 
L 524.479327 84.015707 
L 524.479327 83.623671 
L 523.344247 83.969913 
L 523.344247 83.574243 
L 523.060476 83.661027 
L 523.060476 83.263357 
L 522.776706 83.349892 
L 522.776706 82.950202 
L 522.492936 83.036481 
L 522.492936 82.231552 
L 521.925396 82.402733 
L 521.925396 80.770251 
L 521.357855 80.937902 
L 521.357855 80.110082 
L 521.074085 80.193143 
L 521.074085 79.357855 
L 520.790315 79.439968 
L 520.790315 79.019327 
L 520.222775 79.183204 
L 520.222775 78.759681 
L 519.939005 78.841437 
L 519.939005 78.41565 
L 517.668843 79.075764 
L 517.668843 78.643004 
L 516.533762 78.97806 
L 516.533762 78.540875 
L 515.682452 78.793542 
L 515.682452 78.352544 
L 514.547371 78.691285 
L 514.547371 77.798318 
L 514.263601 77.882403 
L 514.263601 77.432508 
L 512.84475 77.854337 
L 512.84475 77.39891 
L 512.56098 77.483551 
L 512.56098 77.025514 
L 511.709669 77.279221 
L 511.709669 76.352881 
L 511.425899 76.436587 
L 511.425899 75.969762 
L 511.142129 76.053021 
L 511.142129 75.111953 
L 510.858359 75.193945 
L 510.858359 74.719653 
L 510.290819 74.883024 
L 510.290819 73.925143 
L 507.169347 74.830019 
L 507.169347 73.844955 
L 506.885576 73.927578 
L 506.885576 73.430943 
L 506.601806 73.513024 
L 506.601806 72.007322 
L 505.466726 72.328132 
L 505.466726 70.2741 
L 503.480334 70.822009 
L 503.480334 69.235997 
L 502.629024 69.466895 
L 502.629024 68.93023 
L 501.493943 69.238829 
L 501.493943 68.695377 
L 498.088701 69.643277 
L 498.088701 69.083815 
L 497.23739 69.325907 
L 497.23739 68.760242 
L 495.250999 69.330689 
L 495.250999 67.591517 
L 494.683459 67.750695 
L 494.683459 66.571655 
L 494.399689 66.649277 
L 494.399689 65.455705 
L 493.548378 65.683 
L 493.548378 65.077638 
L 492.129527 65.457454 
L 492.129527 64.842071 
L 491.845757 64.917817 
L 491.845757 64.297812 
L 490.143136 64.752061 
L 490.143136 64.120073 
L 489.575596 64.271753 
L 489.575596 63.633394 
L 487.021664 64.322674 
L 487.021664 63.66687 
L 484.751503 64.295851 
L 484.751503 63.623298 
L 483.332652 64.022545 
L 483.332652 63.337611 
L 481.913801 63.739677 
L 481.913801 63.0419 
L 480.77872 63.364812 
L 480.77872 62.655569 
L 480.49495 62.735627 
L 480.49495 62.020272 
L 479.643639 62.257601 
L 479.643639 61.532157 
L 479.359869 61.610267 
L 479.359869 60.878445 
L 474.535776 62.247305 
L 474.535776 61.475175 
L 470.562994 62.687535 
L 470.562994 61.877764 
L 469.711683 62.145224 
L 469.711683 61.322504 
L 469.144143 61.498825 
L 469.144143 60.665328 
L 467.157752 61.283648 
L 467.157752 60.425655 
L 466.590211 60.6025 
L 466.590211 59.732798 
L 465.738901 59.994365 
L 465.738901 59.109747 
L 465.455131 59.195292 
L 465.455131 58.301232 
L 464.32005 58.63773 
L 464.32005 57.724839 
L 462.049888 58.403418 
L 462.049888 57.457774 
L 459.212187 58.332852 
L 459.212187 57.344808 
L 457.793336 57.790862 
L 457.793336 55.752621 
L 457.509566 55.83629 
L 457.509566 54.800393 
L 456.658255 55.043515 
L 456.658255 53.986523 
L 455.806945 54.223285 
L 455.806945 53.144344 
L 455.239404 53.296875 
L 455.239404 52.199594 
L 453.253013 52.722805 
L 453.253013 51.582819 
L 452.969243 51.65542 
L 452.969243 50.500008 
L 452.401702 50.637163 
L 452.401702 49.460796 
L 448.99646 50.274953 
L 448.99646 49.0207 
L 448.14515 49.221683 
L 448.14515 47.936617 
L 445.874988 48.452206 
L 445.874988 47.101528 
L 440.767125 48.302837 
L 436.510573 49.517063 
L 434.807951 50.071207 
L 434.807951 48.366419 
L 431.97025 49.28023 
L 431.97025 47.432789 
L 428.281237 48.656986 
L 428.281237 46.5942 
L 424.875995 47.765915 
L 424.875995 45.451244 
L 424.308455 45.630789 
L 424.308455 43.231267 
L 420.903213 44.175532 
L 420.619443 44.265103 
L 420.619443 41.489678 
L 417.214201 42.339136 
L 414.376499 43.266363 
L 412.106337 44.220081 
L 410.119946 45.278112 
L 408.417325 46.420786 
L 406.998474 47.605781 
L 405.579623 49.087025 
L 404.444543 50.568268 
L 403.309462 52.419823 
L 402.458151 54.143684 
L 402.458151 45.278112 
L 401.323071 46.865159 
L 401.323071 35.755831 
L 394.796357 35.755831 
L 394.796357 35.755831 
" clip-path="url(#p5ac133088f)" style="fill: none; stroke: #2c3e50; stroke-width: 3; stroke-linecap: square"/>
   </g>
   <g id="line2d_60">
    <path d="M 382.310469 243.72245 
L 657 243.72245 
" clip-path="url(#p5ac133088f)" style="fill: none; stroke-dasharray: 5.55,2.4; stroke-dashoffset: 0; stroke: #7f8c8d; stroke-width: 1.5"/>
   </g>
   <g id="patch_6">
    <path d="M 382.310469 254.120781 
L 382.310469 25.3575 
" style="fill: none; stroke: #c9ced3; stroke-width: 1.1; stroke-linejoin: miter; stroke-linecap: square"/>
   </g>
   <g id="patch_7">
    <path d="M 382.310469 254.120781 
L 657 254.120781 
" style="fill: none; stroke: #c9ced3; stroke-width: 1.1; stroke-linejoin: miter; stroke-linecap: square"/>
   </g>
   <g id="text_35">
    <!-- Precision–Recall -->
    <g style="fill: #2c3e50" transform="translate(382.310469 19.3575) scale(0.16 -0.16)">
     <defs>
      <path id="DejaVuSans-Bold-50" d="M 588 4666 
L 2584 4666 
Q 3475 4666 3951 4270 
Q 4428 3875 4428 3144 
Q 4428 2409 3951 2014 
Q 3475 1619 2584 1619 
L 1791 1619 
L 1791 0 
L 588 0 
L 588 4666 
z
M 1791 3794 
L 1791 2491 
L 2456 2491 
Q 2806 2491 2997 2661 
Q 3188 2831 3188 3144 
Q 3188 3456 2997 3625 
Q 2806 3794 2456 3794 
L 1791 3794 
z
" transform="scale(0.015625)"/>
      <path id="DejaVuSans-Bold-65" d="M 4031 1759 
L 4031 1441 
L 1416 1441 
Q 1456 1047 1700 850 
Q 1944 653 2381 653 
Q 2734 653 3104 758 
Q 3475 863 3866 1075 
L 3866 213 
Q 3469 63 3072 -14 
Q 2675 -91 2278 -91 
Q 1328 -91 801 392 
Q 275 875 275 1747 
Q 275 2603 792 3093 
Q 1309 3584 2216 3584 
Q 3041 3584 3536 3087 
Q 4031 2591 4031 1759 
z
M 2881 2131 
Q 2881 2450 2695 2645 
Q 2509 2841 2209 2841 
Q 1884 2841 1681 2658 
Q 1478 2475 1428 2131 
L 2881 2131 
z
" transform="scale(0.015625)"/>
      <path id="DejaVuSans-Bold-63" d="M 3366 3391 
L 3366 2478 
Q 3138 2634 2908 2709 
Q 2678 2784 2431 2784 
Q 1963 2784 1702 2511 
Q 1441 2238 1441 1747 
Q 1441 1256 1702 982 
Q 1963 709 2431 709 
Q 2694 709 2930 787 
Q 3166 866 3366 1019 
L 3366 103 
Q 3103 6 2833 -42 
Q 2563 -91 2291 -91 
Q 1344 -91 809 395 
Q 275 881 275 1747 
Q 275 2613 809 3098 
Q 1344 3584 2291 3584 
Q 2566 3584 2833 3536 
Q 3100 3488 3366 3391 
z
" transform="scale(0.015625)"/>
      <path id="DejaVuSans-Bold-69" d="M 538 3500 
L 1656 3500 
L 1656 0 
L 538 0 
L 538 3500 
z
M 538 4863 
L 1656 4863 
L 1656 3950 
L 538 3950 
L 538 4863 
z
" transform="scale(0.015625)"/>
      <path id="DejaVuSans-Bold-73" d="M 3272 3391 
L 3272 2541 
Q 2913 2691 2578 2766 
Q 2244 2841 1947 2841 
Q 1628 2841 1473 2761 
Q 1319 2681 1319 2516 
Q 1319 2381 1436 2309 
Q 1553 2238 1856 2203 
L 2053 2175 
Q 2913 2066 3209 1816 
Q 3506 1566 3506 1031 
Q 3506 472 3093 190 
Q 2681 -91 1863 -91 
Q 1516 -91 1145 -36 
Q 775 19 384 128 
L 384 978 
Q 719 816 1070 734 
Q 1422 653 1784 653 
Q 2113 653 2278 743 
Q 2444 834 2444 1013 
Q 2444 1163 2330 1236 
Q 2216 1309 1875 1350 
L 1678 1375 
Q 931 1469 631 1722 
Q 331 1975 331 2491 
Q 331 3047 712 3315 
Q 1094 3584 1881 3584 
Q 2191 3584 2531 3537 
Q 2872 3491 3272 3391 
z
" transform="scale(0.015625)"/>
      <path id="DejaVuSans-Bold-6f" d="M 2203 2784 
Q 1831 2784 1636 2517 
Q 1441 2250 1441 1747 
Q 1441 1244 1636 976 
Q 1831 709 2203 709 
Q 2569 709 2762 976 
Q 2956 1244 2956 1747 
Q 2956 2250 2762 2517 
Q 2569 2784 2203 2784 
z
M 2203 3584 
Q 3106 3584 3614 3096 
Q 4122 2609 4122 1747 
Q 4122 884 3614 396 
Q 3106 -91 2203 -91 
Q 1297 -91 786 396 
Q 275 884 275 1747 
Q 275 2609 786 3096 
Q 1297 3584 2203 3584 
z
" transform="scale(0.015625)"/>
      <path id="DejaVuSans-Bold-6e" d="M 4056 2131 
L 4056 0 
L 2931 0 
L 2931 347 
L 2931 1631 
Q 2931 2084 2911 2256 
Q 2891 2428 2841 2509 
Q 2775 2619 2662 2680 
Q 2550 2741 2406 2741 
Q 2056 2741 1856 2470 
Q 1656 2200 1656 1722 
L 1656 0 
L 538 0 
L 538 3500 
L 1656 3500 
L 1656 2988 
Q 1909 3294 2193 3439 
Q 2478 3584 2822 3584 
Q 3428 3584 3742 3212 
Q 4056 2841 4056 2131 
z
" transform="scale(0.015625)"/>
      <path id="DejaVuSans-Bold-2013" d="M 344 2156 
L 2856 2156 
L 2856 1350 
L 344 1350 
L 344 2156 
z
" transform="scale(0.015625)"/>
      <path id="DejaVuSans-Bold-6c" d="M 538 4863 
L 1656 4863 
L 1656 0 
L 538 0 
L 538 4863 
z
" transform="scale(0.015625)"/>
     </defs>
     <use xlink:href="#DejaVuSans-Bold-50"/>
     <use xlink:href="#DejaVuSans-Bold-72" transform="translate(73.291016 0)"/>
     <use xlink:href="#DejaVuSans-Bold-65" transform="translate(122.607422 0)"/>
     <use xlink:href="#DejaVuSans-Bold-63" transform="translate(190.429688 0)"/>
     <use xlink:href="#DejaVuSans-Bold-69" transform="translate(249.707031 0)"/>
     <use xlink:href="#DejaVuSans-Bold-73" transform="translate(283.984375 0)"/>
     <use xlink:href="#DejaVuSans-Bold-69" transform="translate(343.505859 0)"/>
     <use xlink:href="#DejaVuSans-Bold-6f" transform="translate(377.783203 0)"/>
     <use xlink:href="#DejaVuSans-Bold-6e" transform="translate(446.484375 0)"/>
     <use xlink:href="#DejaVuSans-Bold-2013" transform="translate(517.675781 0)"/>
     <use xlink:href="#DejaVuSans-Bold-52" transform="translate(567.675781 0)"/>
     <use xlink:href="#DejaVuSans-Bold-65" transform="translate(644.677734 0)"/>
     <use xlink:href="#DejaVuSans-Bold-63" transform="translate(712.5 0)"/>
     <use xlink:href="#DejaVuSans-Bold-61" transform="translate(771.777344 0)"/>
     <use xlink:href="#DejaVuSans-Bold-6c" transform="translate(839.257812 0)"/>
     <use xlink:href="#DejaVuSans-Bold-6c" transform="translate(873.535156 0)"/>
    </g>
   </g>
   <g id="legend_2">
    <g id="line2d_61">
     <path d="M 538.800781 41.730547 
L 551.300781 41.730547 
L 563.800781 41.730547 
" style="fill: none; stroke-dasharray: 5.55,2.4; stroke-dashoffset: 0; stroke: #7f8c8d; stroke-width: 1.5"/>
    </g>
    <g id="text_36">
     <!-- Base (22%) -->
     <g transform="translate(573.800781 46.105547) scale(0.125 -0.125)">
      <defs>
       <path id="DejaVuSans-42" d="M 1259 2228 
L 1259 519 
L 2272 519 
Q 2781 519 3026 730 
Q 3272 941 3272 1375 
Q 3272 1813 3026 2020 
Q 2781 2228 2272 2228 
L 1259 2228 
z
M 1259 4147 
L 1259 2741 
L 2194 2741 
Q 2656 2741 2882 2914 
Q 3109 3088 3109 3444 
Q 3109 3797 2882 3972 
Q 2656 4147 2194 4147 
L 1259 4147 
z
M 628 4666 
L 2241 4666 
Q 2963 4666 3353 4366 
Q 3744 4066 3744 3513 
Q 3744 3084 3544 2831 
Q 3344 2578 2956 2516 
Q 3422 2416 3680 2098 
Q 3938 1781 3938 1306 
Q 3938 681 3513 340 
Q 3088 0 2303 0 
L 628 0 
L 628 4666 
z
" transform="scale(0.015625)"/>
       <path id="DejaVuSans-25" d="M 4653 2053 
Q 4381 2053 4226 1822 
Q 4072 1591 4072 1178 
Q 4072 772 4226 539 
Q 4381 306 4653 306 
Q 4919 306 5073 539 
Q 5228 772 5228 1178 
Q 5228 1588 5073 1820 
Q 4919 2053 4653 2053 
z
M 4653 2450 
Q 5147 2450 5437 2106 
Q 5728 1763 5728 1178 
Q 5728 594 5436 251 
Q 5144 -91 4653 -91 
Q 4153 -91 3862 251 
Q 3572 594 3572 1178 
Q 3572 1766 3864 2108 
Q 4156 2450 4653 2450 
z
M 1428 4353 
Q 1159 4353 1004 4120 
Q 850 3888 850 3481 
Q 850 3069 1003 2837 
Q 1156 2606 1428 2606 
Q 1700 2606 1854 2837 
Q 2009 3069 2009 3481 
Q 2009 3884 1853 4118 
Q 1697 4353 1428 4353 
z
M 4250 4750 
L 4750 4750 
L 1831 -91 
L 1331 -91 
L 4250 4750 
z
M 1428 4750 
Q 1922 4750 2215 4408 
Q 2509 4066 2509 3481 
Q 2509 2891 2217 2550 
Q 1925 2209 1428 2209 
Q 931 2209 642 2551 
Q 353 2894 353 3481 
Q 353 4063 643 4406 
Q 934 4750 1428 4750 
z
" transform="scale(0.015625)"/>
      </defs>
      <use xlink:href="#DejaVuSans-42"/>
      <use xlink:href="#DejaVuSans-61" transform="translate(68.603516 0)"/>
      <use xlink:href="#DejaVuSans-73" transform="translate(129.882812 0)"/>
      <use xlink:href="#DejaVuSans-65" transform="translate(181.982422 0)"/>
      <use xlink:href="#DejaVuSans-20" transform="translate(243.505859 0)"/>
      <use xlink:href="#DejaVuSans-28" transform="translate(275.292969 0)"/>
      <use xlink:href="#DejaVuSans-32" transform="translate(314.306641 0)"/>
      <use xlink:href="#DejaVuSans-32" transform="translate(377.929688 0)"/>
      <use xlink:href="#DejaVuSans-25" transform="translate(441.552734 0)"/>
      <use xlink:href="#DejaVuSans-29" transform="translate(536.572266 0)"/>
     </g>
    </g>
   </g>
  </g>
 </g>
 <defs>
  <clipPath id="p8e2911c08f">
   <rect x="50.660469" y="25.3575" width="274.689531" height="228.763281"/>
  </clipPath>
  <clipPath id="p5ac133088f">
   <rect x="382.310469" y="25.3575" width="274.689531" height="228.763281"/>
  </clipPath>
 </defs>
</svg>
