<?xml version="1.0" encoding="utf-8" standalone="no"?>
<!DOCTYPE svg PUBLIC "-//W3C//DTD SVG 1.1//EN"
  "http://www.w3.org/Graphics/SVG/1.1/DTD/svg11.dtd">
<svg xmlns:xlink="http://www.w3.org/1999/xlink" width="820.62pt" height="269.028pt" viewBox="0 0 820.62 269.028" xmlns="http://www.w3.org/2000/svg" version="1.1">
 <metadata>
  <rdf:RDF xmlns:dc="http://purl.org/dc/elements/1.1/" xmlns:cc="http://creativecommons.org/ns#" xmlns:rdf="http://www.w3.org/1999/02/22-rdf-syntax-ns#">
   <cc:Work>
    <dc:type rdf:resource="http://purl.org/dc/dcmitype/StillImage"/>
    <dc:date>2026-06-13T07:38:27.095830</dc:date>
    <dc:format>image/svg+xml</dc:format>
    <dc:creator>
     <cc:Agent>
      <dc:title>Matplotlib v3.10.0, https://matplotlib.org/</dc:title>
     </cc:Agent>
    </dc:creator>
   </cc:Work>
  </rdf:RDF>
 </metadata>
 <defs>
  <style type="text/css">*{stroke-linejoin: round; stroke-linecap: butt}</style>
 </defs>
 <g id="figure_1">
  <g id="patch_1">
   <path d="M 0 269.028 
L 820.62 269.028 
L 820.62 0 
L 0 0 
L 0 269.028 
z
" style="fill: none"/>
  </g>
  <g id="axes_1">
   <g id="patch_2">
    <path d="M 43.279375 226.148781 
L 270.42 226.148781 
L 270.42 61.402688 
L 43.279375 61.402688 
L 43.279375 226.148781 
z
" style="fill: none"/>
   </g>
   <g id="matplotlib.axis_1">
    <g id="xtick_1">
     <g id="line2d_1">
      <path d="M 60.264964 226.148781 
L 60.264964 61.402688 
" clip-path="url(#p607ea95ea2)" style="fill: none; stroke: #e9edf1; stroke-width: 0.9; stroke-linecap: square"/>
     </g>
     <g id="line2d_2">
      <defs>
       <path id="ma1d4466076" d="M 0 0 
L 0 3.5 
" style="stroke: #000000; stroke-width: 0.8"/>
      </defs>
      <g>
       <use xlink:href="#ma1d4466076" x="60.264964" y="226.148781" style="stroke: #000000; stroke-width: 0.8"/>
      </g>
     </g>
     <g id="text_1">
      <!-- 20 -->
      <g transform="translate(52.311839 242.646828) scale(0.125 -0.125)">
       <defs>
        <path id="DejaVuSans-32" d="M 1228 531 
L 3431 531 
L 3431 0 
L 469 0 
L 469 531 
Q 828 903 1448 1529 
Q 2069 2156 2228 2338 
Q 2531 2678 2651 2914 
Q 2772 3150 2772 3378 
Q 2772 3750 2511 3984 
Q 2250 4219 1831 4219 
Q 1534 4219 1204 4116 
Q 875 4013 500 3803 
L 500 4441 
Q 881 4594 1212 4672 
Q 1544 4750 1819 4750 
Q 2544 4750 2975 4387 
Q 3406 4025 3406 3419 
Q 3406 3131 3298 2873 
Q 3191 2616 2906 2266 
Q 2828 2175 2409 1742 
Q 1991 1309 1228 531 
z
" transform="scale(0.015625)"/>
        <path id="DejaVuSans-30" d="M 2034 4250 
Q 1547 4250 1301 3770 
Q 1056 3291 1056 2328 
Q 1056 1369 1301 889 
Q 1547 409 2034 409 
Q 2525 409 2770 889 
Q 3016 1369 3016 2328 
Q 3016 3291 2770 3770 
Q 2525 4250 2034 4250 
z
M 2034 4750 
Q 2819 4750 3233 4129 
Q 3647 3509 3647 2328 
Q 3647 1150 3233 529 
Q 2819 -91 2034 -91 
Q 1250 -91 836 529 
Q 422 1150 422 2328 
Q 422 3509 836 4129 
Q 1250 4750 2034 4750 
z
" transform="scale(0.015625)"/>
       </defs>
       <use xlink:href="#DejaVuSans-32"/>
       <use xlink:href="#DejaVuSans-30" transform="translate(63.623047 0)"/>
      </g>
     </g>
    </g>
    <g id="xtick_2">
     <g id="line2d_3">
      <path d="M 126.875118 226.148781 
L 126.875118 61.402688 
" clip-path="url(#p607ea95ea2)" style="fill: none; stroke: #e9edf1; stroke-width: 0.9; stroke-linecap: square"/>
     </g>
     <g id="line2d_4">
      <g>
       <use xlink:href="#ma1d4466076" x="126.875118" y="226.148781" style="stroke: #000000; stroke-width: 0.8"/>
      </g>
     </g>
     <g id="text_2">
      <!-- 40 -->
      <g transform="translate(118.921993 242.646828) scale(0.125 -0.125)">
       <defs>
        <path id="DejaVuSans-34" d="M 2419 4116 
L 825 1625 
L 2419 1625 
L 2419 4116 
z
M 2253 4666 
L 3047 4666 
L 3047 1625 
L 3713 1625 
L 3713 1100 
L 3047 1100 
L 3047 0 
L 2419 0 
L 2419 1100 
L 313 1100 
L 313 1709 
L 2253 4666 
z
" transform="scale(0.015625)"/>
       </defs>
       <use xlink:href="#DejaVuSans-34"/>
       <use xlink:href="#DejaVuSans-30" transform="translate(63.623047 0)"/>
      </g>
     </g>
    </g>
    <g id="xtick_3">
     <g id="line2d_5">
      <path d="M 193.485272 226.148781 
L 193.485272 61.402688 
" clip-path="url(#p607ea95ea2)" style="fill: none; stroke: #e9edf1; stroke-width: 0.9; stroke-linecap: square"/>
     </g>
     <g id="line2d_6">
      <g>
       <use xlink:href="#ma1d4466076" x="193.485272" y="226.148781" style="stroke: #000000; stroke-width: 0.8"/>
      </g>
     </g>
     <g id="text_3">
      <!-- 60 -->
      <g transform="translate(185.532147 242.646828) scale(0.125 -0.125)">
       <defs>
        <path id="DejaVuSans-36" d="M 2113 2584 
Q 1688 2584 1439 2293 
Q 1191 2003 1191 1497 
Q 1191 994 1439 701 
Q 1688 409 2113 409 
Q 2538 409 2786 701 
Q 3034 994 3034 1497 
Q 3034 2003 2786 2293 
Q 2538 2584 2113 2584 
z
M 3366 4563 
L 3366 3988 
Q 3128 4100 2886 4159 
Q 2644 4219 2406 4219 
Q 1781 4219 1451 3797 
Q 1122 3375 1075 2522 
Q 1259 2794 1537 2939 
Q 1816 3084 2150 3084 
Q 2853 3084 3261 2657 
Q 3669 2231 3669 1497 
Q 3669 778 3244 343 
Q 2819 -91 2113 -91 
Q 1303 -91 875 529 
Q 447 1150 447 2328 
Q 447 3434 972 4092 
Q 1497 4750 2381 4750 
Q 2619 4750 2861 4703 
Q 3103 4656 3366 4563 
z
" transform="scale(0.015625)"/>
       </defs>
       <use xlink:href="#DejaVuSans-36"/>
       <use xlink:href="#DejaVuSans-30" transform="translate(63.623047 0)"/>
      </g>
     </g>
    </g>
    <g id="xtick_4">
     <g id="line2d_7">
      <path d="M 260.095426 226.148781 
L 260.095426 61.402688 
" clip-path="url(#p607ea95ea2)" style="fill: none; stroke: #e9edf1; stroke-width: 0.9; stroke-linecap: square"/>
     </g>
     <g id="line2d_8">
      <g>
       <use xlink:href="#ma1d4466076" x="260.095426" y="226.148781" style="stroke: #000000; stroke-width: 0.8"/>
      </g>
     </g>
     <g id="text_4">
      <!-- 80 -->
      <g transform="translate(252.142301 242.646828) scale(0.125 -0.125)">
       <defs>
        <path id="DejaVuSans-38" d="M 2034 2216 
Q 1584 2216 1326 1975 
Q 1069 1734 1069 1313 
Q 1069 891 1326 650 
Q 1584 409 2034 409 
Q 2484 409 2743 651 
Q 3003 894 3003 1313 
Q 3003 1734 2745 1975 
Q 2488 2216 2034 2216 
z
M 1403 2484 
Q 997 2584 770 2862 
Q 544 3141 544 3541 
Q 544 4100 942 4425 
Q 1341 4750 2034 4750 
Q 2731 4750 3128 4425 
Q 3525 4100 3525 3541 
Q 3525 3141 3298 2862 
Q 3072 2584 2669 2484 
Q 3125 2378 3379 2068 
Q 3634 1759 3634 1313 
Q 3634 634 3220 271 
Q 2806 -91 2034 -91 
Q 1263 -91 848 271 
Q 434 634 434 1313 
Q 434 1759 690 2068 
Q 947 2378 1403 2484 
z
M 1172 3481 
Q 1172 3119 1398 2916 
Q 1625 2713 2034 2713 
Q 2441 2713 2670 2916 
Q 2900 3119 2900 3481 
Q 2900 3844 2670 4047 
Q 2441 4250 2034 4250 
Q 1625 4250 1398 4047 
Q 1172 3844 1172 3481 
z
" transform="scale(0.015625)"/>
       </defs>
       <use xlink:href="#DejaVuSans-38"/>
       <use xlink:href="#DejaVuSans-30" transform="translate(63.623047 0)"/>
      </g>
     </g>
    </g>
    <g id="text_5">
     <!-- Años -->
     <g transform="translate(140.920625 259.124406) scale(0.13 -0.13)">
      <defs>
       <path id="DejaVuSans-41" d="M 2188 4044 
L 1331 1722 
L 3047 1722 
L 2188 4044 
z
M 1831 4666 
L 2547 4666 
L 4325 0 
L 3669 0 
L 3244 1197 
L 1141 1197 
L 716 0 
L 50 0 
L 1831 4666 
z
" transform="scale(0.015625)"/>
       <path id="DejaVuSans-f1" d="M 3513 2113 
L 3513 0 
L 2938 0 
L 2938 2094 
Q 2938 2591 2744 2837 
Q 2550 3084 2163 3084 
Q 1697 3084 1428 2787 
Q 1159 2491 1159 1978 
L 1159 0 
L 581 0 
L 581 3500 
L 1159 3500 
L 1159 2956 
Q 1366 3272 1645 3428 
Q 1925 3584 2291 3584 
Q 2894 3584 3203 3211 
Q 3513 2838 3513 2113 
z
M 2060 4281 
L 1881 4453 
Q 1813 4516 1761 4545 
Q 1710 4575 1669 4575 
Q 1550 4575 1494 4461 
Q 1438 4347 1431 4091 
L 1041 4091 
Q 1047 4513 1206 4742 
Q 1366 4972 1650 4972 
Q 1769 4972 1869 4928 
Q 1969 4884 2085 4781 
L 2263 4609 
Q 2331 4547 2383 4517 
Q 2435 4488 2475 4488 
Q 2594 4488 2650 4602 
Q 2706 4716 2713 4972 
L 3103 4972 
Q 3097 4550 2937 4320 
Q 2778 4091 2494 4091 
Q 2375 4091 2275 4134 
Q 2175 4178 2060 4281 
z
" transform="scale(0.015625)"/>
       <path id="DejaVuSans-6f" d="M 1959 3097 
Q 1497 3097 1228 2736 
Q 959 2375 959 1747 
Q 959 1119 1226 758 
Q 1494 397 1959 397 
Q 2419 397 2687 759 
Q 2956 1122 2956 1747 
Q 2956 2369 2687 2733 
Q 2419 3097 1959 3097 
z
M 1959 3584 
Q 2709 3584 3137 3096 
Q 3566 2609 3566 1747 
Q 3566 888 3137 398 
Q 2709 -91 1959 -91 
Q 1206 -91 779 398 
Q 353 888 353 1747 
Q 353 2609 779 3096 
Q 1206 3584 1959 3584 
z
" transform="scale(0.015625)"/>
       <path id="DejaVuSans-73" d="M 2834 3397 
L 2834 2853 
Q 2591 2978 2328 3040 
Q 2066 3103 1784 3103 
Q 1356 3103 1142 2972 
Q 928 2841 928 2578 
Q 928 2378 1081 2264 
Q 1234 2150 1697 2047 
L 1894 2003 
Q 2506 1872 2764 1633 
Q 3022 1394 3022 966 
Q 3022 478 2636 193 
Q 2250 -91 1575 -91 
Q 1294 -91 989 -36 
Q 684 19 347 128 
L 347 722 
Q 666 556 975 473 
Q 1284 391 1588 391 
Q 1994 391 2212 530 
Q 2431 669 2431 922 
Q 2431 1156 2273 1281 
Q 2116 1406 1581 1522 
L 1381 1569 
Q 847 1681 609 1914 
Q 372 2147 372 2553 
Q 372 3047 722 3315 
Q 1072 3584 1716 3584 
Q 2034 3584 2315 3537 
Q 2597 3491 2834 3397 
z
" transform="scale(0.015625)"/>
      </defs>
      <use xlink:href="#DejaVuSans-41"/>
      <use xlink:href="#DejaVuSans-f1" transform="translate(68.408203 0)"/>
      <use xlink:href="#DejaVuSans-6f" transform="translate(131.787109 0)"/>
      <use xlink:href="#DejaVuSans-73" transform="translate(192.96875 0)"/>
     </g>
    </g>
   </g>
   <g id="matplotlib.axis_2">
    <g id="ytick_1">
     <g id="line2d_9">
      <path d="M 43.279375 226.148781 
L 270.42 226.148781 
" clip-path="url(#p607ea95ea2)" style="fill: none; stroke: #e9edf1; stroke-width: 0.9; stroke-linecap: square"/>
     </g>
     <g id="line2d_10">
      <defs>
       <path id="m7803ec8a61" d="M 0 0 
L -3.5 0 
" style="stroke: #000000; stroke-width: 0.8"/>
      </defs>
      <g>
       <use xlink:href="#m7803ec8a61" x="43.279375" y="226.148781" style="stroke: #000000; stroke-width: 0.8"/>
      </g>
     </g>
     <g id="text_6">
      <!-- 0 -->
      <g transform="translate(28.32625 230.897805) scale(0.125 -0.125)">
       <use xlink:href="#DejaVuSans-30"/>
      </g>
     </g>
    </g>
    <g id="ytick_2">
     <g id="line2d_11">
      <path d="M 43.279375 190.969175 
L 270.42 190.969175 
" clip-path="url(#p607ea95ea2)" style="fill: none; stroke: #e9edf1; stroke-width: 0.9; stroke-linecap: square"/>
     </g>
     <g id="line2d_12">
      <g>
       <use xlink:href="#m7803ec8a61" x="43.279375" y="190.969175" style="stroke: #000000; stroke-width: 0.8"/>
      </g>
     </g>
     <g id="text_7">
      <!-- 50 -->
      <g transform="translate(20.373125 195.718199) scale(0.125 -0.125)">
       <defs>
        <path id="DejaVuSans-35" d="M 691 4666 
L 3169 4666 
L 3169 4134 
L 1269 4134 
L 1269 2991 
Q 1406 3038 1543 3061 
Q 1681 3084 1819 3084 
Q 2600 3084 3056 2656 
Q 3513 2228 3513 1497 
Q 3513 744 3044 326 
Q 2575 -91 1722 -91 
Q 1428 -91 1123 -41 
Q 819 9 494 109 
L 494 744 
Q 775 591 1075 516 
Q 1375 441 1709 441 
Q 2250 441 2565 725 
Q 2881 1009 2881 1497 
Q 2881 1984 2565 2268 
Q 2250 2553 1709 2553 
Q 1456 2553 1204 2497 
Q 953 2441 691 2322 
L 691 4666 
z
" transform="scale(0.015625)"/>
       </defs>
       <use xlink:href="#DejaVuSans-35"/>
       <use xlink:href="#DejaVuSans-30" transform="translate(63.623047 0)"/>
      </g>
     </g>
    </g>
    <g id="ytick_3">
     <g id="line2d_13">
      <path d="M 43.279375 155.78957 
L 270.42 155.78957 
" clip-path="url(#p607ea95ea2)" style="fill: none; stroke: #e9edf1; stroke-width: 0.9; stroke-linecap: square"/>
     </g>
     <g id="line2d_14">
      <g>
       <use xlink:href="#m7803ec8a61" x="43.279375" y="155.78957" style="stroke: #000000; stroke-width: 0.8"/>
      </g>
     </g>
     <g id="text_8">
      <!-- 100 -->
      <g transform="translate(12.42 160.538593) scale(0.125 -0.125)">
       <defs>
        <path id="DejaVuSans-31" d="M 794 531 
L 1825 531 
L 1825 4091 
L 703 3866 
L 703 4441 
L 1819 4666 
L 2450 4666 
L 2450 531 
L 3481 531 
L 3481 0 
L 794 0 
L 794 531 
z
" transform="scale(0.015625)"/>
       </defs>
       <use xlink:href="#DejaVuSans-31"/>
       <use xlink:href="#DejaVuSans-30" transform="translate(63.623047 0)"/>
       <use xlink:href="#DejaVuSans-30" transform="translate(127.246094 0)"/>
      </g>
     </g>
    </g>
    <g id="ytick_4">
     <g id="line2d_15">
      <path d="M 43.279375 120.609964 
L 270.42 120.609964 
" clip-path="url(#p607ea95ea2)" style="fill: none; stroke: #e9edf1; stroke-width: 0.9; stroke-linecap: square"/>
     </g>
     <g id="line2d_16">
      <g>
       <use xlink:href="#m7803ec8a61" x="43.279375" y="120.609964" style="stroke: #000000; stroke-width: 0.8"/>
      </g>
     </g>
     <g id="text_9">
      <!-- 150 -->
      <g transform="translate(12.42 125.358987) scale(0.125 -0.125)">
       <use xlink:href="#DejaVuSans-31"/>
       <use xlink:href="#DejaVuSans-35" transform="translate(63.623047 0)"/>
       <use xlink:href="#DejaVuSans-30" transform="translate(127.246094 0)"/>
      </g>
     </g>
    </g>
    <g id="ytick_5">
     <g id="line2d_17">
      <path d="M 43.279375 85.430358 
L 270.42 85.430358 
" clip-path="url(#p607ea95ea2)" style="fill: none; stroke: #e9edf1; stroke-width: 0.9; stroke-linecap: square"/>
     </g>
     <g id="line2d_18">
      <g>
       <use xlink:href="#m7803ec8a61" x="43.279375" y="85.430358" style="stroke: #000000; stroke-width: 0.8"/>
      </g>
     </g>
     <g id="text_10">
      <!-- 200 -->
      <g transform="translate(12.42 90.179382) scale(0.125 -0.125)">
       <use xlink:href="#DejaVuSans-32"/>
       <use xlink:href="#DejaVuSans-30" transform="translate(63.623047 0)"/>
       <use xlink:href="#DejaVuSans-30" transform="translate(127.246094 0)"/>
      </g>
     </g>
    </g>
   </g>
   <g id="patch_3">
    <path d="M 53.603949 226.148781 
L 60.486998 226.148781 
L 60.486998 146.642872 
L 53.603949 146.642872 
z
" clip-path="url(#p607ea95ea2)" style="fill: #3498db; stroke: #ffffff; stroke-linejoin: miter"/>
   </g>
   <g id="patch_4">
    <path d="M 60.486998 226.148781 
L 67.370047 226.148781 
L 67.370047 187.451215 
L 60.486998 187.451215 
z
" clip-path="url(#p607ea95ea2)" style="fill: #3498db; stroke: #ffffff; stroke-linejoin: miter"/>
   </g>
   <g id="patch_5">
    <path d="M 67.370047 226.148781 
L 74.253097 226.148781 
L 74.253097 174.082965 
L 67.370047 174.082965 
z
" clip-path="url(#p607ea95ea2)" style="fill: #3498db; stroke: #ffffff; stroke-linejoin: miter"/>
   </g>
   <g id="patch_6">
    <path d="M 74.253097 226.148781 
L 81.136146 226.148781 
L 81.136146 171.268596 
L 74.253097 171.268596 
z
" clip-path="url(#p607ea95ea2)" style="fill: #3498db; stroke: #ffffff; stroke-linejoin: miter"/>
   </g>
   <g id="patch_7">
    <path d="M 81.136146 226.148781 
L 88.019195 226.148781 
L 88.019195 161.418307 
L 81.136146 161.418307 
z
" clip-path="url(#p607ea95ea2)" style="fill: #3498db; stroke: #ffffff; stroke-linejoin: miter"/>
   </g>
   <g id="patch_8">
    <path d="M 88.019195 226.148781 
L 94.902244 226.148781 
L 94.902244 128.349477 
L 88.019195 128.349477 
z
" clip-path="url(#p607ea95ea2)" style="fill: #3498db; stroke: #ffffff; stroke-linejoin: miter"/>
   </g>
   <g id="patch_9">
    <path d="M 94.902244 226.148781 
L 101.785294 226.148781 
L 101.785294 114.277635 
L 94.902244 114.277635 
z
" clip-path="url(#p607ea95ea2)" style="fill: #3498db; stroke: #ffffff; stroke-linejoin: miter"/>
   </g>
   <g id="patch_10">
    <path d="M 101.785294 226.148781 
L 108.668343 226.148781 
L 108.668343 105.83453 
L 101.785294 105.83453 
z
" clip-path="url(#p607ea95ea2)" style="fill: #3498db; stroke: #ffffff; stroke-linejoin: miter"/>
   </g>
   <g id="patch_11">
    <path d="M 108.668343 226.148781 
L 115.551392 226.148781 
L 115.551392 108.648898 
L 108.668343 108.648898 
z
" clip-path="url(#p607ea95ea2)" style="fill: #3498db; stroke: #ffffff; stroke-linejoin: miter"/>
   </g>
   <g id="patch_12">
    <path d="M 115.551392 226.148781 
L 122.434441 226.148781 
L 122.434441 89.651911 
L 115.551392 89.651911 
z
" clip-path="url(#p607ea95ea2)" style="fill: #3498db; stroke: #ffffff; stroke-linejoin: miter"/>
   </g>
   <g id="patch_13">
    <path d="M 122.434441 226.148781 
L 129.317491 226.148781 
L 129.317491 76.987253 
L 122.434441 76.987253 
z
" clip-path="url(#p607ea95ea2)" style="fill: #3498db; stroke: #ffffff; stroke-linejoin: miter"/>
   </g>
   <g id="patch_14">
    <path d="M 129.317491 226.148781 
L 136.20054 226.148781 
L 136.20054 88.948319 
L 129.317491 88.948319 
z
" clip-path="url(#p607ea95ea2)" style="fill: #3498db; stroke: #ffffff; stroke-linejoin: miter"/>
   </g>
   <g id="patch_15">
    <path d="M 136.20054 226.148781 
L 143.083589 226.148781 
L 143.083589 79.098029 
L 136.20054 79.098029 
z
" clip-path="url(#p607ea95ea2)" style="fill: #3498db; stroke: #ffffff; stroke-linejoin: miter"/>
   </g>
   <g id="patch_16">
    <path d="M 143.083589 226.148781 
L 149.966638 226.148781 
L 149.966638 69.24774 
L 143.083589 69.24774 
z
" clip-path="url(#p607ea95ea2)" style="fill: #3498db; stroke: #ffffff; stroke-linejoin: miter"/>
   </g>
   <g id="patch_17">
    <path d="M 149.966638 226.148781 
L 156.849687 226.148781 
L 156.849687 100.205793 
L 149.966638 100.205793 
z
" clip-path="url(#p607ea95ea2)" style="fill: #3498db; stroke: #ffffff; stroke-linejoin: miter"/>
   </g>
   <g id="patch_18">
    <path d="M 156.849687 226.148781 
L 163.732737 226.148781 
L 163.732737 121.313556 
L 156.849687 121.313556 
z
" clip-path="url(#p607ea95ea2)" style="fill: #3498db; stroke: #ffffff; stroke-linejoin: miter"/>
   </g>
   <g id="patch_19">
    <path d="M 163.732737 226.148781 
L 170.615786 226.148781 
L 170.615786 133.978214 
L 163.732737 133.978214 
z
" clip-path="url(#p607ea95ea2)" style="fill: #3498db; stroke: #ffffff; stroke-linejoin: miter"/>
   </g>
   <g id="patch_20">
    <path d="M 170.615786 226.148781 
L 177.498835 226.148781 
L 177.498835 144.532096 
L 170.615786 144.532096 
z
" clip-path="url(#p607ea95ea2)" style="fill: #3498db; stroke: #ffffff; stroke-linejoin: miter"/>
   </g>
   <g id="patch_21">
    <path d="M 177.498835 226.148781 
L 184.381884 226.148781 
L 184.381884 165.639859 
L 177.498835 165.639859 
z
" clip-path="url(#p607ea95ea2)" style="fill: #3498db; stroke: #ffffff; stroke-linejoin: miter"/>
   </g>
   <g id="patch_22">
    <path d="M 184.381884 226.148781 
L 191.264934 226.148781 
L 191.264934 177.600925 
L 184.381884 177.600925 
z
" clip-path="url(#p607ea95ea2)" style="fill: #3498db; stroke: #ffffff; stroke-linejoin: miter"/>
   </g>
   <g id="patch_23">
    <path d="M 191.264934 226.148781 
L 198.147983 226.148781 
L 198.147983 189.561991 
L 191.264934 189.561991 
z
" clip-path="url(#p607ea95ea2)" style="fill: #3498db; stroke: #ffffff; stroke-linejoin: miter"/>
   </g>
   <g id="patch_24">
    <path d="M 198.147983 226.148781 
L 205.031032 226.148781 
L 205.031032 200.819465 
L 198.147983 200.819465 
z
" clip-path="url(#p607ea95ea2)" style="fill: #3498db; stroke: #ffffff; stroke-linejoin: miter"/>
   </g>
   <g id="patch_25">
    <path d="M 205.031032 226.148781 
L 211.914081 226.148781 
L 211.914081 198.005097 
L 205.031032 198.005097 
z
" clip-path="url(#p607ea95ea2)" style="fill: #3498db; stroke: #ffffff; stroke-linejoin: miter"/>
   </g>
   <g id="patch_26">
    <path d="M 211.914081 226.148781 
L 218.797131 226.148781 
L 218.797131 214.891307 
L 211.914081 214.891307 
z
" clip-path="url(#p607ea95ea2)" style="fill: #3498db; stroke: #ffffff; stroke-linejoin: miter"/>
   </g>
   <g id="patch_27">
    <path d="M 218.797131 226.148781 
L 225.68018 226.148781 
L 225.68018 218.409268 
L 218.797131 218.409268 
z
" clip-path="url(#p607ea95ea2)" style="fill: #3498db; stroke: #ffffff; stroke-linejoin: miter"/>
   </g>
   <g id="patch_28">
    <path d="M 225.68018 226.148781 
L 232.563229 226.148781 
L 232.563229 215.5949 
L 225.68018 215.5949 
z
" clip-path="url(#p607ea95ea2)" style="fill: #3498db; stroke: #ffffff; stroke-linejoin: miter"/>
   </g>
   <g id="patch_29">
    <path d="M 232.563229 226.148781 
L 239.446278 226.148781 
L 239.446278 222.630821 
L 232.563229 222.630821 
z
" clip-path="url(#p607ea95ea2)" style="fill: #3498db; stroke: #ffffff; stroke-linejoin: miter"/>
   </g>
   <g id="patch_30">
    <path d="M 239.446278 226.148781 
L 246.329328 226.148781 
L 246.329328 222.630821 
L 239.446278 222.630821 
z
" clip-path="url(#p607ea95ea2)" style="fill: #3498db; stroke: #ffffff; stroke-linejoin: miter"/>
   </g>
   <g id="patch_31">
    <path d="M 246.329328 226.148781 
L 253.212377 226.148781 
L 253.212377 224.038005 
L 246.329328 224.038005 
z
" clip-path="url(#p607ea95ea2)" style="fill: #3498db; stroke: #ffffff; stroke-linejoin: miter"/>
   </g>
   <g id="patch_32">
    <path d="M 253.212377 226.148781 
L 260.095426 226.148781 
L 260.095426 221.927229 
L 253.212377 221.927229 
z
" clip-path="url(#p607ea95ea2)" style="fill: #3498db; stroke: #ffffff; stroke-linejoin: miter"/>
   </g>
   <g id="patch_33">
    <path d="M 43.279375 226.148781 
L 43.279375 61.402688 
" style="fill: none; stroke: #c9ced3; stroke-width: 1.1; stroke-linejoin: miter; stroke-linecap: square"/>
   </g>
   <g id="patch_34">
    <path d="M 43.279375 226.148781 
L 270.42 226.148781 
" style="fill: none; stroke: #c9ced3; stroke-width: 1.1; stroke-linejoin: miter; stroke-linecap: square"/>
   </g>
   <g id="text_11">
    <!-- Histograma: edad -->
    <g style="fill: #2c3e50" transform="translate(43.279375 55.402688) scale(0.16 -0.16)">
     <defs>
      <path id="DejaVuSans-Bold-48" d="M 588 4666 
L 1791 4666 
L 1791 2888 
L 3566 2888 
L 3566 4666 
L 4769 4666 
L 4769 0 
L 3566 0 
L 3566 1978 
L 1791 1978 
L 1791 0 
L 588 0 
L 588 4666 
z
" transform="scale(0.015625)"/>
      <path id="DejaVuSans-Bold-69" d="M 538 3500 
L 1656 3500 
L 1656 0 
L 538 0 
L 538 3500 
z
M 538 4863 
L 1656 4863 
L 1656 3950 
L 538 3950 
L 538 4863 
z
" transform="scale(0.015625)"/>
      <path id="DejaVuSans-Bold-73" d="M 3272 3391 
L 3272 2541 
Q 2913 2691 2578 2766 
Q 2244 2841 1947 2841 
Q 1628 2841 1473 2761 
Q 1319 2681 1319 2516 
Q 1319 2381 1436 2309 
Q 1553 2238 1856 2203 
L 2053 2175 
Q 2913 2066 3209 1816 
Q 3506 1566 3506 1031 
Q 3506 472 3093 190 
Q 2681 -91 1863 -91 
Q 1516 -91 1145 -36 
Q 775 19 384 128 
L 384 978 
Q 719 816 1070 734 
Q 1422 653 1784 653 
Q 2113 653 2278 743 
Q 2444 834 2444 1013 
Q 2444 1163 2330 1236 
Q 2216 1309 1875 1350 
L 1678 1375 
Q 931 1469 631 1722 
Q 331 1975 331 2491 
Q 331 3047 712 3315 
Q 1094 3584 1881 3584 
Q 2191 3584 2531 3537 
Q 2872 3491 3272 3391 
z
" transform="scale(0.015625)"/>
      <path id="DejaVuSans-Bold-74" d="M 1759 4494 
L 1759 3500 
L 2913 3500 
L 2913 2700 
L 1759 2700 
L 1759 1216 
Q 1759 972 1856 886 
Q 1953 800 2241 800 
L 2816 800 
L 2816 0 
L 1856 0 
Q 1194 0 917 276 
Q 641 553 641 1216 
L 641 2700 
L 84 2700 
L 84 3500 
L 641 3500 
L 641 4494 
L 1759 4494 
z
" transform="scale(0.015625)"/>
      <path id="DejaVuSans-Bold-6f" d="M 2203 2784 
Q 1831 2784 1636 2517 
Q 1441 2250 1441 1747 
Q 1441 1244 1636 976 
Q 1831 709 2203 709 
Q 2569 709 2762 976 
Q 2956 1244 2956 1747 
Q 2956 2250 2762 2517 
Q 2569 2784 2203 2784 
z
M 2203 3584 
Q 3106 3584 3614 3096 
Q 4122 2609 4122 1747 
Q 4122 884 3614 396 
Q 3106 -91 2203 -91 
Q 1297 -91 786 396 
Q 275 884 275 1747 
Q 275 2609 786 3096 
Q 1297 3584 2203 3584 
z
" transform="scale(0.015625)"/>
      <path id="DejaVuSans-Bold-67" d="M 2919 594 
Q 2688 288 2409 144 
Q 2131 0 1766 0 
Q 1125 0 706 504 
Q 288 1009 288 1791 
Q 288 2575 706 3076 
Q 1125 3578 1766 3578 
Q 2131 3578 2409 3434 
Q 2688 3291 2919 2981 
L 2919 3500 
L 4044 3500 
L 4044 353 
Q 4044 -491 3511 -936 
Q 2978 -1381 1966 -1381 
Q 1638 -1381 1331 -1331 
Q 1025 -1281 716 -1178 
L 716 -306 
Q 1009 -475 1290 -558 
Q 1572 -641 1856 -641 
Q 2406 -641 2662 -400 
Q 2919 -159 2919 353 
L 2919 594 
z
M 2181 2772 
Q 1834 2772 1640 2515 
Q 1447 2259 1447 1791 
Q 1447 1309 1634 1061 
Q 1822 813 2181 813 
Q 2531 813 2725 1069 
Q 2919 1325 2919 1791 
Q 2919 2259 2725 2515 
Q 2531 2772 2181 2772 
z
" transform="scale(0.015625)"/>
      <path id="DejaVuSans-Bold-72" d="M 3138 2547 
Q 2991 2616 2845 2648 
Q 2700 2681 2553 2681 
Q 2122 2681 1889 2404 
Q 1656 2128 1656 1613 
L 1656 0 
L 538 0 
L 538 3500 
L 1656 3500 
L 1656 2925 
Q 1872 3269 2151 3426 
Q 2431 3584 2822 3584 
Q 2878 3584 2943 3579 
Q 3009 3575 3134 3559 
L 3138 2547 
z
" transform="scale(0.015625)"/>
      <path id="DejaVuSans-Bold-61" d="M 2106 1575 
Q 1756 1575 1579 1456 
Q 1403 1338 1403 1106 
Q 1403 894 1545 773 
Q 1688 653 1941 653 
Q 2256 653 2472 879 
Q 2688 1106 2688 1447 
L 2688 1575 
L 2106 1575 
z
M 3816 1997 
L 3816 0 
L 2688 0 
L 2688 519 
Q 2463 200 2181 54 
Q 1900 -91 1497 -91 
Q 953 -91 614 226 
Q 275 544 275 1050 
Q 275 1666 698 1953 
Q 1122 2241 2028 2241 
L 2688 2241 
L 2688 2328 
Q 2688 2594 2478 2717 
Q 2269 2841 1825 2841 
Q 1466 2841 1156 2769 
Q 847 2697 581 2553 
L 581 3406 
Q 941 3494 1303 3539 
Q 1666 3584 2028 3584 
Q 2975 3584 3395 3211 
Q 3816 2838 3816 1997 
z
" transform="scale(0.015625)"/>
      <path id="DejaVuSans-Bold-6d" d="M 3781 2919 
Q 3994 3244 4286 3414 
Q 4578 3584 4928 3584 
Q 5531 3584 5847 3212 
Q 6163 2841 6163 2131 
L 6163 0 
L 5038 0 
L 5038 1825 
Q 5041 1866 5042 1909 
Q 5044 1953 5044 2034 
Q 5044 2406 4934 2573 
Q 4825 2741 4581 2741 
Q 4263 2741 4089 2478 
Q 3916 2216 3909 1719 
L 3909 0 
L 2784 0 
L 2784 1825 
Q 2784 2406 2684 2573 
Q 2584 2741 2328 2741 
Q 2006 2741 1831 2477 
Q 1656 2213 1656 1722 
L 1656 0 
L 531 0 
L 531 3500 
L 1656 3500 
L 1656 2988 
Q 1863 3284 2130 3434 
Q 2397 3584 2719 3584 
Q 3081 3584 3359 3409 
Q 3638 3234 3781 2919 
z
" transform="scale(0.015625)"/>
      <path id="DejaVuSans-Bold-3a" d="M 716 3500 
L 1844 3500 
L 1844 2291 
L 716 2291 
L 716 3500 
z
M 716 1209 
L 1844 1209 
L 1844 0 
L 716 0 
L 716 1209 
z
" transform="scale(0.015625)"/>
      <path id="DejaVuSans-Bold-20" transform="scale(0.015625)"/>
      <path id="DejaVuSans-Bold-65" d="M 4031 1759 
L 4031 1441 
L 1416 1441 
Q 1456 1047 1700 850 
Q 1944 653 2381 653 
Q 2734 653 3104 758 
Q 3475 863 3866 1075 
L 3866 213 
Q 3469 63 3072 -14 
Q 2675 -91 2278 -91 
Q 1328 -91 801 392 
Q 275 875 275 1747 
Q 275 2603 792 3093 
Q 1309 3584 2216 3584 
Q 3041 3584 3536 3087 
Q 4031 2591 4031 1759 
z
M 2881 2131 
Q 2881 2450 2695 2645 
Q 2509 2841 2209 2841 
Q 1884 2841 1681 2658 
Q 1478 2475 1428 2131 
L 2881 2131 
z
" transform="scale(0.015625)"/>
      <path id="DejaVuSans-Bold-64" d="M 2919 2988 
L 2919 4863 
L 4044 4863 
L 4044 0 
L 2919 0 
L 2919 506 
Q 2688 197 2409 53 
Q 2131 -91 1766 -91 
Q 1119 -91 703 423 
Q 288 938 288 1747 
Q 288 2556 703 3070 
Q 1119 3584 1766 3584 
Q 2128 3584 2408 3439 
Q 2688 3294 2919 2988 
z
M 2181 722 
Q 2541 722 2730 984 
Q 2919 1247 2919 1747 
Q 2919 2247 2730 2509 
Q 2541 2772 2181 2772 
Q 1825 2772 1636 2509 
Q 1447 2247 1447 1747 
Q 1447 1247 1636 984 
Q 1825 722 2181 722 
z
" transform="scale(0.015625)"/>
     </defs>
     <use xlink:href="#DejaVuSans-Bold-48"/>
     <use xlink:href="#DejaVuSans-Bold-69" transform="translate(83.691406 0)"/>
     <use xlink:href="#DejaVuSans-Bold-73" transform="translate(117.96875 0)"/>
     <use xlink:href="#DejaVuSans-Bold-74" transform="translate(177.490234 0)"/>
     <use xlink:href="#DejaVuSans-Bold-6f" transform="translate(225.292969 0)"/>
     <use xlink:href="#DejaVuSans-Bold-67" transform="translate(293.994141 0)"/>
     <use xlink:href="#DejaVuSans-Bold-72" transform="translate(365.576172 0)"/>
     <use xlink:href="#DejaVuSans-Bold-61" transform="translate(414.892578 0)"/>
     <use xlink:href="#DejaVuSans-Bold-6d" transform="translate(482.373047 0)"/>
     <use xlink:href="#DejaVuSans-Bold-61" transform="translate(586.572266 0)"/>
     <use xlink:href="#DejaVuSans-Bold-3a" transform="translate(654.052734 0)"/>
     <use xlink:href="#DejaVuSans-Bold-20" transform="translate(694.042969 0)"/>
     <use xlink:href="#DejaVuSans-Bold-65" transform="translate(728.857422 0)"/>
     <use xlink:href="#DejaVuSans-Bold-64" transform="translate(796.679688 0)"/>
     <use xlink:href="#DejaVuSans-Bold-61" transform="translate(868.261719 0)"/>
     <use xlink:href="#DejaVuSans-Bold-64" transform="translate(935.742188 0)"/>
    </g>
   </g>
  </g>
  <g id="axes_2">
   <g id="patch_35">
    <path d="M 314.779375 226.148781 
L 541.92 226.148781 
L 541.92 61.402688 
L 314.779375 61.402688 
L 314.779375 226.148781 
z
" style="fill: none"/>
   </g>
   <g id="matplotlib.axis_3">
    <g id="xtick_5">
     <g id="line2d_19">
      <path d="M 318.074549 226.148781 
L 318.074549 61.402688 
" clip-path="url(#p9795fa5786)" style="fill: none; stroke: #e9edf1; stroke-width: 0.9; stroke-linecap: square"/>
     </g>
     <g id="line2d_20">
      <g>
       <use xlink:href="#ma1d4466076" x="318.074549" y="226.148781" style="stroke: #000000; stroke-width: 0.8"/>
      </g>
     </g>
     <g id="text_12">
      <!-- 0 -->
      <g transform="translate(314.097986 242.646828) scale(0.125 -0.125)">
       <use xlink:href="#DejaVuSans-30"/>
      </g>
     </g>
    </g>
    <g id="xtick_6">
     <g id="line2d_21">
      <path d="M 367.058904 226.148781 
L 367.058904 61.402688 
" clip-path="url(#p9795fa5786)" style="fill: none; stroke: #e9edf1; stroke-width: 0.9; stroke-linecap: square"/>
     </g>
     <g id="line2d_22">
      <g>
       <use xlink:href="#ma1d4466076" x="367.058904" y="226.148781" style="stroke: #000000; stroke-width: 0.8"/>
      </g>
     </g>
     <g id="text_13">
      <!-- 5000 -->
      <g transform="translate(351.152654 242.646828) scale(0.125 -0.125)">
       <use xlink:href="#DejaVuSans-35"/>
       <use xlink:href="#DejaVuSans-30" transform="translate(63.623047 0)"/>
       <use xlink:href="#DejaVuSans-30" transform="translate(127.246094 0)"/>
       <use xlink:href="#DejaVuSans-30" transform="translate(190.869141 0)"/>
      </g>
     </g>
    </g>
    <g id="xtick_7">
     <g id="line2d_23">
      <path d="M 416.043259 226.148781 
L 416.043259 61.402688 
" clip-path="url(#p9795fa5786)" style="fill: none; stroke: #e9edf1; stroke-width: 0.9; stroke-linecap: square"/>
     </g>
     <g id="line2d_24">
      <g>
       <use xlink:href="#ma1d4466076" x="416.043259" y="226.148781" style="stroke: #000000; stroke-width: 0.8"/>
      </g>
     </g>
     <g id="text_14">
      <!-- 10000 -->
      <g transform="translate(396.160447 242.646828) scale(0.125 -0.125)">
       <use xlink:href="#DejaVuSans-31"/>
       <use xlink:href="#DejaVuSans-30" transform="translate(63.623047 0)"/>
       <use xlink:href="#DejaVuSans-30" transform="translate(127.246094 0)"/>
       <use xlink:href="#DejaVuSans-30" transform="translate(190.869141 0)"/>
       <use xlink:href="#DejaVuSans-30" transform="translate(254.492188 0)"/>
      </g>
     </g>
    </g>
    <g id="xtick_8">
     <g id="line2d_25">
      <path d="M 465.027614 226.148781 
L 465.027614 61.402688 
" clip-path="url(#p9795fa5786)" style="fill: none; stroke: #e9edf1; stroke-width: 0.9; stroke-linecap: square"/>
     </g>
     <g id="line2d_26">
      <g>
       <use xlink:href="#ma1d4466076" x="465.027614" y="226.148781" style="stroke: #000000; stroke-width: 0.8"/>
      </g>
     </g>
     <g id="text_15">
      <!-- 15000 -->
      <g transform="translate(445.144802 242.646828) scale(0.125 -0.125)">
       <use xlink:href="#DejaVuSans-31"/>
       <use xlink:href="#DejaVuSans-35" transform="translate(63.623047 0)"/>
       <use xlink:href="#DejaVuSans-30" transform="translate(127.246094 0)"/>
       <use xlink:href="#DejaVuSans-30" transform="translate(190.869141 0)"/>
       <use xlink:href="#DejaVuSans-30" transform="translate(254.492188 0)"/>
      </g>
     </g>
    </g>
    <g id="xtick_9">
     <g id="line2d_27">
      <path d="M 514.01197 226.148781 
L 514.01197 61.402688 
" clip-path="url(#p9795fa5786)" style="fill: none; stroke: #e9edf1; stroke-width: 0.9; stroke-linecap: square"/>
     </g>
     <g id="line2d_28">
      <g>
       <use xlink:href="#ma1d4466076" x="514.01197" y="226.148781" style="stroke: #000000; stroke-width: 0.8"/>
      </g>
     </g>
     <g id="text_16">
      <!-- 20000 -->
      <g transform="translate(494.129157 242.646828) scale(0.125 -0.125)">
       <use xlink:href="#DejaVuSans-32"/>
       <use xlink:href="#DejaVuSans-30" transform="translate(63.623047 0)"/>
       <use xlink:href="#DejaVuSans-30" transform="translate(127.246094 0)"/>
       <use xlink:href="#DejaVuSans-30" transform="translate(190.869141 0)"/>
       <use xlink:href="#DejaVuSans-30" transform="translate(254.492188 0)"/>
      </g>
     </g>
    </g>
    <g id="text_17">
     <!-- US$ -->
     <g transform="translate(415.330391 259.124406) scale(0.13 -0.13)">
      <defs>
       <path id="DejaVuSans-55" d="M 556 4666 
L 1191 4666 
L 1191 1831 
Q 1191 1081 1462 751 
Q 1734 422 2344 422 
Q 2950 422 3222 751 
Q 3494 1081 3494 1831 
L 3494 4666 
L 4128 4666 
L 4128 1753 
Q 4128 841 3676 375 
Q 3225 -91 2344 -91 
Q 1459 -91 1007 375 
Q 556 841 556 1753 
L 556 4666 
z
" transform="scale(0.015625)"/>
       <path id="DejaVuSans-53" d="M 3425 4513 
L 3425 3897 
Q 3066 4069 2747 4153 
Q 2428 4238 2131 4238 
Q 1616 4238 1336 4038 
Q 1056 3838 1056 3469 
Q 1056 3159 1242 3001 
Q 1428 2844 1947 2747 
L 2328 2669 
Q 3034 2534 3370 2195 
Q 3706 1856 3706 1288 
Q 3706 609 3251 259 
Q 2797 -91 1919 -91 
Q 1588 -91 1214 -16 
Q 841 59 441 206 
L 441 856 
Q 825 641 1194 531 
Q 1563 422 1919 422 
Q 2459 422 2753 634 
Q 3047 847 3047 1241 
Q 3047 1584 2836 1778 
Q 2625 1972 2144 2069 
L 1759 2144 
Q 1053 2284 737 2584 
Q 422 2884 422 3419 
Q 422 4038 858 4394 
Q 1294 4750 2059 4750 
Q 2388 4750 2728 4690 
Q 3069 4631 3425 4513 
z
" transform="scale(0.015625)"/>
       <path id="DejaVuSans-24" d="M 2163 -941 
L 1850 -941 
L 1847 0 
Q 1519 6 1191 76 
Q 863 147 531 288 
L 531 850 
Q 850 650 1176 548 
Q 1503 447 1850 444 
L 1850 1869 
Q 1159 1981 845 2250 
Q 531 2519 531 2988 
Q 531 3497 872 3790 
Q 1213 4084 1850 4128 
L 1850 4863 
L 2163 4863 
L 2163 4138 
Q 2453 4125 2725 4076 
Q 2997 4028 3256 3944 
L 3256 3397 
Q 2997 3528 2723 3600 
Q 2450 3672 2163 3684 
L 2163 2350 
Q 2872 2241 3206 1959 
Q 3541 1678 3541 1191 
Q 3541 663 3186 358 
Q 2831 53 2163 6 
L 2163 -941 
z
M 1850 2406 
L 1850 3688 
Q 1488 3647 1297 3481 
Q 1106 3316 1106 3041 
Q 1106 2772 1282 2622 
Q 1459 2472 1850 2406 
z
M 2163 1806 
L 2163 453 
Q 2559 506 2761 678 
Q 2963 850 2963 1131 
Q 2963 1406 2770 1568 
Q 2578 1731 2163 1806 
z
" transform="scale(0.015625)"/>
      </defs>
      <use xlink:href="#DejaVuSans-55"/>
      <use xlink:href="#DejaVuSans-53" transform="translate(73.193359 0)"/>
      <use xlink:href="#DejaVuSans-24" transform="translate(136.669922 0)"/>
     </g>
    </g>
   </g>
   <g id="matplotlib.axis_4">
    <g id="ytick_6">
     <g id="line2d_29">
      <path d="M 314.779375 226.148781 
L 541.92 226.148781 
" clip-path="url(#p9795fa5786)" style="fill: none; stroke: #e9edf1; stroke-width: 0.9; stroke-linecap: square"/>
     </g>
     <g id="line2d_30">
      <g>
       <use xlink:href="#m7803ec8a61" x="314.779375" y="226.148781" style="stroke: #000000; stroke-width: 0.8"/>
      </g>
     </g>
     <g id="text_18">
      <!-- 0 -->
      <g transform="translate(299.82625 230.897805) scale(0.125 -0.125)">
       <use xlink:href="#DejaVuSans-30"/>
      </g>
     </g>
    </g>
    <g id="ytick_7">
     <g id="line2d_31">
      <path d="M 314.779375 176.180297 
L 541.92 176.180297 
" clip-path="url(#p9795fa5786)" style="fill: none; stroke: #e9edf1; stroke-width: 0.9; stroke-linecap: square"/>
     </g>
     <g id="line2d_32">
      <g>
       <use xlink:href="#m7803ec8a61" x="314.779375" y="176.180297" style="stroke: #000000; stroke-width: 0.8"/>
      </g>
     </g>
     <g id="text_19">
      <!-- 100 -->
      <g transform="translate(283.92 180.92932) scale(0.125 -0.125)">
       <use xlink:href="#DejaVuSans-31"/>
       <use xlink:href="#DejaVuSans-30" transform="translate(63.623047 0)"/>
       <use xlink:href="#DejaVuSans-30" transform="translate(127.246094 0)"/>
      </g>
     </g>
    </g>
    <g id="ytick_8">
     <g id="line2d_33">
      <path d="M 314.779375 126.211812 
L 541.92 126.211812 
" clip-path="url(#p9795fa5786)" style="fill: none; stroke: #e9edf1; stroke-width: 0.9; stroke-linecap: square"/>
     </g>
     <g id="line2d_34">
      <g>
       <use xlink:href="#m7803ec8a61" x="314.779375" y="126.211812" style="stroke: #000000; stroke-width: 0.8"/>
      </g>
     </g>
     <g id="text_20">
      <!-- 200 -->
      <g transform="translate(283.92 130.960835) scale(0.125 -0.125)">
       <use xlink:href="#DejaVuSans-32"/>
       <use xlink:href="#DejaVuSans-30" transform="translate(63.623047 0)"/>
       <use xlink:href="#DejaVuSans-30" transform="translate(127.246094 0)"/>
      </g>
     </g>
    </g>
    <g id="ytick_9">
     <g id="line2d_35">
      <path d="M 314.779375 76.243327 
L 541.92 76.243327 
" clip-path="url(#p9795fa5786)" style="fill: none; stroke: #e9edf1; stroke-width: 0.9; stroke-linecap: square"/>
     </g>
     <g id="line2d_36">
      <g>
       <use xlink:href="#m7803ec8a61" x="314.779375" y="76.243327" style="stroke: #000000; stroke-width: 0.8"/>
      </g>
     </g>
     <g id="text_21">
      <!-- 300 -->
      <g transform="translate(283.92 80.992351) scale(0.125 -0.125)">
       <defs>
        <path id="DejaVuSans-33" d="M 2597 2516 
Q 3050 2419 3304 2112 
Q 3559 1806 3559 1356 
Q 3559 666 3084 287 
Q 2609 -91 1734 -91 
Q 1441 -91 1130 -33 
Q 819 25 488 141 
L 488 750 
Q 750 597 1062 519 
Q 1375 441 1716 441 
Q 2309 441 2620 675 
Q 2931 909 2931 1356 
Q 2931 1769 2642 2001 
Q 2353 2234 1838 2234 
L 1294 2234 
L 1294 2753 
L 1863 2753 
Q 2328 2753 2575 2939 
Q 2822 3125 2822 3475 
Q 2822 3834 2567 4026 
Q 2313 4219 1838 4219 
Q 1578 4219 1281 4162 
Q 984 4106 628 3988 
L 628 4550 
Q 988 4650 1302 4700 
Q 1616 4750 1894 4750 
Q 2613 4750 3031 4423 
Q 3450 4097 3450 3541 
Q 3450 3153 3228 2886 
Q 3006 2619 2597 2516 
z
" transform="scale(0.015625)"/>
       </defs>
       <use xlink:href="#DejaVuSans-33"/>
       <use xlink:href="#DejaVuSans-30" transform="translate(63.623047 0)"/>
       <use xlink:href="#DejaVuSans-30" transform="translate(127.246094 0)"/>
      </g>
     </g>
    </g>
   </g>
   <g id="patch_36">
    <path d="M 325.103949 226.148781 
L 330.266236 226.148781 
L 330.266236 217.154454 
L 325.103949 217.154454 
z
" clip-path="url(#p9795fa5786)" style="fill: #8b1538; stroke: #ffffff; stroke-linejoin: miter"/>
   </g>
   <g id="patch_37">
    <path d="M 330.266236 226.148781 
L 335.428523 226.148781 
L 335.428523 176.180297 
L 330.266236 176.180297 
z
" clip-path="url(#p9795fa5786)" style="fill: #8b1538; stroke: #ffffff; stroke-linejoin: miter"/>
   </g>
   <g id="patch_38">
    <path d="M 335.428523 226.148781 
L 340.59081 226.148781 
L 340.59081 131.20866 
L 335.428523 131.20866 
z
" clip-path="url(#p9795fa5786)" style="fill: #8b1538; stroke: #ffffff; stroke-linejoin: miter"/>
   </g>
   <g id="patch_39">
    <path d="M 340.59081 226.148781 
L 345.753097 226.148781 
L 345.753097 95.731036 
L 340.59081 95.731036 
z
" clip-path="url(#p9795fa5786)" style="fill: #8b1538; stroke: #ffffff; stroke-linejoin: miter"/>
   </g>
   <g id="patch_40">
    <path d="M 345.753097 226.148781 
L 350.915384 226.148781 
L 350.915384 76.743012 
L 345.753097 76.743012 
z
" clip-path="url(#p9795fa5786)" style="fill: #8b1538; stroke: #ffffff; stroke-linejoin: miter"/>
   </g>
   <g id="patch_41">
    <path d="M 350.915384 226.148781 
L 356.07767 226.148781 
L 356.07767 69.24774 
L 350.915384 69.24774 
z
" clip-path="url(#p9795fa5786)" style="fill: #8b1538; stroke: #ffffff; stroke-linejoin: miter"/>
   </g>
   <g id="patch_42">
    <path d="M 356.07767 226.148781 
L 361.239957 226.148781 
L 361.239957 78.741752 
L 356.07767 78.741752 
z
" clip-path="url(#p9795fa5786)" style="fill: #8b1538; stroke: #ffffff; stroke-linejoin: miter"/>
   </g>
   <g id="patch_43">
    <path d="M 361.239957 226.148781 
L 366.402244 226.148781 
L 366.402244 88.235764 
L 361.239957 88.235764 
z
" clip-path="url(#p9795fa5786)" style="fill: #8b1538; stroke: #ffffff; stroke-linejoin: miter"/>
   </g>
   <g id="patch_44">
    <path d="M 366.402244 226.148781 
L 371.564531 226.148781 
L 371.564531 96.230721 
L 366.402244 96.230721 
z
" clip-path="url(#p9795fa5786)" style="fill: #8b1538; stroke: #ffffff; stroke-linejoin: miter"/>
   </g>
   <g id="patch_45">
    <path d="M 371.564531 226.148781 
L 376.726818 226.148781 
L 376.726818 128.210551 
L 371.564531 128.210551 
z
" clip-path="url(#p9795fa5786)" style="fill: #8b1538; stroke: #ffffff; stroke-linejoin: miter"/>
   </g>
   <g id="patch_46">
    <path d="M 376.726818 226.148781 
L 381.889105 226.148781 
L 381.889105 149.697 
L 376.726818 149.697 
z
" clip-path="url(#p9795fa5786)" style="fill: #8b1538; stroke: #ffffff; stroke-linejoin: miter"/>
   </g>
   <g id="patch_47">
    <path d="M 381.889105 226.148781 
L 387.051392 226.148781 
L 387.051392 161.689436 
L 381.889105 161.689436 
z
" clip-path="url(#p9795fa5786)" style="fill: #8b1538; stroke: #ffffff; stroke-linejoin: miter"/>
   </g>
   <g id="patch_48">
    <path d="M 387.051392 226.148781 
L 392.213679 226.148781 
L 392.213679 178.678721 
L 387.051392 178.678721 
z
" clip-path="url(#p9795fa5786)" style="fill: #8b1538; stroke: #ffffff; stroke-linejoin: miter"/>
   </g>
   <g id="patch_49">
    <path d="M 392.213679 226.148781 
L 397.375966 226.148781 
L 397.375966 185.174624 
L 392.213679 185.174624 
z
" clip-path="url(#p9795fa5786)" style="fill: #8b1538; stroke: #ffffff; stroke-linejoin: miter"/>
   </g>
   <g id="patch_50">
    <path d="M 397.375966 226.148781 
L 402.538253 226.148781 
L 402.538253 196.667375 
L 397.375966 196.667375 
z
" clip-path="url(#p9795fa5786)" style="fill: #8b1538; stroke: #ffffff; stroke-linejoin: miter"/>
   </g>
   <g id="patch_51">
    <path d="M 402.538253 226.148781 
L 407.70054 226.148781 
L 407.70054 200.165169 
L 402.538253 200.165169 
z
" clip-path="url(#p9795fa5786)" style="fill: #8b1538; stroke: #ffffff; stroke-linejoin: miter"/>
   </g>
   <g id="patch_52">
    <path d="M 407.70054 226.148781 
L 412.862827 226.148781 
L 412.862827 202.163909 
L 407.70054 202.163909 
z
" clip-path="url(#p9795fa5786)" style="fill: #8b1538; stroke: #ffffff; stroke-linejoin: miter"/>
   </g>
   <g id="patch_53">
    <path d="M 412.862827 226.148781 
L 418.025114 226.148781 
L 418.025114 208.160127 
L 412.862827 208.160127 
z
" clip-path="url(#p9795fa5786)" style="fill: #8b1538; stroke: #ffffff; stroke-linejoin: miter"/>
   </g>
   <g id="patch_54">
    <path d="M 418.025114 226.148781 
L 423.187401 226.148781 
L 423.187401 214.65603 
L 418.025114 214.65603 
z
" clip-path="url(#p9795fa5786)" style="fill: #8b1538; stroke: #ffffff; stroke-linejoin: miter"/>
   </g>
   <g id="patch_55">
    <path d="M 423.187401 226.148781 
L 428.349687 226.148781 
L 428.349687 214.156345 
L 423.187401 214.156345 
z
" clip-path="url(#p9795fa5786)" style="fill: #8b1538; stroke: #ffffff; stroke-linejoin: miter"/>
   </g>
   <g id="patch_56">
    <path d="M 428.349687 226.148781 
L 433.511974 226.148781 
L 433.511974 217.654139 
L 428.349687 217.654139 
z
" clip-path="url(#p9795fa5786)" style="fill: #8b1538; stroke: #ffffff; stroke-linejoin: miter"/>
   </g>
   <g id="patch_57">
    <path d="M 433.511974 226.148781 
L 438.674261 226.148781 
L 438.674261 219.652878 
L 433.511974 219.652878 
z
" clip-path="url(#p9795fa5786)" style="fill: #8b1538; stroke: #ffffff; stroke-linejoin: miter"/>
   </g>
   <g id="patch_58">
    <path d="M 438.674261 226.148781 
L 443.836548 226.148781 
L 443.836548 222.650987 
L 438.674261 222.650987 
z
" clip-path="url(#p9795fa5786)" style="fill: #8b1538; stroke: #ffffff; stroke-linejoin: miter"/>
   </g>
   <g id="patch_59">
    <path d="M 443.836548 226.148781 
L 448.998835 226.148781 
L 448.998835 223.150672 
L 443.836548 223.150672 
z
" clip-path="url(#p9795fa5786)" style="fill: #8b1538; stroke: #ffffff; stroke-linejoin: miter"/>
   </g>
   <g id="patch_60">
    <path d="M 448.998835 226.148781 
L 454.161122 226.148781 
L 454.161122 221.151933 
L 448.998835 221.151933 
z
" clip-path="url(#p9795fa5786)" style="fill: #8b1538; stroke: #ffffff; stroke-linejoin: miter"/>
   </g>
   <g id="patch_61">
    <path d="M 454.161122 226.148781 
L 459.323409 226.148781 
L 459.323409 222.151302 
L 454.161122 222.151302 
z
" clip-path="url(#p9795fa5786)" style="fill: #8b1538; stroke: #ffffff; stroke-linejoin: miter"/>
   </g>
   <g id="patch_62">
    <path d="M 459.323409 226.148781 
L 464.485696 226.148781 
L 464.485696 223.150672 
L 459.323409 223.150672 
z
" clip-path="url(#p9795fa5786)" style="fill: #8b1538; stroke: #ffffff; stroke-linejoin: miter"/>
   </g>
   <g id="patch_63">
    <path d="M 464.485696 226.148781 
L 469.647983 226.148781 
L 469.647983 224.649727 
L 464.485696 224.649727 
z
" clip-path="url(#p9795fa5786)" style="fill: #8b1538; stroke: #ffffff; stroke-linejoin: miter"/>
   </g>
   <g id="patch_64">
    <path d="M 469.647983 226.148781 
L 474.81027 226.148781 
L 474.81027 224.150042 
L 469.647983 224.150042 
z
" clip-path="url(#p9795fa5786)" style="fill: #8b1538; stroke: #ffffff; stroke-linejoin: miter"/>
   </g>
   <g id="patch_65">
    <path d="M 474.81027 226.148781 
L 479.972557 226.148781 
L 479.972557 224.649727 
L 474.81027 224.649727 
z
" clip-path="url(#p9795fa5786)" style="fill: #8b1538; stroke: #ffffff; stroke-linejoin: miter"/>
   </g>
   <g id="patch_66">
    <path d="M 479.972557 226.148781 
L 485.134844 226.148781 
L 485.134844 225.649096 
L 479.972557 225.649096 
z
" clip-path="url(#p9795fa5786)" style="fill: #8b1538; stroke: #ffffff; stroke-linejoin: miter"/>
   </g>
   <g id="patch_67">
    <path d="M 485.134844 226.148781 
L 490.297131 226.148781 
L 490.297131 225.149412 
L 485.134844 225.149412 
z
" clip-path="url(#p9795fa5786)" style="fill: #8b1538; stroke: #ffffff; stroke-linejoin: miter"/>
   </g>
   <g id="patch_68">
    <path d="M 490.297131 226.148781 
L 495.459418 226.148781 
L 495.459418 225.649096 
L 490.297131 225.649096 
z
" clip-path="url(#p9795fa5786)" style="fill: #8b1538; stroke: #ffffff; stroke-linejoin: miter"/>
   </g>
   <g id="patch_69">
    <path d="M 495.459418 226.148781 
L 500.621705 226.148781 
L 500.621705 224.150042 
L 495.459418 224.150042 
z
" clip-path="url(#p9795fa5786)" style="fill: #8b1538; stroke: #ffffff; stroke-linejoin: miter"/>
   </g>
   <g id="patch_70">
    <path d="M 500.621705 226.148781 
L 505.783991 226.148781 
L 505.783991 224.649727 
L 500.621705 224.649727 
z
" clip-path="url(#p9795fa5786)" style="fill: #8b1538; stroke: #ffffff; stroke-linejoin: miter"/>
   </g>
   <g id="patch_71">
    <path d="M 505.783991 226.148781 
L 510.946278 226.148781 
L 510.946278 226.148781 
L 505.783991 226.148781 
z
" clip-path="url(#p9795fa5786)" style="fill: #8b1538; stroke: #ffffff; stroke-linejoin: miter"/>
   </g>
   <g id="patch_72">
    <path d="M 510.946278 226.148781 
L 516.108565 226.148781 
L 516.108565 226.148781 
L 510.946278 226.148781 
z
" clip-path="url(#p9795fa5786)" style="fill: #8b1538; stroke: #ffffff; stroke-linejoin: miter"/>
   </g>
   <g id="patch_73">
    <path d="M 516.108565 226.148781 
L 521.270852 226.148781 
L 521.270852 225.649096 
L 516.108565 225.649096 
z
" clip-path="url(#p9795fa5786)" style="fill: #8b1538; stroke: #ffffff; stroke-linejoin: miter"/>
   </g>
   <g id="patch_74">
    <path d="M 521.270852 226.148781 
L 526.433139 226.148781 
L 526.433139 226.148781 
L 521.270852 226.148781 
z
" clip-path="url(#p9795fa5786)" style="fill: #8b1538; stroke: #ffffff; stroke-linejoin: miter"/>
   </g>
   <g id="patch_75">
    <path d="M 526.433139 226.148781 
L 531.595426 226.148781 
L 531.595426 225.649096 
L 526.433139 225.649096 
z
" clip-path="url(#p9795fa5786)" style="fill: #8b1538; stroke: #ffffff; stroke-linejoin: miter"/>
   </g>
   <g id="patch_76">
    <path d="M 314.779375 226.148781 
L 314.779375 61.402688 
" style="fill: none; stroke: #c9ced3; stroke-width: 1.1; stroke-linejoin: miter; stroke-linecap: square"/>
   </g>
   <g id="patch_77">
    <path d="M 314.779375 226.148781 
L 541.92 226.148781 
" style="fill: none; stroke: #c9ced3; stroke-width: 1.1; stroke-linejoin: miter; stroke-linecap: square"/>
   </g>
   <g id="text_22">
    <!-- Sesgo a la derecha: ingreso -->
    <g style="fill: #2c3e50" transform="translate(314.779375 55.402688) scale(0.16 -0.16)">
     <defs>
      <path id="DejaVuSans-Bold-53" d="M 3834 4519 
L 3834 3531 
Q 3450 3703 3084 3790 
Q 2719 3878 2394 3878 
Q 1963 3878 1756 3759 
Q 1550 3641 1550 3391 
Q 1550 3203 1689 3098 
Q 1828 2994 2194 2919 
L 2706 2816 
Q 3484 2659 3812 2340 
Q 4141 2022 4141 1434 
Q 4141 663 3683 286 
Q 3225 -91 2284 -91 
Q 1841 -91 1394 -6 
Q 947 78 500 244 
L 500 1259 
Q 947 1022 1364 901 
Q 1781 781 2169 781 
Q 2563 781 2772 912 
Q 2981 1044 2981 1288 
Q 2981 1506 2839 1625 
Q 2697 1744 2272 1838 
L 1806 1941 
Q 1106 2091 782 2419 
Q 459 2747 459 3303 
Q 459 4000 909 4375 
Q 1359 4750 2203 4750 
Q 2588 4750 2994 4692 
Q 3400 4634 3834 4519 
z
" transform="scale(0.015625)"/>
      <path id="DejaVuSans-Bold-6c" d="M 538 4863 
L 1656 4863 
L 1656 0 
L 538 0 
L 538 4863 
z
" transform="scale(0.015625)"/>
      <path id="DejaVuSans-Bold-63" d="M 3366 3391 
L 3366 2478 
Q 3138 2634 2908 2709 
Q 2678 2784 2431 2784 
Q 1963 2784 1702 2511 
Q 1441 2238 1441 1747 
Q 1441 1256 1702 982 
Q 1963 709 2431 709 
Q 2694 709 2930 787 
Q 3166 866 3366 1019 
L 3366 103 
Q 3103 6 2833 -42 
Q 2563 -91 2291 -91 
Q 1344 -91 809 395 
Q 275 881 275 1747 
Q 275 2613 809 3098 
Q 1344 3584 2291 3584 
Q 2566 3584 2833 3536 
Q 3100 3488 3366 3391 
z
" transform="scale(0.015625)"/>
      <path id="DejaVuSans-Bold-68" d="M 4056 2131 
L 4056 0 
L 2931 0 
L 2931 347 
L 2931 1625 
Q 2931 2084 2911 2256 
Q 2891 2428 2841 2509 
Q 2775 2619 2662 2680 
Q 2550 2741 2406 2741 
Q 2056 2741 1856 2470 
Q 1656 2200 1656 1722 
L 1656 0 
L 538 0 
L 538 4863 
L 1656 4863 
L 1656 2988 
Q 1909 3294 2193 3439 
Q 2478 3584 2822 3584 
Q 3428 3584 3742 3212 
Q 4056 2841 4056 2131 
z
" transform="scale(0.015625)"/>
      <path id="DejaVuSans-Bold-6e" d="M 4056 2131 
L 4056 0 
L 2931 0 
L 2931 347 
L 2931 1631 
Q 2931 2084 2911 2256 
Q 2891 2428 2841 2509 
Q 2775 2619 2662 2680 
Q 2550 2741 2406 2741 
Q 2056 2741 1856 2470 
Q 1656 2200 1656 1722 
L 1656 0 
L 538 0 
L 538 3500 
L 1656 3500 
L 1656 2988 
Q 1909 3294 2193 3439 
Q 2478 3584 2822 3584 
Q 3428 3584 3742 3212 
Q 4056 2841 4056 2131 
z
" transform="scale(0.015625)"/>
     </defs>
     <use xlink:href="#DejaVuSans-Bold-53"/>
     <use xlink:href="#DejaVuSans-Bold-65" transform="translate(72.021484 0)"/>
     <use xlink:href="#DejaVuSans-Bold-73" transform="translate(139.84375 0)"/>
     <use xlink:href="#DejaVuSans-Bold-67" transform="translate(199.365234 0)"/>
     <use xlink:href="#DejaVuSans-Bold-6f" transform="translate(270.947266 0)"/>
     <use xlink:href="#DejaVuSans-Bold-20" transform="translate(339.648438 0)"/>
     <use xlink:href="#DejaVuSans-Bold-61" transform="translate(374.462891 0)"/>
     <use xlink:href="#DejaVuSans-Bold-20" transform="translate(441.943359 0)"/>
     <use xlink:href="#DejaVuSans-Bold-6c" transform="translate(476.757812 0)"/>
     <use xlink:href="#DejaVuSans-Bold-61" transform="translate(511.035156 0)"/>
     <use xlink:href="#DejaVuSans-Bold-20" transform="translate(578.515625 0)"/>
     <use xlink:href="#DejaVuSans-Bold-64" transform="translate(613.330078 0)"/>
     <use xlink:href="#DejaVuSans-Bold-65" transform="translate(684.912109 0)"/>
     <use xlink:href="#DejaVuSans-Bold-72" transform="translate(752.734375 0)"/>
     <use xlink:href="#DejaVuSans-Bold-65" transform="translate(802.050781 0)"/>
     <use xlink:href="#DejaVuSans-Bold-63" transform="translate(869.873047 0)"/>
     <use xlink:href="#DejaVuSans-Bold-68" transform="translate(929.150391 0)"/>
     <use xlink:href="#DejaVuSans-Bold-61" transform="translate(1000.341797 0)"/>
     <use xlink:href="#DejaVuSans-Bold-3a" transform="translate(1067.822266 0)"/>
     <use xlink:href="#DejaVuSans-Bold-20" transform="translate(1107.8125 0)"/>
     <use xlink:href="#DejaVuSans-Bold-69" transform="translate(1142.626953 0)"/>
     <use xlink:href="#DejaVuSans-Bold-6e" transform="translate(1176.904297 0)"/>
     <use xlink:href="#DejaVuSans-Bold-67" transform="translate(1248.095703 0)"/>
     <use xlink:href="#DejaVuSans-Bold-72" transform="translate(1319.677734 0)"/>
     <use xlink:href="#DejaVuSans-Bold-65" transform="translate(1368.994141 0)"/>
     <use xlink:href="#DejaVuSans-Bold-73" transform="translate(1436.816406 0)"/>
     <use xlink:href="#DejaVuSans-Bold-6f" transform="translate(1496.337891 0)"/>
    </g>
   </g>
  </g>
  <g id="axes_3">
   <g id="patch_78">
    <path d="M 586.279375 226.148781 
L 813.42 226.148781 
L 813.42 61.402688 
L 586.279375 61.402688 
L 586.279375 226.148781 
z
" style="fill: none"/>
   </g>
   <g id="matplotlib.axis_5">
    <g id="xtick_10">
     <g id="line2d_37">
      <path d="M 643.064531 226.148781 
L 643.064531 61.402688 
" clip-path="url(#pf635d2311a)" style="fill: none; stroke: #e9edf1; stroke-width: 0.9; stroke-linecap: square"/>
     </g>
     <g id="line2d_38">
      <g>
       <use xlink:href="#ma1d4466076" x="643.064531" y="226.148781" style="stroke: #000000; stroke-width: 0.8"/>
      </g>
     </g>
     <g id="text_23">
      <!-- Buenos -->
      <g transform="translate(619.928789 242.646828) scale(0.125 -0.125)">
       <defs>
        <path id="DejaVuSans-42" d="M 1259 2228 
L 1259 519 
L 2272 519 
Q 2781 519 3026 730 
Q 3272 941 3272 1375 
Q 3272 1813 3026 2020 
Q 2781 2228 2272 2228 
L 1259 2228 
z
M 1259 4147 
L 1259 2741 
L 2194 2741 
Q 2656 2741 2882 2914 
Q 3109 3088 3109 3444 
Q 3109 3797 2882 3972 
Q 2656 4147 2194 4147 
L 1259 4147 
z
M 628 4666 
L 2241 4666 
Q 2963 4666 3353 4366 
Q 3744 4066 3744 3513 
Q 3744 3084 3544 2831 
Q 3344 2578 2956 2516 
Q 3422 2416 3680 2098 
Q 3938 1781 3938 1306 
Q 3938 681 3513 340 
Q 3088 0 2303 0 
L 628 0 
L 628 4666 
z
" transform="scale(0.015625)"/>
        <path id="DejaVuSans-75" d="M 544 1381 
L 544 3500 
L 1119 3500 
L 1119 1403 
Q 1119 906 1312 657 
Q 1506 409 1894 409 
Q 2359 409 2629 706 
Q 2900 1003 2900 1516 
L 2900 3500 
L 3475 3500 
L 3475 0 
L 2900 0 
L 2900 538 
Q 2691 219 2414 64 
Q 2138 -91 1772 -91 
Q 1169 -91 856 284 
Q 544 659 544 1381 
z
M 1991 3584 
L 1991 3584 
z
" transform="scale(0.015625)"/>
        <path id="DejaVuSans-65" d="M 3597 1894 
L 3597 1613 
L 953 1613 
Q 991 1019 1311 708 
Q 1631 397 2203 397 
Q 2534 397 2845 478 
Q 3156 559 3463 722 
L 3463 178 
Q 3153 47 2828 -22 
Q 2503 -91 2169 -91 
Q 1331 -91 842 396 
Q 353 884 353 1716 
Q 353 2575 817 3079 
Q 1281 3584 2069 3584 
Q 2775 3584 3186 3129 
Q 3597 2675 3597 1894 
z
M 3022 2063 
Q 3016 2534 2758 2815 
Q 2500 3097 2075 3097 
Q 1594 3097 1305 2825 
Q 1016 2553 972 2059 
L 3022 2063 
z
" transform="scale(0.015625)"/>
        <path id="DejaVuSans-6e" d="M 3513 2113 
L 3513 0 
L 2938 0 
L 2938 2094 
Q 2938 2591 2744 2837 
Q 2550 3084 2163 3084 
Q 1697 3084 1428 2787 
Q 1159 2491 1159 1978 
L 1159 0 
L 581 0 
L 581 3500 
L 1159 3500 
L 1159 2956 
Q 1366 3272 1645 3428 
Q 1925 3584 2291 3584 
Q 2894 3584 3203 3211 
Q 3513 2838 3513 2113 
z
" transform="scale(0.015625)"/>
       </defs>
       <use xlink:href="#DejaVuSans-42"/>
       <use xlink:href="#DejaVuSans-75" transform="translate(68.603516 0)"/>
       <use xlink:href="#DejaVuSans-65" transform="translate(131.982422 0)"/>
       <use xlink:href="#DejaVuSans-6e" transform="translate(193.505859 0)"/>
       <use xlink:href="#DejaVuSans-6f" transform="translate(256.884766 0)"/>
       <use xlink:href="#DejaVuSans-73" transform="translate(318.066406 0)"/>
      </g>
     </g>
    </g>
    <g id="xtick_11">
     <g id="line2d_39">
      <path d="M 756.634844 226.148781 
L 756.634844 61.402688 
" clip-path="url(#pf635d2311a)" style="fill: none; stroke: #e9edf1; stroke-width: 0.9; stroke-linecap: square"/>
     </g>
     <g id="line2d_40">
      <g>
       <use xlink:href="#ma1d4466076" x="756.634844" y="226.148781" style="stroke: #000000; stroke-width: 0.8"/>
      </g>
     </g>
     <g id="text_24">
      <!-- Morosos -->
      <g transform="translate(730.82918 242.646828) scale(0.125 -0.125)">
       <defs>
        <path id="DejaVuSans-4d" d="M 628 4666 
L 1569 4666 
L 2759 1491 
L 3956 4666 
L 4897 4666 
L 4897 0 
L 4281 0 
L 4281 4097 
L 3078 897 
L 2444 897 
L 1241 4097 
L 1241 0 
L 628 0 
L 628 4666 
z
" transform="scale(0.015625)"/>
        <path id="DejaVuSans-72" d="M 2631 2963 
Q 2534 3019 2420 3045 
Q 2306 3072 2169 3072 
Q 1681 3072 1420 2755 
Q 1159 2438 1159 1844 
L 1159 0 
L 581 0 
L 581 3500 
L 1159 3500 
L 1159 2956 
Q 1341 3275 1631 3429 
Q 1922 3584 2338 3584 
Q 2397 3584 2469 3576 
Q 2541 3569 2628 3553 
L 2631 2963 
z
" transform="scale(0.015625)"/>
       </defs>
       <use xlink:href="#DejaVuSans-4d"/>
       <use xlink:href="#DejaVuSans-6f" transform="translate(86.279297 0)"/>
       <use xlink:href="#DejaVuSans-72" transform="translate(147.460938 0)"/>
       <use xlink:href="#DejaVuSans-6f" transform="translate(186.324219 0)"/>
       <use xlink:href="#DejaVuSans-73" transform="translate(247.505859 0)"/>
       <use xlink:href="#DejaVuSans-6f" transform="translate(299.605469 0)"/>
       <use xlink:href="#DejaVuSans-73" transform="translate(360.787109 0)"/>
      </g>
     </g>
    </g>
   </g>
   <g id="matplotlib.axis_6">
    <g id="ytick_10">
     <g id="line2d_41">
      <path d="M 586.279375 210.647362 
L 813.42 210.647362 
" clip-path="url(#pf635d2311a)" style="fill: none; stroke: #e9edf1; stroke-width: 0.9; stroke-linecap: square"/>
     </g>
     <g id="line2d_42">
      <g>
       <use xlink:href="#m7803ec8a61" x="586.279375" y="210.647362" style="stroke: #000000; stroke-width: 0.8"/>
      </g>
     </g>
     <g id="text_25">
      <!-- 0 -->
      <g transform="translate(571.32625 215.396385) scale(0.125 -0.125)">
       <use xlink:href="#DejaVuSans-30"/>
      </g>
     </g>
    </g>
    <g id="ytick_11">
     <g id="line2d_43">
      <path d="M 586.279375 179.672738 
L 813.42 179.672738 
" clip-path="url(#pf635d2311a)" style="fill: none; stroke: #e9edf1; stroke-width: 0.9; stroke-linecap: square"/>
     </g>
     <g id="line2d_44">
      <g>
       <use xlink:href="#m7803ec8a61" x="586.279375" y="179.672738" style="stroke: #000000; stroke-width: 0.8"/>
      </g>
     </g>
     <g id="text_26">
      <!-- 25 -->
      <g transform="translate(563.373125 184.421761) scale(0.125 -0.125)">
       <use xlink:href="#DejaVuSans-32"/>
       <use xlink:href="#DejaVuSans-35" transform="translate(63.623047 0)"/>
      </g>
     </g>
    </g>
    <g id="ytick_12">
     <g id="line2d_45">
      <path d="M 586.279375 148.698113 
L 813.42 148.698113 
" clip-path="url(#pf635d2311a)" style="fill: none; stroke: #e9edf1; stroke-width: 0.9; stroke-linecap: square"/>
     </g>
     <g id="line2d_46">
      <g>
       <use xlink:href="#m7803ec8a61" x="586.279375" y="148.698113" style="stroke: #000000; stroke-width: 0.8"/>
      </g>
     </g>
     <g id="text_27">
      <!-- 50 -->
      <g transform="translate(563.373125 153.447137) scale(0.125 -0.125)">
       <use xlink:href="#DejaVuSans-35"/>
       <use xlink:href="#DejaVuSans-30" transform="translate(63.623047 0)"/>
      </g>
     </g>
    </g>
    <g id="ytick_13">
     <g id="line2d_47">
      <path d="M 586.279375 117.723489 
L 813.42 117.723489 
" clip-path="url(#pf635d2311a)" style="fill: none; stroke: #e9edf1; stroke-width: 0.9; stroke-linecap: square"/>
     </g>
     <g id="line2d_48">
      <g>
       <use xlink:href="#m7803ec8a61" x="586.279375" y="117.723489" style="stroke: #000000; stroke-width: 0.8"/>
      </g>
     </g>
     <g id="text_28">
      <!-- 75 -->
      <g transform="translate(563.373125 122.472513) scale(0.125 -0.125)">
       <defs>
        <path id="DejaVuSans-37" d="M 525 4666 
L 3525 4666 
L 3525 4397 
L 1831 0 
L 1172 0 
L 2766 4134 
L 525 4134 
L 525 4666 
z
" transform="scale(0.015625)"/>
       </defs>
       <use xlink:href="#DejaVuSans-37"/>
       <use xlink:href="#DejaVuSans-35" transform="translate(63.623047 0)"/>
      </g>
     </g>
    </g>
    <g id="ytick_14">
     <g id="line2d_49">
      <path d="M 586.279375 86.748865 
L 813.42 86.748865 
" clip-path="url(#pf635d2311a)" style="fill: none; stroke: #e9edf1; stroke-width: 0.9; stroke-linecap: square"/>
     </g>
     <g id="line2d_50">
      <g>
       <use xlink:href="#m7803ec8a61" x="586.279375" y="86.748865" style="stroke: #000000; stroke-width: 0.8"/>
      </g>
     </g>
     <g id="text_29">
      <!-- 100 -->
      <g transform="translate(555.42 91.497889) scale(0.125 -0.125)">
       <use xlink:href="#DejaVuSans-31"/>
       <use xlink:href="#DejaVuSans-30" transform="translate(63.623047 0)"/>
       <use xlink:href="#DejaVuSans-30" transform="translate(127.246094 0)"/>
      </g>
     </g>
    </g>
   </g>
   <g id="patch_79">
    <path d="M 634.546758 169.830095 
L 651.582305 169.830095 
L 651.582305 150.126057 
L 634.546758 150.126057 
L 634.546758 169.830095 
z
" clip-path="url(#pf635d2311a)" style="fill: #3498db; opacity: 0.75; stroke: #000000; stroke-linejoin: miter"/>
   </g>
   <g id="line2d_51">
    <path d="M 643.064531 169.830095 
L 643.064531 188.345632 
" clip-path="url(#pf635d2311a)" style="fill: none; stroke: #000000; stroke-linecap: square"/>
   </g>
   <g id="line2d_52">
    <path d="M 643.064531 150.126057 
L 643.064531 120.798874 
" clip-path="url(#pf635d2311a)" style="fill: none; stroke: #000000; stroke-linecap: square"/>
   </g>
   <g id="line2d_53">
    <path d="M 638.805645 188.345632 
L 647.323418 188.345632 
" clip-path="url(#pf635d2311a)" style="fill: none; stroke: #000000; stroke-linecap: square"/>
   </g>
   <g id="line2d_54">
    <path d="M 638.805645 120.798874 
L 647.323418 120.798874 
" clip-path="url(#pf635d2311a)" style="fill: none; stroke: #000000; stroke-linecap: square"/>
   </g>
   <g id="line2d_55">
    <defs>
     <path id="m5e1ca91b56" d="M 0 3 
C 0.795609 3 1.55874 2.683901 2.12132 2.12132 
C 2.683901 1.55874 3 0.795609 3 0 
C 3 -0.795609 2.683901 -1.55874 2.12132 -2.12132 
C 1.55874 -2.683901 0.795609 -3 0 -3 
C -0.795609 -3 -1.55874 -2.683901 -2.12132 -2.12132 
C -2.683901 -1.55874 -3 -0.795609 -3 0 
C -3 0.795609 -2.683901 1.55874 -2.12132 2.12132 
C -1.55874 2.683901 -0.795609 3 0 3 
z
" style="stroke: #000000"/>
    </defs>
    <g clip-path="url(#pf635d2311a)">
     <use xlink:href="#m5e1ca91b56" x="643.064531" y="114.773282" style="fill-opacity: 0; stroke: #000000"/>
     <use xlink:href="#m5e1ca91b56" x="643.064531" y="120.125682" style="fill-opacity: 0; stroke: #000000"/>
     <use xlink:href="#m5e1ca91b56" x="643.064531" y="113.929536" style="fill-opacity: 0; stroke: #000000"/>
     <use xlink:href="#m5e1ca91b56" x="643.064531" y="118.004281" style="fill-opacity: 0; stroke: #000000"/>
     <use xlink:href="#m5e1ca91b56" x="643.064531" y="117.545655" style="fill-opacity: 0; stroke: #000000"/>
     <use xlink:href="#m5e1ca91b56" x="643.064531" y="118.223585" style="fill-opacity: 0; stroke: #000000"/>
     <use xlink:href="#m5e1ca91b56" x="643.064531" y="119.118525" style="fill-opacity: 0; stroke: #000000"/>
     <use xlink:href="#m5e1ca91b56" x="643.064531" y="111.528565" style="fill-opacity: 0; stroke: #000000"/>
     <use xlink:href="#m5e1ca91b56" x="643.064531" y="111.528565" style="fill-opacity: 0; stroke: #000000"/>
     <use xlink:href="#m5e1ca91b56" x="643.064531" y="114.891941" style="fill-opacity: 0; stroke: #000000"/>
     <use xlink:href="#m5e1ca91b56" x="643.064531" y="119.24067" style="fill-opacity: 0; stroke: #000000"/>
     <use xlink:href="#m5e1ca91b56" x="643.064531" y="117.364584" style="fill-opacity: 0; stroke: #000000"/>
     <use xlink:href="#m5e1ca91b56" x="643.064531" y="115.301436" style="fill-opacity: 0; stroke: #000000"/>
     <use xlink:href="#m5e1ca91b56" x="643.064531" y="111.658523" style="fill-opacity: 0; stroke: #000000"/>
     <use xlink:href="#m5e1ca91b56" x="643.064531" y="112.571327" style="fill-opacity: 0; stroke: #000000"/>
     <use xlink:href="#m5e1ca91b56" x="643.064531" y="119.549058" style="fill-opacity: 0; stroke: #000000"/>
     <use xlink:href="#m5e1ca91b56" x="643.064531" y="112.150621" style="fill-opacity: 0; stroke: #000000"/>
    </g>
   </g>
   <g id="patch_80">
    <path d="M 748.11707 161.60169 
L 765.152617 161.60169 
L 765.152617 135.345786 
L 748.11707 135.345786 
L 748.11707 161.60169 
z
" clip-path="url(#pf635d2311a)" style="fill: #e07b39; opacity: 0.75; stroke: #000000; stroke-linejoin: miter"/>
   </g>
   <g id="line2d_56">
    <path d="M 756.634844 161.60169 
L 756.634844 200.3859 
" clip-path="url(#pf635d2311a)" style="fill: none; stroke: #000000; stroke-linecap: square"/>
   </g>
   <g id="line2d_57">
    <path d="M 756.634844 135.345786 
L 756.634844 96.030161 
" clip-path="url(#pf635d2311a)" style="fill: none; stroke: #000000; stroke-linecap: square"/>
   </g>
   <g id="line2d_58">
    <path d="M 752.375957 200.3859 
L 760.89373 200.3859 
" clip-path="url(#pf635d2311a)" style="fill: none; stroke: #000000; stroke-linecap: square"/>
   </g>
   <g id="line2d_59">
    <path d="M 752.375957 96.030161 
L 760.89373 96.030161 
" clip-path="url(#pf635d2311a)" style="fill: none; stroke: #000000; stroke-linecap: square"/>
   </g>
   <g id="line2d_60">
    <g clip-path="url(#pf635d2311a)">
     <use xlink:href="#m5e1ca91b56" x="756.634844" y="207.888341" style="fill-opacity: 0; stroke: #000000"/>
     <use xlink:href="#m5e1ca91b56" x="756.634844" y="201.566444" style="fill-opacity: 0; stroke: #000000"/>
     <use xlink:href="#m5e1ca91b56" x="756.634844" y="201.678847" style="fill-opacity: 0; stroke: #000000"/>
     <use xlink:href="#m5e1ca91b56" x="756.634844" y="204.8835" style="fill-opacity: 0; stroke: #000000"/>
     <use xlink:href="#m5e1ca91b56" x="756.634844" y="202.347898" style="fill-opacity: 0; stroke: #000000"/>
     <use xlink:href="#m5e1ca91b56" x="756.634844" y="201.468274" style="fill-opacity: 0; stroke: #000000"/>
     <use xlink:href="#m5e1ca91b56" x="756.634844" y="209.415674" style="fill-opacity: 0; stroke: #000000"/>
     <use xlink:href="#m5e1ca91b56" x="756.634844" y="203.58759" style="fill-opacity: 0; stroke: #000000"/>
     <use xlink:href="#m5e1ca91b56" x="756.634844" y="208.49413" style="fill-opacity: 0; stroke: #000000"/>
     <use xlink:href="#m5e1ca91b56" x="756.634844" y="200.998703" style="fill-opacity: 0; stroke: #000000"/>
     <use xlink:href="#m5e1ca91b56" x="756.634844" y="208.203644" style="fill-opacity: 0; stroke: #000000"/>
     <use xlink:href="#m5e1ca91b56" x="756.634844" y="203.216395" style="fill-opacity: 0; stroke: #000000"/>
     <use xlink:href="#m5e1ca91b56" x="756.634844" y="206.12744" style="fill-opacity: 0; stroke: #000000"/>
     <use xlink:href="#m5e1ca91b56" x="756.634844" y="218.660322" style="fill-opacity: 0; stroke: #000000"/>
     <use xlink:href="#m5e1ca91b56" x="756.634844" y="205.202253" style="fill-opacity: 0; stroke: #000000"/>
     <use xlink:href="#m5e1ca91b56" x="756.634844" y="202.415144" style="fill-opacity: 0; stroke: #000000"/>
     <use xlink:href="#m5e1ca91b56" x="756.634844" y="202.554046" style="fill-opacity: 0; stroke: #000000"/>
     <use xlink:href="#m5e1ca91b56" x="756.634844" y="87.207076" style="fill-opacity: 0; stroke: #000000"/>
     <use xlink:href="#m5e1ca91b56" x="756.634844" y="93.189884" style="fill-opacity: 0; stroke: #000000"/>
     <use xlink:href="#m5e1ca91b56" x="756.634844" y="83.401542" style="fill-opacity: 0; stroke: #000000"/>
     <use xlink:href="#m5e1ca91b56" x="756.634844" y="93.103124" style="fill-opacity: 0; stroke: #000000"/>
     <use xlink:href="#m5e1ca91b56" x="756.634844" y="86.913319" style="fill-opacity: 0; stroke: #000000"/>
     <use xlink:href="#m5e1ca91b56" x="756.634844" y="68.891146" style="fill-opacity: 0; stroke: #000000"/>
     <use xlink:href="#m5e1ca91b56" x="756.634844" y="94.111861" style="fill-opacity: 0; stroke: #000000"/>
    </g>
   </g>
   <g id="line2d_61">
    <path d="M 634.546758 159.653536 
L 651.582305 159.653536 
" clip-path="url(#pf635d2311a)" style="fill: none; stroke: #8b1538"/>
   </g>
   <g id="line2d_62">
    <path d="M 748.11707 149.428317 
L 765.152617 149.428317 
" clip-path="url(#pf635d2311a)" style="fill: none; stroke: #8b1538"/>
   </g>
   <g id="patch_81">
    <path d="M 586.279375 226.148781 
L 586.279375 61.402688 
" style="fill: none; stroke: #c9ced3; stroke-width: 1.1; stroke-linejoin: miter; stroke-linecap: square"/>
   </g>
   <g id="patch_82">
    <path d="M 586.279375 226.148781 
L 813.42 226.148781 
" style="fill: none; stroke: #c9ced3; stroke-width: 1.1; stroke-linejoin: miter; stroke-linecap: square"/>
   </g>
   <g id="text_30">
    <!-- Boxplot por clase: edad -->
    <g style="fill: #2c3e50" transform="translate(586.279375 55.402688) scale(0.16 -0.16)">
     <defs>
      <path id="DejaVuSans-Bold-42" d="M 2456 2859 
Q 2741 2859 2887 2984 
Q 3034 3109 3034 3353 
Q 3034 3594 2887 3720 
Q 2741 3847 2456 3847 
L 1791 3847 
L 1791 2859 
L 2456 2859 
z
M 2497 819 
Q 2859 819 3042 972 
Q 3225 1125 3225 1434 
Q 3225 1738 3044 1889 
Q 2863 2041 2497 2041 
L 1791 2041 
L 1791 819 
L 2497 819 
z
M 3616 2497 
Q 4003 2384 4215 2081 
Q 4428 1778 4428 1338 
Q 4428 663 3972 331 
Q 3516 0 2584 0 
L 588 0 
L 588 4666 
L 2394 4666 
Q 3366 4666 3802 4372 
Q 4238 4078 4238 3431 
Q 4238 3091 4078 2852 
Q 3919 2613 3616 2497 
z
" transform="scale(0.015625)"/>
      <path id="DejaVuSans-Bold-78" d="M 1422 1791 
L 159 3500 
L 1344 3500 
L 2059 2463 
L 2784 3500 
L 3969 3500 
L 2706 1797 
L 4031 0 
L 2847 0 
L 2059 1106 
L 1281 0 
L 97 0 
L 1422 1791 
z
" transform="scale(0.015625)"/>
      <path id="DejaVuSans-Bold-70" d="M 1656 506 
L 1656 -1331 
L 538 -1331 
L 538 3500 
L 1656 3500 
L 1656 2988 
Q 1888 3294 2169 3439 
Q 2450 3584 2816 3584 
Q 3463 3584 3878 3070 
Q 4294 2556 4294 1747 
Q 4294 938 3878 423 
Q 3463 -91 2816 -91 
Q 2450 -91 2169 54 
Q 1888 200 1656 506 
z
M 2400 2772 
Q 2041 2772 1848 2508 
Q 1656 2244 1656 1747 
Q 1656 1250 1848 986 
Q 2041 722 2400 722 
Q 2759 722 2948 984 
Q 3138 1247 3138 1747 
Q 3138 2247 2948 2509 
Q 2759 2772 2400 2772 
z
" transform="scale(0.015625)"/>
     </defs>
     <use xlink:href="#DejaVuSans-Bold-42"/>
     <use xlink:href="#DejaVuSans-Bold-6f" transform="translate(76.220703 0)"/>
     <use xlink:href="#DejaVuSans-Bold-78" transform="translate(144.921875 0)"/>
     <use xlink:href="#DejaVuSans-Bold-70" transform="translate(209.423828 0)"/>
     <use xlink:href="#DejaVuSans-Bold-6c" transform="translate(281.005859 0)"/>
     <use xlink:href="#DejaVuSans-Bold-6f" transform="translate(315.283203 0)"/>
     <use xlink:href="#DejaVuSans-Bold-74" transform="translate(383.984375 0)"/>
     <use xlink:href="#DejaVuSans-Bold-20" transform="translate(431.787109 0)"/>
     <use xlink:href="#DejaVuSans-Bold-70" transform="translate(466.601562 0)"/>
     <use xlink:href="#DejaVuSans-Bold-6f" transform="translate(538.183594 0)"/>
     <use xlink:href="#DejaVuSans-Bold-72" transform="translate(606.884766 0)"/>
     <use xlink:href="#DejaVuSans-Bold-20" transform="translate(656.201172 0)"/>
     <use xlink:href="#DejaVuSans-Bold-63" transform="translate(691.015625 0)"/>
     <use xlink:href="#DejaVuSans-Bold-6c" transform="translate(750.292969 0)"/>
     <use xlink:href="#DejaVuSans-Bold-61" transform="translate(784.570312 0)"/>
     <use xlink:href="#DejaVuSans-Bold-73" transform="translate(852.050781 0)"/>
     <use xlink:href="#DejaVuSans-Bold-65" transform="translate(911.572266 0)"/>
     <use xlink:href="#DejaVuSans-Bold-3a" transform="translate(979.394531 0)"/>
     <use xlink:href="#DejaVuSans-Bold-20" transform="translate(1019.384766 0)"/>
     <use xlink:href="#DejaVuSans-Bold-65" transform="translate(1054.199219 0)"/>
     <use xlink:href="#DejaVuSans-Bold-64" transform="translate(1122.021484 0)"/>
     <use xlink:href="#DejaVuSans-Bold-61" transform="translate(1193.603516 0)"/>
     <use xlink:href="#DejaVuSans-Bold-64" transform="translate(1261.083984 0)"/>
    </g>
   </g>
  </g>
  <g id="text_31">
   <!-- EDA: conocer los datos antes de modelar -->
   <g style="fill: #2c3e50" transform="translate(7.2 18.597656) scale(0.15 -0.15)">
    <defs>
     <path id="DejaVuSans-Bold-45" d="M 588 4666 
L 3834 4666 
L 3834 3756 
L 1791 3756 
L 1791 2888 
L 3713 2888 
L 3713 1978 
L 1791 1978 
L 1791 909 
L 3903 909 
L 3903 0 
L 588 0 
L 588 4666 
z
" transform="scale(0.015625)"/>
     <path id="DejaVuSans-Bold-44" d="M 1791 3756 
L 1791 909 
L 2222 909 
Q 2959 909 3348 1275 
Q 3738 1641 3738 2338 
Q 3738 3031 3350 3393 
Q 2963 3756 2222 3756 
L 1791 3756 
z
M 588 4666 
L 1856 4666 
Q 2919 4666 3439 4514 
Q 3959 4363 4331 4000 
Q 4659 3684 4818 3271 
Q 4978 2859 4978 2338 
Q 4978 1809 4818 1395 
Q 4659 981 4331 666 
Q 3956 303 3431 151 
Q 2906 0 1856 0 
L 588 0 
L 588 4666 
z
" transform="scale(0.015625)"/>
     <path id="DejaVuSans-Bold-41" d="M 3419 850 
L 1538 850 
L 1241 0 
L 31 0 
L 1759 4666 
L 3194 4666 
L 4922 0 
L 3713 0 
L 3419 850 
z
M 1838 1716 
L 3116 1716 
L 2478 3572 
L 1838 1716 
z
" transform="scale(0.015625)"/>
    </defs>
    <use xlink:href="#DejaVuSans-Bold-45"/>
    <use xlink:href="#DejaVuSans-Bold-44" transform="translate(68.310547 0)"/>
    <use xlink:href="#DejaVuSans-Bold-41" transform="translate(151.318359 0)"/>
    <use xlink:href="#DejaVuSans-Bold-3a" transform="translate(230.585938 0)"/>
    <use xlink:href="#DejaVuSans-Bold-20" transform="translate(270.576172 0)"/>
    <use xlink:href="#DejaVuSans-Bold-63" transform="translate(305.390625 0)"/>
    <use xlink:href="#DejaVuSans-Bold-6f" transform="translate(364.667969 0)"/>
    <use xlink:href="#DejaVuSans-Bold-6e" transform="translate(433.369141 0)"/>
    <use xlink:href="#DejaVuSans-Bold-6f" transform="translate(504.560547 0)"/>
    <use xlink:href="#DejaVuSans-Bold-63" transform="translate(573.261719 0)"/>
    <use xlink:href="#DejaVuSans-Bold-65" transform="translate(632.539062 0)"/>
    <use xlink:href="#DejaVuSans-Bold-72" transform="translate(700.361328 0)"/>
    <use xlink:href="#DejaVuSans-Bold-20" transform="translate(749.677734 0)"/>
    <use xlink:href="#DejaVuSans-Bold-6c" transform="translate(784.492188 0)"/>
    <use xlink:href="#DejaVuSans-Bold-6f" transform="translate(818.769531 0)"/>
    <use xlink:href="#DejaVuSans-Bold-73" transform="translate(887.470703 0)"/>
    <use xlink:href="#DejaVuSans-Bold-20" transform="translate(946.992188 0)"/>
    <use xlink:href="#DejaVuSans-Bold-64" transform="translate(981.806641 0)"/>
    <use xlink:href="#DejaVuSans-Bold-61" transform="translate(1053.388672 0)"/>
    <use xlink:href="#DejaVuSans-Bold-74" transform="translate(1120.869141 0)"/>
    <use xlink:href="#DejaVuSans-Bold-6f" transform="translate(1168.671875 0)"/>
    <use xlink:href="#DejaVuSans-Bold-73" transform="translate(1237.373047 0)"/>
    <use xlink:href="#DejaVuSans-Bold-20" transform="translate(1296.894531 0)"/>
    <use xlink:href="#DejaVuSans-Bold-61" transform="translate(1331.708984 0)"/>
    <use xlink:href="#DejaVuSans-Bold-6e" transform="translate(1399.189453 0)"/>
    <use xlink:href="#DejaVuSans-Bold-74" transform="translate(1470.380859 0)"/>
    <use xlink:href="#DejaVuSans-Bold-65" transform="translate(1518.183594 0)"/>
    <use xlink:href="#DejaVuSans-Bold-73" transform="translate(1586.005859 0)"/>
    <use xlink:href="#DejaVuSans-Bold-20" transform="translate(1645.527344 0)"/>
    <use xlink:href="#DejaVuSans-Bold-64" transform="translate(1680.341797 0)"/>
    <use xlink:href="#DejaVuSans-Bold-65" transform="translate(1751.923828 0)"/>
    <use xlink:href="#DejaVuSans-Bold-20" transform="translate(1819.746094 0)"/>
    <use xlink:href="#DejaVuSans-Bold-6d" transform="translate(1854.560547 0)"/>
    <use xlink:href="#DejaVuSans-Bold-6f" transform="translate(1958.759766 0)"/>
    <use xlink:href="#DejaVuSans-Bold-64" transform="translate(2027.460938 0)"/>
    <use xlink:href="#DejaVuSans-Bold-65" transform="translate(2099.042969 0)"/>
    <use xlink:href="#DejaVuSans-Bold-6c" transform="translate(2166.865234 0)"/>
    <use xlink:href="#DejaVuSans-Bold-61" transform="translate(2201.142578 0)"/>
    <use xlink:href="#DejaVuSans-Bold-72" transform="translate(2268.623047 0)"/>
   </g>
  </g>
 </g>
 <defs>
  <clipPath id="p607ea95ea2">
   <rect x="43.279375" y="61.402688" width="227.140625" height="164.746094"/>
  </clipPath>
  <clipPath id="p9795fa5786">
   <rect x="314.779375" y="61.402688" width="227.140625" height="164.746094"/>
  </clipPath>
  <clipPath id="pf635d2311a">
   <rect x="586.279375" y="61.402688" width="227.140625" height="164.746094"/>
  </clipPath>
 </defs>
</svg>
