<?xml version="1.0" encoding="utf-8" standalone="no"?>
<!DOCTYPE svg PUBLIC "-//W3C//DTD SVG 1.1//EN"
  "http://www.w3.org/Graphics/SVG/1.1/DTD/svg11.dtd">
<svg xmlns:xlink="http://www.w3.org/1999/xlink" width="884.772pt" height="269.028pt" viewBox="0 0 884.772 269.028" xmlns="http://www.w3.org/2000/svg" version="1.1">
 <metadata>
  <rdf:RDF xmlns:dc="http://purl.org/dc/elements/1.1/" xmlns:cc="http://creativecommons.org/ns#" xmlns:rdf="http://www.w3.org/1999/02/22-rdf-syntax-ns#">
   <cc:Work>
    <dc:type rdf:resource="http://purl.org/dc/dcmitype/StillImage"/>
    <dc:date>2026-06-13T13:04:51.477262</dc:date>
    <dc:format>image/svg+xml</dc:format>
    <dc:creator>
     <cc:Agent>
      <dc:title>Matplotlib v3.10.0, https://matplotlib.org/</dc:title>
     </cc:Agent>
    </dc:creator>
   </cc:Work>
  </rdf:RDF>
 </metadata>
 <defs>
  <style type="text/css">*{stroke-linejoin: round; stroke-linecap: butt}</style>
 </defs>
 <g id="figure_1">
  <g id="patch_1">
   <path d="M 0 269.028 
L 884.772 269.028 
L 884.772 0 
L 0 0 
L 0 269.028 
z
" style="fill: none"/>
  </g>
  <g id="axes_1">
   <g id="patch_2">
    <path d="M 37.199734 242.730344 
L 305.99049 242.730344 
L 305.99049 57.429172 
L 37.199734 57.429172 
L 37.199734 242.730344 
z
" style="fill: none"/>
   </g>
   <g id="matplotlib.axis_1">
    <g id="xtick_1">
     <g id="line2d_1">
      <path d="M 61.948534 242.730344 
L 61.948534 57.429172 
" clip-path="url(#pdb34e967d5)" style="fill: none; stroke: #e9edf1; stroke-width: 0.9; stroke-linecap: square"/>
     </g>
     <g id="line2d_2">
      <defs>
       <path id="m963ac6669b" d="M 0 0 
L 0 3.5 
" style="stroke: #000000; stroke-width: 0.8"/>
      </defs>
      <g>
       <use xlink:href="#m963ac6669b" x="61.948534" y="242.730344" style="stroke: #000000; stroke-width: 0.8"/>
      </g>
     </g>
     <g id="text_1">
      <!-- x1 -->
      <g transform="translate(54.272752 259.228391) scale(0.125 -0.125)">
       <defs>
        <path id="DejaVuSans-78" d="M 3513 3500 
L 2247 1797 
L 3578 0 
L 2900 0 
L 1881 1375 
L 863 0 
L 184 0 
L 1544 1831 
L 300 3500 
L 978 3500 
L 1906 2253 
L 2834 3500 
L 3513 3500 
z
" transform="scale(0.015625)"/>
        <path id="DejaVuSans-31" d="M 794 531 
L 1825 531 
L 1825 4091 
L 703 3866 
L 703 4441 
L 1819 4666 
L 2450 4666 
L 2450 531 
L 3481 531 
L 3481 0 
L 794 0 
L 794 531 
z
" transform="scale(0.015625)"/>
       </defs>
       <use xlink:href="#DejaVuSans-78"/>
       <use xlink:href="#DejaVuSans-31" transform="translate(59.179688 0)"/>
      </g>
     </g>
    </g>
    <g id="xtick_2">
     <g id="line2d_3">
      <path d="M 93.276127 242.730344 
L 93.276127 57.429172 
" clip-path="url(#pdb34e967d5)" style="fill: none; stroke: #e9edf1; stroke-width: 0.9; stroke-linecap: square"/>
     </g>
     <g id="line2d_4">
      <g>
       <use xlink:href="#m963ac6669b" x="93.276127" y="242.730344" style="stroke: #000000; stroke-width: 0.8"/>
      </g>
     </g>
     <g id="text_2">
      <!-- x2 -->
      <g transform="translate(85.600346 259.228391) scale(0.125 -0.125)">
       <defs>
        <path id="DejaVuSans-32" d="M 1228 531 
L 3431 531 
L 3431 0 
L 469 0 
L 469 531 
Q 828 903 1448 1529 
Q 2069 2156 2228 2338 
Q 2531 2678 2651 2914 
Q 2772 3150 2772 3378 
Q 2772 3750 2511 3984 
Q 2250 4219 1831 4219 
Q 1534 4219 1204 4116 
Q 875 4013 500 3803 
L 500 4441 
Q 881 4594 1212 4672 
Q 1544 4750 1819 4750 
Q 2544 4750 2975 4387 
Q 3406 4025 3406 3419 
Q 3406 3131 3298 2873 
Q 3191 2616 2906 2266 
Q 2828 2175 2409 1742 
Q 1991 1309 1228 531 
z
" transform="scale(0.015625)"/>
       </defs>
       <use xlink:href="#DejaVuSans-78"/>
       <use xlink:href="#DejaVuSans-32" transform="translate(59.179688 0)"/>
      </g>
     </g>
    </g>
    <g id="xtick_3">
     <g id="line2d_5">
      <path d="M 124.603721 242.730344 
L 124.603721 57.429172 
" clip-path="url(#pdb34e967d5)" style="fill: none; stroke: #e9edf1; stroke-width: 0.9; stroke-linecap: square"/>
     </g>
     <g id="line2d_6">
      <g>
       <use xlink:href="#m963ac6669b" x="124.603721" y="242.730344" style="stroke: #000000; stroke-width: 0.8"/>
      </g>
     </g>
     <g id="text_3">
      <!-- x3 -->
      <g transform="translate(116.92794 259.228391) scale(0.125 -0.125)">
       <defs>
        <path id="DejaVuSans-33" d="M 2597 2516 
Q 3050 2419 3304 2112 
Q 3559 1806 3559 1356 
Q 3559 666 3084 287 
Q 2609 -91 1734 -91 
Q 1441 -91 1130 -33 
Q 819 25 488 141 
L 488 750 
Q 750 597 1062 519 
Q 1375 441 1716 441 
Q 2309 441 2620 675 
Q 2931 909 2931 1356 
Q 2931 1769 2642 2001 
Q 2353 2234 1838 2234 
L 1294 2234 
L 1294 2753 
L 1863 2753 
Q 2328 2753 2575 2939 
Q 2822 3125 2822 3475 
Q 2822 3834 2567 4026 
Q 2313 4219 1838 4219 
Q 1578 4219 1281 4162 
Q 984 4106 628 3988 
L 628 4550 
Q 988 4650 1302 4700 
Q 1616 4750 1894 4750 
Q 2613 4750 3031 4423 
Q 3450 4097 3450 3541 
Q 3450 3153 3228 2886 
Q 3006 2619 2597 2516 
z
" transform="scale(0.015625)"/>
       </defs>
       <use xlink:href="#DejaVuSans-78"/>
       <use xlink:href="#DejaVuSans-33" transform="translate(59.179688 0)"/>
      </g>
     </g>
    </g>
    <g id="xtick_4">
     <g id="line2d_7">
      <path d="M 155.931315 242.730344 
L 155.931315 57.429172 
" clip-path="url(#pdb34e967d5)" style="fill: none; stroke: #e9edf1; stroke-width: 0.9; stroke-linecap: square"/>
     </g>
     <g id="line2d_8">
      <g>
       <use xlink:href="#m963ac6669b" x="155.931315" y="242.730344" style="stroke: #000000; stroke-width: 0.8"/>
      </g>
     </g>
     <g id="text_4">
      <!-- x4 -->
      <g transform="translate(148.255534 259.228391) scale(0.125 -0.125)">
       <defs>
        <path id="DejaVuSans-34" d="M 2419 4116 
L 825 1625 
L 2419 1625 
L 2419 4116 
z
M 2253 4666 
L 3047 4666 
L 3047 1625 
L 3713 1625 
L 3713 1100 
L 3047 1100 
L 3047 0 
L 2419 0 
L 2419 1100 
L 313 1100 
L 313 1709 
L 2253 4666 
z
" transform="scale(0.015625)"/>
       </defs>
       <use xlink:href="#DejaVuSans-78"/>
       <use xlink:href="#DejaVuSans-34" transform="translate(59.179688 0)"/>
      </g>
     </g>
    </g>
    <g id="xtick_5">
     <g id="line2d_9">
      <path d="M 187.258909 242.730344 
L 187.258909 57.429172 
" clip-path="url(#pdb34e967d5)" style="fill: none; stroke: #e9edf1; stroke-width: 0.9; stroke-linecap: square"/>
     </g>
     <g id="line2d_10">
      <g>
       <use xlink:href="#m963ac6669b" x="187.258909" y="242.730344" style="stroke: #000000; stroke-width: 0.8"/>
      </g>
     </g>
     <g id="text_5">
      <!-- x5 -->
      <g transform="translate(179.583128 259.228391) scale(0.125 -0.125)">
       <defs>
        <path id="DejaVuSans-35" d="M 691 4666 
L 3169 4666 
L 3169 4134 
L 1269 4134 
L 1269 2991 
Q 1406 3038 1543 3061 
Q 1681 3084 1819 3084 
Q 2600 3084 3056 2656 
Q 3513 2228 3513 1497 
Q 3513 744 3044 326 
Q 2575 -91 1722 -91 
Q 1428 -91 1123 -41 
Q 819 9 494 109 
L 494 744 
Q 775 591 1075 516 
Q 1375 441 1709 441 
Q 2250 441 2565 725 
Q 2881 1009 2881 1497 
Q 2881 1984 2565 2268 
Q 2250 2553 1709 2553 
Q 1456 2553 1204 2497 
Q 953 2441 691 2322 
L 691 4666 
z
" transform="scale(0.015625)"/>
       </defs>
       <use xlink:href="#DejaVuSans-78"/>
       <use xlink:href="#DejaVuSans-35" transform="translate(59.179688 0)"/>
      </g>
     </g>
    </g>
    <g id="xtick_6">
     <g id="line2d_11">
      <path d="M 218.586503 242.730344 
L 218.586503 57.429172 
" clip-path="url(#pdb34e967d5)" style="fill: none; stroke: #e9edf1; stroke-width: 0.9; stroke-linecap: square"/>
     </g>
     <g id="line2d_12">
      <g>
       <use xlink:href="#m963ac6669b" x="218.586503" y="242.730344" style="stroke: #000000; stroke-width: 0.8"/>
      </g>
     </g>
     <g id="text_6">
      <!-- x6 -->
      <g transform="translate(210.910721 259.228391) scale(0.125 -0.125)">
       <defs>
        <path id="DejaVuSans-36" d="M 2113 2584 
Q 1688 2584 1439 2293 
Q 1191 2003 1191 1497 
Q 1191 994 1439 701 
Q 1688 409 2113 409 
Q 2538 409 2786 701 
Q 3034 994 3034 1497 
Q 3034 2003 2786 2293 
Q 2538 2584 2113 2584 
z
M 3366 4563 
L 3366 3988 
Q 3128 4100 2886 4159 
Q 2644 4219 2406 4219 
Q 1781 4219 1451 3797 
Q 1122 3375 1075 2522 
Q 1259 2794 1537 2939 
Q 1816 3084 2150 3084 
Q 2853 3084 3261 2657 
Q 3669 2231 3669 1497 
Q 3669 778 3244 343 
Q 2819 -91 2113 -91 
Q 1303 -91 875 529 
Q 447 1150 447 2328 
Q 447 3434 972 4092 
Q 1497 4750 2381 4750 
Q 2619 4750 2861 4703 
Q 3103 4656 3366 4563 
z
" transform="scale(0.015625)"/>
       </defs>
       <use xlink:href="#DejaVuSans-78"/>
       <use xlink:href="#DejaVuSans-36" transform="translate(59.179688 0)"/>
      </g>
     </g>
    </g>
    <g id="xtick_7">
     <g id="line2d_13">
      <path d="M 249.914097 242.730344 
L 249.914097 57.429172 
" clip-path="url(#pdb34e967d5)" style="fill: none; stroke: #e9edf1; stroke-width: 0.9; stroke-linecap: square"/>
     </g>
     <g id="line2d_14">
      <g>
       <use xlink:href="#m963ac6669b" x="249.914097" y="242.730344" style="stroke: #000000; stroke-width: 0.8"/>
      </g>
     </g>
     <g id="text_7">
      <!-- x7 -->
      <g transform="translate(242.238315 259.228391) scale(0.125 -0.125)">
       <defs>
        <path id="DejaVuSans-37" d="M 525 4666 
L 3525 4666 
L 3525 4397 
L 1831 0 
L 1172 0 
L 2766 4134 
L 525 4134 
L 525 4666 
z
" transform="scale(0.015625)"/>
       </defs>
       <use xlink:href="#DejaVuSans-78"/>
       <use xlink:href="#DejaVuSans-37" transform="translate(59.179688 0)"/>
      </g>
     </g>
    </g>
    <g id="xtick_8">
     <g id="line2d_15">
      <path d="M 281.24169 242.730344 
L 281.24169 57.429172 
" clip-path="url(#pdb34e967d5)" style="fill: none; stroke: #e9edf1; stroke-width: 0.9; stroke-linecap: square"/>
     </g>
     <g id="line2d_16">
      <g>
       <use xlink:href="#m963ac6669b" x="281.24169" y="242.730344" style="stroke: #000000; stroke-width: 0.8"/>
      </g>
     </g>
     <g id="text_8">
      <!-- x8 -->
      <g transform="translate(273.565909 259.228391) scale(0.125 -0.125)">
       <defs>
        <path id="DejaVuSans-38" d="M 2034 2216 
Q 1584 2216 1326 1975 
Q 1069 1734 1069 1313 
Q 1069 891 1326 650 
Q 1584 409 2034 409 
Q 2484 409 2743 651 
Q 3003 894 3003 1313 
Q 3003 1734 2745 1975 
Q 2488 2216 2034 2216 
z
M 1403 2484 
Q 997 2584 770 2862 
Q 544 3141 544 3541 
Q 544 4100 942 4425 
Q 1341 4750 2034 4750 
Q 2731 4750 3128 4425 
Q 3525 4100 3525 3541 
Q 3525 3141 3298 2862 
Q 3072 2584 2669 2484 
Q 3125 2378 3379 2068 
Q 3634 1759 3634 1313 
Q 3634 634 3220 271 
Q 2806 -91 2034 -91 
Q 1263 -91 848 271 
Q 434 634 434 1313 
Q 434 1759 690 2068 
Q 947 2378 1403 2484 
z
M 1172 3481 
Q 1172 3119 1398 2916 
Q 1625 2713 2034 2713 
Q 2441 2713 2670 2916 
Q 2900 3119 2900 3481 
Q 2900 3844 2670 4047 
Q 2441 4250 2034 4250 
Q 1625 4250 1398 4047 
Q 1172 3844 1172 3481 
z
" transform="scale(0.015625)"/>
       </defs>
       <use xlink:href="#DejaVuSans-78"/>
       <use xlink:href="#DejaVuSans-38" transform="translate(59.179688 0)"/>
      </g>
     </g>
    </g>
   </g>
   <g id="matplotlib.axis_2">
    <g id="ytick_1">
     <g id="line2d_17">
      <path d="M 37.199734 199.752566 
L 305.99049 199.752566 
" clip-path="url(#pdb34e967d5)" style="fill: none; stroke: #e9edf1; stroke-width: 0.9; stroke-linecap: square"/>
     </g>
     <g id="line2d_18">
      <defs>
       <path id="m31be0f3cc6" d="M 0 0 
L -3.5 0 
" style="stroke: #000000; stroke-width: 0.8"/>
      </defs>
      <g>
       <use xlink:href="#m31be0f3cc6" x="37.199734" y="199.752566" style="stroke: #000000; stroke-width: 0.8"/>
      </g>
     </g>
     <g id="text_9">
      <!-- −1 -->
      <g transform="translate(11.772 204.50159) scale(0.125 -0.125)">
       <defs>
        <path id="DejaVuSans-2212" d="M 678 2272 
L 4684 2272 
L 4684 1741 
L 678 1741 
L 678 2272 
z
" transform="scale(0.015625)"/>
       </defs>
       <use xlink:href="#DejaVuSans-2212"/>
       <use xlink:href="#DejaVuSans-31" transform="translate(83.789062 0)"/>
      </g>
     </g>
    </g>
    <g id="ytick_2">
     <g id="line2d_19">
      <path d="M 37.199734 156.55882 
L 305.99049 156.55882 
" clip-path="url(#pdb34e967d5)" style="fill: none; stroke: #e9edf1; stroke-width: 0.9; stroke-linecap: square"/>
     </g>
     <g id="line2d_20">
      <g>
       <use xlink:href="#m31be0f3cc6" x="37.199734" y="156.55882" style="stroke: #000000; stroke-width: 0.8"/>
      </g>
     </g>
     <g id="text_10">
      <!-- 0 -->
      <g transform="translate(22.246609 161.307843) scale(0.125 -0.125)">
       <defs>
        <path id="DejaVuSans-30" d="M 2034 4250 
Q 1547 4250 1301 3770 
Q 1056 3291 1056 2328 
Q 1056 1369 1301 889 
Q 1547 409 2034 409 
Q 2525 409 2770 889 
Q 3016 1369 3016 2328 
Q 3016 3291 2770 3770 
Q 2525 4250 2034 4250 
z
M 2034 4750 
Q 2819 4750 3233 4129 
Q 3647 3509 3647 2328 
Q 3647 1150 3233 529 
Q 2819 -91 2034 -91 
Q 1250 -91 836 529 
Q 422 1150 422 2328 
Q 422 3509 836 4129 
Q 1250 4750 2034 4750 
z
" transform="scale(0.015625)"/>
       </defs>
       <use xlink:href="#DejaVuSans-30"/>
      </g>
     </g>
    </g>
    <g id="ytick_3">
     <g id="line2d_21">
      <path d="M 37.199734 113.365073 
L 305.99049 113.365073 
" clip-path="url(#pdb34e967d5)" style="fill: none; stroke: #e9edf1; stroke-width: 0.9; stroke-linecap: square"/>
     </g>
     <g id="line2d_22">
      <g>
       <use xlink:href="#m31be0f3cc6" x="37.199734" y="113.365073" style="stroke: #000000; stroke-width: 0.8"/>
      </g>
     </g>
     <g id="text_11">
      <!-- 1 -->
      <g transform="translate(22.246609 118.114097) scale(0.125 -0.125)">
       <use xlink:href="#DejaVuSans-31"/>
      </g>
     </g>
    </g>
    <g id="ytick_4">
     <g id="line2d_23">
      <path d="M 37.199734 70.171327 
L 305.99049 70.171327 
" clip-path="url(#pdb34e967d5)" style="fill: none; stroke: #e9edf1; stroke-width: 0.9; stroke-linecap: square"/>
     </g>
     <g id="line2d_24">
      <g>
       <use xlink:href="#m31be0f3cc6" x="37.199734" y="70.171327" style="stroke: #000000; stroke-width: 0.8"/>
      </g>
     </g>
     <g id="text_12">
      <!-- 2 -->
      <g transform="translate(22.246609 74.92035) scale(0.125 -0.125)">
       <use xlink:href="#DejaVuSans-32"/>
      </g>
     </g>
    </g>
   </g>
   <g id="patch_3">
    <path d="M 49.417496 156.55882 
L 74.479571 156.55882 
L 74.479571 65.851952 
L 49.417496 65.851952 
z
" clip-path="url(#pdb34e967d5)" style="fill: #2c3e50"/>
   </g>
   <g id="patch_4">
    <path d="M 80.74509 156.55882 
L 105.807165 156.55882 
L 105.807165 234.307563 
L 80.74509 234.307563 
z
" clip-path="url(#pdb34e967d5)" style="fill: #2c3e50"/>
   </g>
   <g id="patch_5">
    <path d="M 112.072684 156.55882 
L 137.134759 156.55882 
L 137.134759 117.684448 
L 112.072684 117.684448 
z
" clip-path="url(#pdb34e967d5)" style="fill: #2c3e50"/>
   </g>
   <g id="patch_6">
    <path d="M 143.400278 156.55882 
L 168.462353 156.55882 
L 168.462353 91.7682 
L 143.400278 91.7682 
z
" clip-path="url(#pdb34e967d5)" style="fill: #2c3e50"/>
   </g>
   <g id="patch_7">
    <path d="M 174.727871 156.55882 
L 199.789946 156.55882 
L 199.789946 173.836318 
L 174.727871 173.836318 
z
" clip-path="url(#pdb34e967d5)" style="fill: #2c3e50"/>
   </g>
   <g id="patch_8">
    <path d="M 206.055465 156.55882 
L 231.11754 156.55882 
L 231.11754 145.760383 
L 206.055465 145.760383 
z
" clip-path="url(#pdb34e967d5)" style="fill: #2c3e50"/>
   </g>
   <g id="patch_9">
    <path d="M 237.383059 156.55882 
L 262.445134 156.55882 
L 262.445134 204.071941 
L 237.383059 204.071941 
z
" clip-path="url(#pdb34e967d5)" style="fill: #2c3e50"/>
   </g>
   <g id="patch_10">
    <path d="M 268.710653 156.55882 
L 293.772728 156.55882 
L 293.772728 126.323197 
L 268.710653 126.323197 
z
" clip-path="url(#pdb34e967d5)" style="fill: #2c3e50"/>
   </g>
   <g id="line2d_25">
    <path d="M 37.199734 156.55882 
L 305.99049 156.55882 
" clip-path="url(#pdb34e967d5)" style="fill: none; stroke: #333333; stroke-width: 0.8; stroke-linecap: square"/>
   </g>
   <g id="patch_11">
    <path d="M 37.199734 242.730344 
L 37.199734 57.429172 
" style="fill: none; stroke: #c9ced3; stroke-width: 1.1; stroke-linejoin: miter; stroke-linecap: square"/>
   </g>
   <g id="patch_12">
    <path d="M 37.199734 242.730344 
L 305.99049 242.730344 
" style="fill: none; stroke: #c9ced3; stroke-width: 1.1; stroke-linejoin: miter; stroke-linecap: square"/>
   </g>
   <g id="text_13">
    <!-- Sin regularizar -->
    <g style="fill: #2c3e50" transform="translate(37.199734 51.429172) scale(0.125 -0.125)">
     <defs>
      <path id="DejaVuSans-Bold-53" d="M 3834 4519 
L 3834 3531 
Q 3450 3703 3084 3790 
Q 2719 3878 2394 3878 
Q 1963 3878 1756 3759 
Q 1550 3641 1550 3391 
Q 1550 3203 1689 3098 
Q 1828 2994 2194 2919 
L 2706 2816 
Q 3484 2659 3812 2340 
Q 4141 2022 4141 1434 
Q 4141 663 3683 286 
Q 3225 -91 2284 -91 
Q 1841 -91 1394 -6 
Q 947 78 500 244 
L 500 1259 
Q 947 1022 1364 901 
Q 1781 781 2169 781 
Q 2563 781 2772 912 
Q 2981 1044 2981 1288 
Q 2981 1506 2839 1625 
Q 2697 1744 2272 1838 
L 1806 1941 
Q 1106 2091 782 2419 
Q 459 2747 459 3303 
Q 459 4000 909 4375 
Q 1359 4750 2203 4750 
Q 2588 4750 2994 4692 
Q 3400 4634 3834 4519 
z
" transform="scale(0.015625)"/>
      <path id="DejaVuSans-Bold-69" d="M 538 3500 
L 1656 3500 
L 1656 0 
L 538 0 
L 538 3500 
z
M 538 4863 
L 1656 4863 
L 1656 3950 
L 538 3950 
L 538 4863 
z
" transform="scale(0.015625)"/>
      <path id="DejaVuSans-Bold-6e" d="M 4056 2131 
L 4056 0 
L 2931 0 
L 2931 347 
L 2931 1631 
Q 2931 2084 2911 2256 
Q 2891 2428 2841 2509 
Q 2775 2619 2662 2680 
Q 2550 2741 2406 2741 
Q 2056 2741 1856 2470 
Q 1656 2200 1656 1722 
L 1656 0 
L 538 0 
L 538 3500 
L 1656 3500 
L 1656 2988 
Q 1909 3294 2193 3439 
Q 2478 3584 2822 3584 
Q 3428 3584 3742 3212 
Q 4056 2841 4056 2131 
z
" transform="scale(0.015625)"/>
      <path id="DejaVuSans-Bold-20" transform="scale(0.015625)"/>
      <path id="DejaVuSans-Bold-72" d="M 3138 2547 
Q 2991 2616 2845 2648 
Q 2700 2681 2553 2681 
Q 2122 2681 1889 2404 
Q 1656 2128 1656 1613 
L 1656 0 
L 538 0 
L 538 3500 
L 1656 3500 
L 1656 2925 
Q 1872 3269 2151 3426 
Q 2431 3584 2822 3584 
Q 2878 3584 2943 3579 
Q 3009 3575 3134 3559 
L 3138 2547 
z
" transform="scale(0.015625)"/>
      <path id="DejaVuSans-Bold-65" d="M 4031 1759 
L 4031 1441 
L 1416 1441 
Q 1456 1047 1700 850 
Q 1944 653 2381 653 
Q 2734 653 3104 758 
Q 3475 863 3866 1075 
L 3866 213 
Q 3469 63 3072 -14 
Q 2675 -91 2278 -91 
Q 1328 -91 801 392 
Q 275 875 275 1747 
Q 275 2603 792 3093 
Q 1309 3584 2216 3584 
Q 3041 3584 3536 3087 
Q 4031 2591 4031 1759 
z
M 2881 2131 
Q 2881 2450 2695 2645 
Q 2509 2841 2209 2841 
Q 1884 2841 1681 2658 
Q 1478 2475 1428 2131 
L 2881 2131 
z
" transform="scale(0.015625)"/>
      <path id="DejaVuSans-Bold-67" d="M 2919 594 
Q 2688 288 2409 144 
Q 2131 0 1766 0 
Q 1125 0 706 504 
Q 288 1009 288 1791 
Q 288 2575 706 3076 
Q 1125 3578 1766 3578 
Q 2131 3578 2409 3434 
Q 2688 3291 2919 2981 
L 2919 3500 
L 4044 3500 
L 4044 353 
Q 4044 -491 3511 -936 
Q 2978 -1381 1966 -1381 
Q 1638 -1381 1331 -1331 
Q 1025 -1281 716 -1178 
L 716 -306 
Q 1009 -475 1290 -558 
Q 1572 -641 1856 -641 
Q 2406 -641 2662 -400 
Q 2919 -159 2919 353 
L 2919 594 
z
M 2181 2772 
Q 1834 2772 1640 2515 
Q 1447 2259 1447 1791 
Q 1447 1309 1634 1061 
Q 1822 813 2181 813 
Q 2531 813 2725 1069 
Q 2919 1325 2919 1791 
Q 2919 2259 2725 2515 
Q 2531 2772 2181 2772 
z
" transform="scale(0.015625)"/>
      <path id="DejaVuSans-Bold-75" d="M 500 1363 
L 500 3500 
L 1625 3500 
L 1625 3150 
Q 1625 2866 1622 2436 
Q 1619 2006 1619 1863 
Q 1619 1441 1641 1255 
Q 1663 1069 1716 984 
Q 1784 875 1895 815 
Q 2006 756 2150 756 
Q 2500 756 2700 1025 
Q 2900 1294 2900 1772 
L 2900 3500 
L 4019 3500 
L 4019 0 
L 2900 0 
L 2900 506 
Q 2647 200 2364 54 
Q 2081 -91 1741 -91 
Q 1134 -91 817 281 
Q 500 653 500 1363 
z
" transform="scale(0.015625)"/>
      <path id="DejaVuSans-Bold-6c" d="M 538 4863 
L 1656 4863 
L 1656 0 
L 538 0 
L 538 4863 
z
" transform="scale(0.015625)"/>
      <path id="DejaVuSans-Bold-61" d="M 2106 1575 
Q 1756 1575 1579 1456 
Q 1403 1338 1403 1106 
Q 1403 894 1545 773 
Q 1688 653 1941 653 
Q 2256 653 2472 879 
Q 2688 1106 2688 1447 
L 2688 1575 
L 2106 1575 
z
M 3816 1997 
L 3816 0 
L 2688 0 
L 2688 519 
Q 2463 200 2181 54 
Q 1900 -91 1497 -91 
Q 953 -91 614 226 
Q 275 544 275 1050 
Q 275 1666 698 1953 
Q 1122 2241 2028 2241 
L 2688 2241 
L 2688 2328 
Q 2688 2594 2478 2717 
Q 2269 2841 1825 2841 
Q 1466 2841 1156 2769 
Q 847 2697 581 2553 
L 581 3406 
Q 941 3494 1303 3539 
Q 1666 3584 2028 3584 
Q 2975 3584 3395 3211 
Q 3816 2838 3816 1997 
z
" transform="scale(0.015625)"/>
      <path id="DejaVuSans-Bold-7a" d="M 366 3500 
L 3419 3500 
L 3419 2719 
L 1575 800 
L 3419 800 
L 3419 0 
L 288 0 
L 288 781 
L 2131 2700 
L 366 2700 
L 366 3500 
z
" transform="scale(0.015625)"/>
     </defs>
     <use xlink:href="#DejaVuSans-Bold-53"/>
     <use xlink:href="#DejaVuSans-Bold-69" transform="translate(72.021484 0)"/>
     <use xlink:href="#DejaVuSans-Bold-6e" transform="translate(106.298828 0)"/>
     <use xlink:href="#DejaVuSans-Bold-20" transform="translate(177.490234 0)"/>
     <use xlink:href="#DejaVuSans-Bold-72" transform="translate(212.304688 0)"/>
     <use xlink:href="#DejaVuSans-Bold-65" transform="translate(261.621094 0)"/>
     <use xlink:href="#DejaVuSans-Bold-67" transform="translate(329.443359 0)"/>
     <use xlink:href="#DejaVuSans-Bold-75" transform="translate(401.025391 0)"/>
     <use xlink:href="#DejaVuSans-Bold-6c" transform="translate(472.216797 0)"/>
     <use xlink:href="#DejaVuSans-Bold-61" transform="translate(506.494141 0)"/>
     <use xlink:href="#DejaVuSans-Bold-72" transform="translate(573.974609 0)"/>
     <use xlink:href="#DejaVuSans-Bold-69" transform="translate(623.291016 0)"/>
     <use xlink:href="#DejaVuSans-Bold-7a" transform="translate(657.568359 0)"/>
     <use xlink:href="#DejaVuSans-Bold-61" transform="translate(715.771484 0)"/>
     <use xlink:href="#DejaVuSans-Bold-72" transform="translate(783.251953 0)"/>
    </g>
   </g>
  </g>
  <g id="axes_2">
   <g id="patch_13">
    <path d="M 322.99049 242.730344 
L 591.781245 242.730344 
L 591.781245 57.429172 
L 322.99049 57.429172 
L 322.99049 242.730344 
z
" style="fill: none"/>
   </g>
   <g id="matplotlib.axis_3">
    <g id="xtick_9">
     <g id="line2d_26">
      <path d="M 347.739289 242.730344 
L 347.739289 57.429172 
" clip-path="url(#pe14998ef8c)" style="fill: none; stroke: #e9edf1; stroke-width: 0.9; stroke-linecap: square"/>
     </g>
     <g id="line2d_27">
      <g>
       <use xlink:href="#m963ac6669b" x="347.739289" y="242.730344" style="stroke: #000000; stroke-width: 0.8"/>
      </g>
     </g>
     <g id="text_14">
      <!-- x1 -->
      <g transform="translate(340.063507 259.228391) scale(0.125 -0.125)">
       <use xlink:href="#DejaVuSans-78"/>
       <use xlink:href="#DejaVuSans-31" transform="translate(59.179688 0)"/>
      </g>
     </g>
    </g>
    <g id="xtick_10">
     <g id="line2d_28">
      <path d="M 379.066883 242.730344 
L 379.066883 57.429172 
" clip-path="url(#pe14998ef8c)" style="fill: none; stroke: #e9edf1; stroke-width: 0.9; stroke-linecap: square"/>
     </g>
     <g id="line2d_29">
      <g>
       <use xlink:href="#m963ac6669b" x="379.066883" y="242.730344" style="stroke: #000000; stroke-width: 0.8"/>
      </g>
     </g>
     <g id="text_15">
      <!-- x2 -->
      <g transform="translate(371.391101 259.228391) scale(0.125 -0.125)">
       <use xlink:href="#DejaVuSans-78"/>
       <use xlink:href="#DejaVuSans-32" transform="translate(59.179688 0)"/>
      </g>
     </g>
    </g>
    <g id="xtick_11">
     <g id="line2d_30">
      <path d="M 410.394476 242.730344 
L 410.394476 57.429172 
" clip-path="url(#pe14998ef8c)" style="fill: none; stroke: #e9edf1; stroke-width: 0.9; stroke-linecap: square"/>
     </g>
     <g id="line2d_31">
      <g>
       <use xlink:href="#m963ac6669b" x="410.394476" y="242.730344" style="stroke: #000000; stroke-width: 0.8"/>
      </g>
     </g>
     <g id="text_16">
      <!-- x3 -->
      <g transform="translate(402.718695 259.228391) scale(0.125 -0.125)">
       <use xlink:href="#DejaVuSans-78"/>
       <use xlink:href="#DejaVuSans-33" transform="translate(59.179688 0)"/>
      </g>
     </g>
    </g>
    <g id="xtick_12">
     <g id="line2d_32">
      <path d="M 441.72207 242.730344 
L 441.72207 57.429172 
" clip-path="url(#pe14998ef8c)" style="fill: none; stroke: #e9edf1; stroke-width: 0.9; stroke-linecap: square"/>
     </g>
     <g id="line2d_33">
      <g>
       <use xlink:href="#m963ac6669b" x="441.72207" y="242.730344" style="stroke: #000000; stroke-width: 0.8"/>
      </g>
     </g>
     <g id="text_17">
      <!-- x4 -->
      <g transform="translate(434.046289 259.228391) scale(0.125 -0.125)">
       <use xlink:href="#DejaVuSans-78"/>
       <use xlink:href="#DejaVuSans-34" transform="translate(59.179688 0)"/>
      </g>
     </g>
    </g>
    <g id="xtick_13">
     <g id="line2d_34">
      <path d="M 473.049664 242.730344 
L 473.049664 57.429172 
" clip-path="url(#pe14998ef8c)" style="fill: none; stroke: #e9edf1; stroke-width: 0.9; stroke-linecap: square"/>
     </g>
     <g id="line2d_35">
      <g>
       <use xlink:href="#m963ac6669b" x="473.049664" y="242.730344" style="stroke: #000000; stroke-width: 0.8"/>
      </g>
     </g>
     <g id="text_18">
      <!-- x5 -->
      <g transform="translate(465.373883 259.228391) scale(0.125 -0.125)">
       <use xlink:href="#DejaVuSans-78"/>
       <use xlink:href="#DejaVuSans-35" transform="translate(59.179688 0)"/>
      </g>
     </g>
    </g>
    <g id="xtick_14">
     <g id="line2d_36">
      <path d="M 504.377258 242.730344 
L 504.377258 57.429172 
" clip-path="url(#pe14998ef8c)" style="fill: none; stroke: #e9edf1; stroke-width: 0.9; stroke-linecap: square"/>
     </g>
     <g id="line2d_37">
      <g>
       <use xlink:href="#m963ac6669b" x="504.377258" y="242.730344" style="stroke: #000000; stroke-width: 0.8"/>
      </g>
     </g>
     <g id="text_19">
      <!-- x6 -->
      <g transform="translate(496.701477 259.228391) scale(0.125 -0.125)">
       <use xlink:href="#DejaVuSans-78"/>
       <use xlink:href="#DejaVuSans-36" transform="translate(59.179688 0)"/>
      </g>
     </g>
    </g>
    <g id="xtick_15">
     <g id="line2d_38">
      <path d="M 535.704852 242.730344 
L 535.704852 57.429172 
" clip-path="url(#pe14998ef8c)" style="fill: none; stroke: #e9edf1; stroke-width: 0.9; stroke-linecap: square"/>
     </g>
     <g id="line2d_39">
      <g>
       <use xlink:href="#m963ac6669b" x="535.704852" y="242.730344" style="stroke: #000000; stroke-width: 0.8"/>
      </g>
     </g>
     <g id="text_20">
      <!-- x7 -->
      <g transform="translate(528.029071 259.228391) scale(0.125 -0.125)">
       <use xlink:href="#DejaVuSans-78"/>
       <use xlink:href="#DejaVuSans-37" transform="translate(59.179688 0)"/>
      </g>
     </g>
    </g>
    <g id="xtick_16">
     <g id="line2d_40">
      <path d="M 567.032446 242.730344 
L 567.032446 57.429172 
" clip-path="url(#pe14998ef8c)" style="fill: none; stroke: #e9edf1; stroke-width: 0.9; stroke-linecap: square"/>
     </g>
     <g id="line2d_41">
      <g>
       <use xlink:href="#m963ac6669b" x="567.032446" y="242.730344" style="stroke: #000000; stroke-width: 0.8"/>
      </g>
     </g>
     <g id="text_21">
      <!-- x8 -->
      <g transform="translate(559.356664 259.228391) scale(0.125 -0.125)">
       <use xlink:href="#DejaVuSans-78"/>
       <use xlink:href="#DejaVuSans-38" transform="translate(59.179688 0)"/>
      </g>
     </g>
    </g>
   </g>
   <g id="matplotlib.axis_4">
    <g id="ytick_5">
     <g id="line2d_42">
      <path d="M 322.99049 199.752566 
L 591.781245 199.752566 
" clip-path="url(#pe14998ef8c)" style="fill: none; stroke: #e9edf1; stroke-width: 0.9; stroke-linecap: square"/>
     </g>
     <g id="line2d_43">
      <g>
       <use xlink:href="#m31be0f3cc6" x="322.99049" y="199.752566" style="stroke: #000000; stroke-width: 0.8"/>
      </g>
     </g>
    </g>
    <g id="ytick_6">
     <g id="line2d_44">
      <path d="M 322.99049 156.55882 
L 591.781245 156.55882 
" clip-path="url(#pe14998ef8c)" style="fill: none; stroke: #e9edf1; stroke-width: 0.9; stroke-linecap: square"/>
     </g>
     <g id="line2d_45">
      <g>
       <use xlink:href="#m31be0f3cc6" x="322.99049" y="156.55882" style="stroke: #000000; stroke-width: 0.8"/>
      </g>
     </g>
    </g>
    <g id="ytick_7">
     <g id="line2d_46">
      <path d="M 322.99049 113.365073 
L 591.781245 113.365073 
" clip-path="url(#pe14998ef8c)" style="fill: none; stroke: #e9edf1; stroke-width: 0.9; stroke-linecap: square"/>
     </g>
     <g id="line2d_47">
      <g>
       <use xlink:href="#m31be0f3cc6" x="322.99049" y="113.365073" style="stroke: #000000; stroke-width: 0.8"/>
      </g>
     </g>
    </g>
    <g id="ytick_8">
     <g id="line2d_48">
      <path d="M 322.99049 70.171327 
L 591.781245 70.171327 
" clip-path="url(#pe14998ef8c)" style="fill: none; stroke: #e9edf1; stroke-width: 0.9; stroke-linecap: square"/>
     </g>
     <g id="line2d_49">
      <g>
       <use xlink:href="#m31be0f3cc6" x="322.99049" y="70.171327" style="stroke: #000000; stroke-width: 0.8"/>
      </g>
     </g>
    </g>
   </g>
   <g id="patch_14">
    <path d="M 335.208251 156.55882 
L 360.270326 156.55882 
L 360.270326 111.205386 
L 335.208251 111.205386 
z
" clip-path="url(#pe14998ef8c)" style="fill: #3498db"/>
   </g>
   <g id="patch_15">
    <path d="M 366.535845 156.55882 
L 391.59792 156.55882 
L 391.59792 195.433191 
L 366.535845 195.433191 
z
" clip-path="url(#pe14998ef8c)" style="fill: #3498db"/>
   </g>
   <g id="patch_16">
    <path d="M 397.863439 156.55882 
L 422.925514 156.55882 
L 422.925514 137.121634 
L 397.863439 137.121634 
z
" clip-path="url(#pe14998ef8c)" style="fill: #3498db"/>
   </g>
   <g id="patch_17">
    <path d="M 429.191033 156.55882 
L 454.253108 156.55882 
L 454.253108 124.16351 
L 429.191033 124.16351 
z
" clip-path="url(#pe14998ef8c)" style="fill: #3498db"/>
   </g>
   <g id="patch_18">
    <path d="M 460.518627 156.55882 
L 485.580702 156.55882 
L 485.580702 165.197569 
L 460.518627 165.197569 
z
" clip-path="url(#pe14998ef8c)" style="fill: #3498db"/>
   </g>
   <g id="patch_19">
    <path d="M 491.84622 156.55882 
L 516.908295 156.55882 
L 516.908295 151.159601 
L 491.84622 151.159601 
z
" clip-path="url(#pe14998ef8c)" style="fill: #3498db"/>
   </g>
   <g id="patch_20">
    <path d="M 523.173814 156.55882 
L 548.235889 156.55882 
L 548.235889 180.31538 
L 523.173814 180.31538 
z
" clip-path="url(#pe14998ef8c)" style="fill: #3498db"/>
   </g>
   <g id="patch_21">
    <path d="M 554.501408 156.55882 
L 579.563483 156.55882 
L 579.563483 141.441009 
L 554.501408 141.441009 
z
" clip-path="url(#pe14998ef8c)" style="fill: #3498db"/>
   </g>
   <g id="line2d_50">
    <path d="M 322.99049 156.55882 
L 591.781245 156.55882 
" clip-path="url(#pe14998ef8c)" style="fill: none; stroke: #333333; stroke-width: 0.8; stroke-linecap: square"/>
   </g>
   <g id="patch_22">
    <path d="M 322.99049 242.730344 
L 322.99049 57.429172 
" style="fill: none; stroke: #c9ced3; stroke-width: 1.1; stroke-linejoin: miter; stroke-linecap: square"/>
   </g>
   <g id="patch_23">
    <path d="M 322.99049 242.730344 
L 591.781245 242.730344 
" style="fill: none; stroke: #c9ced3; stroke-width: 1.1; stroke-linejoin: miter; stroke-linecap: square"/>
   </g>
   <g id="text_22">
    <!-- Ridge (L2): encoge todo -->
    <g style="fill: #2c3e50" transform="translate(322.99049 51.429172) scale(0.125 -0.125)">
     <defs>
      <path id="DejaVuSans-Bold-52" d="M 2297 2597 
Q 2675 2597 2839 2737 
Q 3003 2878 3003 3200 
Q 3003 3519 2839 3656 
Q 2675 3794 2297 3794 
L 1791 3794 
L 1791 2597 
L 2297 2597 
z
M 1791 1766 
L 1791 0 
L 588 0 
L 588 4666 
L 2425 4666 
Q 3347 4666 3776 4356 
Q 4206 4047 4206 3378 
Q 4206 2916 3982 2619 
Q 3759 2322 3309 2181 
Q 3556 2125 3751 1926 
Q 3947 1728 4147 1325 
L 4800 0 
L 3519 0 
L 2950 1159 
Q 2778 1509 2601 1637 
Q 2425 1766 2131 1766 
L 1791 1766 
z
" transform="scale(0.015625)"/>
      <path id="DejaVuSans-Bold-64" d="M 2919 2988 
L 2919 4863 
L 4044 4863 
L 4044 0 
L 2919 0 
L 2919 506 
Q 2688 197 2409 53 
Q 2131 -91 1766 -91 
Q 1119 -91 703 423 
Q 288 938 288 1747 
Q 288 2556 703 3070 
Q 1119 3584 1766 3584 
Q 2128 3584 2408 3439 
Q 2688 3294 2919 2988 
z
M 2181 722 
Q 2541 722 2730 984 
Q 2919 1247 2919 1747 
Q 2919 2247 2730 2509 
Q 2541 2772 2181 2772 
Q 1825 2772 1636 2509 
Q 1447 2247 1447 1747 
Q 1447 1247 1636 984 
Q 1825 722 2181 722 
z
" transform="scale(0.015625)"/>
      <path id="DejaVuSans-Bold-28" d="M 2413 -844 
L 1484 -844 
Q 1006 -72 778 623 
Q 550 1319 550 2003 
Q 550 2688 779 3389 
Q 1009 4091 1484 4856 
L 2413 4856 
Q 2013 4116 1813 3408 
Q 1613 2700 1613 2009 
Q 1613 1319 1811 609 
Q 2009 -100 2413 -844 
z
" transform="scale(0.015625)"/>
      <path id="DejaVuSans-Bold-4c" d="M 588 4666 
L 1791 4666 
L 1791 909 
L 3903 909 
L 3903 0 
L 588 0 
L 588 4666 
z
" transform="scale(0.015625)"/>
      <path id="DejaVuSans-Bold-32" d="M 1844 884 
L 3897 884 
L 3897 0 
L 506 0 
L 506 884 
L 2209 2388 
Q 2438 2594 2547 2791 
Q 2656 2988 2656 3200 
Q 2656 3528 2436 3728 
Q 2216 3928 1850 3928 
Q 1569 3928 1234 3808 
Q 900 3688 519 3450 
L 519 4475 
Q 925 4609 1322 4679 
Q 1719 4750 2100 4750 
Q 2938 4750 3402 4381 
Q 3866 4013 3866 3353 
Q 3866 2972 3669 2642 
Q 3472 2313 2841 1759 
L 1844 884 
z
" transform="scale(0.015625)"/>
      <path id="DejaVuSans-Bold-29" d="M 513 -844 
Q 913 -100 1113 609 
Q 1313 1319 1313 2009 
Q 1313 2700 1113 3408 
Q 913 4116 513 4856 
L 1441 4856 
Q 1916 4091 2145 3389 
Q 2375 2688 2375 2003 
Q 2375 1319 2147 623 
Q 1919 -72 1441 -844 
L 513 -844 
z
" transform="scale(0.015625)"/>
      <path id="DejaVuSans-Bold-3a" d="M 716 3500 
L 1844 3500 
L 1844 2291 
L 716 2291 
L 716 3500 
z
M 716 1209 
L 1844 1209 
L 1844 0 
L 716 0 
L 716 1209 
z
" transform="scale(0.015625)"/>
      <path id="DejaVuSans-Bold-63" d="M 3366 3391 
L 3366 2478 
Q 3138 2634 2908 2709 
Q 2678 2784 2431 2784 
Q 1963 2784 1702 2511 
Q 1441 2238 1441 1747 
Q 1441 1256 1702 982 
Q 1963 709 2431 709 
Q 2694 709 2930 787 
Q 3166 866 3366 1019 
L 3366 103 
Q 3103 6 2833 -42 
Q 2563 -91 2291 -91 
Q 1344 -91 809 395 
Q 275 881 275 1747 
Q 275 2613 809 3098 
Q 1344 3584 2291 3584 
Q 2566 3584 2833 3536 
Q 3100 3488 3366 3391 
z
" transform="scale(0.015625)"/>
      <path id="DejaVuSans-Bold-6f" d="M 2203 2784 
Q 1831 2784 1636 2517 
Q 1441 2250 1441 1747 
Q 1441 1244 1636 976 
Q 1831 709 2203 709 
Q 2569 709 2762 976 
Q 2956 1244 2956 1747 
Q 2956 2250 2762 2517 
Q 2569 2784 2203 2784 
z
M 2203 3584 
Q 3106 3584 3614 3096 
Q 4122 2609 4122 1747 
Q 4122 884 3614 396 
Q 3106 -91 2203 -91 
Q 1297 -91 786 396 
Q 275 884 275 1747 
Q 275 2609 786 3096 
Q 1297 3584 2203 3584 
z
" transform="scale(0.015625)"/>
      <path id="DejaVuSans-Bold-74" d="M 1759 4494 
L 1759 3500 
L 2913 3500 
L 2913 2700 
L 1759 2700 
L 1759 1216 
Q 1759 972 1856 886 
Q 1953 800 2241 800 
L 2816 800 
L 2816 0 
L 1856 0 
Q 1194 0 917 276 
Q 641 553 641 1216 
L 641 2700 
L 84 2700 
L 84 3500 
L 641 3500 
L 641 4494 
L 1759 4494 
z
" transform="scale(0.015625)"/>
     </defs>
     <use xlink:href="#DejaVuSans-Bold-52"/>
     <use xlink:href="#DejaVuSans-Bold-69" transform="translate(77.001953 0)"/>
     <use xlink:href="#DejaVuSans-Bold-64" transform="translate(111.279297 0)"/>
     <use xlink:href="#DejaVuSans-Bold-67" transform="translate(182.861328 0)"/>
     <use xlink:href="#DejaVuSans-Bold-65" transform="translate(254.443359 0)"/>
     <use xlink:href="#DejaVuSans-Bold-20" transform="translate(322.265625 0)"/>
     <use xlink:href="#DejaVuSans-Bold-28" transform="translate(357.080078 0)"/>
     <use xlink:href="#DejaVuSans-Bold-4c" transform="translate(402.783203 0)"/>
     <use xlink:href="#DejaVuSans-Bold-32" transform="translate(466.503906 0)"/>
     <use xlink:href="#DejaVuSans-Bold-29" transform="translate(536.083984 0)"/>
     <use xlink:href="#DejaVuSans-Bold-3a" transform="translate(581.787109 0)"/>
     <use xlink:href="#DejaVuSans-Bold-20" transform="translate(621.777344 0)"/>
     <use xlink:href="#DejaVuSans-Bold-65" transform="translate(656.591797 0)"/>
     <use xlink:href="#DejaVuSans-Bold-6e" transform="translate(724.414062 0)"/>
     <use xlink:href="#DejaVuSans-Bold-63" transform="translate(795.605469 0)"/>
     <use xlink:href="#DejaVuSans-Bold-6f" transform="translate(854.882812 0)"/>
     <use xlink:href="#DejaVuSans-Bold-67" transform="translate(923.583984 0)"/>
     <use xlink:href="#DejaVuSans-Bold-65" transform="translate(995.166016 0)"/>
     <use xlink:href="#DejaVuSans-Bold-20" transform="translate(1062.988281 0)"/>
     <use xlink:href="#DejaVuSans-Bold-74" transform="translate(1097.802734 0)"/>
     <use xlink:href="#DejaVuSans-Bold-6f" transform="translate(1145.605469 0)"/>
     <use xlink:href="#DejaVuSans-Bold-64" transform="translate(1214.306641 0)"/>
     <use xlink:href="#DejaVuSans-Bold-6f" transform="translate(1285.888672 0)"/>
    </g>
   </g>
  </g>
  <g id="axes_3">
   <g id="patch_24">
    <path d="M 608.781245 242.730344 
L 877.572 242.730344 
L 877.572 57.429172 
L 608.781245 57.429172 
L 608.781245 242.730344 
z
" style="fill: none"/>
   </g>
   <g id="matplotlib.axis_5">
    <g id="xtick_17">
     <g id="line2d_51">
      <path d="M 633.530044 242.730344 
L 633.530044 57.429172 
" clip-path="url(#p6294182836)" style="fill: none; stroke: #e9edf1; stroke-width: 0.9; stroke-linecap: square"/>
     </g>
     <g id="line2d_52">
      <g>
       <use xlink:href="#m963ac6669b" x="633.530044" y="242.730344" style="stroke: #000000; stroke-width: 0.8"/>
      </g>
     </g>
     <g id="text_23">
      <!-- x1 -->
      <g transform="translate(625.854263 259.228391) scale(0.125 -0.125)">
       <use xlink:href="#DejaVuSans-78"/>
       <use xlink:href="#DejaVuSans-31" transform="translate(59.179688 0)"/>
      </g>
     </g>
    </g>
    <g id="xtick_18">
     <g id="line2d_53">
      <path d="M 664.857638 242.730344 
L 664.857638 57.429172 
" clip-path="url(#p6294182836)" style="fill: none; stroke: #e9edf1; stroke-width: 0.9; stroke-linecap: square"/>
     </g>
     <g id="line2d_54">
      <g>
       <use xlink:href="#m963ac6669b" x="664.857638" y="242.730344" style="stroke: #000000; stroke-width: 0.8"/>
      </g>
     </g>
     <g id="text_24">
      <!-- x2 -->
      <g transform="translate(657.181857 259.228391) scale(0.125 -0.125)">
       <use xlink:href="#DejaVuSans-78"/>
       <use xlink:href="#DejaVuSans-32" transform="translate(59.179688 0)"/>
      </g>
     </g>
    </g>
    <g id="xtick_19">
     <g id="line2d_55">
      <path d="M 696.185232 242.730344 
L 696.185232 57.429172 
" clip-path="url(#p6294182836)" style="fill: none; stroke: #e9edf1; stroke-width: 0.9; stroke-linecap: square"/>
     </g>
     <g id="line2d_56">
      <g>
       <use xlink:href="#m963ac6669b" x="696.185232" y="242.730344" style="stroke: #000000; stroke-width: 0.8"/>
      </g>
     </g>
     <g id="text_25">
      <!-- x3 -->
      <g transform="translate(688.50945 259.228391) scale(0.125 -0.125)">
       <use xlink:href="#DejaVuSans-78"/>
       <use xlink:href="#DejaVuSans-33" transform="translate(59.179688 0)"/>
      </g>
     </g>
    </g>
    <g id="xtick_20">
     <g id="line2d_57">
      <path d="M 727.512825 242.730344 
L 727.512825 57.429172 
" clip-path="url(#p6294182836)" style="fill: none; stroke: #e9edf1; stroke-width: 0.9; stroke-linecap: square"/>
     </g>
     <g id="line2d_58">
      <g>
       <use xlink:href="#m963ac6669b" x="727.512825" y="242.730344" style="stroke: #000000; stroke-width: 0.8"/>
      </g>
     </g>
     <g id="text_26">
      <!-- x4 -->
      <g transform="translate(719.837044 259.228391) scale(0.125 -0.125)">
       <use xlink:href="#DejaVuSans-78"/>
       <use xlink:href="#DejaVuSans-34" transform="translate(59.179688 0)"/>
      </g>
     </g>
    </g>
    <g id="xtick_21">
     <g id="line2d_59">
      <path d="M 758.840419 242.730344 
L 758.840419 57.429172 
" clip-path="url(#p6294182836)" style="fill: none; stroke: #e9edf1; stroke-width: 0.9; stroke-linecap: square"/>
     </g>
     <g id="line2d_60">
      <g>
       <use xlink:href="#m963ac6669b" x="758.840419" y="242.730344" style="stroke: #000000; stroke-width: 0.8"/>
      </g>
     </g>
     <g id="text_27">
      <!-- x5 -->
      <g transform="translate(751.164638 259.228391) scale(0.125 -0.125)">
       <use xlink:href="#DejaVuSans-78"/>
       <use xlink:href="#DejaVuSans-35" transform="translate(59.179688 0)"/>
      </g>
     </g>
    </g>
    <g id="xtick_22">
     <g id="line2d_61">
      <path d="M 790.168013 242.730344 
L 790.168013 57.429172 
" clip-path="url(#p6294182836)" style="fill: none; stroke: #e9edf1; stroke-width: 0.9; stroke-linecap: square"/>
     </g>
     <g id="line2d_62">
      <g>
       <use xlink:href="#m963ac6669b" x="790.168013" y="242.730344" style="stroke: #000000; stroke-width: 0.8"/>
      </g>
     </g>
     <g id="text_28">
      <!-- x6 -->
      <g transform="translate(782.492232 259.228391) scale(0.125 -0.125)">
       <use xlink:href="#DejaVuSans-78"/>
       <use xlink:href="#DejaVuSans-36" transform="translate(59.179688 0)"/>
      </g>
     </g>
    </g>
    <g id="xtick_23">
     <g id="line2d_63">
      <path d="M 821.495607 242.730344 
L 821.495607 57.429172 
" clip-path="url(#p6294182836)" style="fill: none; stroke: #e9edf1; stroke-width: 0.9; stroke-linecap: square"/>
     </g>
     <g id="line2d_64">
      <g>
       <use xlink:href="#m963ac6669b" x="821.495607" y="242.730344" style="stroke: #000000; stroke-width: 0.8"/>
      </g>
     </g>
     <g id="text_29">
      <!-- x7 -->
      <g transform="translate(813.819826 259.228391) scale(0.125 -0.125)">
       <use xlink:href="#DejaVuSans-78"/>
       <use xlink:href="#DejaVuSans-37" transform="translate(59.179688 0)"/>
      </g>
     </g>
    </g>
    <g id="xtick_24">
     <g id="line2d_65">
      <path d="M 852.823201 242.730344 
L 852.823201 57.429172 
" clip-path="url(#p6294182836)" style="fill: none; stroke: #e9edf1; stroke-width: 0.9; stroke-linecap: square"/>
     </g>
     <g id="line2d_66">
      <g>
       <use xlink:href="#m963ac6669b" x="852.823201" y="242.730344" style="stroke: #000000; stroke-width: 0.8"/>
      </g>
     </g>
     <g id="text_30">
      <!-- x8 -->
      <g transform="translate(845.14742 259.228391) scale(0.125 -0.125)">
       <use xlink:href="#DejaVuSans-78"/>
       <use xlink:href="#DejaVuSans-38" transform="translate(59.179688 0)"/>
      </g>
     </g>
    </g>
   </g>
   <g id="matplotlib.axis_6">
    <g id="ytick_9">
     <g id="line2d_67">
      <path d="M 608.781245 199.752566 
L 877.572 199.752566 
" clip-path="url(#p6294182836)" style="fill: none; stroke: #e9edf1; stroke-width: 0.9; stroke-linecap: square"/>
     </g>
     <g id="line2d_68">
      <g>
       <use xlink:href="#m31be0f3cc6" x="608.781245" y="199.752566" style="stroke: #000000; stroke-width: 0.8"/>
      </g>
     </g>
    </g>
    <g id="ytick_10">
     <g id="line2d_69">
      <path d="M 608.781245 156.55882 
L 877.572 156.55882 
" clip-path="url(#p6294182836)" style="fill: none; stroke: #e9edf1; stroke-width: 0.9; stroke-linecap: square"/>
     </g>
     <g id="line2d_70">
      <g>
       <use xlink:href="#m31be0f3cc6" x="608.781245" y="156.55882" style="stroke: #000000; stroke-width: 0.8"/>
      </g>
     </g>
    </g>
    <g id="ytick_11">
     <g id="line2d_71">
      <path d="M 608.781245 113.365073 
L 877.572 113.365073 
" clip-path="url(#p6294182836)" style="fill: none; stroke: #e9edf1; stroke-width: 0.9; stroke-linecap: square"/>
     </g>
     <g id="line2d_72">
      <g>
       <use xlink:href="#m31be0f3cc6" x="608.781245" y="113.365073" style="stroke: #000000; stroke-width: 0.8"/>
      </g>
     </g>
    </g>
    <g id="ytick_12">
     <g id="line2d_73">
      <path d="M 608.781245 70.171327 
L 877.572 70.171327 
" clip-path="url(#p6294182836)" style="fill: none; stroke: #e9edf1; stroke-width: 0.9; stroke-linecap: square"/>
     </g>
     <g id="line2d_74">
      <g>
       <use xlink:href="#m31be0f3cc6" x="608.781245" y="70.171327" style="stroke: #000000; stroke-width: 0.8"/>
      </g>
     </g>
    </g>
   </g>
   <g id="patch_25">
    <path d="M 620.999006 156.55882 
L 646.061081 156.55882 
L 646.061081 85.807463 
L 620.999006 85.807463 
z
" clip-path="url(#p6294182836)" style="fill: #8b1538"/>
   </g>
   <g id="patch_26">
    <path d="M 652.3266 156.55882 
L 677.388675 156.55882 
L 677.388675 217.20284 
L 652.3266 217.20284 
z
" clip-path="url(#p6294182836)" style="fill: #8b1538"/>
   </g>
   <g id="patch_27">
    <path d="M 683.654194 156.55882 
L 708.716269 156.55882 
L 708.716269 126.23681 
L 683.654194 126.23681 
z
" clip-path="url(#p6294182836)" style="fill: #8b1538"/>
   </g>
   <g id="patch_28">
    <path d="M 714.981788 156.55882 
L 740.043863 156.55882 
L 740.043863 106.022137 
L 714.981788 106.022137 
z
" clip-path="url(#p6294182836)" style="fill: #8b1538"/>
   </g>
   <g id="patch_29">
    <path d="M 746.309382 156.55882 
L 771.371457 156.55882 
L 771.371457 156.55882 
L 746.309382 156.55882 
z
" clip-path="url(#p6294182836)" style="fill: #8b1538"/>
   </g>
   <g id="patch_30">
    <path d="M 777.636976 156.55882 
L 802.699051 156.55882 
L 802.699051 156.55882 
L 777.636976 156.55882 
z
" clip-path="url(#p6294182836)" style="fill: #8b1538"/>
   </g>
   <g id="patch_31">
    <path d="M 808.964569 156.55882 
L 834.026645 156.55882 
L 834.026645 193.619054 
L 808.964569 193.619054 
z
" clip-path="url(#p6294182836)" style="fill: #8b1538"/>
   </g>
   <g id="patch_32">
    <path d="M 840.292163 156.55882 
L 865.354238 156.55882 
L 865.354238 132.975034 
L 840.292163 132.975034 
z
" clip-path="url(#p6294182836)" style="fill: #8b1538"/>
   </g>
   <g id="line2d_75">
    <path d="M 608.781245 156.55882 
L 877.572 156.55882 
" clip-path="url(#p6294182836)" style="fill: none; stroke: #333333; stroke-width: 0.8; stroke-linecap: square"/>
   </g>
   <g id="patch_33">
    <path d="M 608.781245 242.730344 
L 608.781245 57.429172 
" style="fill: none; stroke: #c9ced3; stroke-width: 1.1; stroke-linejoin: miter; stroke-linecap: square"/>
   </g>
   <g id="patch_34">
    <path d="M 608.781245 242.730344 
L 877.572 242.730344 
" style="fill: none; stroke: #c9ced3; stroke-width: 1.1; stroke-linejoin: miter; stroke-linecap: square"/>
   </g>
   <g id="patch_35">
    <path d="M 768.143898 115.077943 
Q 763.711061 134.842376 759.522902 153.515876 
" style="fill: none; stroke: #8b1538; stroke-linecap: round"/>
    <path d="M 762.349807 150.050533 
L 759.522902 153.515876 
L 758.44677 149.175146 
" style="fill: none; stroke: #8b1538; stroke-linecap: round"/>
   </g>
   <g id="text_31">
    <!-- = 0 -->
    <g style="fill: #8b1538" transform="translate(762.411301 97.847886) scale(0.1 -0.1)">
     <defs>
      <path id="DejaVuSans-3d" d="M 678 2906 
L 4684 2906 
L 4684 2381 
L 678 2381 
L 678 2906 
z
M 678 1631 
L 4684 1631 
L 4684 1100 
L 678 1100 
L 678 1631 
z
" transform="scale(0.015625)"/>
      <path id="DejaVuSans-20" transform="scale(0.015625)"/>
     </defs>
     <use xlink:href="#DejaVuSans-3d"/>
     <use xlink:href="#DejaVuSans-20" transform="translate(83.789062 0)"/>
     <use xlink:href="#DejaVuSans-30" transform="translate(115.576172 0)"/>
    </g>
    <!-- (descartadas) -->
    <g style="fill: #8b1538" transform="translate(736.878488 109.045699) scale(0.1 -0.1)">
     <defs>
      <path id="DejaVuSans-28" d="M 1984 4856 
Q 1566 4138 1362 3434 
Q 1159 2731 1159 2009 
Q 1159 1288 1364 580 
Q 1569 -128 1984 -844 
L 1484 -844 
Q 1016 -109 783 600 
Q 550 1309 550 2009 
Q 550 2706 781 3412 
Q 1013 4119 1484 4856 
L 1984 4856 
z
" transform="scale(0.015625)"/>
      <path id="DejaVuSans-64" d="M 2906 2969 
L 2906 4863 
L 3481 4863 
L 3481 0 
L 2906 0 
L 2906 525 
Q 2725 213 2448 61 
Q 2172 -91 1784 -91 
Q 1150 -91 751 415 
Q 353 922 353 1747 
Q 353 2572 751 3078 
Q 1150 3584 1784 3584 
Q 2172 3584 2448 3432 
Q 2725 3281 2906 2969 
z
M 947 1747 
Q 947 1113 1208 752 
Q 1469 391 1925 391 
Q 2381 391 2643 752 
Q 2906 1113 2906 1747 
Q 2906 2381 2643 2742 
Q 2381 3103 1925 3103 
Q 1469 3103 1208 2742 
Q 947 2381 947 1747 
z
" transform="scale(0.015625)"/>
      <path id="DejaVuSans-65" d="M 3597 1894 
L 3597 1613 
L 953 1613 
Q 991 1019 1311 708 
Q 1631 397 2203 397 
Q 2534 397 2845 478 
Q 3156 559 3463 722 
L 3463 178 
Q 3153 47 2828 -22 
Q 2503 -91 2169 -91 
Q 1331 -91 842 396 
Q 353 884 353 1716 
Q 353 2575 817 3079 
Q 1281 3584 2069 3584 
Q 2775 3584 3186 3129 
Q 3597 2675 3597 1894 
z
M 3022 2063 
Q 3016 2534 2758 2815 
Q 2500 3097 2075 3097 
Q 1594 3097 1305 2825 
Q 1016 2553 972 2059 
L 3022 2063 
z
" transform="scale(0.015625)"/>
      <path id="DejaVuSans-73" d="M 2834 3397 
L 2834 2853 
Q 2591 2978 2328 3040 
Q 2066 3103 1784 3103 
Q 1356 3103 1142 2972 
Q 928 2841 928 2578 
Q 928 2378 1081 2264 
Q 1234 2150 1697 2047 
L 1894 2003 
Q 2506 1872 2764 1633 
Q 3022 1394 3022 966 
Q 3022 478 2636 193 
Q 2250 -91 1575 -91 
Q 1294 -91 989 -36 
Q 684 19 347 128 
L 347 722 
Q 666 556 975 473 
Q 1284 391 1588 391 
Q 1994 391 2212 530 
Q 2431 669 2431 922 
Q 2431 1156 2273 1281 
Q 2116 1406 1581 1522 
L 1381 1569 
Q 847 1681 609 1914 
Q 372 2147 372 2553 
Q 372 3047 722 3315 
Q 1072 3584 1716 3584 
Q 2034 3584 2315 3537 
Q 2597 3491 2834 3397 
z
" transform="scale(0.015625)"/>
      <path id="DejaVuSans-63" d="M 3122 3366 
L 3122 2828 
Q 2878 2963 2633 3030 
Q 2388 3097 2138 3097 
Q 1578 3097 1268 2742 
Q 959 2388 959 1747 
Q 959 1106 1268 751 
Q 1578 397 2138 397 
Q 2388 397 2633 464 
Q 2878 531 3122 666 
L 3122 134 
Q 2881 22 2623 -34 
Q 2366 -91 2075 -91 
Q 1284 -91 818 406 
Q 353 903 353 1747 
Q 353 2603 823 3093 
Q 1294 3584 2113 3584 
Q 2378 3584 2631 3529 
Q 2884 3475 3122 3366 
z
" transform="scale(0.015625)"/>
      <path id="DejaVuSans-61" d="M 2194 1759 
Q 1497 1759 1228 1600 
Q 959 1441 959 1056 
Q 959 750 1161 570 
Q 1363 391 1709 391 
Q 2188 391 2477 730 
Q 2766 1069 2766 1631 
L 2766 1759 
L 2194 1759 
z
M 3341 1997 
L 3341 0 
L 2766 0 
L 2766 531 
Q 2569 213 2275 61 
Q 1981 -91 1556 -91 
Q 1019 -91 701 211 
Q 384 513 384 1019 
Q 384 1609 779 1909 
Q 1175 2209 1959 2209 
L 2766 2209 
L 2766 2266 
Q 2766 2663 2505 2880 
Q 2244 3097 1772 3097 
Q 1472 3097 1187 3025 
Q 903 2953 641 2809 
L 641 3341 
Q 956 3463 1253 3523 
Q 1550 3584 1831 3584 
Q 2591 3584 2966 3190 
Q 3341 2797 3341 1997 
z
" transform="scale(0.015625)"/>
      <path id="DejaVuSans-72" d="M 2631 2963 
Q 2534 3019 2420 3045 
Q 2306 3072 2169 3072 
Q 1681 3072 1420 2755 
Q 1159 2438 1159 1844 
L 1159 0 
L 581 0 
L 581 3500 
L 1159 3500 
L 1159 2956 
Q 1341 3275 1631 3429 
Q 1922 3584 2338 3584 
Q 2397 3584 2469 3576 
Q 2541 3569 2628 3553 
L 2631 2963 
z
" transform="scale(0.015625)"/>
      <path id="DejaVuSans-74" d="M 1172 4494 
L 1172 3500 
L 2356 3500 
L 2356 3053 
L 1172 3053 
L 1172 1153 
Q 1172 725 1289 603 
Q 1406 481 1766 481 
L 2356 481 
L 2356 0 
L 1766 0 
Q 1100 0 847 248 
Q 594 497 594 1153 
L 594 3053 
L 172 3053 
L 172 3500 
L 594 3500 
L 594 4494 
L 1172 4494 
z
" transform="scale(0.015625)"/>
      <path id="DejaVuSans-29" d="M 513 4856 
L 1013 4856 
Q 1481 4119 1714 3412 
Q 1947 2706 1947 2009 
Q 1947 1309 1714 600 
Q 1481 -109 1013 -844 
L 513 -844 
Q 928 -128 1133 580 
Q 1338 1288 1338 2009 
Q 1338 2731 1133 3434 
Q 928 4138 513 4856 
z
" transform="scale(0.015625)"/>
     </defs>
     <use xlink:href="#DejaVuSans-28"/>
     <use xlink:href="#DejaVuSans-64" transform="translate(39.013672 0)"/>
     <use xlink:href="#DejaVuSans-65" transform="translate(102.490234 0)"/>
     <use xlink:href="#DejaVuSans-73" transform="translate(164.013672 0)"/>
     <use xlink:href="#DejaVuSans-63" transform="translate(216.113281 0)"/>
     <use xlink:href="#DejaVuSans-61" transform="translate(271.09375 0)"/>
     <use xlink:href="#DejaVuSans-72" transform="translate(332.373047 0)"/>
     <use xlink:href="#DejaVuSans-74" transform="translate(373.486328 0)"/>
     <use xlink:href="#DejaVuSans-61" transform="translate(412.695312 0)"/>
     <use xlink:href="#DejaVuSans-64" transform="translate(473.974609 0)"/>
     <use xlink:href="#DejaVuSans-61" transform="translate(537.451172 0)"/>
     <use xlink:href="#DejaVuSans-73" transform="translate(598.730469 0)"/>
     <use xlink:href="#DejaVuSans-29" transform="translate(650.830078 0)"/>
    </g>
   </g>
   <g id="text_32">
    <!-- Lasso (L1): lleva a cero -->
    <g style="fill: #2c3e50" transform="translate(608.781245 51.429172) scale(0.125 -0.125)">
     <defs>
      <path id="DejaVuSans-Bold-73" d="M 3272 3391 
L 3272 2541 
Q 2913 2691 2578 2766 
Q 2244 2841 1947 2841 
Q 1628 2841 1473 2761 
Q 1319 2681 1319 2516 
Q 1319 2381 1436 2309 
Q 1553 2238 1856 2203 
L 2053 2175 
Q 2913 2066 3209 1816 
Q 3506 1566 3506 1031 
Q 3506 472 3093 190 
Q 2681 -91 1863 -91 
Q 1516 -91 1145 -36 
Q 775 19 384 128 
L 384 978 
Q 719 816 1070 734 
Q 1422 653 1784 653 
Q 2113 653 2278 743 
Q 2444 834 2444 1013 
Q 2444 1163 2330 1236 
Q 2216 1309 1875 1350 
L 1678 1375 
Q 931 1469 631 1722 
Q 331 1975 331 2491 
Q 331 3047 712 3315 
Q 1094 3584 1881 3584 
Q 2191 3584 2531 3537 
Q 2872 3491 3272 3391 
z
" transform="scale(0.015625)"/>
      <path id="DejaVuSans-Bold-31" d="M 750 831 
L 1813 831 
L 1813 3847 
L 722 3622 
L 722 4441 
L 1806 4666 
L 2950 4666 
L 2950 831 
L 4013 831 
L 4013 0 
L 750 0 
L 750 831 
z
" transform="scale(0.015625)"/>
      <path id="DejaVuSans-Bold-76" d="M 97 3500 
L 1216 3500 
L 2088 1081 
L 2956 3500 
L 4078 3500 
L 2700 0 
L 1472 0 
L 97 3500 
z
" transform="scale(0.015625)"/>
     </defs>
     <use xlink:href="#DejaVuSans-Bold-4c"/>
     <use xlink:href="#DejaVuSans-Bold-61" transform="translate(63.720703 0)"/>
     <use xlink:href="#DejaVuSans-Bold-73" transform="translate(131.201172 0)"/>
     <use xlink:href="#DejaVuSans-Bold-73" transform="translate(190.722656 0)"/>
     <use xlink:href="#DejaVuSans-Bold-6f" transform="translate(250.244141 0)"/>
     <use xlink:href="#DejaVuSans-Bold-20" transform="translate(318.945312 0)"/>
     <use xlink:href="#DejaVuSans-Bold-28" transform="translate(353.759766 0)"/>
     <use xlink:href="#DejaVuSans-Bold-4c" transform="translate(399.462891 0)"/>
     <use xlink:href="#DejaVuSans-Bold-31" transform="translate(463.183594 0)"/>
     <use xlink:href="#DejaVuSans-Bold-29" transform="translate(532.763672 0)"/>
     <use xlink:href="#DejaVuSans-Bold-3a" transform="translate(578.466797 0)"/>
     <use xlink:href="#DejaVuSans-Bold-20" transform="translate(618.457031 0)"/>
     <use xlink:href="#DejaVuSans-Bold-6c" transform="translate(653.271484 0)"/>
     <use xlink:href="#DejaVuSans-Bold-6c" transform="translate(687.548828 0)"/>
     <use xlink:href="#DejaVuSans-Bold-65" transform="translate(721.826172 0)"/>
     <use xlink:href="#DejaVuSans-Bold-76" transform="translate(789.648438 0)"/>
     <use xlink:href="#DejaVuSans-Bold-61" transform="translate(854.833984 0)"/>
     <use xlink:href="#DejaVuSans-Bold-20" transform="translate(922.314453 0)"/>
     <use xlink:href="#DejaVuSans-Bold-61" transform="translate(957.128906 0)"/>
     <use xlink:href="#DejaVuSans-Bold-20" transform="translate(1024.609375 0)"/>
     <use xlink:href="#DejaVuSans-Bold-63" transform="translate(1059.423828 0)"/>
     <use xlink:href="#DejaVuSans-Bold-65" transform="translate(1118.701172 0)"/>
     <use xlink:href="#DejaVuSans-Bold-72" transform="translate(1186.523438 0)"/>
     <use xlink:href="#DejaVuSans-Bold-6f" transform="translate(1235.839844 0)"/>
    </g>
   </g>
  </g>
  <g id="text_33">
   <!-- Regularización: Ridge encoge los coeficientes; Lasso lleva algunos a CERO (selección automática) -->
   <g style="fill: #2c3e50" transform="translate(7.2 17.597969) scale(0.13 -0.13)">
    <defs>
     <path id="DejaVuSans-Bold-f3" d="M 2203 2784 
Q 1831 2784 1636 2517 
Q 1441 2250 1441 1747 
Q 1441 1244 1636 976 
Q 1831 709 2203 709 
Q 2569 709 2762 976 
Q 2956 1244 2956 1747 
Q 2956 2250 2762 2517 
Q 2569 2784 2203 2784 
z
M 2203 3584 
Q 3106 3584 3614 3096 
Q 4122 2609 4122 1747 
Q 4122 884 3614 396 
Q 3106 -91 2203 -91 
Q 1297 -91 786 396 
Q 275 884 275 1747 
Q 275 2609 786 3096 
Q 1297 3584 2203 3584 
z
M 2694 5119 
L 3578 5119 
L 2425 3944 
L 1813 3944 
L 2694 5119 
z
" transform="scale(0.015625)"/>
     <path id="DejaVuSans-Bold-66" d="M 2841 4863 
L 2841 4128 
L 2222 4128 
Q 1984 4128 1890 4042 
Q 1797 3956 1797 3744 
L 1797 3500 
L 2753 3500 
L 2753 2700 
L 1797 2700 
L 1797 0 
L 678 0 
L 678 2700 
L 122 2700 
L 122 3500 
L 678 3500 
L 678 3744 
Q 678 4316 997 4589 
Q 1316 4863 1984 4863 
L 2841 4863 
z
" transform="scale(0.015625)"/>
     <path id="DejaVuSans-Bold-3b" d="M 716 1209 
L 1844 1209 
L 1844 256 
L 1069 -909 
L 403 -909 
L 716 256 
L 716 1209 
z
M 716 3500 
L 1844 3500 
L 1844 2291 
L 716 2291 
L 716 3500 
z
" transform="scale(0.015625)"/>
     <path id="DejaVuSans-Bold-43" d="M 4288 256 
Q 3956 84 3597 -3 
Q 3238 -91 2847 -91 
Q 1681 -91 1000 561 
Q 319 1213 319 2328 
Q 319 3447 1000 4098 
Q 1681 4750 2847 4750 
Q 3238 4750 3597 4662 
Q 3956 4575 4288 4403 
L 4288 3438 
Q 3953 3666 3628 3772 
Q 3303 3878 2944 3878 
Q 2300 3878 1931 3465 
Q 1563 3053 1563 2328 
Q 1563 1606 1931 1193 
Q 2300 781 2944 781 
Q 3303 781 3628 887 
Q 3953 994 4288 1222 
L 4288 256 
z
" transform="scale(0.015625)"/>
     <path id="DejaVuSans-Bold-45" d="M 588 4666 
L 3834 4666 
L 3834 3756 
L 1791 3756 
L 1791 2888 
L 3713 2888 
L 3713 1978 
L 1791 1978 
L 1791 909 
L 3903 909 
L 3903 0 
L 588 0 
L 588 4666 
z
" transform="scale(0.015625)"/>
     <path id="DejaVuSans-Bold-4f" d="M 2719 3878 
Q 2169 3878 1866 3472 
Q 1563 3066 1563 2328 
Q 1563 1594 1866 1187 
Q 2169 781 2719 781 
Q 3272 781 3575 1187 
Q 3878 1594 3878 2328 
Q 3878 3066 3575 3472 
Q 3272 3878 2719 3878 
z
M 2719 4750 
Q 3844 4750 4481 4106 
Q 5119 3463 5119 2328 
Q 5119 1197 4481 553 
Q 3844 -91 2719 -91 
Q 1597 -91 958 553 
Q 319 1197 319 2328 
Q 319 3463 958 4106 
Q 1597 4750 2719 4750 
z
" transform="scale(0.015625)"/>
     <path id="DejaVuSans-Bold-6d" d="M 3781 2919 
Q 3994 3244 4286 3414 
Q 4578 3584 4928 3584 
Q 5531 3584 5847 3212 
Q 6163 2841 6163 2131 
L 6163 0 
L 5038 0 
L 5038 1825 
Q 5041 1866 5042 1909 
Q 5044 1953 5044 2034 
Q 5044 2406 4934 2573 
Q 4825 2741 4581 2741 
Q 4263 2741 4089 2478 
Q 3916 2216 3909 1719 
L 3909 0 
L 2784 0 
L 2784 1825 
Q 2784 2406 2684 2573 
Q 2584 2741 2328 2741 
Q 2006 2741 1831 2477 
Q 1656 2213 1656 1722 
L 1656 0 
L 531 0 
L 531 3500 
L 1656 3500 
L 1656 2988 
Q 1863 3284 2130 3434 
Q 2397 3584 2719 3584 
Q 3081 3584 3359 3409 
Q 3638 3234 3781 2919 
z
" transform="scale(0.015625)"/>
     <path id="DejaVuSans-Bold-e1" d="M 2106 1575 
Q 1756 1575 1579 1456 
Q 1403 1338 1403 1106 
Q 1403 894 1545 773 
Q 1688 653 1941 653 
Q 2256 653 2472 879 
Q 2688 1106 2688 1447 
L 2688 1575 
L 2106 1575 
z
M 3816 1997 
L 3816 0 
L 2688 0 
L 2688 519 
Q 2463 200 2181 54 
Q 1900 -91 1497 -91 
Q 953 -91 614 226 
Q 275 544 275 1050 
Q 275 1666 698 1953 
Q 1122 2241 2028 2241 
L 2688 2241 
L 2688 2328 
Q 2688 2594 2478 2717 
Q 2269 2841 1825 2841 
Q 1466 2841 1156 2769 
Q 847 2697 581 2553 
L 581 3406 
Q 941 3494 1303 3539 
Q 1666 3584 2028 3584 
Q 2975 3584 3395 3211 
Q 3816 2838 3816 1997 
z
M 2606 5119 
L 3490 5119 
L 2337 3944 
L 1725 3944 
L 2606 5119 
z
" transform="scale(0.015625)"/>
    </defs>
    <use xlink:href="#DejaVuSans-Bold-52"/>
    <use xlink:href="#DejaVuSans-Bold-65" transform="translate(77.001953 0)"/>
    <use xlink:href="#DejaVuSans-Bold-67" transform="translate(144.824219 0)"/>
    <use xlink:href="#DejaVuSans-Bold-75" transform="translate(216.40625 0)"/>
    <use xlink:href="#DejaVuSans-Bold-6c" transform="translate(287.597656 0)"/>
    <use xlink:href="#DejaVuSans-Bold-61" transform="translate(321.875 0)"/>
    <use xlink:href="#DejaVuSans-Bold-72" transform="translate(389.355469 0)"/>
    <use xlink:href="#DejaVuSans-Bold-69" transform="translate(438.671875 0)"/>
    <use xlink:href="#DejaVuSans-Bold-7a" transform="translate(472.949219 0)"/>
    <use xlink:href="#DejaVuSans-Bold-61" transform="translate(531.152344 0)"/>
    <use xlink:href="#DejaVuSans-Bold-63" transform="translate(598.632812 0)"/>
    <use xlink:href="#DejaVuSans-Bold-69" transform="translate(657.910156 0)"/>
    <use xlink:href="#DejaVuSans-Bold-f3" transform="translate(692.1875 0)"/>
    <use xlink:href="#DejaVuSans-Bold-6e" transform="translate(760.888672 0)"/>
    <use xlink:href="#DejaVuSans-Bold-3a" transform="translate(832.080078 0)"/>
    <use xlink:href="#DejaVuSans-Bold-20" transform="translate(872.070312 0)"/>
    <use xlink:href="#DejaVuSans-Bold-52" transform="translate(906.884766 0)"/>
    <use xlink:href="#DejaVuSans-Bold-69" transform="translate(983.886719 0)"/>
    <use xlink:href="#DejaVuSans-Bold-64" transform="translate(1018.164062 0)"/>
    <use xlink:href="#DejaVuSans-Bold-67" transform="translate(1089.746094 0)"/>
    <use xlink:href="#DejaVuSans-Bold-65" transform="translate(1161.328125 0)"/>
    <use xlink:href="#DejaVuSans-Bold-20" transform="translate(1229.150391 0)"/>
    <use xlink:href="#DejaVuSans-Bold-65" transform="translate(1263.964844 0)"/>
    <use xlink:href="#DejaVuSans-Bold-6e" transform="translate(1331.787109 0)"/>
    <use xlink:href="#DejaVuSans-Bold-63" transform="translate(1402.978516 0)"/>
    <use xlink:href="#DejaVuSans-Bold-6f" transform="translate(1462.255859 0)"/>
    <use xlink:href="#DejaVuSans-Bold-67" transform="translate(1530.957031 0)"/>
    <use xlink:href="#DejaVuSans-Bold-65" transform="translate(1602.539062 0)"/>
    <use xlink:href="#DejaVuSans-Bold-20" transform="translate(1670.361328 0)"/>
    <use xlink:href="#DejaVuSans-Bold-6c" transform="translate(1705.175781 0)"/>
    <use xlink:href="#DejaVuSans-Bold-6f" transform="translate(1739.453125 0)"/>
    <use xlink:href="#DejaVuSans-Bold-73" transform="translate(1808.154297 0)"/>
    <use xlink:href="#DejaVuSans-Bold-20" transform="translate(1867.675781 0)"/>
    <use xlink:href="#DejaVuSans-Bold-63" transform="translate(1902.490234 0)"/>
    <use xlink:href="#DejaVuSans-Bold-6f" transform="translate(1961.767578 0)"/>
    <use xlink:href="#DejaVuSans-Bold-65" transform="translate(2030.46875 0)"/>
    <use xlink:href="#DejaVuSans-Bold-66" transform="translate(2098.291016 0)"/>
    <use xlink:href="#DejaVuSans-Bold-69" transform="translate(2141.796875 0)"/>
    <use xlink:href="#DejaVuSans-Bold-63" transform="translate(2176.074219 0)"/>
    <use xlink:href="#DejaVuSans-Bold-69" transform="translate(2235.351562 0)"/>
    <use xlink:href="#DejaVuSans-Bold-65" transform="translate(2269.628906 0)"/>
    <use xlink:href="#DejaVuSans-Bold-6e" transform="translate(2337.451172 0)"/>
    <use xlink:href="#DejaVuSans-Bold-74" transform="translate(2408.642578 0)"/>
    <use xlink:href="#DejaVuSans-Bold-65" transform="translate(2456.445312 0)"/>
    <use xlink:href="#DejaVuSans-Bold-73" transform="translate(2524.267578 0)"/>
    <use xlink:href="#DejaVuSans-Bold-3b" transform="translate(2583.789062 0)"/>
    <use xlink:href="#DejaVuSans-Bold-20" transform="translate(2623.779297 0)"/>
    <use xlink:href="#DejaVuSans-Bold-4c" transform="translate(2658.59375 0)"/>
    <use xlink:href="#DejaVuSans-Bold-61" transform="translate(2722.314453 0)"/>
    <use xlink:href="#DejaVuSans-Bold-73" transform="translate(2789.794922 0)"/>
    <use xlink:href="#DejaVuSans-Bold-73" transform="translate(2849.316406 0)"/>
    <use xlink:href="#DejaVuSans-Bold-6f" transform="translate(2908.837891 0)"/>
    <use xlink:href="#DejaVuSans-Bold-20" transform="translate(2977.539062 0)"/>
    <use xlink:href="#DejaVuSans-Bold-6c" transform="translate(3012.353516 0)"/>
    <use xlink:href="#DejaVuSans-Bold-6c" transform="translate(3046.630859 0)"/>
    <use xlink:href="#DejaVuSans-Bold-65" transform="translate(3080.908203 0)"/>
    <use xlink:href="#DejaVuSans-Bold-76" transform="translate(3148.730469 0)"/>
    <use xlink:href="#DejaVuSans-Bold-61" transform="translate(3213.916016 0)"/>
    <use xlink:href="#DejaVuSans-Bold-20" transform="translate(3281.396484 0)"/>
    <use xlink:href="#DejaVuSans-Bold-61" transform="translate(3316.210938 0)"/>
    <use xlink:href="#DejaVuSans-Bold-6c" transform="translate(3383.691406 0)"/>
    <use xlink:href="#DejaVuSans-Bold-67" transform="translate(3417.96875 0)"/>
    <use xlink:href="#DejaVuSans-Bold-75" transform="translate(3489.550781 0)"/>
    <use xlink:href="#DejaVuSans-Bold-6e" transform="translate(3560.742188 0)"/>
    <use xlink:href="#DejaVuSans-Bold-6f" transform="translate(3631.933594 0)"/>
    <use xlink:href="#DejaVuSans-Bold-73" transform="translate(3700.634766 0)"/>
    <use xlink:href="#DejaVuSans-Bold-20" transform="translate(3760.15625 0)"/>
    <use xlink:href="#DejaVuSans-Bold-61" transform="translate(3794.970703 0)"/>
    <use xlink:href="#DejaVuSans-Bold-20" transform="translate(3862.451172 0)"/>
    <use xlink:href="#DejaVuSans-Bold-43" transform="translate(3897.265625 0)"/>
    <use xlink:href="#DejaVuSans-Bold-45" transform="translate(3970.654297 0)"/>
    <use xlink:href="#DejaVuSans-Bold-52" transform="translate(4038.964844 0)"/>
    <use xlink:href="#DejaVuSans-Bold-4f" transform="translate(4115.966797 0)"/>
    <use xlink:href="#DejaVuSans-Bold-20" transform="translate(4200.976562 0)"/>
    <use xlink:href="#DejaVuSans-Bold-28" transform="translate(4235.791016 0)"/>
    <use xlink:href="#DejaVuSans-Bold-73" transform="translate(4281.494141 0)"/>
    <use xlink:href="#DejaVuSans-Bold-65" transform="translate(4341.015625 0)"/>
    <use xlink:href="#DejaVuSans-Bold-6c" transform="translate(4408.837891 0)"/>
    <use xlink:href="#DejaVuSans-Bold-65" transform="translate(4443.115234 0)"/>
    <use xlink:href="#DejaVuSans-Bold-63" transform="translate(4510.9375 0)"/>
    <use xlink:href="#DejaVuSans-Bold-63" transform="translate(4570.214844 0)"/>
    <use xlink:href="#DejaVuSans-Bold-69" transform="translate(4629.492188 0)"/>
    <use xlink:href="#DejaVuSans-Bold-f3" transform="translate(4663.769531 0)"/>
    <use xlink:href="#DejaVuSans-Bold-6e" transform="translate(4732.470703 0)"/>
    <use xlink:href="#DejaVuSans-Bold-20" transform="translate(4803.662109 0)"/>
    <use xlink:href="#DejaVuSans-Bold-61" transform="translate(4838.476562 0)"/>
    <use xlink:href="#DejaVuSans-Bold-75" transform="translate(4905.957031 0)"/>
    <use xlink:href="#DejaVuSans-Bold-74" transform="translate(4977.148438 0)"/>
    <use xlink:href="#DejaVuSans-Bold-6f" transform="translate(5024.951172 0)"/>
    <use xlink:href="#DejaVuSans-Bold-6d" transform="translate(5093.652344 0)"/>
    <use xlink:href="#DejaVuSans-Bold-e1" transform="translate(5197.851562 0)"/>
    <use xlink:href="#DejaVuSans-Bold-74" transform="translate(5265.332031 0)"/>
    <use xlink:href="#DejaVuSans-Bold-69" transform="translate(5313.134766 0)"/>
    <use xlink:href="#DejaVuSans-Bold-63" transform="translate(5347.412109 0)"/>
    <use xlink:href="#DejaVuSans-Bold-61" transform="translate(5406.689453 0)"/>
    <use xlink:href="#DejaVuSans-Bold-29" transform="translate(5474.169922 0)"/>
   </g>
  </g>
 </g>
 <defs>
  <clipPath id="pdb34e967d5">
   <rect x="37.199734" y="57.429172" width="268.790755" height="185.301172"/>
  </clipPath>
  <clipPath id="pe14998ef8c">
   <rect x="322.99049" y="57.429172" width="268.790755" height="185.301172"/>
  </clipPath>
  <clipPath id="p6294182836">
   <rect x="608.781245" y="57.429172" width="268.790755" height="185.301172"/>
  </clipPath>
 </defs>
</svg>
