<?xml version="1.0" encoding="utf-8" standalone="no"?>
<!DOCTYPE svg PUBLIC "-//W3C//DTD SVG 1.1//EN"
  "http://www.w3.org/Graphics/SVG/1.1/DTD/svg11.dtd">
<svg xmlns:xlink="http://www.w3.org/1999/xlink" width="592.2pt" height="325.8pt" viewBox="0 0 592.2 325.8" xmlns="http://www.w3.org/2000/svg" version="1.1">
 <metadata>
  <rdf:RDF xmlns:dc="http://purl.org/dc/elements/1.1/" xmlns:cc="http://creativecommons.org/ns#" xmlns:rdf="http://www.w3.org/1999/02/22-rdf-syntax-ns#">
   <cc:Work>
    <dc:type rdf:resource="http://purl.org/dc/dcmitype/StillImage"/>
    <dc:date>2026-06-13T07:38:14.579583</dc:date>
    <dc:format>image/svg+xml</dc:format>
    <dc:creator>
     <cc:Agent>
      <dc:title>Matplotlib v3.10.0, https://matplotlib.org/</dc:title>
     </cc:Agent>
    </dc:creator>
   </cc:Work>
  </rdf:RDF>
 </metadata>
 <defs>
  <style type="text/css">*{stroke-linejoin: round; stroke-linecap: butt}</style>
 </defs>
 <g id="figure_1">
  <g id="patch_1">
   <path d="M 0 325.8 
L 592.2 325.8 
L 592.2 0 
L 0 0 
L 0 325.8 
z
" style="fill: none"/>
  </g>
  <g id="axes_1">
   <g id="patch_2">
    <path d="M 23.781563 282.920781 
L 585 282.920781 
L 585 25.3575 
L 23.781563 25.3575 
L 23.781563 282.920781 
z
" style="fill: none"/>
   </g>
   <g id="matplotlib.axis_1">
    <g id="xtick_1">
     <g id="line2d_1">
      <path d="M 105.980223 282.920781 
L 105.980223 25.3575 
" clip-path="url(#pd4fcec6e42)" style="fill: none; stroke: #e9edf1; stroke-width: 0.9; stroke-linecap: square"/>
     </g>
     <g id="line2d_2">
      <defs>
       <path id="me82195ac90" d="M 0 0 
L 0 3.5 
" style="stroke: #000000; stroke-width: 0.8"/>
      </defs>
      <g>
       <use xlink:href="#me82195ac90" x="105.980223" y="282.920781" style="stroke: #000000; stroke-width: 0.8"/>
      </g>
     </g>
     <g id="text_1">
      <!-- 2 -->
      <g transform="translate(102.00366 299.418828) scale(0.125 -0.125)">
       <defs>
        <path id="DejaVuSans-32" d="M 1228 531 
L 3431 531 
L 3431 0 
L 469 0 
L 469 531 
Q 828 903 1448 1529 
Q 2069 2156 2228 2338 
Q 2531 2678 2651 2914 
Q 2772 3150 2772 3378 
Q 2772 3750 2511 3984 
Q 2250 4219 1831 4219 
Q 1534 4219 1204 4116 
Q 875 4013 500 3803 
L 500 4441 
Q 881 4594 1212 4672 
Q 1544 4750 1819 4750 
Q 2544 4750 2975 4387 
Q 3406 4025 3406 3419 
Q 3406 3131 3298 2873 
Q 3191 2616 2906 2266 
Q 2828 2175 2409 1742 
Q 1991 1309 1228 531 
z
" transform="scale(0.015625)"/>
       </defs>
       <use xlink:href="#DejaVuSans-32"/>
      </g>
     </g>
    </g>
    <g id="xtick_2">
     <g id="line2d_3">
      <path d="M 219.357685 282.920781 
L 219.357685 25.3575 
" clip-path="url(#pd4fcec6e42)" style="fill: none; stroke: #e9edf1; stroke-width: 0.9; stroke-linecap: square"/>
     </g>
     <g id="line2d_4">
      <g>
       <use xlink:href="#me82195ac90" x="219.357685" y="282.920781" style="stroke: #000000; stroke-width: 0.8"/>
      </g>
     </g>
     <g id="text_2">
      <!-- 4 -->
      <g transform="translate(215.381122 299.418828) scale(0.125 -0.125)">
       <defs>
        <path id="DejaVuSans-34" d="M 2419 4116 
L 825 1625 
L 2419 1625 
L 2419 4116 
z
M 2253 4666 
L 3047 4666 
L 3047 1625 
L 3713 1625 
L 3713 1100 
L 3047 1100 
L 3047 0 
L 2419 0 
L 2419 1100 
L 313 1100 
L 313 1709 
L 2253 4666 
z
" transform="scale(0.015625)"/>
       </defs>
       <use xlink:href="#DejaVuSans-34"/>
      </g>
     </g>
    </g>
    <g id="xtick_3">
     <g id="line2d_5">
      <path d="M 332.735147 282.920781 
L 332.735147 25.3575 
" clip-path="url(#pd4fcec6e42)" style="fill: none; stroke: #e9edf1; stroke-width: 0.9; stroke-linecap: square"/>
     </g>
     <g id="line2d_6">
      <g>
       <use xlink:href="#me82195ac90" x="332.735147" y="282.920781" style="stroke: #000000; stroke-width: 0.8"/>
      </g>
     </g>
     <g id="text_3">
      <!-- 6 -->
      <g transform="translate(328.758584 299.418828) scale(0.125 -0.125)">
       <defs>
        <path id="DejaVuSans-36" d="M 2113 2584 
Q 1688 2584 1439 2293 
Q 1191 2003 1191 1497 
Q 1191 994 1439 701 
Q 1688 409 2113 409 
Q 2538 409 2786 701 
Q 3034 994 3034 1497 
Q 3034 2003 2786 2293 
Q 2538 2584 2113 2584 
z
M 3366 4563 
L 3366 3988 
Q 3128 4100 2886 4159 
Q 2644 4219 2406 4219 
Q 1781 4219 1451 3797 
Q 1122 3375 1075 2522 
Q 1259 2794 1537 2939 
Q 1816 3084 2150 3084 
Q 2853 3084 3261 2657 
Q 3669 2231 3669 1497 
Q 3669 778 3244 343 
Q 2819 -91 2113 -91 
Q 1303 -91 875 529 
Q 447 1150 447 2328 
Q 447 3434 972 4092 
Q 1497 4750 2381 4750 
Q 2619 4750 2861 4703 
Q 3103 4656 3366 4563 
z
" transform="scale(0.015625)"/>
       </defs>
       <use xlink:href="#DejaVuSans-36"/>
      </g>
     </g>
    </g>
    <g id="xtick_4">
     <g id="line2d_7">
      <path d="M 446.112609 282.920781 
L 446.112609 25.3575 
" clip-path="url(#pd4fcec6e42)" style="fill: none; stroke: #e9edf1; stroke-width: 0.9; stroke-linecap: square"/>
     </g>
     <g id="line2d_8">
      <g>
       <use xlink:href="#me82195ac90" x="446.112609" y="282.920781" style="stroke: #000000; stroke-width: 0.8"/>
      </g>
     </g>
     <g id="text_4">
      <!-- 8 -->
      <g transform="translate(442.136046 299.418828) scale(0.125 -0.125)">
       <defs>
        <path id="DejaVuSans-38" d="M 2034 2216 
Q 1584 2216 1326 1975 
Q 1069 1734 1069 1313 
Q 1069 891 1326 650 
Q 1584 409 2034 409 
Q 2484 409 2743 651 
Q 3003 894 3003 1313 
Q 3003 1734 2745 1975 
Q 2488 2216 2034 2216 
z
M 1403 2484 
Q 997 2584 770 2862 
Q 544 3141 544 3541 
Q 544 4100 942 4425 
Q 1341 4750 2034 4750 
Q 2731 4750 3128 4425 
Q 3525 4100 3525 3541 
Q 3525 3141 3298 2862 
Q 3072 2584 2669 2484 
Q 3125 2378 3379 2068 
Q 3634 1759 3634 1313 
Q 3634 634 3220 271 
Q 2806 -91 2034 -91 
Q 1263 -91 848 271 
Q 434 634 434 1313 
Q 434 1759 690 2068 
Q 947 2378 1403 2484 
z
M 1172 3481 
Q 1172 3119 1398 2916 
Q 1625 2713 2034 2713 
Q 2441 2713 2670 2916 
Q 2900 3119 2900 3481 
Q 2900 3844 2670 4047 
Q 2441 4250 2034 4250 
Q 1625 4250 1398 4047 
Q 1172 3844 1172 3481 
z
" transform="scale(0.015625)"/>
       </defs>
       <use xlink:href="#DejaVuSans-38"/>
      </g>
     </g>
    </g>
    <g id="xtick_5">
     <g id="line2d_9">
      <path d="M 559.490071 282.920781 
L 559.490071 25.3575 
" clip-path="url(#pd4fcec6e42)" style="fill: none; stroke: #e9edf1; stroke-width: 0.9; stroke-linecap: square"/>
     </g>
     <g id="line2d_10">
      <g>
       <use xlink:href="#me82195ac90" x="559.490071" y="282.920781" style="stroke: #000000; stroke-width: 0.8"/>
      </g>
     </g>
     <g id="text_5">
      <!-- 10 -->
      <g transform="translate(551.536946 299.418828) scale(0.125 -0.125)">
       <defs>
        <path id="DejaVuSans-31" d="M 794 531 
L 1825 531 
L 1825 4091 
L 703 3866 
L 703 4441 
L 1819 4666 
L 2450 4666 
L 2450 531 
L 3481 531 
L 3481 0 
L 794 0 
L 794 531 
z
" transform="scale(0.015625)"/>
        <path id="DejaVuSans-30" d="M 2034 4250 
Q 1547 4250 1301 3770 
Q 1056 3291 1056 2328 
Q 1056 1369 1301 889 
Q 1547 409 2034 409 
Q 2525 409 2770 889 
Q 3016 1369 3016 2328 
Q 3016 3291 2770 3770 
Q 2525 4250 2034 4250 
z
M 2034 4750 
Q 2819 4750 3233 4129 
Q 3647 3509 3647 2328 
Q 3647 1150 3233 529 
Q 2819 -91 2034 -91 
Q 1250 -91 836 529 
Q 422 1150 422 2328 
Q 422 3509 836 4129 
Q 1250 4750 2034 4750 
z
" transform="scale(0.015625)"/>
       </defs>
       <use xlink:href="#DejaVuSans-31"/>
       <use xlink:href="#DejaVuSans-30" transform="translate(63.623047 0)"/>
      </g>
     </g>
    </g>
    <g id="text_6">
     <!-- Complejidad del modelo → -->
     <g transform="translate(217.970234 315.896406) scale(0.13 -0.13)">
      <defs>
       <path id="DejaVuSans-43" d="M 4122 4306 
L 4122 3641 
Q 3803 3938 3442 4084 
Q 3081 4231 2675 4231 
Q 1875 4231 1450 3742 
Q 1025 3253 1025 2328 
Q 1025 1406 1450 917 
Q 1875 428 2675 428 
Q 3081 428 3442 575 
Q 3803 722 4122 1019 
L 4122 359 
Q 3791 134 3420 21 
Q 3050 -91 2638 -91 
Q 1578 -91 968 557 
Q 359 1206 359 2328 
Q 359 3453 968 4101 
Q 1578 4750 2638 4750 
Q 3056 4750 3426 4639 
Q 3797 4528 4122 4306 
z
" transform="scale(0.015625)"/>
       <path id="DejaVuSans-6f" d="M 1959 3097 
Q 1497 3097 1228 2736 
Q 959 2375 959 1747 
Q 959 1119 1226 758 
Q 1494 397 1959 397 
Q 2419 397 2687 759 
Q 2956 1122 2956 1747 
Q 2956 2369 2687 2733 
Q 2419 3097 1959 3097 
z
M 1959 3584 
Q 2709 3584 3137 3096 
Q 3566 2609 3566 1747 
Q 3566 888 3137 398 
Q 2709 -91 1959 -91 
Q 1206 -91 779 398 
Q 353 888 353 1747 
Q 353 2609 779 3096 
Q 1206 3584 1959 3584 
z
" transform="scale(0.015625)"/>
       <path id="DejaVuSans-6d" d="M 3328 2828 
Q 3544 3216 3844 3400 
Q 4144 3584 4550 3584 
Q 5097 3584 5394 3201 
Q 5691 2819 5691 2113 
L 5691 0 
L 5113 0 
L 5113 2094 
Q 5113 2597 4934 2840 
Q 4756 3084 4391 3084 
Q 3944 3084 3684 2787 
Q 3425 2491 3425 1978 
L 3425 0 
L 2847 0 
L 2847 2094 
Q 2847 2600 2669 2842 
Q 2491 3084 2119 3084 
Q 1678 3084 1418 2786 
Q 1159 2488 1159 1978 
L 1159 0 
L 581 0 
L 581 3500 
L 1159 3500 
L 1159 2956 
Q 1356 3278 1631 3431 
Q 1906 3584 2284 3584 
Q 2666 3584 2933 3390 
Q 3200 3197 3328 2828 
z
" transform="scale(0.015625)"/>
       <path id="DejaVuSans-70" d="M 1159 525 
L 1159 -1331 
L 581 -1331 
L 581 3500 
L 1159 3500 
L 1159 2969 
Q 1341 3281 1617 3432 
Q 1894 3584 2278 3584 
Q 2916 3584 3314 3078 
Q 3713 2572 3713 1747 
Q 3713 922 3314 415 
Q 2916 -91 2278 -91 
Q 1894 -91 1617 61 
Q 1341 213 1159 525 
z
M 3116 1747 
Q 3116 2381 2855 2742 
Q 2594 3103 2138 3103 
Q 1681 3103 1420 2742 
Q 1159 2381 1159 1747 
Q 1159 1113 1420 752 
Q 1681 391 2138 391 
Q 2594 391 2855 752 
Q 3116 1113 3116 1747 
z
" transform="scale(0.015625)"/>
       <path id="DejaVuSans-6c" d="M 603 4863 
L 1178 4863 
L 1178 0 
L 603 0 
L 603 4863 
z
" transform="scale(0.015625)"/>
       <path id="DejaVuSans-65" d="M 3597 1894 
L 3597 1613 
L 953 1613 
Q 991 1019 1311 708 
Q 1631 397 2203 397 
Q 2534 397 2845 478 
Q 3156 559 3463 722 
L 3463 178 
Q 3153 47 2828 -22 
Q 2503 -91 2169 -91 
Q 1331 -91 842 396 
Q 353 884 353 1716 
Q 353 2575 817 3079 
Q 1281 3584 2069 3584 
Q 2775 3584 3186 3129 
Q 3597 2675 3597 1894 
z
M 3022 2063 
Q 3016 2534 2758 2815 
Q 2500 3097 2075 3097 
Q 1594 3097 1305 2825 
Q 1016 2553 972 2059 
L 3022 2063 
z
" transform="scale(0.015625)"/>
       <path id="DejaVuSans-6a" d="M 603 3500 
L 1178 3500 
L 1178 -63 
Q 1178 -731 923 -1031 
Q 669 -1331 103 -1331 
L -116 -1331 
L -116 -844 
L 38 -844 
Q 366 -844 484 -692 
Q 603 -541 603 -63 
L 603 3500 
z
M 603 4863 
L 1178 4863 
L 1178 4134 
L 603 4134 
L 603 4863 
z
" transform="scale(0.015625)"/>
       <path id="DejaVuSans-69" d="M 603 3500 
L 1178 3500 
L 1178 0 
L 603 0 
L 603 3500 
z
M 603 4863 
L 1178 4863 
L 1178 4134 
L 603 4134 
L 603 4863 
z
" transform="scale(0.015625)"/>
       <path id="DejaVuSans-64" d="M 2906 2969 
L 2906 4863 
L 3481 4863 
L 3481 0 
L 2906 0 
L 2906 525 
Q 2725 213 2448 61 
Q 2172 -91 1784 -91 
Q 1150 -91 751 415 
Q 353 922 353 1747 
Q 353 2572 751 3078 
Q 1150 3584 1784 3584 
Q 2172 3584 2448 3432 
Q 2725 3281 2906 2969 
z
M 947 1747 
Q 947 1113 1208 752 
Q 1469 391 1925 391 
Q 2381 391 2643 752 
Q 2906 1113 2906 1747 
Q 2906 2381 2643 2742 
Q 2381 3103 1925 3103 
Q 1469 3103 1208 2742 
Q 947 2381 947 1747 
z
" transform="scale(0.015625)"/>
       <path id="DejaVuSans-61" d="M 2194 1759 
Q 1497 1759 1228 1600 
Q 959 1441 959 1056 
Q 959 750 1161 570 
Q 1363 391 1709 391 
Q 2188 391 2477 730 
Q 2766 1069 2766 1631 
L 2766 1759 
L 2194 1759 
z
M 3341 1997 
L 3341 0 
L 2766 0 
L 2766 531 
Q 2569 213 2275 61 
Q 1981 -91 1556 -91 
Q 1019 -91 701 211 
Q 384 513 384 1019 
Q 384 1609 779 1909 
Q 1175 2209 1959 2209 
L 2766 2209 
L 2766 2266 
Q 2766 2663 2505 2880 
Q 2244 3097 1772 3097 
Q 1472 3097 1187 3025 
Q 903 2953 641 2809 
L 641 3341 
Q 956 3463 1253 3523 
Q 1550 3584 1831 3584 
Q 2591 3584 2966 3190 
Q 3341 2797 3341 1997 
z
" transform="scale(0.015625)"/>
       <path id="DejaVuSans-20" transform="scale(0.015625)"/>
       <path id="DejaVuSans-2192" d="M 5050 2147 
L 5050 1866 
L 3822 638 
L 3447 1013 
L 4175 1741 
L 366 1741 
L 366 2272 
L 4175 2272 
L 3447 3000 
L 3822 3375 
L 5050 2147 
z
" transform="scale(0.015625)"/>
      </defs>
      <use xlink:href="#DejaVuSans-43"/>
      <use xlink:href="#DejaVuSans-6f" transform="translate(69.824219 0)"/>
      <use xlink:href="#DejaVuSans-6d" transform="translate(131.005859 0)"/>
      <use xlink:href="#DejaVuSans-70" transform="translate(228.417969 0)"/>
      <use xlink:href="#DejaVuSans-6c" transform="translate(291.894531 0)"/>
      <use xlink:href="#DejaVuSans-65" transform="translate(319.677734 0)"/>
      <use xlink:href="#DejaVuSans-6a" transform="translate(381.201172 0)"/>
      <use xlink:href="#DejaVuSans-69" transform="translate(408.984375 0)"/>
      <use xlink:href="#DejaVuSans-64" transform="translate(436.767578 0)"/>
      <use xlink:href="#DejaVuSans-61" transform="translate(500.244141 0)"/>
      <use xlink:href="#DejaVuSans-64" transform="translate(561.523438 0)"/>
      <use xlink:href="#DejaVuSans-20" transform="translate(625 0)"/>
      <use xlink:href="#DejaVuSans-64" transform="translate(656.787109 0)"/>
      <use xlink:href="#DejaVuSans-65" transform="translate(720.263672 0)"/>
      <use xlink:href="#DejaVuSans-6c" transform="translate(781.787109 0)"/>
      <use xlink:href="#DejaVuSans-20" transform="translate(809.570312 0)"/>
      <use xlink:href="#DejaVuSans-6d" transform="translate(841.357422 0)"/>
      <use xlink:href="#DejaVuSans-6f" transform="translate(938.769531 0)"/>
      <use xlink:href="#DejaVuSans-64" transform="translate(999.951172 0)"/>
      <use xlink:href="#DejaVuSans-65" transform="translate(1063.427734 0)"/>
      <use xlink:href="#DejaVuSans-6c" transform="translate(1124.951172 0)"/>
      <use xlink:href="#DejaVuSans-6f" transform="translate(1152.734375 0)"/>
      <use xlink:href="#DejaVuSans-20" transform="translate(1213.916016 0)"/>
      <use xlink:href="#DejaVuSans-2192" transform="translate(1245.703125 0)"/>
     </g>
    </g>
   </g>
   <g id="matplotlib.axis_2">
    <g id="text_7">
     <!-- Error -->
     <g transform="translate(17.077969 169.979844) rotate(-90) scale(0.13 -0.13)">
      <defs>
       <path id="DejaVuSans-45" d="M 628 4666 
L 3578 4666 
L 3578 4134 
L 1259 4134 
L 1259 2753 
L 3481 2753 
L 3481 2222 
L 1259 2222 
L 1259 531 
L 3634 531 
L 3634 0 
L 628 0 
L 628 4666 
z
" transform="scale(0.015625)"/>
       <path id="DejaVuSans-72" d="M 2631 2963 
Q 2534 3019 2420 3045 
Q 2306 3072 2169 3072 
Q 1681 3072 1420 2755 
Q 1159 2438 1159 1844 
L 1159 0 
L 581 0 
L 581 3500 
L 1159 3500 
L 1159 2956 
Q 1341 3275 1631 3429 
Q 1922 3584 2338 3584 
Q 2397 3584 2469 3576 
Q 2541 3569 2628 3553 
L 2631 2963 
z
" transform="scale(0.015625)"/>
      </defs>
      <use xlink:href="#DejaVuSans-45"/>
      <use xlink:href="#DejaVuSans-72" transform="translate(63.183594 0)"/>
      <use xlink:href="#DejaVuSans-72" transform="translate(102.546875 0)"/>
      <use xlink:href="#DejaVuSans-6f" transform="translate(141.410156 0)"/>
      <use xlink:href="#DejaVuSans-72" transform="translate(202.591797 0)"/>
     </g>
    </g>
   </g>
   <g id="patch_3">
    <path d="M 49.291491 282.920781 
L 185.344446 282.920781 
L 185.344446 25.3575 
L 49.291491 25.3575 
z
" clip-path="url(#pd4fcec6e42)" style="fill: #3498db; opacity: 0.07; stroke: #3498db; stroke-linejoin: miter"/>
   </g>
   <g id="patch_4">
    <path d="M 389.423878 282.920781 
L 559.490071 282.920781 
L 559.490071 25.3575 
L 389.423878 25.3575 
z
" clip-path="url(#pd4fcec6e42)" style="fill: #c0392b; opacity: 0.07; stroke: #c0392b; stroke-linejoin: miter"/>
   </g>
   <g id="line2d_11">
    <path d="M 49.291491 57.265727 
L 54.445012 65.99358 
L 59.598533 74.371589 
L 64.752054 82.413777 
L 69.905575 90.133606 
L 75.059097 97.543996 
L 80.212618 104.657351 
L 85.366139 111.485577 
L 90.51966 118.040102 
L 95.673181 124.331899 
L 100.826702 130.371498 
L 105.980223 136.169008 
L 111.133744 141.734133 
L 116.287265 147.076188 
L 121.440786 152.204113 
L 126.594307 157.126493 
L 131.747828 161.851567 
L 136.901349 166.387242 
L 142.05487 170.741111 
L 147.208391 174.920461 
L 152.361912 178.932288 
L 157.515433 182.783306 
L 162.668954 186.479962 
L 167.822475 190.028442 
L 172.975996 193.434687 
L 178.129517 196.704396 
L 183.283038 199.843044 
L 188.436559 202.855884 
L 193.59008 205.747958 
L 198.743601 208.524108 
L 203.897122 211.188979 
L 209.050643 213.747033 
L 214.204164 216.202551 
L 219.357685 218.559642 
L 224.511206 220.822253 
L 229.664727 222.994171 
L 234.818248 225.07903 
L 239.971769 227.08032 
L 245.12529 229.001391 
L 250.278811 230.845459 
L 255.432332 232.61561 
L 260.585853 234.314807 
L 265.739374 235.945894 
L 270.892895 237.511602 
L 276.046416 239.01455 
L 281.199937 240.457254 
L 286.353458 241.84213 
L 291.506979 243.171494 
L 296.6605 244.447574 
L 301.814021 245.672503 
L 306.967542 246.848332 
L 312.121063 247.977031 
L 317.274584 249.060486 
L 322.428105 250.100513 
L 327.581626 251.098852 
L 332.735147 252.057174 
L 337.888668 252.977083 
L 343.042189 253.860119 
L 348.19571 254.707759 
L 353.349231 255.521423 
L 358.502752 256.302473 
L 363.656273 257.052215 
L 368.809794 257.771905 
L 373.963315 258.462746 
L 379.116836 259.125897 
L 384.270357 259.762466 
L 389.423878 260.373519 
L 394.577399 260.960079 
L 399.73092 261.523127 
L 404.884441 262.063607 
L 410.037962 262.582422 
L 415.191483 263.080441 
L 420.345004 263.558497 
L 425.498525 264.017392 
L 430.652046 264.457892 
L 435.805567 264.880736 
L 440.959088 265.28663 
L 446.112609 265.676255 
L 451.26613 266.050262 
L 456.419651 266.409277 
L 461.573172 266.753902 
L 466.726693 267.084713 
L 471.880214 267.402264 
L 477.033735 267.707086 
L 482.187256 267.99969 
L 487.340777 268.280566 
L 492.494298 268.550183 
L 497.647819 268.808992 
L 502.80134 269.057428 
L 507.954861 269.295905 
L 513.108382 269.524824 
L 518.261903 269.744566 
L 523.415424 269.955501 
L 528.568945 270.15798 
L 533.722466 270.352344 
L 538.875987 270.538916 
L 544.029508 270.71801 
L 549.183029 270.889925 
L 554.33655 271.05495 
L 559.490071 271.213359 
" clip-path="url(#pd4fcec6e42)" style="fill: none; stroke: #3498db; stroke-width: 3; stroke-linecap: square"/>
   </g>
   <g id="line2d_12">
    <path d="M 49.291491 37.064922 
L 54.445012 47.427769 
L 59.598533 57.371786 
L 64.752054 66.910995 
L 69.905575 76.058856 
L 75.059097 84.828292 
L 80.212618 93.231706 
L 85.366139 101.281004 
L 90.51966 108.987614 
L 95.673181 116.362509 
L 100.826702 123.416218 
L 105.980223 130.158851 
L 111.133744 136.600113 
L 116.287265 142.749316 
L 121.440786 148.615404 
L 126.594307 154.206959 
L 131.747828 159.53222 
L 136.901349 164.599096 
L 142.05487 169.415179 
L 147.208391 173.987756 
L 152.361912 178.323822 
L 157.515433 182.430092 
L 162.668954 186.313013 
L 167.822475 189.978771 
L 172.975996 193.433307 
L 178.129517 196.682321 
L 183.283038 199.731285 
L 188.436559 202.585455 
L 193.59008 205.249872 
L 198.743601 207.729376 
L 203.897122 210.028616 
L 209.050643 212.152051 
L 214.204164 214.103963 
L 219.357685 215.888462 
L 224.511206 217.509492 
L 229.664727 218.970842 
L 234.818248 220.276147 
L 239.971769 221.428896 
L 245.12529 222.432439 
L 250.278811 223.289991 
L 255.432332 224.00464 
L 260.585853 224.579347 
L 265.739374 225.016957 
L 270.892895 225.3202 
L 276.046416 225.491697 
L 281.199937 225.533963 
L 286.353458 225.449413 
L 291.506979 225.240366 
L 296.6605 224.909045 
L 301.814021 224.457588 
L 306.967542 223.888043 
L 312.121063 223.202381 
L 317.274584 222.402488 
L 322.428105 221.49018 
L 327.581626 220.467197 
L 332.735147 219.33521 
L 337.888668 218.095822 
L 343.042189 216.750574 
L 348.19571 215.300944 
L 353.349231 213.74835 
L 358.502752 212.094155 
L 363.656273 210.339665 
L 368.809794 208.486136 
L 373.963315 206.534771 
L 379.116836 204.486728 
L 384.270357 202.343117 
L 389.423878 200.105003 
L 394.577399 197.773408 
L 399.73092 195.349315 
L 404.884441 192.833665 
L 410.037962 190.227364 
L 415.191483 187.53128 
L 420.345004 184.746247 
L 425.498525 181.873064 
L 430.652046 178.9125 
L 435.805567 175.865292 
L 440.959088 172.732147 
L 446.112609 169.513746 
L 451.26613 166.210741 
L 456.419651 162.823756 
L 461.573172 159.353394 
L 466.726693 155.800231 
L 471.880214 152.164821 
L 477.033735 148.447695 
L 482.187256 144.649363 
L 487.340777 140.770316 
L 492.494298 136.811023 
L 497.647819 132.771936 
L 502.80134 128.653488 
L 507.954861 124.456095 
L 513.108382 120.180155 
L 518.261903 115.826052 
L 523.415424 111.394154 
L 528.568945 106.884814 
L 533.722466 102.298371 
L 538.875987 97.63515 
L 544.029508 92.895463 
L 549.183029 88.079611 
L 554.33655 83.18788 
L 559.490071 78.220548 
" clip-path="url(#pd4fcec6e42)" style="fill: none; stroke: #8b1538; stroke-width: 3; stroke-linecap: square"/>
   </g>
   <g id="line2d_13">
    <path d="M 281.199937 282.920781 
L 281.199937 25.3575 
" clip-path="url(#pd4fcec6e42)" style="fill: none; stroke-dasharray: 5.92,2.56; stroke-dashoffset: 0; stroke: #2e8b57; stroke-width: 1.6"/>
   </g>
   <g id="patch_5">
    <path d="M 23.781563 282.920781 
L 23.781563 25.3575 
" style="fill: none; stroke: #c9ced3; stroke-width: 1.1; stroke-linejoin: miter; stroke-linecap: square"/>
   </g>
   <g id="patch_6">
    <path d="M 23.781563 282.920781 
L 585 282.920781 
" style="fill: none; stroke: #c9ced3; stroke-width: 1.1; stroke-linejoin: miter; stroke-linecap: square"/>
   </g>
   <g id="text_8">
    <!-- Subajuste -->
    <g style="fill: #3498db" transform="translate(80.690971 44.607381) scale(0.11 -0.11)">
     <defs>
      <path id="DejaVuSans-Bold-53" d="M 3834 4519 
L 3834 3531 
Q 3450 3703 3084 3790 
Q 2719 3878 2394 3878 
Q 1963 3878 1756 3759 
Q 1550 3641 1550 3391 
Q 1550 3203 1689 3098 
Q 1828 2994 2194 2919 
L 2706 2816 
Q 3484 2659 3812 2340 
Q 4141 2022 4141 1434 
Q 4141 663 3683 286 
Q 3225 -91 2284 -91 
Q 1841 -91 1394 -6 
Q 947 78 500 244 
L 500 1259 
Q 947 1022 1364 901 
Q 1781 781 2169 781 
Q 2563 781 2772 912 
Q 2981 1044 2981 1288 
Q 2981 1506 2839 1625 
Q 2697 1744 2272 1838 
L 1806 1941 
Q 1106 2091 782 2419 
Q 459 2747 459 3303 
Q 459 4000 909 4375 
Q 1359 4750 2203 4750 
Q 2588 4750 2994 4692 
Q 3400 4634 3834 4519 
z
" transform="scale(0.015625)"/>
      <path id="DejaVuSans-Bold-75" d="M 500 1363 
L 500 3500 
L 1625 3500 
L 1625 3150 
Q 1625 2866 1622 2436 
Q 1619 2006 1619 1863 
Q 1619 1441 1641 1255 
Q 1663 1069 1716 984 
Q 1784 875 1895 815 
Q 2006 756 2150 756 
Q 2500 756 2700 1025 
Q 2900 1294 2900 1772 
L 2900 3500 
L 4019 3500 
L 4019 0 
L 2900 0 
L 2900 506 
Q 2647 200 2364 54 
Q 2081 -91 1741 -91 
Q 1134 -91 817 281 
Q 500 653 500 1363 
z
" transform="scale(0.015625)"/>
      <path id="DejaVuSans-Bold-62" d="M 2400 722 
Q 2759 722 2948 984 
Q 3138 1247 3138 1747 
Q 3138 2247 2948 2509 
Q 2759 2772 2400 2772 
Q 2041 2772 1848 2508 
Q 1656 2244 1656 1747 
Q 1656 1250 1848 986 
Q 2041 722 2400 722 
z
M 1656 2988 
Q 1888 3294 2169 3439 
Q 2450 3584 2816 3584 
Q 3463 3584 3878 3070 
Q 4294 2556 4294 1747 
Q 4294 938 3878 423 
Q 3463 -91 2816 -91 
Q 2450 -91 2169 54 
Q 1888 200 1656 506 
L 1656 0 
L 538 0 
L 538 4863 
L 1656 4863 
L 1656 2988 
z
" transform="scale(0.015625)"/>
      <path id="DejaVuSans-Bold-61" d="M 2106 1575 
Q 1756 1575 1579 1456 
Q 1403 1338 1403 1106 
Q 1403 894 1545 773 
Q 1688 653 1941 653 
Q 2256 653 2472 879 
Q 2688 1106 2688 1447 
L 2688 1575 
L 2106 1575 
z
M 3816 1997 
L 3816 0 
L 2688 0 
L 2688 519 
Q 2463 200 2181 54 
Q 1900 -91 1497 -91 
Q 953 -91 614 226 
Q 275 544 275 1050 
Q 275 1666 698 1953 
Q 1122 2241 2028 2241 
L 2688 2241 
L 2688 2328 
Q 2688 2594 2478 2717 
Q 2269 2841 1825 2841 
Q 1466 2841 1156 2769 
Q 847 2697 581 2553 
L 581 3406 
Q 941 3494 1303 3539 
Q 1666 3584 2028 3584 
Q 2975 3584 3395 3211 
Q 3816 2838 3816 1997 
z
" transform="scale(0.015625)"/>
      <path id="DejaVuSans-Bold-6a" d="M 538 3500 
L 1656 3500 
L 1656 63 
Q 1656 -641 1318 -1011 
Q 981 -1381 341 -1381 
L -213 -1381 
L -213 -647 
L -19 -647 
Q 300 -647 419 -503 
Q 538 -359 538 63 
L 538 3500 
z
M 538 4863 
L 1656 4863 
L 1656 3950 
L 538 3950 
L 538 4863 
z
" transform="scale(0.015625)"/>
      <path id="DejaVuSans-Bold-73" d="M 3272 3391 
L 3272 2541 
Q 2913 2691 2578 2766 
Q 2244 2841 1947 2841 
Q 1628 2841 1473 2761 
Q 1319 2681 1319 2516 
Q 1319 2381 1436 2309 
Q 1553 2238 1856 2203 
L 2053 2175 
Q 2913 2066 3209 1816 
Q 3506 1566 3506 1031 
Q 3506 472 3093 190 
Q 2681 -91 1863 -91 
Q 1516 -91 1145 -36 
Q 775 19 384 128 
L 384 978 
Q 719 816 1070 734 
Q 1422 653 1784 653 
Q 2113 653 2278 743 
Q 2444 834 2444 1013 
Q 2444 1163 2330 1236 
Q 2216 1309 1875 1350 
L 1678 1375 
Q 931 1469 631 1722 
Q 331 1975 331 2491 
Q 331 3047 712 3315 
Q 1094 3584 1881 3584 
Q 2191 3584 2531 3537 
Q 2872 3491 3272 3391 
z
" transform="scale(0.015625)"/>
      <path id="DejaVuSans-Bold-74" d="M 1759 4494 
L 1759 3500 
L 2913 3500 
L 2913 2700 
L 1759 2700 
L 1759 1216 
Q 1759 972 1856 886 
Q 1953 800 2241 800 
L 2816 800 
L 2816 0 
L 1856 0 
Q 1194 0 917 276 
Q 641 553 641 1216 
L 641 2700 
L 84 2700 
L 84 3500 
L 641 3500 
L 641 4494 
L 1759 4494 
z
" transform="scale(0.015625)"/>
      <path id="DejaVuSans-Bold-65" d="M 4031 1759 
L 4031 1441 
L 1416 1441 
Q 1456 1047 1700 850 
Q 1944 653 2381 653 
Q 2734 653 3104 758 
Q 3475 863 3866 1075 
L 3866 213 
Q 3469 63 3072 -14 
Q 2675 -91 2278 -91 
Q 1328 -91 801 392 
Q 275 875 275 1747 
Q 275 2603 792 3093 
Q 1309 3584 2216 3584 
Q 3041 3584 3536 3087 
Q 4031 2591 4031 1759 
z
M 2881 2131 
Q 2881 2450 2695 2645 
Q 2509 2841 2209 2841 
Q 1884 2841 1681 2658 
Q 1478 2475 1428 2131 
L 2881 2131 
z
" transform="scale(0.015625)"/>
     </defs>
     <use xlink:href="#DejaVuSans-Bold-53"/>
     <use xlink:href="#DejaVuSans-Bold-75" transform="translate(72.021484 0)"/>
     <use xlink:href="#DejaVuSans-Bold-62" transform="translate(143.212891 0)"/>
     <use xlink:href="#DejaVuSans-Bold-61" transform="translate(214.794922 0)"/>
     <use xlink:href="#DejaVuSans-Bold-6a" transform="translate(282.275391 0)"/>
     <use xlink:href="#DejaVuSans-Bold-75" transform="translate(316.552734 0)"/>
     <use xlink:href="#DejaVuSans-Bold-73" transform="translate(387.744141 0)"/>
     <use xlink:href="#DejaVuSans-Bold-74" transform="translate(447.265625 0)"/>
     <use xlink:href="#DejaVuSans-Bold-65" transform="translate(495.068359 0)"/>
    </g>
    <!-- (alto sesgo) -->
    <g style="fill: #3498db" transform="translate(74.709721 57.010912) scale(0.11 -0.11)">
     <defs>
      <path id="DejaVuSans-Bold-28" d="M 2413 -844 
L 1484 -844 
Q 1006 -72 778 623 
Q 550 1319 550 2003 
Q 550 2688 779 3389 
Q 1009 4091 1484 4856 
L 2413 4856 
Q 2013 4116 1813 3408 
Q 1613 2700 1613 2009 
Q 1613 1319 1811 609 
Q 2009 -100 2413 -844 
z
" transform="scale(0.015625)"/>
      <path id="DejaVuSans-Bold-6c" d="M 538 4863 
L 1656 4863 
L 1656 0 
L 538 0 
L 538 4863 
z
" transform="scale(0.015625)"/>
      <path id="DejaVuSans-Bold-6f" d="M 2203 2784 
Q 1831 2784 1636 2517 
Q 1441 2250 1441 1747 
Q 1441 1244 1636 976 
Q 1831 709 2203 709 
Q 2569 709 2762 976 
Q 2956 1244 2956 1747 
Q 2956 2250 2762 2517 
Q 2569 2784 2203 2784 
z
M 2203 3584 
Q 3106 3584 3614 3096 
Q 4122 2609 4122 1747 
Q 4122 884 3614 396 
Q 3106 -91 2203 -91 
Q 1297 -91 786 396 
Q 275 884 275 1747 
Q 275 2609 786 3096 
Q 1297 3584 2203 3584 
z
" transform="scale(0.015625)"/>
      <path id="DejaVuSans-Bold-20" transform="scale(0.015625)"/>
      <path id="DejaVuSans-Bold-67" d="M 2919 594 
Q 2688 288 2409 144 
Q 2131 0 1766 0 
Q 1125 0 706 504 
Q 288 1009 288 1791 
Q 288 2575 706 3076 
Q 1125 3578 1766 3578 
Q 2131 3578 2409 3434 
Q 2688 3291 2919 2981 
L 2919 3500 
L 4044 3500 
L 4044 353 
Q 4044 -491 3511 -936 
Q 2978 -1381 1966 -1381 
Q 1638 -1381 1331 -1331 
Q 1025 -1281 716 -1178 
L 716 -306 
Q 1009 -475 1290 -558 
Q 1572 -641 1856 -641 
Q 2406 -641 2662 -400 
Q 2919 -159 2919 353 
L 2919 594 
z
M 2181 2772 
Q 1834 2772 1640 2515 
Q 1447 2259 1447 1791 
Q 1447 1309 1634 1061 
Q 1822 813 2181 813 
Q 2531 813 2725 1069 
Q 2919 1325 2919 1791 
Q 2919 2259 2725 2515 
Q 2531 2772 2181 2772 
z
" transform="scale(0.015625)"/>
      <path id="DejaVuSans-Bold-29" d="M 513 -844 
Q 913 -100 1113 609 
Q 1313 1319 1313 2009 
Q 1313 2700 1113 3408 
Q 913 4116 513 4856 
L 1441 4856 
Q 1916 4091 2145 3389 
Q 2375 2688 2375 2003 
Q 2375 1319 2147 623 
Q 1919 -72 1441 -844 
L 513 -844 
z
" transform="scale(0.015625)"/>
     </defs>
     <use xlink:href="#DejaVuSans-Bold-28"/>
     <use xlink:href="#DejaVuSans-Bold-61" transform="translate(45.703125 0)"/>
     <use xlink:href="#DejaVuSans-Bold-6c" transform="translate(113.183594 0)"/>
     <use xlink:href="#DejaVuSans-Bold-74" transform="translate(147.460938 0)"/>
     <use xlink:href="#DejaVuSans-Bold-6f" transform="translate(195.263672 0)"/>
     <use xlink:href="#DejaVuSans-Bold-20" transform="translate(263.964844 0)"/>
     <use xlink:href="#DejaVuSans-Bold-73" transform="translate(298.779297 0)"/>
     <use xlink:href="#DejaVuSans-Bold-65" transform="translate(358.300781 0)"/>
     <use xlink:href="#DejaVuSans-Bold-73" transform="translate(426.123047 0)"/>
     <use xlink:href="#DejaVuSans-Bold-67" transform="translate(485.644531 0)"/>
     <use xlink:href="#DejaVuSans-Bold-6f" transform="translate(557.226562 0)"/>
     <use xlink:href="#DejaVuSans-Bold-29" transform="translate(625.927734 0)"/>
    </g>
   </g>
   <g id="text_9">
    <!-- Sobreajuste -->
    <g style="fill: #c0392b" transform="translate(437.192756 44.607381) scale(0.11 -0.11)">
     <defs>
      <path id="DejaVuSans-Bold-72" d="M 3138 2547 
Q 2991 2616 2845 2648 
Q 2700 2681 2553 2681 
Q 2122 2681 1889 2404 
Q 1656 2128 1656 1613 
L 1656 0 
L 538 0 
L 538 3500 
L 1656 3500 
L 1656 2925 
Q 1872 3269 2151 3426 
Q 2431 3584 2822 3584 
Q 2878 3584 2943 3579 
Q 3009 3575 3134 3559 
L 3138 2547 
z
" transform="scale(0.015625)"/>
     </defs>
     <use xlink:href="#DejaVuSans-Bold-53"/>
     <use xlink:href="#DejaVuSans-Bold-6f" transform="translate(72.021484 0)"/>
     <use xlink:href="#DejaVuSans-Bold-62" transform="translate(140.722656 0)"/>
     <use xlink:href="#DejaVuSans-Bold-72" transform="translate(212.304688 0)"/>
     <use xlink:href="#DejaVuSans-Bold-65" transform="translate(261.621094 0)"/>
     <use xlink:href="#DejaVuSans-Bold-61" transform="translate(329.443359 0)"/>
     <use xlink:href="#DejaVuSans-Bold-6a" transform="translate(396.923828 0)"/>
     <use xlink:href="#DejaVuSans-Bold-75" transform="translate(431.201172 0)"/>
     <use xlink:href="#DejaVuSans-Bold-73" transform="translate(502.392578 0)"/>
     <use xlink:href="#DejaVuSans-Bold-74" transform="translate(561.914062 0)"/>
     <use xlink:href="#DejaVuSans-Bold-65" transform="translate(609.716797 0)"/>
    </g>
    <!-- (alta varianza) -->
    <g style="fill: #c0392b" transform="translate(429.14299 57.010912) scale(0.11 -0.11)">
     <defs>
      <path id="DejaVuSans-Bold-76" d="M 97 3500 
L 1216 3500 
L 2088 1081 
L 2956 3500 
L 4078 3500 
L 2700 0 
L 1472 0 
L 97 3500 
z
" transform="scale(0.015625)"/>
      <path id="DejaVuSans-Bold-69" d="M 538 3500 
L 1656 3500 
L 1656 0 
L 538 0 
L 538 3500 
z
M 538 4863 
L 1656 4863 
L 1656 3950 
L 538 3950 
L 538 4863 
z
" transform="scale(0.015625)"/>
      <path id="DejaVuSans-Bold-6e" d="M 4056 2131 
L 4056 0 
L 2931 0 
L 2931 347 
L 2931 1631 
Q 2931 2084 2911 2256 
Q 2891 2428 2841 2509 
Q 2775 2619 2662 2680 
Q 2550 2741 2406 2741 
Q 2056 2741 1856 2470 
Q 1656 2200 1656 1722 
L 1656 0 
L 538 0 
L 538 3500 
L 1656 3500 
L 1656 2988 
Q 1909 3294 2193 3439 
Q 2478 3584 2822 3584 
Q 3428 3584 3742 3212 
Q 4056 2841 4056 2131 
z
" transform="scale(0.015625)"/>
      <path id="DejaVuSans-Bold-7a" d="M 366 3500 
L 3419 3500 
L 3419 2719 
L 1575 800 
L 3419 800 
L 3419 0 
L 288 0 
L 288 781 
L 2131 2700 
L 366 2700 
L 366 3500 
z
" transform="scale(0.015625)"/>
     </defs>
     <use xlink:href="#DejaVuSans-Bold-28"/>
     <use xlink:href="#DejaVuSans-Bold-61" transform="translate(45.703125 0)"/>
     <use xlink:href="#DejaVuSans-Bold-6c" transform="translate(113.183594 0)"/>
     <use xlink:href="#DejaVuSans-Bold-74" transform="translate(147.460938 0)"/>
     <use xlink:href="#DejaVuSans-Bold-61" transform="translate(195.263672 0)"/>
     <use xlink:href="#DejaVuSans-Bold-20" transform="translate(262.744141 0)"/>
     <use xlink:href="#DejaVuSans-Bold-76" transform="translate(297.558594 0)"/>
     <use xlink:href="#DejaVuSans-Bold-61" transform="translate(362.744141 0)"/>
     <use xlink:href="#DejaVuSans-Bold-72" transform="translate(430.224609 0)"/>
     <use xlink:href="#DejaVuSans-Bold-69" transform="translate(479.541016 0)"/>
     <use xlink:href="#DejaVuSans-Bold-61" transform="translate(513.818359 0)"/>
     <use xlink:href="#DejaVuSans-Bold-6e" transform="translate(581.298828 0)"/>
     <use xlink:href="#DejaVuSans-Bold-7a" transform="translate(652.490234 0)"/>
     <use xlink:href="#DejaVuSans-Bold-61" transform="translate(710.693359 0)"/>
     <use xlink:href="#DejaVuSans-Bold-29" transform="translate(778.173828 0)"/>
    </g>
   </g>
   <g id="patch_7">
    <path d="M 329.868779 185.560962 
Q 306.308176 204.911905 283.61155 223.553241 
" style="fill: none; stroke: #2e8b57; stroke-linecap: round"/>
    <path d="M 288.408039 222.460679 
L 283.61155 223.553241 
L 285.615393 219.060513 
" style="fill: none; stroke: #2e8b57; stroke-linecap: round"/>
   </g>
   <g id="text_10">
    <!-- Punto óptimo -->
    <g style="fill: #2e8b57" transform="translate(303.875429 180.002472) scale(0.11 -0.11)">
     <defs>
      <path id="DejaVuSans-50" d="M 1259 4147 
L 1259 2394 
L 2053 2394 
Q 2494 2394 2734 2622 
Q 2975 2850 2975 3272 
Q 2975 3691 2734 3919 
Q 2494 4147 2053 4147 
L 1259 4147 
z
M 628 4666 
L 2053 4666 
Q 2838 4666 3239 4311 
Q 3641 3956 3641 3272 
Q 3641 2581 3239 2228 
Q 2838 1875 2053 1875 
L 1259 1875 
L 1259 0 
L 628 0 
L 628 4666 
z
" transform="scale(0.015625)"/>
      <path id="DejaVuSans-75" d="M 544 1381 
L 544 3500 
L 1119 3500 
L 1119 1403 
Q 1119 906 1312 657 
Q 1506 409 1894 409 
Q 2359 409 2629 706 
Q 2900 1003 2900 1516 
L 2900 3500 
L 3475 3500 
L 3475 0 
L 2900 0 
L 2900 538 
Q 2691 219 2414 64 
Q 2138 -91 1772 -91 
Q 1169 -91 856 284 
Q 544 659 544 1381 
z
M 1991 3584 
L 1991 3584 
z
" transform="scale(0.015625)"/>
      <path id="DejaVuSans-6e" d="M 3513 2113 
L 3513 0 
L 2938 0 
L 2938 2094 
Q 2938 2591 2744 2837 
Q 2550 3084 2163 3084 
Q 1697 3084 1428 2787 
Q 1159 2491 1159 1978 
L 1159 0 
L 581 0 
L 581 3500 
L 1159 3500 
L 1159 2956 
Q 1366 3272 1645 3428 
Q 1925 3584 2291 3584 
Q 2894 3584 3203 3211 
Q 3513 2838 3513 2113 
z
" transform="scale(0.015625)"/>
      <path id="DejaVuSans-74" d="M 1172 4494 
L 1172 3500 
L 2356 3500 
L 2356 3053 
L 1172 3053 
L 1172 1153 
Q 1172 725 1289 603 
Q 1406 481 1766 481 
L 2356 481 
L 2356 0 
L 1766 0 
Q 1100 0 847 248 
Q 594 497 594 1153 
L 594 3053 
L 172 3053 
L 172 3500 
L 594 3500 
L 594 4494 
L 1172 4494 
z
" transform="scale(0.015625)"/>
      <path id="DejaVuSans-f3" d="M 1959 3097 
Q 1497 3097 1228 2736 
Q 959 2375 959 1747 
Q 959 1119 1226 758 
Q 1494 397 1959 397 
Q 2419 397 2687 759 
Q 2956 1122 2956 1747 
Q 2956 2369 2687 2733 
Q 2419 3097 1959 3097 
z
M 1959 3584 
Q 2709 3584 3137 3096 
Q 3566 2609 3566 1747 
Q 3566 888 3137 398 
Q 2709 -91 1959 -91 
Q 1206 -91 779 398 
Q 353 888 353 1747 
Q 353 2609 779 3096 
Q 1206 3584 1959 3584 
z
M 2394 5119 
L 3016 5119 
L 1998 3944 
L 1519 3944 
L 2394 5119 
z
" transform="scale(0.015625)"/>
     </defs>
     <use xlink:href="#DejaVuSans-50"/>
     <use xlink:href="#DejaVuSans-75" transform="translate(58.552734 0)"/>
     <use xlink:href="#DejaVuSans-6e" transform="translate(121.931641 0)"/>
     <use xlink:href="#DejaVuSans-74" transform="translate(185.310547 0)"/>
     <use xlink:href="#DejaVuSans-6f" transform="translate(224.519531 0)"/>
     <use xlink:href="#DejaVuSans-20" transform="translate(285.701172 0)"/>
     <use xlink:href="#DejaVuSans-f3" transform="translate(317.488281 0)"/>
     <use xlink:href="#DejaVuSans-70" transform="translate(378.669922 0)"/>
     <use xlink:href="#DejaVuSans-74" transform="translate(442.146484 0)"/>
     <use xlink:href="#DejaVuSans-69" transform="translate(481.355469 0)"/>
     <use xlink:href="#DejaVuSans-6d" transform="translate(509.138672 0)"/>
     <use xlink:href="#DejaVuSans-6f" transform="translate(606.550781 0)"/>
    </g>
   </g>
   <g id="text_11">
    <!-- Compromiso sesgo–varianza -->
    <g style="fill: #2c3e50" transform="translate(23.781563 19.3575) scale(0.16 -0.16)">
     <defs>
      <path id="DejaVuSans-Bold-43" d="M 4288 256 
Q 3956 84 3597 -3 
Q 3238 -91 2847 -91 
Q 1681 -91 1000 561 
Q 319 1213 319 2328 
Q 319 3447 1000 4098 
Q 1681 4750 2847 4750 
Q 3238 4750 3597 4662 
Q 3956 4575 4288 4403 
L 4288 3438 
Q 3953 3666 3628 3772 
Q 3303 3878 2944 3878 
Q 2300 3878 1931 3465 
Q 1563 3053 1563 2328 
Q 1563 1606 1931 1193 
Q 2300 781 2944 781 
Q 3303 781 3628 887 
Q 3953 994 4288 1222 
L 4288 256 
z
" transform="scale(0.015625)"/>
      <path id="DejaVuSans-Bold-6d" d="M 3781 2919 
Q 3994 3244 4286 3414 
Q 4578 3584 4928 3584 
Q 5531 3584 5847 3212 
Q 6163 2841 6163 2131 
L 6163 0 
L 5038 0 
L 5038 1825 
Q 5041 1866 5042 1909 
Q 5044 1953 5044 2034 
Q 5044 2406 4934 2573 
Q 4825 2741 4581 2741 
Q 4263 2741 4089 2478 
Q 3916 2216 3909 1719 
L 3909 0 
L 2784 0 
L 2784 1825 
Q 2784 2406 2684 2573 
Q 2584 2741 2328 2741 
Q 2006 2741 1831 2477 
Q 1656 2213 1656 1722 
L 1656 0 
L 531 0 
L 531 3500 
L 1656 3500 
L 1656 2988 
Q 1863 3284 2130 3434 
Q 2397 3584 2719 3584 
Q 3081 3584 3359 3409 
Q 3638 3234 3781 2919 
z
" transform="scale(0.015625)"/>
      <path id="DejaVuSans-Bold-70" d="M 1656 506 
L 1656 -1331 
L 538 -1331 
L 538 3500 
L 1656 3500 
L 1656 2988 
Q 1888 3294 2169 3439 
Q 2450 3584 2816 3584 
Q 3463 3584 3878 3070 
Q 4294 2556 4294 1747 
Q 4294 938 3878 423 
Q 3463 -91 2816 -91 
Q 2450 -91 2169 54 
Q 1888 200 1656 506 
z
M 2400 2772 
Q 2041 2772 1848 2508 
Q 1656 2244 1656 1747 
Q 1656 1250 1848 986 
Q 2041 722 2400 722 
Q 2759 722 2948 984 
Q 3138 1247 3138 1747 
Q 3138 2247 2948 2509 
Q 2759 2772 2400 2772 
z
" transform="scale(0.015625)"/>
      <path id="DejaVuSans-Bold-2013" d="M 344 2156 
L 2856 2156 
L 2856 1350 
L 344 1350 
L 344 2156 
z
" transform="scale(0.015625)"/>
     </defs>
     <use xlink:href="#DejaVuSans-Bold-43"/>
     <use xlink:href="#DejaVuSans-Bold-6f" transform="translate(73.388672 0)"/>
     <use xlink:href="#DejaVuSans-Bold-6d" transform="translate(142.089844 0)"/>
     <use xlink:href="#DejaVuSans-Bold-70" transform="translate(246.289062 0)"/>
     <use xlink:href="#DejaVuSans-Bold-72" transform="translate(317.871094 0)"/>
     <use xlink:href="#DejaVuSans-Bold-6f" transform="translate(367.1875 0)"/>
     <use xlink:href="#DejaVuSans-Bold-6d" transform="translate(435.888672 0)"/>
     <use xlink:href="#DejaVuSans-Bold-69" transform="translate(540.087891 0)"/>
     <use xlink:href="#DejaVuSans-Bold-73" transform="translate(574.365234 0)"/>
     <use xlink:href="#DejaVuSans-Bold-6f" transform="translate(633.886719 0)"/>
     <use xlink:href="#DejaVuSans-Bold-20" transform="translate(702.587891 0)"/>
     <use xlink:href="#DejaVuSans-Bold-73" transform="translate(737.402344 0)"/>
     <use xlink:href="#DejaVuSans-Bold-65" transform="translate(796.923828 0)"/>
     <use xlink:href="#DejaVuSans-Bold-73" transform="translate(864.746094 0)"/>
     <use xlink:href="#DejaVuSans-Bold-67" transform="translate(924.267578 0)"/>
     <use xlink:href="#DejaVuSans-Bold-6f" transform="translate(995.849609 0)"/>
     <use xlink:href="#DejaVuSans-Bold-2013" transform="translate(1064.550781 0)"/>
     <use xlink:href="#DejaVuSans-Bold-76" transform="translate(1114.550781 0)"/>
     <use xlink:href="#DejaVuSans-Bold-61" transform="translate(1179.736328 0)"/>
     <use xlink:href="#DejaVuSans-Bold-72" transform="translate(1247.216797 0)"/>
     <use xlink:href="#DejaVuSans-Bold-69" transform="translate(1296.533203 0)"/>
     <use xlink:href="#DejaVuSans-Bold-61" transform="translate(1330.810547 0)"/>
     <use xlink:href="#DejaVuSans-Bold-6e" transform="translate(1398.291016 0)"/>
     <use xlink:href="#DejaVuSans-Bold-7a" transform="translate(1469.482422 0)"/>
     <use xlink:href="#DejaVuSans-Bold-61" transform="translate(1527.685547 0)"/>
    </g>
   </g>
   <g id="PathCollection_1">
    <defs>
     <path id="m9f3475fd39" d="M 0 4.472136 
C 1.186024 4.472136 2.323632 4.000923 3.162278 3.162278 
C 4.000923 2.323632 4.472136 1.186024 4.472136 0 
C 4.472136 -1.186024 4.000923 -2.323632 3.162278 -3.162278 
C 2.323632 -4.000923 1.186024 -4.472136 0 -4.472136 
C -1.186024 -4.472136 -2.323632 -4.000923 -3.162278 -3.162278 
C -4.000923 -2.323632 -4.472136 -1.186024 -4.472136 0 
C -4.472136 1.186024 -4.000923 2.323632 -3.162278 3.162278 
C -2.323632 4.000923 -1.186024 4.472136 0 4.472136 
z
" style="stroke: #ffffff"/>
    </defs>
    <g clip-path="url(#pd4fcec6e42)">
     <use xlink:href="#m9f3475fd39" x="281.199937" y="225.533963" style="fill: #2e8b57; stroke: #ffffff"/>
    </g>
   </g>
   <g id="legend_1">
    <g id="line2d_14">
     <path d="M 213.6525 41.730547 
L 226.1525 41.730547 
L 238.6525 41.730547 
" style="fill: none; stroke: #3498db; stroke-width: 3; stroke-linecap: square"/>
    </g>
    <g id="text_12">
     <!-- Error en entrenamiento -->
     <g transform="translate(248.6525 46.105547) scale(0.125 -0.125)">
      <use xlink:href="#DejaVuSans-45"/>
      <use xlink:href="#DejaVuSans-72" transform="translate(63.183594 0)"/>
      <use xlink:href="#DejaVuSans-72" transform="translate(102.546875 0)"/>
      <use xlink:href="#DejaVuSans-6f" transform="translate(141.410156 0)"/>
      <use xlink:href="#DejaVuSans-72" transform="translate(202.591797 0)"/>
      <use xlink:href="#DejaVuSans-20" transform="translate(243.705078 0)"/>
      <use xlink:href="#DejaVuSans-65" transform="translate(275.492188 0)"/>
      <use xlink:href="#DejaVuSans-6e" transform="translate(337.015625 0)"/>
      <use xlink:href="#DejaVuSans-20" transform="translate(400.394531 0)"/>
      <use xlink:href="#DejaVuSans-65" transform="translate(432.181641 0)"/>
      <use xlink:href="#DejaVuSans-6e" transform="translate(493.705078 0)"/>
      <use xlink:href="#DejaVuSans-74" transform="translate(557.083984 0)"/>
      <use xlink:href="#DejaVuSans-72" transform="translate(596.292969 0)"/>
      <use xlink:href="#DejaVuSans-65" transform="translate(635.15625 0)"/>
      <use xlink:href="#DejaVuSans-6e" transform="translate(696.679688 0)"/>
      <use xlink:href="#DejaVuSans-61" transform="translate(760.058594 0)"/>
      <use xlink:href="#DejaVuSans-6d" transform="translate(821.337891 0)"/>
      <use xlink:href="#DejaVuSans-69" transform="translate(918.75 0)"/>
      <use xlink:href="#DejaVuSans-65" transform="translate(946.533203 0)"/>
      <use xlink:href="#DejaVuSans-6e" transform="translate(1008.056641 0)"/>
      <use xlink:href="#DejaVuSans-74" transform="translate(1071.435547 0)"/>
      <use xlink:href="#DejaVuSans-6f" transform="translate(1110.644531 0)"/>
     </g>
    </g>
    <g id="line2d_15">
     <path d="M 213.6525 60.078203 
L 226.1525 60.078203 
L 238.6525 60.078203 
" style="fill: none; stroke: #8b1538; stroke-width: 3; stroke-linecap: square"/>
    </g>
    <g id="text_13">
     <!-- Error en validación -->
     <g transform="translate(248.6525 64.453203) scale(0.125 -0.125)">
      <defs>
       <path id="DejaVuSans-76" d="M 191 3500 
L 800 3500 
L 1894 563 
L 2988 3500 
L 3597 3500 
L 2284 0 
L 1503 0 
L 191 3500 
z
" transform="scale(0.015625)"/>
       <path id="DejaVuSans-63" d="M 3122 3366 
L 3122 2828 
Q 2878 2963 2633 3030 
Q 2388 3097 2138 3097 
Q 1578 3097 1268 2742 
Q 959 2388 959 1747 
Q 959 1106 1268 751 
Q 1578 397 2138 397 
Q 2388 397 2633 464 
Q 2878 531 3122 666 
L 3122 134 
Q 2881 22 2623 -34 
Q 2366 -91 2075 -91 
Q 1284 -91 818 406 
Q 353 903 353 1747 
Q 353 2603 823 3093 
Q 1294 3584 2113 3584 
Q 2378 3584 2631 3529 
Q 2884 3475 3122 3366 
z
" transform="scale(0.015625)"/>
      </defs>
      <use xlink:href="#DejaVuSans-45"/>
      <use xlink:href="#DejaVuSans-72" transform="translate(63.183594 0)"/>
      <use xlink:href="#DejaVuSans-72" transform="translate(102.546875 0)"/>
      <use xlink:href="#DejaVuSans-6f" transform="translate(141.410156 0)"/>
      <use xlink:href="#DejaVuSans-72" transform="translate(202.591797 0)"/>
      <use xlink:href="#DejaVuSans-20" transform="translate(243.705078 0)"/>
      <use xlink:href="#DejaVuSans-65" transform="translate(275.492188 0)"/>
      <use xlink:href="#DejaVuSans-6e" transform="translate(337.015625 0)"/>
      <use xlink:href="#DejaVuSans-20" transform="translate(400.394531 0)"/>
      <use xlink:href="#DejaVuSans-76" transform="translate(432.181641 0)"/>
      <use xlink:href="#DejaVuSans-61" transform="translate(491.361328 0)"/>
      <use xlink:href="#DejaVuSans-6c" transform="translate(552.640625 0)"/>
      <use xlink:href="#DejaVuSans-69" transform="translate(580.423828 0)"/>
      <use xlink:href="#DejaVuSans-64" transform="translate(608.207031 0)"/>
      <use xlink:href="#DejaVuSans-61" transform="translate(671.683594 0)"/>
      <use xlink:href="#DejaVuSans-63" transform="translate(732.962891 0)"/>
      <use xlink:href="#DejaVuSans-69" transform="translate(787.943359 0)"/>
      <use xlink:href="#DejaVuSans-f3" transform="translate(815.726562 0)"/>
      <use xlink:href="#DejaVuSans-6e" transform="translate(876.908203 0)"/>
     </g>
    </g>
   </g>
  </g>
 </g>
 <defs>
  <clipPath id="pd4fcec6e42">
   <rect x="23.781563" y="25.3575" width="561.218438" height="257.563281"/>
  </clipPath>
 </defs>
</svg>
